  0
SECTION
  2
HEADER
  9
$ACADVER
  1
AC1024
  9
$ACADMAINTVER
 70
6
  9
$DWGCODEPAGE
  3
ANSI_1252
  9
$LASTSAVEDBY
  1
ezdxf
  9
$INSBASE
 10
0.0
 20
0.0
 30
0.0
  9
$EXTMIN
 10
1e+20
 20
1e+20
 30
1e+20
  9
$EXTMAX
 10
-1e+20
 20
-1e+20
 30
-1e+20
  9
$LIMMIN
 10
0.0
 20
0.0
  9
$LIMMAX
 10
420.0
 20
297.0
  9
$ORTHOMODE
 70
0
  9
$REGENMODE
 70
1
  9
$FILLMODE
 70
1
  9
$QTEXTMODE
 70
0
  9
$MIRRTEXT
 70
1
  9
$LTSCALE
 40
1.0
  9
$ATTMODE
 70
1
  9
$TEXTSIZE
 40
2.5
  9
$TRACEWID
 40
1.0
  9
$TEXTSTYLE
  7
Standard
  9
$CLAYER
  8
0
  9
$CELTYPE
  6
ByLayer
  9
$CECOLOR
 62
256
  9
$CELTSCALE
 40
1.0
  9
$DISPSILH
 70
0
  9
$DIMSCALE
 40
1.0
  9
$DIMASZ
 40
2.5
  9
$DIMEXO
 40
0.625
  9
$DIMDLI
 40
3.75
  9
$DIMRND
 40
0.0
  9
$DIMDLE
 40
0.0
  9
$DIMEXE
 40
1.25
  9
$DIMTP
 40
0.0
  9
$DIMTM
 40
0.0
  9
$DIMTXT
 40
2.5
  9
$DIMCEN
 40
2.5
  9
$DIMTSZ
 40
0.0
  9
$DIMTOL
 70
0
  9
$DIMLIM
 70
0
  9
$DIMTIH
 70
0
  9
$DIMTOH
 70
0
  9
$DIMSE1
 70
0
  9
$DIMSE2
 70
0
  9
$DIMTAD
 70
1
  9
$DIMZIN
 70
8
  9
$DIMBLK
  1

  9
$DIMASO
 70
1
  9
$DIMSHO
 70
1
  9
$DIMPOST
  1

  9
$DIMAPOST
  1

  9
$DIMALT
 70
0
  9
$DIMALTD
 70
3
  9
$DIMALTF
 40
0.03937007874
  9
$DIMLFAC
 40
1.0
  9
$DIMTOFL
 70
1
  9
$DIMTVP
 40
0.0
  9
$DIMTIX
 70
0
  9
$DIMSOXD
 70
0
  9
$DIMSAH
 70
0
  9
$DIMBLK1
  1

  9
$DIMBLK2
  1

  9
$DIMSTYLE
  2
ISO-25
  9
$DIMCLRD
 70
0
  9
$DIMCLRE
 70
0
  9
$DIMCLRT
 70
0
  9
$DIMTFAC
 40
1.0
  9
$DIMGAP
 40
0.625
  9
$DIMJUST
 70
0
  9
$DIMSD1
 70
0
  9
$DIMSD2
 70
0
  9
$DIMTOLJ
 70
0
  9
$DIMTZIN
 70
8
  9
$DIMALTZ
 70
0
  9
$DIMALTTZ
 70
0
  9
$DIMUPT
 70
0
  9
$DIMDEC
 70
2
  9
$DIMTDEC
 70
2
  9
$DIMALTU
 70
2
  9
$DIMALTTD
 70
3
  9
$DIMTXSTY
  7
Standard
  9
$DIMAUNIT
 70
0
  9
$DIMADEC
 70
0
  9
$DIMALTRND
 40
0.0
  9
$DIMAZIN
 70
0
  9
$DIMDSEP
 70
44
  9
$DIMATFIT
 70
3
  9
$DIMFRAC
 70
0
  9
$DIMLDRBLK
  1

  9
$DIMLUNIT
 70
2
  9
$DIMLWD
 70
-2
  9
$DIMLWE
 70
-2
  9
$DIMTMOVE
 70
0
  9
$DIMFXL
 40
1.0
  9
$DIMFXLON
 70
0
  9
$DIMJOGANG
 40
0.785398163397
  9
$DIMTFILL
 70
0
  9
$DIMTFILLCLR
 70
0
  9
$DIMARCSYM
 70
0
  9
$DIMLTYPE
  6

  9
$DIMLTEX1
  6

  9
$DIMLTEX2
  6

  9
$DIMTXTDIRECTION
 70
0
  9
$LUNITS
 70
2
  9
$LUPREC
 70
4
  9
$SKETCHINC
 40
1.0
  9
$FILLETRAD
 40
10.0
  9
$AUNITS
 70
0
  9
$AUPREC
 70
2
  9
$MENU
  1
.
  9
$ELEVATION
 40
0.0
  9
$PELEVATION
 40
0.0
  9
$THICKNESS
 40
0.0
  9
$LIMCHECK
 70
0
  9
$CHAMFERA
 40
0.0
  9
$CHAMFERB
 40
0.0
  9
$CHAMFERC
 40
0.0
  9
$CHAMFERD
 40
0.0
  9
$SKPOLY
 70
0
  9
$TDCREATE
 40
2461139.5639236113
  9
$TDUCREATE
 40
2458532.153996898
  9
$TDUPDATE
 40
2461139.5639236113
  9
$TDUUPDATE
 40
2458532.1544311
  9
$TDINDWG
 40
0.0
  9
$TDUSRTIMER
 40
0.0
  9
$USRTIMER
 70
1
  9
$ANGBASE
 50
0.0
  9
$ANGDIR
 70
0
  9
$PDMODE
 70
0
  9
$PDSIZE
 40
0.0
  9
$PLINEWID
 40
0.0
  9
$SPLFRAME
 70
0
  9
$SPLINETYPE
 70
6
  9
$SPLINESEGS
 70
8
  9
$HANDSEED
  5
39
  9
$SURFTAB1
 70
6
  9
$SURFTAB2
 70
6
  9
$SURFTYPE
 70
6
  9
$SURFU
 70
6
  9
$SURFV
 70
6
  9
$UCSBASE
  2

  9
$UCSNAME
  2

  9
$UCSORG
 10
0.0
 20
0.0
 30
0.0
  9
$UCSXDIR
 10
1.0
 20
0.0
 30
0.0
  9
$UCSYDIR
 10
0.0
 20
1.0
 30
0.0
  9
$UCSORTHOREF
  2

  9
$UCSORTHOVIEW
 70
0
  9
$UCSORGTOP
 10
0.0
 20
0.0
 30
0.0
  9
$UCSORGBOTTOM
 10
0.0
 20
0.0
 30
0.0
  9
$UCSORGLEFT
 10
0.0
 20
0.0
 30
0.0
  9
$UCSORGRIGHT
 10
0.0
 20
0.0
 30
0.0
  9
$UCSORGFRONT
 10
0.0
 20
0.0
 30
0.0
  9
$UCSORGBACK
 10
0.0
 20
0.0
 30
0.0
  9
$PUCSBASE
  2

  9
$PUCSNAME
  2

  9
$PUCSORG
 10
0.0
 20
0.0
 30
0.0
  9
$PUCSXDIR
 10
1.0
 20
0.0
 30
0.0
  9
$PUCSYDIR
 10
0.0
 20
1.0
 30
0.0
  9
$PUCSORTHOREF
  2

  9
$PUCSORTHOVIEW
 70
0
  9
$PUCSORGTOP
 10
0.0
 20
0.0
 30
0.0
  9
$PUCSORGBOTTOM
 10
0.0
 20
0.0
 30
0.0
  9
$PUCSORGLEFT
 10
0.0
 20
0.0
 30
0.0
  9
$PUCSORGRIGHT
 10
0.0
 20
0.0
 30
0.0
  9
$PUCSORGFRONT
 10
0.0
 20
0.0
 30
0.0
  9
$PUCSORGBACK
 10
0.0
 20
0.0
 30
0.0
  9
$USERI1
 70
0
  9
$USERI2
 70
0
  9
$USERI3
 70
0
  9
$USERI4
 70
0
  9
$USERI5
 70
0
  9
$USERR1
 40
0.0
  9
$USERR2
 40
0.0
  9
$USERR3
 40
0.0
  9
$USERR4
 40
0.0
  9
$USERR5
 40
0.0
  9
$WORLDVIEW
 70
1
  9
$SHADEDGE
 70
3
  9
$SHADEDIF
 70
70
  9
$TILEMODE
 70
1
  9
$MAXACTVP
 70
64
  9
$PINSBASE
 10
0.0
 20
0.0
 30
0.0
  9
$PLIMCHECK
 70
0
  9
$PEXTMIN
 10
1e+20
 20
1e+20
 30
1e+20
  9
$PEXTMAX
 10
-1e+20
 20
-1e+20
 30
-1e+20
  9
$PLIMMIN
 10
0.0
 20
0.0
  9
$PLIMMAX
 10
420.0
 20
297.0
  9
$UNITMODE
 70
0
  9
$VISRETAIN
 70
1
  9
$PLINEGEN
 70
0
  9
$PSLTSCALE
 70
1
  9
$TREEDEPTH
 70
3020
  9
$CMLSTYLE
  2
Standard
  9
$CMLJUST
 70
0
  9
$CMLSCALE
 40
20.0
  9
$PROXYGRAPHICS
 70
1
  9
$MEASUREMENT
 70
1
  9
$CELWEIGHT
370
-1
  9
$ENDCAPS
280
0
  9
$JOINSTYLE
280
0
  9
$LWDISPLAY
290
0
  9
$INSUNITS
 70
6
  9
$HYPERLINKBASE
  1

  9
$STYLESHEET
  1

  9
$XEDIT
290
1
  9
$CEPSNTYPE
380
0
  9
$PSTYLEMODE
290
1
  9
$FINGERPRINTGUID
  2
{4B3E4A56-E4C6-4490-A882-E2AB39F3AECD}
  9
$VERSIONGUID
  2
{22C9A3E6-04C7-48B4-B0D9-C166BA5C4D07}
  9
$EXTNAMES
290
1
  9
$PSVPSCALE
 40
0.0
  9
$OLESTARTUP
290
0
  9
$SORTENTS
280
127
  9
$INDEXCTL
280
0
  9
$HIDETEXT
280
1
  9
$XCLIPFRAME
280
1
  9
$HALOGAP
280
0
  9
$OBSCOLOR
 70
257
  9
$OBSLTYPE
280
0
  9
$INTERSECTIONDISPLAY
280
0
  9
$INTERSECTIONCOLOR
 70
257
  9
$DIMASSOC
280
2
  9
$PROJECTNAME
  1

  9
$CAMERADISPLAY
290
0
  9
$LENSLENGTH
 40
50.0
  9
$CAMERAHEIGHT
 40
0.0
  9
$STEPSPERSEC
 40
24.0
  9
$STEPSIZE
 40
100.0
  9
$3DDWFPREC
 40
2.0
  9
$PSOLWIDTH
 40
0.005
  9
$PSOLHEIGHT
 40
0.08
  9
$LOFTANG1
 40
1.570796326795
  9
$LOFTANG2
 40
1.570796326795
  9
$LOFTMAG1
 40
0.0
  9
$LOFTMAG2
 40
0.0
  9
$LOFTPARAM
 70
7
  9
$LOFTNORMALS
280
1
  9
$LATITUDE
 40
37.795
  9
$LONGITUDE
 40
-122.394
  9
$NORTHDIRECTION
 40
0.0
  9
$TIMEZONE
 70
-8000
  9
$LIGHTGLYPHDISPLAY
280
1
  9
$TILEMODELIGHTSYNCH
280
1
  9
$CMATERIAL
347
20
  9
$SOLIDHIST
280
0
  9
$SHOWHIST
280
1
  9
$DWFFRAME
280
2
  9
$DGNFRAME
280
2
  9
$REALWORLDSCALE
290
1
  9
$INTERFERECOLOR
 62
256
  9
$CSHADOW
280
0
  9
$SHADOWPLANELOCATION
 40
0.0
  0
ENDSEC
  0
SECTION
  2
CLASSES
  0
CLASS
  1
ACDBDICTIONARYWDFLT
  2
AcDbDictionaryWithDefault
  3
ObjectDBX Classes
 90
0
 91
0
280
0
281
0
  0
CLASS
  1
SUN
  2
AcDbSun
  3
SCENEOE
 90
1153
 91
0
280
0
281
0
  0
CLASS
  1
VISUALSTYLE
  2
AcDbVisualStyle
  3
ObjectDBX Classes
 90
4095
 91
0
280
0
281
0
  0
CLASS
  1
MATERIAL
  2
AcDbMaterial
  3
ObjectDBX Classes
 90
1153
 91
0
280
0
281
0
  0
CLASS
  1
SCALE
  2
AcDbScale
  3
ObjectDBX Classes
 90
1153
 91
0
280
0
281
0
  0
CLASS
  1
TABLESTYLE
  2
AcDbTableStyle
  3
ObjectDBX Classes
 90
4095
 91
0
280
0
281
0
  0
CLASS
  1
MLEADERSTYLE
  2
AcDbMLeaderStyle
  3
ACDB_MLEADERSTYLE_CLASS
 90
4095
 91
0
280
0
281
0
  0
CLASS
  1
DICTIONARYVAR
  2
AcDbDictionaryVar
  3
ObjectDBX Classes
 90
0
 91
0
280
0
281
0
  0
CLASS
  1
CELLSTYLEMAP
  2
AcDbCellStyleMap
  3
ObjectDBX Classes
 90
1152
 91
0
280
0
281
0
  0
CLASS
  1
MENTALRAYRENDERSETTINGS
  2
AcDbMentalRayRenderSettings
  3
SCENEOE
 90
1024
 91
0
280
0
281
0
  0
CLASS
  1
ACDBDETAILVIEWSTYLE
  2
AcDbDetailViewStyle
  3
ObjectDBX Classes
 90
1025
 91
0
280
0
281
0
  0
CLASS
  1
ACDBSECTIONVIEWSTYLE
  2
AcDbSectionViewStyle
  3
ObjectDBX Classes
 90
1025
 91
0
280
0
281
0
  0
CLASS
  1
RASTERVARIABLES
  2
AcDbRasterVariables
  3
ISM
 90
0
 91
0
280
0
281
0
  0
CLASS
  1
ACDBPLACEHOLDER
  2
AcDbPlaceHolder
  3
ObjectDBX Classes
 90
0
 91
0
280
0
281
0
  0
CLASS
  1
LAYOUT
  2
AcDbLayout
  3
ObjectDBX Classes
 90
0
 91
0
280
0
281
0
  0
ENDSEC
  0
SECTION
  2
TABLES
  0
TABLE
  2
VPORT
  5
8
330
0
100
AcDbSymbolTable
 70
1
  0
VPORT
  5
23
330
8
100
AcDbSymbolTableRecord
100
AcDbViewportTableRecord
  2
*Active
 70
0
 10
0.0
 20
0.0
 11
1.0
 21
1.0
 12
0.0
 22
0.0
 13
0.0
 23
0.0
 14
0.5
 24
0.5
 15
0.5
 25
0.5
 16
0.0
 26
0.0
 36
1.0
 17
0.0
 27
0.0
 37
0.0
 40
1000.0
 41
1.34
 42
50.0
 43
0.0
 44
0.0
 50
0.0
 51
0.0
 71
0
 72
1000
 73
1
 74
3
 75
0
 76
0
 77
0
 78
0
281
0
 65
0
146
0.0
  0
ENDTAB
  0
TABLE
  2
LTYPE
  5
2
330
0
100
AcDbSymbolTable
 70
3
  0
LTYPE
  5
24
330
2
100
AcDbSymbolTableRecord
100
AcDbLinetypeTableRecord
  2
ByBlock
 70
0
  3

 72
65
 73
0
 40
0.0
  0
LTYPE
  5
25
330
2
100
AcDbSymbolTableRecord
100
AcDbLinetypeTableRecord
  2
ByLayer
 70
0
  3

 72
65
 73
0
 40
0.0
  0
LTYPE
  5
26
330
2
100
AcDbSymbolTableRecord
100
AcDbLinetypeTableRecord
  2
Continuous
 70
0
  3

 72
65
 73
0
 40
0.0
  0
ENDTAB
  0
TABLE
  2
LAYER
  5
1
330
0
100
AcDbSymbolTable
 70
4
  0
LAYER
  5
27
330
1
100
AcDbSymbolTableRecord
100
AcDbLayerTableRecord
  2
0
 70
0
 62
7
  6
Continuous
370
-3
390
13
347
21
  0
LAYER
  5
28
330
1
100
AcDbSymbolTableRecord
100
AcDbLayerTableRecord
  2
Defpoints
 70
0
 62
7
  6
Continuous
290
0
370
-3
390
13
347
21
  0
LAYER
  5
2F
330
1
100
AcDbSymbolTableRecord
100
AcDbLayerTableRecord
  2
Outline
 70
0
 62
7
  6
Continuous
370
-3
390
13
347
21
  0
LAYER
  5
30
330
1
100
AcDbSymbolTableRecord
100
AcDbLayerTableRecord
  2
BoundaryBox
 70
0
 62
3
  6
Continuous
370
-3
390
13
347
21
  0
ENDTAB
  0
TABLE
  2
STYLE
  5
5
330
0
100
AcDbSymbolTable
 70
1
  0
STYLE
  5
29
330
5
100
AcDbSymbolTableRecord
100
AcDbTextStyleTableRecord
  2
Standard
 70
0
 40
0.0
 41
1.0
 50
0.0
 71
0
 42
2.5
  3
txt
  4

  0
ENDTAB
  0
TABLE
  2
VIEW
  5
7
330
0
100
AcDbSymbolTable
 70
0
  0
ENDTAB
  0
TABLE
  2
UCS
  5
6
330
0
100
AcDbSymbolTable
 70
0
  0
ENDTAB
  0
TABLE
  2
APPID
  5
3
330
0
100
AcDbSymbolTable
 70
3
  0
APPID
  5
2A
330
3
100
AcDbSymbolTableRecord
100
AcDbRegAppTableRecord
  2
ACAD
 70
0
  0
APPID
  5
36
330
3
100
AcDbSymbolTableRecord
100
AcDbRegAppTableRecord
  2
HATCHBACKGROUNDCOLOR
 70
0
  0
APPID
  5
37
330
3
100
AcDbSymbolTableRecord
100
AcDbRegAppTableRecord
  2
EZDXF
 70
0
  0
ENDTAB
  0
TABLE
  2
DIMSTYLE
  5
4
330
0
100
AcDbSymbolTable
 70
1
100
AcDbDimStyleTable
  0
DIMSTYLE
105
2B
330
4
100
AcDbSymbolTableRecord
100
AcDbDimStyleTableRecord
  2
Standard
 70
0
 40
1.0
 41
2.5
 42
0.625
 43
3.75
 44
1.25
 45
0.0
 46
0.0
 47
0.0
 48
0.0
 49
2.5
140
2.5
141
2.5
142
0.0
143
0.03937007874
144
1.0
145
0.0
146
1.0
147
0.625
148
0.0
 69
0
 70
0
 71
0
 72
0
 73
0
 74
0
 75
0
 76
0
 77
1
 78
8
 79
3
170
0
171
3
172
1
173
0
174
0
175
0
176
0
177
0
178
0
179
2
271
2
272
2
273
2
274
3
275
0
276
0
277
2
278
44
279
0
280
0
281
0
282
0
283
0
284
8
285
0
286
0
288
0
289
3
290
0
371
-2
372
-2
  0
ENDTAB
  0
TABLE
  2
BLOCK_RECORD
  5
9
330
0
100
AcDbSymbolTable
 70
2
  0
BLOCK_RECORD
  5
17
330
9
100
AcDbSymbolTableRecord
100
AcDbBlockTableRecord
  2
*Model_Space
340
1A
 70
0
280
1
281
0
  0
BLOCK_RECORD
  5
1B
330
9
100
AcDbSymbolTableRecord
100
AcDbBlockTableRecord
  2
*Paper_Space
340
1E
 70
0
280
1
281
0
  0
ENDTAB
  0
ENDSEC
  0
SECTION
  2
BLOCKS
  0
BLOCK
  5
18
330
17
100
AcDbEntity
  8
0
100
AcDbBlockBegin
  2
*Model_Space
 70
0
 10
0.0
 20
0.0
 30
0.0
  3
*Model_Space
  1

  0
ENDBLK
  5
19
330
17
100
AcDbEntity
  8
0
100
AcDbBlockEnd
  0
BLOCK
  5
1C
330
1B
100
AcDbEntity
  8
0
100
AcDbBlockBegin
  2
*Paper_Space
 70
0
 10
0.0
 20
0.0
 30
0.0
  3
*Paper_Space
  1

  0
ENDBLK
  5
1D
330
1B
100
AcDbEntity
  8
0
100
AcDbBlockEnd
  0
ENDSEC
  0
SECTION
  2
ENTITIES
  0
LWPOLYLINE
  5
31
330
17
100
AcDbEntity
  8
BoundaryBox
100
AcDbPolyline
 90
5
 70
1
 10
0.0
 20
14.421231269836426
 10
11.688030242919922
 20
14.421231269836426
 10
11.688030242919922
 20
0.0
 10
0.0
 20
0.0
 10
0.0
 20
14.421231269836426
  0
LWPOLYLINE
  5
32
330
17
100
AcDbEntity
  8
Outline
100
AcDbPolyline
 90
273
 70
0
 10
1.4025636911392212
 20
13.522151947021484
 10
1.3845820426940918
 20
13.504170417785645
 10
1.366600513458252
 20
13.504170417785645
 10
1.3306373357772827
 20
13.468207359313965
 10
1.3126556873321533
 20
13.468207359313965
 10
1.2407293319702148
 20
13.396281242370605
 10
1.222747802734375
 20
13.396281242370605
 10
1.2047661542892456
 20
13.378299713134766
 10
1.2047661542892456
 20
13.360318183898926
 10
1.1688029766082764
 20
13.32435417175293
 10
1.1688029766082764
 20
13.30637264251709
 10
1.1508214473724365
 20
13.28839111328125
 10
1.1508214473724365
 20
13.23444652557373
 10
1.1328399181365967
 20
13.21646499633789
 10
1.1328399181365967
 20
13.180501937866211
 10
1.1148582696914673
 20
13.162520408630371
 10
1.1148582696914673
 20
13.108575820922852
 10
1.0968767404556274
 20
13.090594291687012
 10
1.0968767404556274
 20
12.766925811767578
 10
1.078895092010498
 20
12.748944282531738
 10
1.078895092010498
 20
12.551146507263184
 10
1.0968767404556274
 20
12.533164978027344
 10
1.0968767404556274
 20
12.371330261230469
 10
1.1148582696914673
 20
12.353348731994629
 10
1.1148582696914673
 20
12.17353343963623
 10
1.1328399181365967
 20
12.15555191040039
 10
1.1328399181365967
 20
11.849864959716797
 10
1.1508214473724365
 20
11.831883430480957
 10
1.1508214473724365
 20
11.795919418334961
 10
1.1328399181365967
 20
11.777937889099121
 10
1.1328399181365967
 20
11.634085655212402
 10
1.1508214473724365
 20
11.616104125976562
 10
1.1508214473724365
 20
11.526196479797363
 10
1.1328399181365967
 20
11.508214950561523
 10
1.1328399181365967
 20
11.382343292236328
 10
1.1508214473724365
 20
11.364361763000488
 10
1.1508214473724365
 20
10.591154098510742
 10
1.1328399181365967
 20
10.573171615600586
 10
1.1328399181365967
 20
10.519227027893066
 10
1.1508214473724365
 20
10.501245498657227
 10
1.1508214473724365
 20
10.429319381713867
 10
1.1328399181365967
 20
10.411337852478027
 10
1.1508214473724365
 20
10.393356323242188
 10
1.1508214473724365
 20
9.925834655761719
 10
1.1688029766082764
 20
9.907853126525879
 10
1.1688029766082764
 20
9.548221588134766
 10
1.1508214473724365
 20
9.530240058898926
 10
1.1508214473724365
 20
9.458313941955566
 10
1.1328399181365967
 20
9.440332412719727
 10
1.1328399181365967
 20
9.404369354248047
 10
1.1148582696914673
 20
9.386387825012207
 10
1.1148582696914673
 20
9.368406295776367
 10
1.0968767404556274
 20
9.350423812866211
 10
1.0968767404556274
 20
9.296479225158691
 10
1.078895092010498
 20
9.278497695922852
 10
1.078895092010498
 20
9.260516166687012
 10
1.0609135627746582
 20
9.242534637451172
 10
1.0609135627746582
 20
9.224553108215332
 10
1.0429319143295288
 20
9.206571578979492
 10
1.0429319143295288
 20
9.188590049743652
 10
1.024950385093689
 20
9.170608520507812
 10
1.024950385093689
 20
9.152626991271973
 10
0.9889872074127197
 20
9.116663932800293
 10
0.9889872074127197
 20
9.098682403564453
 10
0.9710056185722351
 20
9.080700874328613
 10
0.9710056185722351
 20
9.062719345092773
 10
0.8451344966888428
 20
8.936847686767578
 10
0.7732081413269043
 20
8.936847686767578
 10
0.7552265524864197
 20
8.954829216003418
 10
0.6653186678886414
 20
8.954829216003418
 10
0.6473370790481567
 20
8.936847686767578
 10
0.5933923125267029
 20
8.936847686767578
 10
0.5574291348457336
 20
8.900884628295898
 10
0.5574291348457336
 20
8.864921569824219
 10
0.5754107236862183
 20
8.846940040588379
 10
0.5754107236862183
 20
8.8109769821167
 10
0.5933923125267029
 20
8.79299545288086
 10
0.5933923125267029
 20
8.77501392364502
 10
0.6113739013671875
 20
8.75703239440918
 10
0.6113739013671875
 20
8.739049911499023
 10
0.6293554902076721
 20
8.721068382263184
 10
0.6293554902076721
 20
8.577216148376465
 10
0.6113739013671875
 20
8.559234619140625
 10
0.6113739013671875
 20
8.523271560668945
 10
0.6293554902076721
 20
8.505290031433105
 10
0.6293554902076721
 20
8.487308502197266
 10
0.6473370790481567
 20
8.469326972961426
 10
0.6473370790481567
 20
8.451345443725586
 10
0.6653186678886414
 20
8.43336296081543
 10
0.6653186678886414
 20
8.39739990234375
 10
0.683300256729126
 20
8.37941837310791
 10
0.683300256729126
 20
8.36143684387207
 10
0.6653186678886414
 20
8.34345531463623
 10
0.6653186678886414
 20
8.30749225616455
 10
0.683300256729126
 20
8.289510726928711
 10
0.683300256729126
 20
8.199603080749512
 10
0.7012818455696106
 20
8.181621551513672
 10
0.7012818455696106
 20
8.055749893188477
 10
0.7192634344100952
 20
8.037768363952637
 10
0.7192634344100952
 20
8.001805305480957
 10
0.7372449636459351
 20
7.983823776245117
 10
0.7372449636459351
 20
7.929879188537598
 10
0.7552265524864197
 20
7.911897659301758
 10
0.7552265524864197
 20
7.85795259475708
 10
0.7911897301673889
 20
7.8219895362854
 10
0.7911897301673889
 20
7.8040080070495605
 10
0.8451344966888428
 20
7.750063419342041
 10
0.8631160855293274
 20
7.750063419342041
 10
0.881097674369812
 20
7.732081413269043
 10
0.8990792632102966
 20
7.750063419342041
 10
0.9350424408912659
 20
7.750063419342041
 10
0.9710056185722351
 20
7.786026477813721
 10
0.9710056185722351
 20
7.8040080070495605
 10
0.9889872074127197
 20
7.8219895362854
 10
0.9889872074127197
 20
7.83997106552124
 10
1.0069687366485596
 20
7.85795259475708
 10
1.0069687366485596
 20
7.89391565322876
 10
1.024950385093689
 20
7.911897659301758
 10
1.024950385093689
 20
7.929879188537598
 10
1.0609135627746582
 20
7.965842247009277
 10
1.0609135627746582
 20
8.001805305480957
 10
1.078895092010498
 20
8.019786834716797
 10
1.078895092010498
 20
8.055749893188477
 10
1.1148582696914673
 20
8.091712951660156
 10
1.0968767404556274
 20
8.109694480895996
 10
1.0968767404556274
 20
8.145658493041992
 10
1.1148582696914673
 20
8.163640022277832
 10
1.1148582696914673
 20
8.181621551513672
 10
1.2047661542892456
 20
8.271529197692871
 10
1.2587109804153442
 20
8.271529197692871
 10
1.276692509651184
 20
8.253547668457031
 10
1.3306373357772827
 20
8.253547668457031
 10
1.3486188650131226
 20
8.235566139221191
 10
1.420545220375061
 20
8.235566139221191
 10
1.4744899272918701
 20
8.181621551513672
 10
1.4924715757369995
 20
8.181621551513672
 10
1.5104531049728394
 20
8.163640022277832
 10
1.5284347534179688
 20
8.163640022277832
 10
1.5823794603347778
 20
8.109694480895996
 10
1.6003611087799072
 20
8.109694480895996
 10
1.6363242864608765
 20
8.073731422424316
 10
1.6363242864608765
 20
8.055749893188477
 10
1.7262321710586548
 20
7.965842247009277
 10
1.7262321710586548
 20
7.929879188537598
 10
1.708250641822815
 20
7.911897659301758
 10
1.708250641822815
 20
7.89391565322876
 10
1.6902689933776855
 20
7.87593412399292
 10
1.6902689933776855
 20
7.83997106552124
 10
1.6722874641418457
 20
7.8219895362854
 10
1.6722874641418457
 20
7.8040080070495605
 10
1.6543058156967163
 20
7.786026477813721
 10
1.6543058156967163
 20
7.768044948577881
 10
1.6363242864608765
 20
7.750063419342041
 10
1.6363242864608765
 20
7.696118354797363
 10
1.618342638015747
 20
7.678136825561523
 10
1.618342638015747
 20
7.660155296325684
 10
1.6003611087799072
 20
7.642173767089844
 10
1.6003611087799072
 20
7.624192237854004
 10
1.5823794603347778
 20
7.606210708618164
 10
1.5823794603347778
 20
7.552265644073486
 10
1.564397931098938
 20
7.5342841148376465
 10
1.618342638015747
 20
7.480339527130127
 10
1.6363242864608765
 20
7.480339527130127
 10
1.6543058156967163
 20
7.462357997894287
 10
1.6902689933776855
 20
7.462357997894287
 10
1.708250641822815
 20
7.480339527130127
 10
1.762195348739624
 20
7.480339527130127
 10
1.7801768779754639
 20
7.498321056365967
 10
1.816140055656433
 20
7.498321056365967
 10
1.8341217041015625
 20
7.516302585601807
 10
1.8521032333374023
 20
7.516302585601807
 10
1.8700848817825317
 20
7.5342841148376465
 10
1.8880664110183716
 20
7.5342841148376465
 10
1.9240295886993408
 20
7.570247173309326
 10
1.9420112371444702
 20
7.570247173309326
 10
1.95999276638031
 20
7.588228702545166
 10
1.9779744148254395
 20
7.588228702545166
 10
2.049900770187378
 20
7.660155296325684
 10
2.0678822994232178
 20
7.660155296325684
 10
2.0858638286590576
 20
7.678136825561523
 10
2.0858638286590576
 20
7.696118354797363
 10
2.1398086547851562
 20
7.750063419342041
 10
2.157790184020996
 20
7.750063419342041
 10
2.157790184020996
 20
7.768044948577881
 10
2.175771713256836
 20
7.786026477813721
 10
2.175771713256836
 20
7.8040080070495605
 10
2.193753480911255
 20
7.8219895362854
 10
2.193753480911255
 20
7.83997106552124
 10
2.2117350101470947
 20
7.85795259475708
 10
2.2117350101470947
 20
7.87593412399292
 10
2.2297165393829346
 20
7.89391565322876
 10
2.2297165393829346
 20
7.911897659301758
 10
2.2476980686187744
 20
7.929879188537598
 10
2.2476980686187744
 20
7.965842247009277
 10
2.2656798362731934
 20
7.983823776245117
 10
2.2656798362731934
 20
8.001805305480957
 10
2.283661365509033
 20
8.019786834716797
 10
2.283661365509033
 20
8.217584609985352
 10
2.301642894744873
 20
8.235566139221191
 10
2.301642894744873
 20
8.271529197692871
 10
2.283661365509033
 20
8.289510726928711
 10
2.283661365509033
 20
8.32547378540039
 10
2.2656798362731934
 20
8.34345531463623
 10
2.2656798362731934
 20
8.36143684387207
 10
2.2476980686187744
 20
8.37941837310791
 10
2.2476980686187744
 20
8.41538143157959
 10
2.2297165393829346
 20
8.43336296081543
 10
2.2297165393829346
 20
8.523271560668945
 10
2.2117350101470947
 20
8.541253089904785
 10
2.2117350101470947
 20
8.577216148376465
 10
2.193753480911255
 20
8.595197677612305
 10
2.193753480911255
 20
8.649142265319824
 10
2.175771713256836
 20
8.667123794555664
 10
2.175771713256836
 20
8.685105323791504
 10
2.1398086547851562
 20
8.721068382263184
 10
2.157790184020996
 20
8.739049911499023
 10
2.157790184020996
 20
8.75703239440918
 10
2.1218271255493164
 20
8.75703239440918
 10
2.1038453578948975
 20
8.77501392364502
 10
2.1038453578948975
 20
8.8109769821167
 10
2.031919002532959
 20
8.882903099060059
 10
2.031919002532959
 20
8.936847686767578
 10
1.9420112371444702
 20
9.026755332946777
 10
1.9420112371444702
 20
9.044736862182617
 10
1.906048059463501
 20
9.080700874328613
 10
1.906048059463501
 20
9.134645462036133
 10
1.8700848817825317
 20
9.170608520507812
 10
1.8700848817825317
 20
9.206571578979492
 10
1.8521032333374023
 20
9.224553108215332
 10
1.8521032333374023
 20
9.242534637451172
 10
1.8700848817825317
 20
9.260516166687012
 10
1.8521032333374023
 20
9.278497695922852
 10
1.8521032333374023
 20
9.296479225158691
 10
1.8341217041015625
 20
9.314460754394531
 10
1.8341217041015625
 20
9.404369354248047
 10
1.816140055656433
 20
9.422350883483887
 10
1.816140055656433
 20
10.177577018737793
 10
1.8341217041015625
 20
10.195558547973633
 10
1.8341217041015625
 20
10.447300910949707
 10
1.8521032333374023
 20
10.465282440185547
 10
1.8521032333374023
 20
10.735006332397461
 10
1.8700848817825317
 20
10.7529878616333
 10
1.8700848817825317
 20
11.22050952911377
 10
1.8880664110183716
 20
11.23849105834961
 10
1.8880664110183716
 20
11.382343292236328
 10
1.906048059463501
 20
11.400324821472168
 10
1.906048059463501
 20
11.831883430480957
 10
1.9240295886993408
 20
11.849864959716797
 10
1.9240295886993408
 20
12.24545955657959
 10
1.9420112371444702
 20
12.26344108581543
 10
1.9420112371444702
 20
12.533164978027344
 10
1.95999276638031
 20
12.551146507263184
 10
1.95999276638031
 20
12.802888870239258
 10
1.9779744148254395
 20
12.820870399475098
 10
1.95999276638031
 20
12.838851928710938
 10
1.95999276638031
 20
13.126557350158691
 10
1.9420112371444702
 20
13.144538879394531
 10
1.9420112371444702
 20
13.21646499633789
 10
1.906048059463501
 20
13.25242805480957
 10
1.906048059463501
 20
13.27040958404541
 10
1.8880664110183716
 20
13.28839111328125
 10
1.8880664110183716
 20
13.30637264251709
 10
1.7801768779754639
 20
13.414262771606445
 10
1.762195348739624
 20
13.414262771606445
 10
1.708250641822815
 20
13.468207359313965
 10
1.6902689933776855
 20
13.468207359313965
 10
1.6543058156967163
 20
13.504170417785645
 10
1.618342638015747
 20
13.504170417785645
 10
1.6003611087799072
 20
13.522151947021484
 10
1.5823794603347778
 20
13.504170417785645
 10
1.564397931098938
 20
13.504170417785645
 10
1.5464162826538086
 20
13.522151947021484
 10
1.4025636911392212
 20
13.522151947021484
  0
LWPOLYLINE
  5
33
330
17
100
AcDbEntity
  8
Outline
100
AcDbPolyline
 90
341
 70
0
 10
3.5783355236053467
 20
13.30637264251709
 10
3.5603537559509277
 20
13.28839111328125
 10
3.524390697479248
 20
13.28839111328125
 10
3.506409168243408
 20
13.27040958404541
 10
3.4884274005889893
 20
13.27040958404541
 10
3.4524643421173096
 20
13.23444652557373
 10
3.4344828128814697
 20
13.23444652557373
 10
3.398519515991211
 20
13.19848346710205
 10
3.380537986755371
 20
13.19848346710205
 10
3.3086116313934326
 20
13.126557350158691
 10
3.3086116313934326
 20
13.108575820922852
 10
3.2906301021575928
 20
13.090594291687012
 10
3.2906301021575928
 20
13.072612762451172
 10
3.272648572921753
 20
13.054631233215332
 10
3.272648572921753
 20
12.982704162597656
 10
3.254666805267334
 20
12.964722633361816
 10
3.254666805267334
 20
12.425274848937988
 10
3.272648572921753
 20
12.407293319702148
 10
3.272648572921753
 20
12.065643310546875
 10
3.2906301021575928
 20
12.047661781311035
 10
3.2906301021575928
 20
11.616104125976562
 10
3.3086116313934326
 20
11.598122596740723
 10
3.3086116313934326
 20
11.508214950561523
 10
3.2906301021575928
 20
11.490232467651367
 10
3.2906301021575928
 20
11.292435646057129
 10
3.3086116313934326
 20
11.274454116821289
 10
3.3086116313934326
 20
11.040693283081055
 10
3.2906301021575928
 20
11.022711753845215
 10
3.2906301021575928
 20
10.950785636901855
 10
3.3086116313934326
 20
10.932804107666016
 10
3.3086116313934326
 20
10.051706314086914
 10
3.3265931606292725
 20
10.033724784851074
 10
3.3265931606292725
 20
9.83592700958252
 10
3.3445749282836914
 20
9.81794548034668
 10
3.3445749282836914
 20
8.918866157531738
 10
3.3625564575195312
 20
8.900884628295898
 10
3.3625564575195312
 20
8.828958511352539
 10
3.3445749282836914
 20
8.8109769821167
 10
3.3445749282836914
 20
8.703086853027344
 10
3.3625564575195312
 20
8.685105323791504
 10
3.3625564575195312
 20
8.613179206848145
 10
3.3445749282836914
 20
8.595197677612305
 10
3.3445749282836914
 20
8.37941837310791
 10
3.3265931606292725
 20
8.36143684387207
 10
3.3265931606292725
 20
8.271529197692871
 10
3.3086116313934326
 20
8.253547668457031
 10
3.3086116313934326
 20
8.235566139221191
 10
3.2906301021575928
 20
8.217584609985352
 10
3.2906301021575928
 20
8.181621551513672
 10
3.272648572921753
 20
8.163640022277832
 10
3.272648572921753
 20
8.073731422424316
 10
3.254666805267334
 20
8.055749893188477
 10
3.254666805267334
 20
8.019786834716797
 10
3.236685276031494
 20
8.001805305480957
 10
3.236685276031494
 20
7.965842247009277
 10
3.2187037467956543
 20
7.9478607177734375
 10
3.2187037467956543
 20
7.929879188537598
 10
3.2007222175598145
 20
7.911897659301758
 10
3.2007222175598145
 20
7.89391565322876
 10
3.1827404499053955
 20
7.87593412399292
 10
3.1827404499053955
 20
7.83997106552124
 10
3.1647589206695557
 20
7.8219895362854
 10
3.1647589206695557
 20
7.8040080070495605
 10
3.128795862197876
 20
7.768044948577881
 10
3.128795862197876
 20
7.750063419342041
 10
3.110814332962036
 20
7.732081413269043
 10
3.110814332962036
 20
7.696118354797363
 10
3.0568695068359375
 20
7.642173767089844
 10
3.0568695068359375
 20
7.624192237854004
 10
3.0209062099456787
 20
7.588228702545166
 10
3.0209062099456787
 20
7.570247173309326
 10
2.984943151473999
 20
7.5342841148376465
 10
2.984943151473999
 20
7.516302585601807
 10
2.9489798545837402
 20
7.480339527130127
 10
2.9489798545837402
 20
7.462357997894287
 10
2.9130167961120605
 20
7.426394462585449
 10
2.9130167961120605
 20
7.408412933349609
 10
2.733201026916504
 20
7.228597164154053
 10
2.715219259262085
 20
7.228597164154053
 10
2.697237730026245
 20
7.210615634918213
 10
2.6792562007904053
 20
7.210615634918213
 10
2.6612746715545654
 20
7.192634105682373
 10
2.589348316192627
 20
7.192634105682373
 10
2.571366786956787
 20
7.174652576446533
 10
2.571366786956787
 20
7.1207075119018555
 10
2.553385019302368
 20
7.102725982666016
 10
2.553385019302368
 20
7.084744453430176
 10
2.5354034900665283
 20
7.066762924194336
 10
2.5354034900665283
 20
7.012818336486816
 10
2.5174219608306885
 20
6.994836807250977
 10
2.5174219608306885
 20
6.940891742706299
 10
2.4994404315948486
 20
6.922910213470459
 10
2.4994404315948486
 20
6.886947154998779
 10
2.5174219608306885
 20
6.8689656257629395
 10
2.5174219608306885
 20
6.83300256729126
 10
2.5354034900665283
 20
6.815020561218262
 10
2.553385019302368
 20
6.815020561218262
 10
2.6612746715545654
 20
6.707131385803223
 10
2.6612746715545654
 20
6.689149856567383
 10
2.6792562007904053
 20
6.671167850494385
 10
2.6792562007904053
 20
6.257591724395752
 10
2.697237730026245
 20
6.239610195159912
 10
2.697237730026245
 20
6.113739013671875
 10
2.715219259262085
 20
6.095757484436035
 10
2.715219259262085
 20
6.041812419891357
 10
2.733201026916504
 20
6.023830890655518
 10
2.733201026916504
 20
5.969886302947998
 10
2.7511825561523438
 20
5.951904773712158
 10
2.7511825561523438
 20
5.9159417152404785
 10
2.7691640853881836
 20
5.8979597091674805
 10
2.7691640853881836
 20
5.861996650695801
 10
2.7871456146240234
 20
5.844015121459961
 10
2.7871456146240234
 20
5.808052062988281
 10
2.8051273822784424
 20
5.790070533752441
 10
2.8051273822784424
 20
5.754107475280762
 10
2.8231089115142822
 20
5.736125469207764
 10
2.8231089115142822
 20
5.718143939971924
 10
2.841090440750122
 20
5.700162410736084
 10
2.841090440750122
 20
5.682180881500244
 10
2.859071969985962
 20
5.664199352264404
 10
2.877053737640381
 20
5.664199352264404
 10
2.8950352668762207
 20
5.6462178230285645
 10
2.9130167961120605
 20
5.6462178230285645
 10
2.9309983253479004
 20
5.628236293792725
 10
2.984943151473999
 20
5.682180881500244
 10
2.984943151473999
 20
5.718143939971924
 10
3.002924680709839
 20
5.736125469207764
 10
3.002924680709839
 20
5.754107475280762
 10
3.0209062099456787
 20
5.772089004516602
 10
3.0209062099456787
 20
5.790070533752441
 10
3.0388879776000977
 20
5.808052062988281
 10
3.0388879776000977
 20
5.844015121459961
 10
3.0568695068359375
 20
5.861996650695801
 10
3.0568695068359375
 20
5.879978179931641
 10
3.0748510360717773
 20
5.8979597091674805
 10
3.0748510360717773
 20
5.9159417152404785
 10
3.092832565307617
 20
5.933923244476318
 10
3.092832565307617
 20
5.969886302947998
 10
3.110814332962036
 20
5.987867832183838
 10
3.110814332962036
 20
6.023830890655518
 10
3.128795862197876
 20
6.041812419891357
 10
3.128795862197876
 20
6.059793949127197
 10
3.146777391433716
 20
6.077775955200195
 10
3.146777391433716
 20
6.113739013671875
 10
3.1647589206695557
 20
6.131720542907715
 10
3.1647589206695557
 20
6.149702072143555
 10
3.1827404499053955
 20
6.1676836013793945
 10
3.1827404499053955
 20
6.185665130615234
 10
3.2007222175598145
 20
6.203646659851074
 10
3.2007222175598145
 20
6.221628665924072
 10
3.2187037467956543
 20
6.239610195159912
 10
3.2187037467956543
 20
6.275573253631592
 10
3.236685276031494
 20
6.293554782867432
 10
3.236685276031494
 20
6.3115363121032715
 10
3.254666805267334
 20
6.329517841339111
 10
3.254666805267334
 20
6.365480899810791
 10
3.272648572921753
 20
6.383462905883789
 10
3.272648572921753
 20
6.401444435119629
 10
3.3086116313934326
 20
6.437407493591309
 10
3.398519515991211
 20
6.437407493591309
 10
3.41650128364563
 20
6.419425964355469
 10
3.4344828128814697
 20
6.419425964355469
 10
3.4524643421173096
 20
6.401444435119629
 10
3.4884274005889893
 20
6.401444435119629
 10
3.506409168243408
 20
6.383462905883789
 10
3.542372226715088
 20
6.383462905883789
 10
3.5603537559509277
 20
6.365480899810791
 10
3.5963170528411865
 20
6.365480899810791
 10
3.6142985820770264
 20
6.347499370574951
 10
3.632280111312866
 20
6.347499370574951
 10
3.668243408203125
 20
6.3115363121032715
 10
3.7042064666748047
 20
6.3115363121032715
 10
3.7221882343292236
 20
6.293554782867432
 10
3.7401697635650635
 20
6.293554782867432
 10
3.7581512928009033
 20
6.275573253631592
 10
3.776132822036743
 20
6.275573253631592
 10
3.8480591773986816
 20
6.203646659851074
 10
3.8840224742889404
 20
6.203646659851074
 10
3.9919118881225586
 20
6.095757484436035
 10
3.9919118881225586
 20
6.077775955200195
 10
4.009893417358398
 20
6.059793949127197
 10
4.009893417358398
 20
5.969886302947998
 10
3.9919118881225586
 20
5.951904773712158
 10
3.9919118881225586
 20
5.8979597091674805
 10
3.955948829650879
 20
5.861996650695801
 10
3.955948829650879
 20
5.844015121459961
 10
3.93796706199646
 20
5.826033592224121
 10
3.93796706199646
 20
5.790070533752441
 10
3.91998553276062
 20
5.772089004516602
 10
3.91998553276062
 20
5.754107475280762
 10
3.9020040035247803
 20
5.736125469207764
 10
3.9020040035247803
 20
5.718143939971924
 10
3.8840224742889404
 20
5.700162410736084
 10
3.8840224742889404
 20
5.664199352264404
 10
3.8480591773986816
 20
5.628236293792725
 10
3.8480591773986816
 20
5.592272758483887
 10
3.830077648162842
 20
5.574291229248047
 10
3.830077648162842
 20
5.520346641540527
 10
3.812096118927002
 20
5.5023651123046875
 10
3.812096118927002
 20
5.448420524597168
 10
3.794114351272583
 20
5.43043851852417
 10
3.794114351272583
 20
5.41245698928833
 10
3.776132822036743
 20
5.39447546005249
 10
3.776132822036743
 20
5.286585807800293
 10
3.8660407066345215
 20
5.286585807800293
 10
3.8840224742889404
 20
5.304567813873291
 10
3.9020040035247803
 20
5.304567813873291
 10
3.93796706199646
 20
5.340530872344971
 10
3.955948829650879
 20
5.340530872344971
 10
3.9739303588867188
 20
5.3585124015808105
 10
3.9919118881225586
 20
5.3585124015808105
 10
4.009893417358398
 20
5.37649393081665
 10
4.027874946594238
 20
5.37649393081665
 10
4.045856475830078
 20
5.39447546005249
 10
4.063838005065918
 20
5.39447546005249
 10
4.081820011138916
 20
5.41245698928833
 10
4.099801540374756
 20
5.41245698928833
 10
4.1357645988464355
 20
5.448420524597168
 10
4.153746128082275
 20
5.448420524597168
 10
4.171727657318115
 20
5.466402053833008
 10
4.189709186553955
 20
5.466402053833008
 10
4.243654251098633
 20
5.520346641540527
 10
4.261635780334473
 20
5.520346641540527
 10
4.369524955749512
 20
5.628236293792725
 10
4.369524955749512
 20
5.6462178230285645
 10
4.459433078765869
 20
5.736125469207764
 10
4.459433078765869
 20
5.754107475280762
 10
4.495396137237549
 20
5.790070533752441
 10
4.495396137237549
 20
5.826033592224121
 10
4.513377666473389
 20
5.844015121459961
 10
4.513377666473389
 20
5.861996650695801
 10
4.549341201782227
 20
5.8979597091674805
 10
4.549341201782227
 20
5.9159417152404785
 10
4.567322731018066
 20
5.933923244476318
 10
4.567322731018066
 20
5.969886302947998
 10
4.585304260253906
 20
5.987867832183838
 10
4.585304260253906
 20
6.041812419891357
 10
4.603285789489746
 20
6.059793949127197
 10
4.603285789489746
 20
6.077775955200195
 10
4.621267318725586
 20
6.095757484436035
 10
4.621267318725586
 20
6.113739013671875
 10
4.657230377197266
 20
6.149702072143555
 10
4.657230377197266
 20
6.203646659851074
 10
4.6752119064331055
 20
6.221628665924072
 10
4.6752119064331055
 20
6.275573253631592
 10
4.657230377197266
 20
6.293554782867432
 10
4.657230377197266
 20
6.365480899810791
 10
4.639248847961426
 20
6.383462905883789
 10
4.639248847961426
 20
6.419425964355469
 10
4.621267318725586
 20
6.437407493591309
 10
4.621267318725586
 20
6.455389022827148
 10
4.585304260253906
 20
6.491352081298828
 10
4.585304260253906
 20
6.509333610534668
 10
4.567322731018066
 20
6.527315616607666
 10
4.567322731018066
 20
6.545297145843506
 10
4.531359672546387
 20
6.5812602043151855
 10
4.531359672546387
 20
6.617223262786865
 10
4.513377666473389
 20
6.635204792022705
 10
4.513377666473389
 20
6.671167850494385
 10
4.495396137237549
 20
6.689149856567383
 10
4.495396137237549
 20
6.7251129150390625
 10
4.477414608001709
 20
6.743094444274902
 10
4.477414608001709
 20
6.779057502746582
 10
4.459433078765869
 20
6.797039031982422
 10
4.459433078765869
 20
6.815020561218262
 10
4.441451549530029
 20
6.83300256729126
 10
4.441451549530029
 20
6.8509840965271
 10
4.40548849105835
 20
6.886947154998779
 10
4.40548849105835
 20
6.904928684234619
 10
4.38750696182251
 20
6.922910213470459
 10
4.38750696182251
 20
6.940891742706299
 10
4.369524955749512
 20
6.958873271942139
 10
4.369524955749512
 20
6.994836807250977
 10
4.333561897277832
 20
7.030799865722656
 10
4.333561897277832
 20
7.048781394958496
 10
4.297598838806152
 20
7.084744453430176
 10
4.297598838806152
 20
7.102725982666016
 10
4.2796173095703125
 20
7.1207075119018555
 10
4.2796173095703125
 20
7.1386895179748535
 10
4.261635780334473
 20
7.156671047210693
 10
4.261635780334473
 20
7.174652576446533
 10
4.225672721862793
 20
7.210615634918213
 10
4.225672721862793
 20
7.228597164154053
 10
4.207690715789795
 20
7.246578693389893
 10
4.207690715789795
 20
7.264560222625732
 10
4.189709186553955
 20
7.282541751861572
 10
4.189709186553955
 20
7.30052375793457
 10
4.171727657318115
 20
7.31850528717041
 10
4.171727657318115
 20
7.33648681640625
 10
4.153746128082275
 20
7.35446834564209
 10
4.153746128082275
 20
7.3904314041137695
 10
4.1357645988464355
 20
7.408412933349609
 10
4.1357645988464355
 20
7.462357997894287
 10
4.117783069610596
 20
7.480339527130127
 10
4.117783069610596
 20
7.570247173309326
 10
4.099801540374756
 20
7.588228702545166
 10
4.099801540374756
 20
7.642173767089844
 10
4.081820011138916
 20
7.660155296325684
 10
4.081820011138916
 20
7.714099884033203
 10
4.063838005065918
 20
7.732081413269043
 10
4.063838005065918
 20
8.451345443725586
 10
4.081820011138916
 20
8.469326972961426
 10
4.081820011138916
 20
9.008773803710938
 10
4.063838005065918
 20
9.026755332946777
 10
4.063838005065918
 20
9.278497695922852
 10
4.081820011138916
 20
9.296479225158691
 10
4.081820011138916
 20
9.458313941955566
 10
4.099801540374756
 20
9.476295471191406
 10
4.099801540374756
 20
9.943816184997559
 10
4.081820011138916
 20
9.961797714233398
 10
4.081820011138916
 20
10.159595489501953
 10
4.099801540374756
 20
10.177577018737793
 10
4.099801540374756
 20
10.681061744689941
 10
4.117783069610596
 20
10.699043273925781
 10
4.117783069610596
 20
11.472250938415527
 10
4.1357645988464355
 20
11.490232467651367
 10
4.1357645988464355
 20
11.741974830627441
 10
4.117783069610596
 20
11.759956359863281
 10
4.117783069610596
 20
11.8139009475708
 10
4.1357645988464355
 20
11.831883430480957
 10
4.1357645988464355
 20
12.15555191040039
 10
4.153746128082275
 20
12.17353343963623
 10
4.153746128082275
 20
12.784907341003418
 10
4.1357645988464355
 20
12.802888870239258
 10
4.1357645988464355
 20
12.964722633361816
 10
4.117783069610596
 20
12.982704162597656
 10
4.117783069610596
 20
13.018667221069336
 10
4.099801540374756
 20
13.036648750305176
 10
4.099801540374756
 20
13.072612762451172
 10
4.081820011138916
 20
13.090594291687012
 10
4.081820011138916
 20
13.108575820922852
 10
4.045856475830078
 20
13.144538879394531
 10
4.045856475830078
 20
13.162520408630371
 10
3.955948829650879
 20
13.25242805480957
 10
3.93796706199646
 20
13.25242805480957
 10
3.91998553276062
 20
13.27040958404541
 10
3.8840224742889404
 20
13.27040958404541
 10
3.8660407066345215
 20
13.28839111328125
 10
3.812096118927002
 20
13.28839111328125
 10
3.794114351272583
 20
13.30637264251709
 10
3.5783355236053467
 20
13.30637264251709
  0
LWPOLYLINE
  5
34
330
17
100
AcDbEntity
  8
Outline
100
AcDbPolyline
 90
400
 70
0
 10
6.3115363121032715
 20
13.25242805480957
 10
6.293554782867432
 20
13.23444652557373
 10
6.221628665924072
 20
13.23444652557373
 10
6.203646659851074
 20
13.21646499633789
 10
6.149702072143555
 20
13.21646499633789
 10
6.131720542907715
 20
13.19848346710205
 10
6.095757484436035
 20
13.19848346710205
 10
6.077775955200195
 20
13.180501937866211
 10
6.059793949127197
 20
13.180501937866211
 10
6.041812419891357
 20
13.162520408630371
 10
6.023830890655518
 20
13.162520408630371
 10
6.023830890655518
 20
13.144538879394531
 10
5.951904773712158
 20
13.072612762451172
 10
5.933923244476318
 20
13.072612762451172
 10
5.933923244476318
 20
13.054631233215332
 10
5.9159417152404785
 20
13.036648750305176
 10
5.9159417152404785
 20
13.018667221069336
 10
5.8979597091674805
 20
13.000685691833496
 10
5.8979597091674805
 20
12.964722633361816
 10
5.879978179931641
 20
12.946741104125977
 10
5.879978179931641
 20
12.892796516418457
 10
5.861996650695801
 20
12.874814987182617
 10
5.861996650695801
 20
12.29940414428711
 10
5.879978179931641
 20
12.28142261505127
 10
5.879978179931641
 20
12.119587898254395
 10
5.861996650695801
 20
12.101606369018555
 10
5.879978179931641
 20
12.083624839782715
 10
5.879978179931641
 20
11.867846488952637
 10
5.8979597091674805
 20
11.849864959716797
 10
5.8979597091674805
 20
11.723993301391602
 10
5.879978179931641
 20
11.706011772155762
 10
5.879978179931641
 20
11.616104125976562
 10
5.8979597091674805
 20
11.598122596740723
 10
5.8979597091674805
 20
11.508214950561523
 10
5.879978179931641
 20
11.490232467651367
 10
5.879978179931641
 20
11.310417175292969
 10
5.8979597091674805
 20
11.292435646057129
 10
5.8979597091674805
 20
11.058674812316895
 10
5.9159417152404785
 20
11.040693283081055
 10
5.9159417152404785
 20
10.249503135681152
 10
5.933923244476318
 20
10.231521606445312
 10
5.933923244476318
 20
9.386387825012207
 10
5.951904773712158
 20
9.368406295776367
 10
5.951904773712158
 20
8.595197677612305
 10
5.969886302947998
 20
8.577216148376465
 10
5.969886302947998
 20
8.253547668457031
 10
5.987867832183838
 20
8.235566139221191
 10
5.987867832183838
 20
8.127676010131836
 10
5.969886302947998
 20
8.109694480895996
 10
5.969886302947998
 20
7.228597164154053
 10
5.951904773712158
 20
7.210615634918213
 10
5.951904773712158
 20
7.012818336486816
 10
5.933923244476318
 20
6.994836807250977
 10
5.933923244476318
 20
6.922910213470459
 10
5.9159417152404785
 20
6.904928684234619
 10
5.9159417152404785
 20
6.83300256729126
 10
5.8979597091674805
 20
6.815020561218262
 10
5.8979597091674805
 20
6.761075973510742
 10
5.879978179931641
 20
6.743094444274902
 10
5.879978179931641
 20
6.689149856567383
 10
5.861996650695801
 20
6.671167850494385
 10
5.861996650695801
 20
6.653186321258545
 10
5.844015121459961
 20
6.635204792022705
 10
5.844015121459961
 20
6.599241733551025
 10
5.826033592224121
 20
6.5812602043151855
 10
5.826033592224121
 20
6.545297145843506
 10
5.808052062988281
 20
6.527315616607666
 10
5.808052062988281
 20
6.509333610534668
 10
5.790070533752441
 20
6.491352081298828
 10
5.790070533752441
 20
6.455389022827148
 10
5.772089004516602
 20
6.437407493591309
 10
5.772089004516602
 20
6.419425964355469
 10
5.754107475280762
 20
6.401444435119629
 10
5.754107475280762
 20
6.383462905883789
 10
5.736125469207764
 20
6.365480899810791
 10
5.736125469207764
 20
6.347499370574951
 10
5.700162410736084
 20
6.3115363121032715
 10
5.700162410736084
 20
6.293554782867432
 10
5.682180881500244
 20
6.275573253631592
 10
5.682180881500244
 20
6.257591724395752
 10
5.628236293792725
 20
6.203646659851074
 10
5.628236293792725
 20
6.185665130615234
 10
5.556309700012207
 20
6.113739013671875
 10
5.556309700012207
 20
6.077775955200195
 10
5.5023651123046875
 20
6.023830890655518
 10
5.5023651123046875
 20
6.005849361419678
 10
5.39447546005249
 20
5.8979597091674805
 10
5.39447546005249
 20
5.861996650695801
 10
5.37649393081665
 20
5.844015121459961
 10
5.37649393081665
 20
5.826033592224121
 10
5.250622749328613
 20
5.700162410736084
 10
5.232641220092773
 20
5.700162410736084
 10
5.178696632385254
 20
5.6462178230285645
 10
5.178696632385254
 20
5.628236293792725
 10
5.106770038604736
 20
5.556309700012207
 10
5.0887885093688965
 20
5.556309700012207
 10
4.980898857116699
 20
5.448420524597168
 10
4.980898857116699
 20
5.39447546005249
 10
4.962917327880859
 20
5.37649393081665
 10
4.962917327880859
 20
5.322549343109131
 10
4.998880863189697
 20
5.286585807800293
 10
5.016862392425537
 20
5.286585807800293
 10
5.034843921661377
 20
5.268604278564453
 10
5.052825450897217
 20
5.268604278564453
 10
5.142733573913574
 20
5.178696632385254
 10
5.160715103149414
 20
5.178696632385254
 10
5.178696632385254
 20
5.160715103149414
 10
5.214659690856934
 20
5.160715103149414
 10
5.232641220092773
 20
5.142733573913574
 10
5.250622749328613
 20
5.142733573913574
 10
5.268604278564453
 20
5.124751567840576
 10
5.286585807800293
 20
5.124751567840576
 10
5.304567813873291
 20
5.106770038604736
 10
5.322549343109131
 20
5.106770038604736
 10
5.340530872344971
 20
5.0887885093688965
 10
5.3585124015808105
 20
5.0887885093688965
 10
5.37649393081665
 20
5.070806980133057
 10
5.39447546005249
 20
5.070806980133057
 10
5.41245698928833
 20
5.052825450897217
 10
5.43043851852417
 20
5.052825450897217
 10
5.484383583068848
 20
4.998880863189697
 10
5.466402053833008
 20
4.980898857116699
 10
5.466402053833008
 20
4.9449357986450195
 10
5.448420524597168
 20
4.92695426940918
 10
5.448420524597168
 20
4.729156970977783
 10
5.43043851852417
 20
4.711175441741943
 10
5.43043851852417
 20
4.639248847961426
 10
5.448420524597168
 20
4.621267318725586
 10
5.448420524597168
 20
4.567322731018066
 10
5.43043851852417
 20
4.549341201782227
 10
5.43043851852417
 20
4.531359672546387
 10
5.448420524597168
 20
4.513377666473389
 10
5.448420524597168
 20
4.369524955749512
 10
5.466402053833008
 20
4.351543426513672
 10
5.466402053833008
 20
4.207690715789795
 10
5.484383583068848
 20
4.189709186553955
 10
5.484383583068848
 20
4.081820011138916
 10
5.5023651123046875
 20
4.063838005065918
 10
5.5023651123046875
 20
4.027874946594238
 10
5.520346641540527
 20
4.009893417358398
 10
5.520346641540527
 20
3.9739303588867188
 10
5.538328170776367
 20
3.955948829650879
 10
5.538328170776367
 20
3.91998553276062
 10
5.556309700012207
 20
3.9020040035247803
 10
5.556309700012207
 20
3.8660407066345215
 10
5.628236293792725
 20
3.794114351272583
 10
5.6462178230285645
 20
3.794114351272583
 10
5.664199352264404
 20
3.812096118927002
 10
5.682180881500244
 20
3.812096118927002
 10
5.700162410736084
 20
3.830077648162842
 10
5.718143939971924
 20
3.830077648162842
 10
5.718143939971924
 20
3.8480591773986816
 10
5.736125469207764
 20
3.8660407066345215
 10
5.736125469207764
 20
3.9020040035247803
 10
5.754107475280762
 20
3.91998553276062
 10
5.754107475280762
 20
3.955948829650879
 10
5.772089004516602
 20
3.9739303588867188
 10
5.772089004516602
 20
4.027874946594238
 10
5.808052062988281
 20
4.063838005065918
 10
5.808052062988281
 20
4.081820011138916
 10
5.844015121459961
 20
4.117783069610596
 10
5.844015121459961
 20
4.1357645988464355
 10
5.861996650695801
 20
4.153746128082275
 10
5.861996650695801
 20
4.189709186553955
 10
5.879978179931641
 20
4.207690715789795
 10
5.879978179931641
 20
4.225672721862793
 10
5.8979597091674805
 20
4.243654251098633
 10
5.8979597091674805
 20
4.2796173095703125
 10
5.9159417152404785
 20
4.297598838806152
 10
5.9159417152404785
 20
4.333561897277832
 10
5.933923244476318
 20
4.351543426513672
 10
5.933923244476318
 20
4.369524955749512
 10
5.951904773712158
 20
4.38750696182251
 10
5.951904773712158
 20
4.40548849105835
 10
5.969886302947998
 20
4.4234700202941895
 10
5.969886302947998
 20
4.459433078765869
 10
5.987867832183838
 20
4.477414608001709
 10
5.987867832183838
 20
4.495396137237549
 10
6.005849361419678
 20
4.513377666473389
 10
6.005849361419678
 20
4.531359672546387
 10
6.023830890655518
 20
4.549341201782227
 10
6.023830890655518
 20
4.567322731018066
 10
6.077775955200195
 20
4.621267318725586
 10
6.095757484436035
 20
4.621267318725586
 10
6.131720542907715
 20
4.657230377197266
 10
6.149702072143555
 20
4.657230377197266
 10
6.1676836013793945
 20
4.6752119064331055
 10
6.275573253631592
 20
4.6752119064331055
 10
6.293554782867432
 20
4.657230377197266
 10
6.365480899810791
 20
4.657230377197266
 10
6.383462905883789
 20
4.639248847961426
 10
6.401444435119629
 20
4.639248847961426
 10
6.419425964355469
 20
4.621267318725586
 10
6.437407493591309
 20
4.621267318725586
 10
6.455389022827148
 20
4.603285789489746
 10
6.473370552062988
 20
4.603285789489746
 10
6.491352081298828
 20
4.585304260253906
 10
6.509333610534668
 20
4.585304260253906
 10
6.527315616607666
 20
4.567322731018066
 10
6.545297145843506
 20
4.567322731018066
 10
6.5812602043151855
 20
4.531359672546387
 10
6.599241733551025
 20
4.531359672546387
 10
6.671167850494385
 20
4.459433078765869
 10
6.671167850494385
 20
4.441451549530029
 10
6.707131385803223
 20
4.40548849105835
 10
6.707131385803223
 20
4.38750696182251
 10
6.7251129150390625
 20
4.369524955749512
 10
6.7251129150390625
 20
4.333561897277832
 10
6.743094444274902
 20
4.315580368041992
 10
6.7251129150390625
 20
4.297598838806152
 10
6.7251129150390625
 20
4.243654251098633
 10
6.707131385803223
 20
4.225672721862793
 10
6.707131385803223
 20
4.189709186553955
 10
6.689149856567383
 20
4.171727657318115
 10
6.689149856567383
 20
4.1357645988464355
 10
6.671167850494385
 20
4.117783069610596
 10
6.671167850494385
 20
4.081820011138916
 10
6.635204792022705
 20
4.045856475830078
 10
6.635204792022705
 20
4.027874946594238
 10
6.617223262786865
 20
4.009893417358398
 10
6.617223262786865
 20
3.9739303588867188
 10
6.599241733551025
 20
3.955948829650879
 10
6.599241733551025
 20
3.91998553276062
 10
6.5812602043151855
 20
3.9020040035247803
 10
6.5812602043151855
 20
3.8660407066345215
 10
6.527315616607666
 20
3.812096118927002
 10
6.527315616607666
 20
3.794114351272583
 10
6.509333610534668
 20
3.776132822036743
 10
6.509333610534668
 20
3.7401697635650635
 10
6.491352081298828
 20
3.7221882343292236
 10
6.491352081298828
 20
3.7042064666748047
 10
6.473370552062988
 20
3.686224937438965
 10
6.473370552062988
 20
3.650261878967285
 10
6.455389022827148
 20
3.632280111312866
 10
6.455389022827148
 20
3.6142985820770264
 10
6.437407493591309
 20
3.5963170528411865
 10
6.437407493591309
 20
3.5603537559509277
 10
6.419425964355469
 20
3.542372226715088
 10
6.419425964355469
 20
3.41650128364563
 10
6.437407493591309
 20
3.398519515991211
 10
6.473370552062988
 20
3.398519515991211
 10
6.491352081298828
 20
3.380537986755371
 10
6.509333610534668
 20
3.380537986755371
 10
6.527315616607666
 20
3.398519515991211
 10
6.545297145843506
 20
3.398519515991211
 10
6.563278675079346
 20
3.41650128364563
 10
6.5812602043151855
 20
3.41650128364563
 10
6.599241733551025
 20
3.4344828128814697
 10
6.617223262786865
 20
3.4344828128814697
 10
6.635204792022705
 20
3.4524643421173096
 10
6.653186321258545
 20
3.4524643421173096
 10
6.707131385803223
 20
3.506409168243408
 10
6.7251129150390625
 20
3.506409168243408
 10
6.797039031982422
 20
3.5783355236053467
 10
6.815020561218262
 20
3.5783355236053467
 10
6.8509840965271
 20
3.6142985820770264
 10
6.8689656257629395
 20
3.6142985820770264
 10
6.886947154998779
 20
3.632280111312866
 10
6.904928684234619
 20
3.632280111312866
 10
6.9768548011779785
 20
3.7042064666748047
 10
6.994836807250977
 20
3.7042064666748047
 10
7.228597164154053
 20
3.93796706199646
 10
7.228597164154053
 20
3.955948829650879
 10
7.264560222625732
 20
3.9919118881225586
 10
7.264560222625732
 20
4.009893417358398
 10
7.282541751861572
 20
4.027874946594238
 10
7.282541751861572
 20
4.045856475830078
 10
7.30052375793457
 20
4.063838005065918
 10
7.30052375793457
 20
4.081820011138916
 10
7.33648681640625
 20
4.117783069610596
 10
7.33648681640625
 20
4.1357645988464355
 10
7.35446834564209
 20
4.153746128082275
 10
7.35446834564209
 20
4.171727657318115
 10
7.37244987487793
 20
4.189709186553955
 10
7.37244987487793
 20
4.207690715789795
 10
7.3904314041137695
 20
4.225672721862793
 10
7.3904314041137695
 20
4.243654251098633
 10
7.408412933349609
 20
4.261635780334473
 10
7.408412933349609
 20
4.297598838806152
 10
7.426394462585449
 20
4.315580368041992
 10
7.426394462585449
 20
4.38750696182251
 10
7.444376468658447
 20
4.40548849105835
 10
7.444376468658447
 20
4.657230377197266
 10
7.426394462585449
 20
4.6752119064331055
 10
7.426394462585449
 20
4.801083087921143
 10
7.408412933349609
 20
4.819064617156982
 10
7.408412933349609
 20
4.8909912109375
 10
7.3904314041137695
 20
4.90897274017334
 10
7.3904314041137695
 20
4.9449357986450195
 10
7.37244987487793
 20
4.962917327880859
 10
7.37244987487793
 20
4.980898857116699
 10
7.35446834564209
 20
4.998880863189697
 10
7.35446834564209
 20
5.016862392425537
 10
7.33648681640625
 20
5.034843921661377
 10
7.33648681640625
 20
5.052825450897217
 10
7.31850528717041
 20
5.070806980133057
 10
7.31850528717041
 20
5.0887885093688965
 10
7.282541751861572
 20
5.124751567840576
 10
7.282541751861572
 20
5.142733573913574
 10
7.246578693389893
 20
5.178696632385254
 10
7.246578693389893
 20
5.196678161621094
 10
7.210615634918213
 20
5.232641220092773
 10
7.210615634918213
 20
5.250622749328613
 10
7.174652576446533
 20
5.286585807800293
 10
7.174652576446533
 20
5.304567813873291
 10
7.1386895179748535
 20
5.340530872344971
 10
7.1386895179748535
 20
5.3585124015808105
 10
7.102725982666016
 20
5.39447546005249
 10
7.102725982666016
 20
5.41245698928833
 10
7.084744453430176
 20
5.43043851852417
 10
7.084744453430176
 20
5.448420524597168
 10
7.066762924194336
 20
5.466402053833008
 10
7.066762924194336
 20
5.484383583068848
 10
7.048781394958496
 20
5.5023651123046875
 10
7.048781394958496
 20
5.520346641540527
 10
7.030799865722656
 20
5.538328170776367
 10
7.030799865722656
 20
5.556309700012207
 10
7.012818336486816
 20
5.574291229248047
 10
7.012818336486816
 20
5.592272758483887
 10
6.994836807250977
 20
5.610254764556885
 10
6.994836807250977
 20
5.628236293792725
 10
6.958873271942139
 20
5.664199352264404
 10
6.958873271942139
 20
5.700162410736084
 10
6.940891742706299
 20
5.718143939971924
 10
6.940891742706299
 20
5.736125469207764
 10
6.904928684234619
 20
5.772089004516602
 10
6.904928684234619
 20
5.790070533752441
 10
6.886947154998779
 20
5.808052062988281
 10
6.886947154998779
 20
5.826033592224121
 10
6.8689656257629395
 20
5.844015121459961
 10
6.8689656257629395
 20
5.879978179931641
 10
6.8509840965271
 20
5.8979597091674805
 10
6.8509840965271
 20
5.9159417152404785
 10
6.83300256729126
 20
5.933923244476318
 10
6.83300256729126
 20
5.951904773712158
 10
6.815020561218262
 20
5.969886302947998
 10
6.815020561218262
 20
5.987867832183838
 10
6.797039031982422
 20
6.005849361419678
 10
6.797039031982422
 20
6.077775955200195
 10
6.779057502746582
 20
6.095757484436035
 10
6.779057502746582
 20
6.149702072143555
 10
6.761075973510742
 20
6.1676836013793945
 10
6.761075973510742
 20
6.239610195159912
 10
6.743094444274902
 20
6.257591724395752
 10
6.743094444274902
 20
6.347499370574951
 10
6.7251129150390625
 20
6.365480899810791
 10
6.7251129150390625
 20
6.437407493591309
 10
6.707131385803223
 20
6.455389022827148
 10
6.707131385803223
 20
6.761075973510742
 10
6.689149856567383
 20
6.779057502746582
 10
6.689149856567383
 20
7.642173767089844
 10
6.707131385803223
 20
7.660155296325684
 10
6.707131385803223
 20
7.965842247009277
 10
6.7251129150390625
 20
7.983823776245117
 10
6.7251129150390625
 20
8.109694480895996
 10
6.743094444274902
 20
8.127676010131836
 10
6.743094444274902
 20
9.044736862182617
 10
6.761075973510742
 20
9.062719345092773
 10
6.761075973510742
 20
9.458313941955566
 10
6.779057502746582
 20
9.476295471191406
 10
6.779057502746582
 20
9.74601936340332
 10
6.761075973510742
 20
9.76400089263916
 10
6.761075973510742
 20
10.357393264770508
 10
6.779057502746582
 20
10.375374794006348
 10
6.779057502746582
 20
10.663080215454102
 10
6.761075973510742
 20
10.681061744689941
 10
6.779057502746582
 20
10.699043273925781
 10
6.779057502746582
 20
10.8428955078125
 10
6.797039031982422
 20
10.86087703704834
 10
6.797039031982422
 20
10.968767166137695
 10
6.815020561218262
 20
10.986748695373535
 10
6.815020561218262
 20
11.166563987731934
 10
6.83300256729126
 20
11.184545516967773
 10
6.83300256729126
 20
12.425274848937988
 10
6.8509840965271
 20
12.443257331848145
 10
6.8509840965271
 20
12.587109565734863
 10
6.83300256729126
 20
12.605091094970703
 10
6.83300256729126
 20
12.748944282531738
 10
6.815020561218262
 20
12.766925811767578
 10
6.815020561218262
 20
12.838851928710938
 10
6.797039031982422
 20
12.856833457946777
 10
6.797039031982422
 20
12.910778045654297
 10
6.779057502746582
 20
12.928759574890137
 10
6.779057502746582
 20
12.982704162597656
 10
6.761075973510742
 20
13.000685691833496
 10
6.761075973510742
 20
13.036648750305176
 10
6.743094444274902
 20
13.054631233215332
 10
6.743094444274902
 20
13.072612762451172
 10
6.689149856567383
 20
13.126557350158691
 10
6.689149856567383
 20
13.144538879394531
 10
6.671167850494385
 20
13.162520408630371
 10
6.653186321258545
 20
13.162520408630371
 10
6.617223262786865
 20
13.19848346710205
 10
6.599241733551025
 20
13.19848346710205
 10
6.5812602043151855
 20
13.21646499633789
 10
6.545297145843506
 20
13.21646499633789
 10
6.527315616607666
 20
13.23444652557373
 10
6.455389022827148
 20
13.23444652557373
 10
6.437407493591309
 20
13.25242805480957
 10
6.3115363121032715
 20
13.25242805480957
  0
LWPOLYLINE
  5
35
330
17
100
AcDbEntity
  8
Outline
100
AcDbPolyline
 90
472
 70
0
 10
9.332442283630371
 20
13.23444652557373
 10
9.314460754394531
 20
13.21646499633789
 10
9.188590049743652
 20
13.21646499633789
 10
9.170608520507812
 20
13.19848346710205
 10
9.152626991271973
 20
13.19848346710205
 10
9.134645462036133
 20
13.180501937866211
 10
9.116663932800293
 20
13.180501937866211
 10
9.098682403564453
 20
13.162520408630371
 10
9.080700874328613
 20
13.162520408630371
 10
8.990792274475098
 20
13.072612762451172
 10
8.990792274475098
 20
13.054631233215332
 10
8.954829216003418
 20
13.018667221069336
 10
8.954829216003418
 20
13.000685691833496
 10
8.918866157531738
 20
12.964722633361816
 10
8.918866157531738
 20
12.946741104125977
 10
8.900884628295898
 20
12.928759574890137
 10
8.900884628295898
 20
12.910778045654297
 10
8.882903099060059
 20
12.892796516418457
 10
8.882903099060059
 20
12.874814987182617
 10
8.864921569824219
 20
12.856833457946777
 10
8.864921569824219
 20
12.838851928710938
 10
8.846940040588379
 20
12.820870399475098
 10
8.846940040588379
 20
12.605091094970703
 10
8.828958511352539
 20
12.587109565734863
 10
8.828958511352539
 20
12.407293319702148
 10
8.846940040588379
 20
12.389311790466309
 10
8.846940040588379
 20
12.22747802734375
 10
8.864921569824219
 20
12.20949649810791
 10
8.864921569824219
 20
12.13757038116455
 10
8.882903099060059
 20
12.119587898254395
 10
8.882903099060059
 20
11.490232467651367
 10
8.900884628295898
 20
11.472250938415527
 10
8.900884628295898
 20
11.040693283081055
 10
8.918866157531738
 20
11.022711753845215
 10
8.918866157531738
 20
10.285467147827148
 10
8.936847686767578
 20
10.267484664916992
 10
8.936847686767578
 20
10.015743255615234
 10
8.954829216003418
 20
9.997761726379395
 10
8.954829216003418
 20
9.080700874328613
 10
8.972810745239258
 20
9.062719345092773
 10
8.972810745239258
 20
8.559234619140625
 10
8.990792274475098
 20
8.541253089904785
 10
8.990792274475098
 20
8.109694480895996
 10
9.008773803710938
 20
8.091712951660156
 10
9.008773803710938
 20
7.642173767089844
 10
9.026755332946777
 20
7.624192237854004
 10
9.026755332946777
 20
7.1386895179748535
 10
9.044736862182617
 20
7.1207075119018555
 10
9.044736862182617
 20
6.886947154998779
 10
9.062719345092773
 20
6.8689656257629395
 10
9.062719345092773
 20
6.83300256729126
 10
9.044736862182617
 20
6.815020561218262
 10
9.044736862182617
 20
6.761075973510742
 10
9.062719345092773
 20
6.743094444274902
 10
9.062719345092773
 20
6.347499370574951
 10
9.080700874328613
 20
6.329517841339111
 10
9.080700874328613
 20
5.808052062988281
 10
9.062719345092773
 20
5.790070533752441
 10
9.062719345092773
 20
5.556309700012207
 10
9.044736862182617
 20
5.538328170776367
 10
9.044736862182617
 20
5.448420524597168
 10
9.026755332946777
 20
5.43043851852417
 10
9.026755332946777
 20
5.37649393081665
 10
9.008773803710938
 20
5.3585124015808105
 10
9.008773803710938
 20
5.340530872344971
 10
8.990792274475098
 20
5.322549343109131
 10
8.990792274475098
 20
5.304567813873291
 10
8.972810745239258
 20
5.286585807800293
 10
8.972810745239258
 20
5.268604278564453
 10
8.954829216003418
 20
5.250622749328613
 10
8.954829216003418
 20
5.232641220092773
 10
8.936847686767578
 20
5.214659690856934
 10
8.936847686767578
 20
5.178696632385254
 10
8.918866157531738
 20
5.160715103149414
 10
8.918866157531738
 20
5.124751567840576
 10
8.900884628295898
 20
5.106770038604736
 10
8.900884628295898
 20
5.070806980133057
 10
8.882903099060059
 20
5.052825450897217
 10
8.882903099060059
 20
5.034843921661377
 10
8.864921569824219
 20
5.016862392425537
 10
8.864921569824219
 20
4.998880863189697
 10
8.846940040588379
 20
4.980898857116699
 10
8.846940040588379
 20
4.962917327880859
 10
8.828958511352539
 20
4.9449357986450195
 10
8.828958511352539
 20
4.92695426940918
 10
8.8109769821167
 20
4.90897274017334
 10
8.8109769821167
 20
4.87300968170166
 10
8.77501392364502
 20
4.8370466232299805
 10
8.77501392364502
 20
4.819064617156982
 10
8.75703239440918
 20
4.801083087921143
 10
8.75703239440918
 20
4.783101558685303
 10
8.739049911499023
 20
4.765120029449463
 10
8.739049911499023
 20
4.747138500213623
 10
8.703086853027344
 20
4.711175441741943
 10
8.703086853027344
 20
4.6931939125061035
 10
8.667123794555664
 20
4.657230377197266
 10
8.667123794555664
 20
4.639248847961426
 10
8.631160736083984
 20
4.603285789489746
 10
8.631160736083984
 20
4.585304260253906
 10
8.523271560668945
 20
4.477414608001709
 10
8.523271560668945
 20
4.459433078765869
 10
8.451345443725586
 20
4.38750696182251
 10
8.451345443725586
 20
4.369524955749512
 10
8.41538143157959
 20
4.333561897277832
 10
8.41538143157959
 20
4.315580368041992
 10
8.32547378540039
 20
4.225672721862793
 10
8.199603080749512
 20
4.225672721862793
 10
8.181621551513672
 20
4.207690715789795
 10
8.163640022277832
 20
4.207690715789795
 10
8.145658493041992
 20
4.189709186553955
 10
8.127676010131836
 20
4.189709186553955
 10
8.091712951660156
 20
4.153746128082275
 10
8.073731422424316
 20
4.153746128082275
 10
8.055749893188477
 20
4.1357645988464355
 10
8.037768363952637
 20
4.1357645988464355
 10
7.9478607177734375
 20
4.045856475830078
 10
7.929879188537598
 20
4.045856475830078
 10
7.911897659301758
 20
4.027874946594238
 10
7.911897659301758
 20
3.7401697635650635
 10
7.9478607177734375
 20
3.7042064666748047
 10
7.9478607177734375
 20
3.686224937438965
 10
8.055749893188477
 20
3.5783355236053467
 10
8.073731422424316
 20
3.5783355236053467
 10
8.127676010131836
 20
3.524390697479248
 10
8.127676010131836
 20
3.4884274005889893
 10
8.145658493041992
 20
3.4704458713531494
 10
8.145658493041992
 20
3.398519515991211
 10
8.127676010131836
 20
3.380537986755371
 10
8.127676010131836
 20
3.3625564575195312
 10
8.145658493041992
 20
3.3445749282836914
 10
8.145658493041992
 20
3.1647589206695557
 10
8.127676010131836
 20
3.146777391433716
 10
8.127676010131836
 20
3.128795862197876
 10
8.145658493041992
 20
3.110814332962036
 10
8.145658493041992
 20
3.002924680709839
 10
8.163640022277832
 20
2.984943151473999
 10
8.163640022277832
 20
2.8950352668762207
 10
8.181621551513672
 20
2.877053737640381
 10
8.181621551513672
 20
2.7691640853881836
 10
8.199603080749512
 20
2.7511825561523438
 10
8.199603080749512
 20
2.6612746715545654
 10
8.217584609985352
 20
2.6432929039001465
 10
8.217584609985352
 20
2.553385019302368
 10
8.235566139221191
 20
2.5354034900665283
 10
8.235566139221191
 20
2.46347713470459
 10
8.253547668457031
 20
2.44549560546875
 10
8.253547668457031
 20
2.3915507793426514
 10
8.271529197692871
 20
2.3735692501068115
 10
8.271529197692871
 20
2.319624423980713
 10
8.289510726928711
 20
2.301642894744873
 10
8.289510726928711
 20
2.283661365509033
 10
8.30749225616455
 20
2.2656798362731934
 10
8.30749225616455
 20
2.2476980686187744
 10
8.32547378540039
 20
2.2297165393829346
 10
8.32547378540039
 20
2.2117350101470947
 10
8.36143684387207
 20
2.175771713256836
 10
8.36143684387207
 20
2.157790184020996
 10
8.37941837310791
 20
2.1398086547851562
 10
8.37941837310791
 20
2.1218271255493164
 10
8.39739990234375
 20
2.1218271255493164
 10
8.469326972961426
 20
2.049900770187378
 10
8.505290031433105
 20
2.049900770187378
 10
8.523271560668945
 20
2.0678822994232178
 10
8.541253089904785
 20
2.0678822994232178
 10
8.595197677612305
 20
2.1218271255493164
 10
8.595197677612305
 20
2.1398086547851562
 10
8.613179206848145
 20
2.157790184020996
 10
8.613179206848145
 20
2.175771713256836
 10
8.631160736083984
 20
2.193753480911255
 10
8.631160736083984
 20
2.2297165393829346
 10
8.649142265319824
 20
2.2476980686187744
 10
8.649142265319824
 20
2.283661365509033
 10
8.667123794555664
 20
2.301642894744873
 10
8.667123794555664
 20
2.3376059532165527
 10
8.685105323791504
 20
2.3555877208709717
 10
8.685105323791504
 20
2.3915507793426514
 10
8.703086853027344
 20
2.409532308578491
 10
8.703086853027344
 20
2.46347713470459
 10
8.721068382263184
 20
2.4814586639404297
 10
8.721068382263184
 20
2.4994404315948486
 10
8.739049911499023
 20
2.5174219608306885
 10
8.739049911499023
 20
2.571366786956787
 10
8.75703239440918
 20
2.589348316192627
 10
8.75703239440918
 20
2.6253113746643066
 10
8.77501392364502
 20
2.6432929039001465
 10
8.77501392364502
 20
2.6792562007904053
 10
8.79299545288086
 20
2.697237730026245
 10
8.79299545288086
 20
2.715219259262085
 10
8.8109769821167
 20
2.733201026916504
 10
8.8109769821167
 20
2.7511825561523438
 10
8.828958511352539
 20
2.7691640853881836
 10
8.828958511352539
 20
2.7871456146240234
 10
8.846940040588379
 20
2.8051273822784424
 10
8.846940040588379
 20
2.8231089115142822
 10
8.864921569824219
 20
2.841090440750122
 10
8.864921569824219
 20
2.859071969985962
 10
8.882903099060059
 20
2.877053737640381
 10
8.882903099060059
 20
2.8950352668762207
 10
8.900884628295898
 20
2.9130167961120605
 10
8.900884628295898
 20
2.9489798545837402
 10
8.918866157531738
 20
2.966961622238159
 10
8.918866157531738
 20
3.0209062099456787
 10
8.936847686767578
 20
3.0388879776000977
 10
8.936847686767578
 20
3.092832565307617
 10
8.972810745239258
 20
3.128795862197876
 10
8.972810745239258
 20
3.146777391433716
 10
8.990792274475098
 20
3.1647589206695557
 10
9.008773803710938
 20
3.1647589206695557
 10
9.026755332946777
 20
3.1827404499053955
 10
9.152626991271973
 20
3.1827404499053955
 10
9.170608520507812
 20
3.1647589206695557
 10
9.224553108215332
 20
3.1647589206695557
 10
9.242534637451172
 20
3.146777391433716
 10
9.278497695922852
 20
3.146777391433716
 10
9.296479225158691
 20
3.128795862197876
 10
9.314460754394531
 20
3.128795862197876
 10
9.332442283630371
 20
3.110814332962036
 10
9.368406295776367
 20
3.110814332962036
 10
9.386387825012207
 20
3.092832565307617
 10
9.404369354248047
 20
3.092832565307617
 10
9.422350883483887
 20
3.0748510360717773
 10
9.440332412719727
 20
3.0748510360717773
 10
9.458313941955566
 20
3.0568695068359375
 10
9.476295471191406
 20
3.0568695068359375
 10
9.494277000427246
 20
3.0388879776000977
 10
9.530240058898926
 20
3.0388879776000977
 10
9.548221588134766
 20
3.0209062099456787
 10
9.566203117370605
 20
3.0209062099456787
 10
9.584184646606445
 20
3.002924680709839
 10
9.620147705078125
 20
3.002924680709839
 10
9.638129234313965
 20
2.984943151473999
 10
9.656110763549805
 20
2.984943151473999
 10
9.674093246459961
 20
2.966961622238159
 10
9.6920747756958
 20
2.966961622238159
 10
9.71005630493164
 20
2.9489798545837402
 10
9.72803783416748
 20
2.9489798545837402
 10
9.74601936340332
 20
2.9309983253479004
 10
9.76400089263916
 20
2.9309983253479004
 10
9.781982421875
 20
2.9130167961120605
 10
9.79996395111084
 20
2.9130167961120605
 10
9.889871597290039
 20
2.8231089115142822
 10
9.907853126525879
 20
2.8231089115142822
 10
9.943816184997559
 20
2.7871456146240234
 10
9.943816184997559
 20
2.7691640853881836
 10
10.015743255615234
 20
2.697237730026245
 10
10.015743255615234
 20
2.6792562007904053
 10
10.033724784851074
 20
2.6612746715545654
 10
10.033724784851074
 20
2.5174219608306885
 10
10.015743255615234
 20
2.4994404315948486
 10
10.015743255615234
 20
2.4814586639404297
 10
9.979780197143555
 20
2.44549560546875
 10
9.979780197143555
 20
2.409532308578491
 10
9.961797714233398
 20
2.3915507793426514
 10
9.961797714233398
 20
2.3735692501068115
 10
9.943816184997559
 20
2.3555877208709717
 10
9.943816184997559
 20
2.319624423980713
 10
9.925834655761719
 20
2.301642894744873
 10
9.925834655761719
 20
2.283661365509033
 10
9.889871597290039
 20
2.2476980686187744
 10
9.889871597290039
 20
2.2297165393829346
 10
9.8718900680542
 20
2.2117350101470947
 10
9.8718900680542
 20
2.1398086547851562
 10
9.85390853881836
 20
2.1218271255493164
 10
9.85390853881836
 20
2.0858638286590576
 10
9.83592700958252
 20
2.0678822994232178
 10
9.83592700958252
 20
2.031919002532959
 10
9.81794548034668
 20
2.013937473297119
 10
9.81794548034668
 20
1.9959559440612793
 10
9.79996395111084
 20
1.9779744148254395
 10
9.79996395111084
 20
1.9420112371444702
 10
9.781982421875
 20
1.9240295886993408
 10
9.781982421875
 20
1.8700848817825317
 10
9.76400089263916
 20
1.8521032333374023
 10
9.76400089263916
 20
1.8341217041015625
 10
9.781982421875
 20
1.816140055656433
 10
9.781982421875
 20
1.7981585264205933
 10
9.79996395111084
 20
1.7801768779754639
 10
9.81794548034668
 20
1.7801768779754639
 10
9.83592700958252
 20
1.762195348739624
 10
9.8718900680542
 20
1.762195348739624
 10
9.889871597290039
 20
1.7442137002944946
 10
9.907853126525879
 20
1.7442137002944946
 10
9.925834655761719
 20
1.7262321710586548
 10
10.033724784851074
 20
1.7262321710586548
 10
10.051706314086914
 20
1.7442137002944946
 10
10.069687843322754
 20
1.7442137002944946
 10
10.087669372558594
 20
1.762195348739624
 10
10.105650901794434
 20
1.762195348739624
 10
10.123632431030273
 20
1.7801768779754639
 10
10.141613960266113
 20
1.7801768779754639
 10
10.159595489501953
 20
1.7981585264205933
 10
10.177577018737793
 20
1.7981585264205933
 10
10.195558547973633
 20
1.816140055656433
 10
10.213540077209473
 20
1.816140055656433
 10
10.285467147827148
 20
1.8880664110183716
 10
10.303448677062988
 20
1.8880664110183716
 10
10.483263969421387
 20
2.0678822994232178
 10
10.501245498657227
 20
2.0678822994232178
 10
10.519227027893066
 20
2.0858638286590576
 10
10.519227027893066
 20
2.1038453578948975
 10
10.609135627746582
 20
2.193753480911255
 10
10.609135627746582
 20
2.2117350101470947
 10
10.717024803161621
 20
2.319624423980713
 10
10.717024803161621
 20
2.3376059532165527
 10
10.7529878616333
 20
2.3735692501068115
 10
10.7529878616333
 20
2.3915507793426514
 10
10.77096939086914
 20
2.409532308578491
 10
10.77096939086914
 20
2.44549560546875
 10
10.78895092010498
 20
2.46347713470459
 10
10.78895092010498
 20
2.4814586639404297
 10
10.80693244934082
 20
2.4994404315948486
 10
10.80693244934082
 20
2.5174219608306885
 10
10.82491397857666
 20
2.5354034900665283
 10
10.82491397857666
 20
2.571366786956787
 10
10.8428955078125
 20
2.589348316192627
 10
10.8428955078125
 20
2.607329845428467
 10
10.86087703704834
 20
2.6253113746643066
 10
10.86087703704834
 20
2.6612746715545654
 10
10.87885856628418
 20
2.6792562007904053
 10
10.87885856628418
 20
2.715219259262085
 10
10.896841049194336
 20
2.733201026916504
 10
10.896841049194336
 20
2.7691640853881836
 10
10.914822578430176
 20
2.7871456146240234
 10
10.914822578430176
 20
2.877053737640381
 10
10.932804107666016
 20
2.8950352668762207
 10
10.932804107666016
 20
2.9309983253479004
 10
10.914822578430176
 20
2.9489798545837402
 10
10.914822578430176
 20
3.0209062099456787
 10
10.896841049194336
 20
3.0388879776000977
 10
10.896841049194336
 20
3.0568695068359375
 10
10.87885856628418
 20
3.0748510360717773
 10
10.87885856628418
 20
3.110814332962036
 10
10.86087703704834
 20
3.128795862197876
 10
10.86087703704834
 20
3.146777391433716
 10
10.82491397857666
 20
3.1827404499053955
 10
10.82491397857666
 20
3.2007222175598145
 10
10.80693244934082
 20
3.2187037467956543
 10
10.80693244934082
 20
3.254666805267334
 10
10.78895092010498
 20
3.272648572921753
 10
10.78895092010498
 20
3.2906301021575928
 10
10.77096939086914
 20
3.3086116313934326
 10
10.77096939086914
 20
3.3445749282836914
 10
10.7529878616333
 20
3.3625564575195312
 10
10.7529878616333
 20
3.380537986755371
 10
10.717024803161621
 20
3.41650128364563
 10
10.717024803161621
 20
3.4344828128814697
 10
10.699043273925781
 20
3.4524643421173096
 10
10.699043273925781
 20
3.4704458713531494
 10
10.663080215454102
 20
3.506409168243408
 10
10.663080215454102
 20
3.524390697479248
 10
10.627117156982422
 20
3.5603537559509277
 10
10.627117156982422
 20
3.5783355236053467
 10
10.591154098510742
 20
3.6142985820770264
 10
10.591154098510742
 20
3.632280111312866
 10
10.573171615600586
 20
3.650261878967285
 10
10.573171615600586
 20
3.668243408203125
 10
10.555190086364746
 20
3.686224937438965
 10
10.555190086364746
 20
3.7042064666748047
 10
10.519227027893066
 20
3.7401697635650635
 10
10.519227027893066
 20
3.7581512928009033
 10
10.501245498657227
 20
3.776132822036743
 10
10.501245498657227
 20
3.794114351272583
 10
10.429319381713867
 20
3.8660407066345215
 10
10.429319381713867
 20
3.8840224742889404
 10
10.411337852478027
 20
3.9020040035247803
 10
10.411337852478027
 20
3.91998553276062
 10
10.393356323242188
 20
3.93796706199646
 10
10.393356323242188
 20
3.955948829650879
 10
10.357393264770508
 20
3.9919118881225586
 10
10.357393264770508
 20
4.009893417358398
 10
10.339411735534668
 20
4.027874946594238
 10
10.339411735534668
 20
4.045856475830078
 10
10.321430206298828
 20
4.063838005065918
 10
10.321430206298828
 20
4.081820011138916
 10
10.285467147827148
 20
4.117783069610596
 10
10.285467147827148
 20
4.1357645988464355
 10
10.267484664916992
 20
4.153746128082275
 10
10.267484664916992
 20
4.171727657318115
 10
10.231521606445312
 20
4.207690715789795
 10
10.231521606445312
 20
4.225672721862793
 10
10.213540077209473
 20
4.243654251098633
 10
10.213540077209473
 20
4.261635780334473
 10
10.195558547973633
 20
4.2796173095703125
 10
10.195558547973633
 20
4.297598838806152
 10
10.177577018737793
 20
4.315580368041992
 10
10.177577018737793
 20
4.333561897277832
 10
10.159595489501953
 20
4.351543426513672
 10
10.159595489501953
 20
4.38750696182251
 10
10.141613960266113
 20
4.40548849105835
 10
10.141613960266113
 20
4.4234700202941895
 10
10.123632431030273
 20
4.441451549530029
 10
10.123632431030273
 20
4.459433078765869
 10
10.105650901794434
 20
4.477414608001709
 10
10.105650901794434
 20
4.513377666473389
 10
10.087669372558594
 20
4.531359672546387
 10
10.087669372558594
 20
4.567322731018066
 10
10.069687843322754
 20
4.585304260253906
 10
10.069687843322754
 20
4.621267318725586
 10
10.051706314086914
 20
4.639248847961426
 10
10.051706314086914
 20
4.6752119064331055
 10
10.033724784851074
 20
4.6931939125061035
 10
10.033724784851074
 20
4.729156970977783
 10
10.015743255615234
 20
4.747138500213623
 10
10.015743255615234
 20
4.765120029449463
 10
9.997761726379395
 20
4.783101558685303
 10
9.997761726379395
 20
4.801083087921143
 10
9.979780197143555
 20
4.819064617156982
 10
9.979780197143555
 20
4.8370466232299805
 10
9.961797714233398
 20
4.85502815246582
 10
9.961797714233398
 20
4.8909912109375
 10
9.943816184997559
 20
4.90897274017334
 10
9.943816184997559
 20
5.070806980133057
 10
9.925834655761719
 20
5.0887885093688965
 10
9.925834655761719
 20
5.250622749328613
 10
9.907853126525879
 20
5.268604278564453
 10
9.907853126525879
 20
5.6462178230285645
 10
9.889871597290039
 20
5.664199352264404
 10
9.889871597290039
 20
6.455389022827148
 10
9.8718900680542
 20
6.473370552062988
 10
9.8718900680542
 20
6.545297145843506
 10
9.889871597290039
 20
6.563278675079346
 10
9.889871597290039
 20
7.174652576446533
 10
9.8718900680542
 20
7.192634105682373
 10
9.889871597290039
 20
7.210615634918213
 10
9.889871597290039
 20
7.246578693389893
 10
9.8718900680542
 20
7.264560222625732
 10
9.8718900680542
 20
7.570247173309326
 10
9.889871597290039
 20
7.588228702545166
 10
9.889871597290039
 20
8.037768363952637
 10
9.8718900680542
 20
8.055749893188477
 10
9.8718900680542
 20
8.109694480895996
 10
9.889871597290039
 20
8.127676010131836
 10
9.889871597290039
 20
8.41538143157959
 10
9.8718900680542
 20
8.43336296081543
 10
9.889871597290039
 20
8.451345443725586
 10
9.889871597290039
 20
8.523271560668945
 10
9.8718900680542
 20
8.541253089904785
 10
9.8718900680542
 20
8.559234619140625
 10
9.889871597290039
 20
8.577216148376465
 10
9.889871597290039
 20
8.613179206848145
 10
9.8718900680542
 20
8.631160736083984
 10
9.8718900680542
 20
8.685105323791504
 10
9.889871597290039
 20
8.703086853027344
 10
9.889871597290039
 20
8.721068382263184
 10
9.8718900680542
 20
8.739049911499023
 10
9.8718900680542
 20
9.026755332946777
 10
9.889871597290039
 20
9.044736862182617
 10
9.889871597290039
 20
11.040693283081055
 10
9.907853126525879
 20
11.058674812316895
 10
9.907853126525879
 20
11.939772605895996
 10
9.925834655761719
 20
11.957754135131836
 10
9.925834655761719
 20
12.802888870239258
 10
9.907853126525879
 20
12.820870399475098
 10
9.907853126525879
 20
12.874814987182617
 10
9.889871597290039
 20
12.892796516418457
 10
9.889871597290039
 20
12.946741104125977
 10
9.8718900680542
 20
12.964722633361816
 10
9.8718900680542
 20
12.982704162597656
 10
9.85390853881836
 20
13.000685691833496
 10
9.85390853881836
 20
13.018667221069336
 10
9.72803783416748
 20
13.144538879394531
 10
9.71005630493164
 20
13.144538879394531
 10
9.6920747756958
 20
13.162520408630371
 10
9.674093246459961
 20
13.162520408630371
 10
9.656110763549805
 20
13.180501937866211
 10
9.638129234313965
 20
13.180501937866211
 10
9.620147705078125
 20
13.19848346710205
 10
9.584184646606445
 20
13.19848346710205
 10
9.566203117370605
 20
13.21646499633789
 10
9.458313941955566
 20
13.21646499633789
 10
9.440332412719727
 20
13.23444652557373
 10
9.332442283630371
 20
13.23444652557373
  0
ENDSEC
  0
SECTION
  2
OBJECTS
  0
DICTIONARY
  5
A
330
0
100
AcDbDictionary
281
1
  3
ACAD_COLOR
350
B
  3
ACAD_GROUP
350
C
  3
ACAD_LAYOUT
350
D
  3
ACAD_MATERIAL
350
E
  3
ACAD_MLEADERSTYLE
350
F
  3
ACAD_MLINESTYLE
350
10
  3
ACAD_PLOTSETTINGS
350
11
  3
ACAD_PLOTSTYLENAME
350
12
  3
ACAD_SCALELIST
350
14
  3
ACAD_TABLESTYLE
350
15
  3
ACAD_VISUALSTYLE
350
16
  3
EZDXF_META
350
2D
  0
DICTIONARY
  5
B
330
A
100
AcDbDictionary
281
1
  0
DICTIONARY
  5
C
330
A
100
AcDbDictionary
281
1
  0
DICTIONARY
  5
D
330
A
100
AcDbDictionary
281
1
  3
Model
350
1A
  3
Layout1
350
1E
  0
DICTIONARY
  5
E
330
A
100
AcDbDictionary
281
1
  3
ByBlock
350
1F
  3
ByLayer
350
20
  3
Global
350
21
  0
DICTIONARY
  5
F
330
A
100
AcDbDictionary
281
1
  3
Standard
350
2C
  0
DICTIONARY
  5
10
330
A
100
AcDbDictionary
281
1
  3
Standard
350
22
  0
DICTIONARY
  5
11
330
A
100
AcDbDictionary
281
1
  0
ACDBDICTIONARYWDFLT
  5
12
330
A
100
AcDbDictionary
281
1
  3
Normal
350
13
100
AcDbDictionaryWithDefault
340
13
  0
ACDBPLACEHOLDER
  5
13
330
12
  0
DICTIONARY
  5
14
330
A
100
AcDbDictionary
281
1
  0
DICTIONARY
  5
15
330
A
100
AcDbDictionary
281
1
  0
DICTIONARY
  5
16
330
A
100
AcDbDictionary
281
1
  0
LAYOUT
  5
1A
330
D
100
AcDbPlotSettings
  1

  4
A3
  6

 40
7.5
 41
20.0
 42
7.5
 43
20.0
 44
420.0
 45
297.0
 46
0.0
 47
0.0
 48
0.0
 49
0.0
140
0.0
141
0.0
142
1.0
143
1.0
 70
1024
 72
1
 73
0
 74
5
  7

 75
16
 76
0
 77
2
 78
300
147
1.0
148
0.0
149
0.0
100
AcDbLayout
  1
Model
 70
1
 71
0
 10
0.0
 20
0.0
 11
420.0
 21
297.0
 12
0.0
 22
0.0
 32
0.0
 14
1e+20
 24
1e+20
 34
1e+20
 15
-1e+20
 25
-1e+20
 35
-1e+20
146
0.0
 13
0.0
 23
0.0
 33
0.0
 16
1.0
 26
0.0
 36
0.0
 17
0.0
 27
1.0
 37
0.0
 76
1
330
17
  0
LAYOUT
  5
1E
330
D
100
AcDbPlotSettings
  1

  4
A3
  6

 40
7.5
 41
20.0
 42
7.5
 43
20.0
 44
420.0
 45
297.0
 46
0.0
 47
0.0
 48
0.0
 49
0.0
140
0.0
141
0.0
142
1.0
143
1.0
 70
0
 72
1
 73
0
 74
5
  7

 75
16
 76
0
 77
2
 78
300
147
1.0
148
0.0
149
0.0
100
AcDbLayout
  1
Layout1
 70
1
 71
1
 10
0.0
 20
0.0
 11
420.0
 21
297.0
 12
0.0
 22
0.0
 32
0.0
 14
1e+20
 24
1e+20
 34
1e+20
 15
-1e+20
 25
-1e+20
 35
-1e+20
146
0.0
 13
0.0
 23
0.0
 33
0.0
 16
1.0
 26
0.0
 36
0.0
 17
0.0
 27
1.0
 37
0.0
 76
1
330
1B
  0
MATERIAL
  5
1F
102
{ACAD_REACTORS
330
E
102
}
330
E
100
AcDbMaterial
  1
ByBlock
  2

 70
0
 40
1.0
 71
1
 41
1.0
 91
-1023410177
 42
1.0
 72
1
  3

 73
1
 74
1
 75
1
 44
0.5
 73
0
 45
1.0
 46
1.0
 77
1
  4

 78
1
 79
1
170
1
 48
1.0
171
1
  6

172
1
173
1
174
1
140
1.0
141
1.0
175
1
  7

176
1
177
1
178
1
143
1.0
179
1
  8

270
1
271
1
272
1
145
1.0
146
1.0
273
1
  9

274
1
275
1
276
1
 42
1.0
 72
1
  3

 73
1
 74
1
 75
1
 94
63
  0
MATERIAL
  5
20
102
{ACAD_REACTORS
330
E
102
}
330
E
100
AcDbMaterial
  1
ByLayer
  2

 70
0
 40
1.0
 71
1
 41
1.0
 91
-1023410177
 42
1.0
 72
1
  3

 73
1
 74
1
 75
1
 44
0.5
 73
0
 45
1.0
 46
1.0
 77
1
  4

 78
1
 79
1
170
1
 48
1.0
171
1
  6

172
1
173
1
174
1
140
1.0
141
1.0
175
1
  7

176
1
177
1
178
1
143
1.0
179
1
  8

270
1
271
1
272
1
145
1.0
146
1.0
273
1
  9

274
1
275
1
276
1
 42
1.0
 72
1
  3

 73
1
 74
1
 75
1
 94
63
  0
MATERIAL
  5
21
102
{ACAD_REACTORS
330
E
102
}
330
E
100
AcDbMaterial
  1
Global
  2

 70
0
 40
1.0
 71
1
 41
1.0
 91
-1023410177
 42
1.0
 72
1
  3

 73
1
 74
1
 75
1
 44
0.5
 73
0
 45
1.0
 46
1.0
 77
1
  4

 78
1
 79
1
170
1
 48
1.0
171
1
  6

172
1
173
1
174
1
140
1.0
141
1.0
175
1
  7

176
1
177
1
178
1
143
1.0
179
1
  8

270
1
271
1
272
1
145
1.0
146
1.0
273
1
  9

274
1
275
1
276
1
 42
1.0
 72
1
  3

 73
1
 74
1
 75
1
 94
63
  0
MLINESTYLE
  5
22
102
{ACAD_REACTORS
330
10
102
}
330
10
100
AcDbMlineStyle
  2
Standard
 70
0
  3

 62
256
 51
90.0
 52
90.0
 71
2
 49
0.5
 62
256
  6
BYLAYER
 49
-0.5
 62
256
  6
BYLAYER
  0
MLEADERSTYLE
  5
2C
102
{ACAD_REACTORS
330
F
102
}
330
F
100
AcDbMLeaderStyle
179
2
170
2
171
1
172
0
 90
2
 40
0.0
 41
0.0
173
1
 91
-1056964608
 92
-2
290
1
 42
2.0
291
1
 43
8.0
  3
Standard
 44
4.0
300

342
29
174
1
175
1
176
0
178
1
 93
-1056964608
 45
4.0
292
0
297
0
 46
4.0
 94
-1056964608
 47
1.0
 49
1.0
140
1.0
294
1
141
0.0
177
0
142
1.0
295
0
296
0
143
3.75
271
0
272
9
273
9
  0
DICTIONARY
  5
2D
330
A
100
AcDbDictionary
280
1
281
1
  3
CREATED_BY_EZDXF
350
2E
  3
WRITTEN_BY_EZDXF
350
38
  0
DICTIONARYVAR
  5
2E
330
2D
100
DictionaryVariables
280
0
  1
1.4.3 @ 2026-04-08T19:32:03.099531+00:00
  0
DICTIONARYVAR
  5
38
330
2D
100
DictionaryVariables
280
0
  1
1.4.3 @ 2026-04-08T19:32:03.105313+00:00
  0
ENDSEC
  0
EOF
