  0
SECTION
  2
HEADER
  9
$ACADVER
  1
AC1024
  9
$ACADMAINTVER
 70
6
  9
$DWGCODEPAGE
  3
ANSI_1252
  9
$LASTSAVEDBY
  1
ezdxf
  9
$INSBASE
 10
0.0
 20
0.0
 30
0.0
  9
$EXTMIN
 10
1e+20
 20
1e+20
 30
1e+20
  9
$EXTMAX
 10
-1e+20
 20
-1e+20
 30
-1e+20
  9
$LIMMIN
 10
0.0
 20
0.0
  9
$LIMMAX
 10
420.0
 20
297.0
  9
$ORTHOMODE
 70
0
  9
$REGENMODE
 70
1
  9
$FILLMODE
 70
1
  9
$QTEXTMODE
 70
0
  9
$MIRRTEXT
 70
1
  9
$LTSCALE
 40
1.0
  9
$ATTMODE
 70
1
  9
$TEXTSIZE
 40
2.5
  9
$TRACEWID
 40
1.0
  9
$TEXTSTYLE
  7
Standard
  9
$CLAYER
  8
0
  9
$CELTYPE
  6
ByLayer
  9
$CECOLOR
 62
256
  9
$CELTSCALE
 40
1.0
  9
$DISPSILH
 70
0
  9
$DIMSCALE
 40
1.0
  9
$DIMASZ
 40
2.5
  9
$DIMEXO
 40
0.625
  9
$DIMDLI
 40
3.75
  9
$DIMRND
 40
0.0
  9
$DIMDLE
 40
0.0
  9
$DIMEXE
 40
1.25
  9
$DIMTP
 40
0.0
  9
$DIMTM
 40
0.0
  9
$DIMTXT
 40
2.5
  9
$DIMCEN
 40
2.5
  9
$DIMTSZ
 40
0.0
  9
$DIMTOL
 70
0
  9
$DIMLIM
 70
0
  9
$DIMTIH
 70
0
  9
$DIMTOH
 70
0
  9
$DIMSE1
 70
0
  9
$DIMSE2
 70
0
  9
$DIMTAD
 70
1
  9
$DIMZIN
 70
8
  9
$DIMBLK
  1

  9
$DIMASO
 70
1
  9
$DIMSHO
 70
1
  9
$DIMPOST
  1

  9
$DIMAPOST
  1

  9
$DIMALT
 70
0
  9
$DIMALTD
 70
3
  9
$DIMALTF
 40
0.03937007874
  9
$DIMLFAC
 40
1.0
  9
$DIMTOFL
 70
1
  9
$DIMTVP
 40
0.0
  9
$DIMTIX
 70
0
  9
$DIMSOXD
 70
0
  9
$DIMSAH
 70
0
  9
$DIMBLK1
  1

  9
$DIMBLK2
  1

  9
$DIMSTYLE
  2
ISO-25
  9
$DIMCLRD
 70
0
  9
$DIMCLRE
 70
0
  9
$DIMCLRT
 70
0
  9
$DIMTFAC
 40
1.0
  9
$DIMGAP
 40
0.625
  9
$DIMJUST
 70
0
  9
$DIMSD1
 70
0
  9
$DIMSD2
 70
0
  9
$DIMTOLJ
 70
0
  9
$DIMTZIN
 70
8
  9
$DIMALTZ
 70
0
  9
$DIMALTTZ
 70
0
  9
$DIMUPT
 70
0
  9
$DIMDEC
 70
2
  9
$DIMTDEC
 70
2
  9
$DIMALTU
 70
2
  9
$DIMALTTD
 70
3
  9
$DIMTXSTY
  7
Standard
  9
$DIMAUNIT
 70
0
  9
$DIMADEC
 70
0
  9
$DIMALTRND
 40
0.0
  9
$DIMAZIN
 70
0
  9
$DIMDSEP
 70
44
  9
$DIMATFIT
 70
3
  9
$DIMFRAC
 70
0
  9
$DIMLDRBLK
  1

  9
$DIMLUNIT
 70
2
  9
$DIMLWD
 70
-2
  9
$DIMLWE
 70
-2
  9
$DIMTMOVE
 70
0
  9
$DIMFXL
 40
1.0
  9
$DIMFXLON
 70
0
  9
$DIMJOGANG
 40
0.785398163397
  9
$DIMTFILL
 70
0
  9
$DIMTFILLCLR
 70
0
  9
$DIMARCSYM
 70
0
  9
$DIMLTYPE
  6

  9
$DIMLTEX1
  6

  9
$DIMLTEX2
  6

  9
$DIMTXTDIRECTION
 70
0
  9
$LUNITS
 70
2
  9
$LUPREC
 70
4
  9
$SKETCHINC
 40
1.0
  9
$FILLETRAD
 40
10.0
  9
$AUNITS
 70
0
  9
$AUPREC
 70
2
  9
$MENU
  1
.
  9
$ELEVATION
 40
0.0
  9
$PELEVATION
 40
0.0
  9
$THICKNESS
 40
0.0
  9
$LIMCHECK
 70
0
  9
$CHAMFERA
 40
0.0
  9
$CHAMFERB
 40
0.0
  9
$CHAMFERC
 40
0.0
  9
$CHAMFERD
 40
0.0
  9
$SKPOLY
 70
0
  9
$TDCREATE
 40
2461139.5838078703
  9
$TDUCREATE
 40
2458532.153996898
  9
$TDUPDATE
 40
2461139.5838078703
  9
$TDUUPDATE
 40
2458532.1544311
  9
$TDINDWG
 40
0.0
  9
$TDUSRTIMER
 40
0.0
  9
$USRTIMER
 70
1
  9
$ANGBASE
 50
0.0
  9
$ANGDIR
 70
0
  9
$PDMODE
 70
0
  9
$PDSIZE
 40
0.0
  9
$PLINEWID
 40
0.0
  9
$SPLFRAME
 70
0
  9
$SPLINETYPE
 70
6
  9
$SPLINESEGS
 70
8
  9
$HANDSEED
  5
44
  9
$SURFTAB1
 70
6
  9
$SURFTAB2
 70
6
  9
$SURFTYPE
 70
6
  9
$SURFU
 70
6
  9
$SURFV
 70
6
  9
$UCSBASE
  2

  9
$UCSNAME
  2

  9
$UCSORG
 10
0.0
 20
0.0
 30
0.0
  9
$UCSXDIR
 10
1.0
 20
0.0
 30
0.0
  9
$UCSYDIR
 10
0.0
 20
1.0
 30
0.0
  9
$UCSORTHOREF
  2

  9
$UCSORTHOVIEW
 70
0
  9
$UCSORGTOP
 10
0.0
 20
0.0
 30
0.0
  9
$UCSORGBOTTOM
 10
0.0
 20
0.0
 30
0.0
  9
$UCSORGLEFT
 10
0.0
 20
0.0
 30
0.0
  9
$UCSORGRIGHT
 10
0.0
 20
0.0
 30
0.0
  9
$UCSORGFRONT
 10
0.0
 20
0.0
 30
0.0
  9
$UCSORGBACK
 10
0.0
 20
0.0
 30
0.0
  9
$PUCSBASE
  2

  9
$PUCSNAME
  2

  9
$PUCSORG
 10
0.0
 20
0.0
 30
0.0
  9
$PUCSXDIR
 10
1.0
 20
0.0
 30
0.0
  9
$PUCSYDIR
 10
0.0
 20
1.0
 30
0.0
  9
$PUCSORTHOREF
  2

  9
$PUCSORTHOVIEW
 70
0
  9
$PUCSORGTOP
 10
0.0
 20
0.0
 30
0.0
  9
$PUCSORGBOTTOM
 10
0.0
 20
0.0
 30
0.0
  9
$PUCSORGLEFT
 10
0.0
 20
0.0
 30
0.0
  9
$PUCSORGRIGHT
 10
0.0
 20
0.0
 30
0.0
  9
$PUCSORGFRONT
 10
0.0
 20
0.0
 30
0.0
  9
$PUCSORGBACK
 10
0.0
 20
0.0
 30
0.0
  9
$USERI1
 70
0
  9
$USERI2
 70
0
  9
$USERI3
 70
0
  9
$USERI4
 70
0
  9
$USERI5
 70
0
  9
$USERR1
 40
0.0
  9
$USERR2
 40
0.0
  9
$USERR3
 40
0.0
  9
$USERR4
 40
0.0
  9
$USERR5
 40
0.0
  9
$WORLDVIEW
 70
1
  9
$SHADEDGE
 70
3
  9
$SHADEDIF
 70
70
  9
$TILEMODE
 70
1
  9
$MAXACTVP
 70
64
  9
$PINSBASE
 10
0.0
 20
0.0
 30
0.0
  9
$PLIMCHECK
 70
0
  9
$PEXTMIN
 10
1e+20
 20
1e+20
 30
1e+20
  9
$PEXTMAX
 10
-1e+20
 20
-1e+20
 30
-1e+20
  9
$PLIMMIN
 10
0.0
 20
0.0
  9
$PLIMMAX
 10
420.0
 20
297.0
  9
$UNITMODE
 70
0
  9
$VISRETAIN
 70
1
  9
$PLINEGEN
 70
0
  9
$PSLTSCALE
 70
1
  9
$TREEDEPTH
 70
3020
  9
$CMLSTYLE
  2
Standard
  9
$CMLJUST
 70
0
  9
$CMLSCALE
 40
20.0
  9
$PROXYGRAPHICS
 70
1
  9
$MEASUREMENT
 70
1
  9
$CELWEIGHT
370
-1
  9
$ENDCAPS
280
0
  9
$JOINSTYLE
280
0
  9
$LWDISPLAY
290
0
  9
$INSUNITS
 70
6
  9
$HYPERLINKBASE
  1

  9
$STYLESHEET
  1

  9
$XEDIT
290
1
  9
$CEPSNTYPE
380
0
  9
$PSTYLEMODE
290
1
  9
$FINGERPRINTGUID
  2
{2FA0D90C-CE78-432E-BDD3-9D16DA1B5B1E}
  9
$VERSIONGUID
  2
{EBBA749F-C383-4BFC-8C4F-DFEA8F5B9471}
  9
$EXTNAMES
290
1
  9
$PSVPSCALE
 40
0.0
  9
$OLESTARTUP
290
0
  9
$SORTENTS
280
127
  9
$INDEXCTL
280
0
  9
$HIDETEXT
280
1
  9
$XCLIPFRAME
280
1
  9
$HALOGAP
280
0
  9
$OBSCOLOR
 70
257
  9
$OBSLTYPE
280
0
  9
$INTERSECTIONDISPLAY
280
0
  9
$INTERSECTIONCOLOR
 70
257
  9
$DIMASSOC
280
2
  9
$PROJECTNAME
  1

  9
$CAMERADISPLAY
290
0
  9
$LENSLENGTH
 40
50.0
  9
$CAMERAHEIGHT
 40
0.0
  9
$STEPSPERSEC
 40
24.0
  9
$STEPSIZE
 40
100.0
  9
$3DDWFPREC
 40
2.0
  9
$PSOLWIDTH
 40
0.005
  9
$PSOLHEIGHT
 40
0.08
  9
$LOFTANG1
 40
1.570796326795
  9
$LOFTANG2
 40
1.570796326795
  9
$LOFTMAG1
 40
0.0
  9
$LOFTMAG2
 40
0.0
  9
$LOFTPARAM
 70
7
  9
$LOFTNORMALS
280
1
  9
$LATITUDE
 40
37.795
  9
$LONGITUDE
 40
-122.394
  9
$NORTHDIRECTION
 40
0.0
  9
$TIMEZONE
 70
-8000
  9
$LIGHTGLYPHDISPLAY
280
1
  9
$TILEMODELIGHTSYNCH
280
1
  9
$CMATERIAL
347
20
  9
$SOLIDHIST
280
0
  9
$SHOWHIST
280
1
  9
$DWFFRAME
280
2
  9
$DGNFRAME
280
2
  9
$REALWORLDSCALE
290
1
  9
$INTERFERECOLOR
 62
256
  9
$CSHADOW
280
0
  9
$SHADOWPLANELOCATION
 40
0.0
  0
ENDSEC
  0
SECTION
  2
CLASSES
  0
CLASS
  1
ACDBDICTIONARYWDFLT
  2
AcDbDictionaryWithDefault
  3
ObjectDBX Classes
 90
0
 91
0
280
0
281
0
  0
CLASS
  1
SUN
  2
AcDbSun
  3
SCENEOE
 90
1153
 91
0
280
0
281
0
  0
CLASS
  1
VISUALSTYLE
  2
AcDbVisualStyle
  3
ObjectDBX Classes
 90
4095
 91
0
280
0
281
0
  0
CLASS
  1
MATERIAL
  2
AcDbMaterial
  3
ObjectDBX Classes
 90
1153
 91
0
280
0
281
0
  0
CLASS
  1
SCALE
  2
AcDbScale
  3
ObjectDBX Classes
 90
1153
 91
0
280
0
281
0
  0
CLASS
  1
TABLESTYLE
  2
AcDbTableStyle
  3
ObjectDBX Classes
 90
4095
 91
0
280
0
281
0
  0
CLASS
  1
MLEADERSTYLE
  2
AcDbMLeaderStyle
  3
ACDB_MLEADERSTYLE_CLASS
 90
4095
 91
0
280
0
281
0
  0
CLASS
  1
DICTIONARYVAR
  2
AcDbDictionaryVar
  3
ObjectDBX Classes
 90
0
 91
0
280
0
281
0
  0
CLASS
  1
CELLSTYLEMAP
  2
AcDbCellStyleMap
  3
ObjectDBX Classes
 90
1152
 91
0
280
0
281
0
  0
CLASS
  1
MENTALRAYRENDERSETTINGS
  2
AcDbMentalRayRenderSettings
  3
SCENEOE
 90
1024
 91
0
280
0
281
0
  0
CLASS
  1
ACDBDETAILVIEWSTYLE
  2
AcDbDetailViewStyle
  3
ObjectDBX Classes
 90
1025
 91
0
280
0
281
0
  0
CLASS
  1
ACDBSECTIONVIEWSTYLE
  2
AcDbSectionViewStyle
  3
ObjectDBX Classes
 90
1025
 91
0
280
0
281
0
  0
CLASS
  1
RASTERVARIABLES
  2
AcDbRasterVariables
  3
ISM
 90
0
 91
0
280
0
281
0
  0
CLASS
  1
ACDBPLACEHOLDER
  2
AcDbPlaceHolder
  3
ObjectDBX Classes
 90
0
 91
0
280
0
281
0
  0
CLASS
  1
LAYOUT
  2
AcDbLayout
  3
ObjectDBX Classes
 90
0
 91
0
280
0
281
0
  0
ENDSEC
  0
SECTION
  2
TABLES
  0
TABLE
  2
VPORT
  5
8
330
0
100
AcDbSymbolTable
 70
1
  0
VPORT
  5
23
330
8
100
AcDbSymbolTableRecord
100
AcDbViewportTableRecord
  2
*Active
 70
0
 10
0.0
 20
0.0
 11
1.0
 21
1.0
 12
0.0
 22
0.0
 13
0.0
 23
0.0
 14
0.5
 24
0.5
 15
0.5
 25
0.5
 16
0.0
 26
0.0
 36
1.0
 17
0.0
 27
0.0
 37
0.0
 40
1000.0
 41
1.34
 42
50.0
 43
0.0
 44
0.0
 50
0.0
 51
0.0
 71
0
 72
1000
 73
1
 74
3
 75
0
 76
0
 77
0
 78
0
281
0
 65
0
146
0.0
  0
ENDTAB
  0
TABLE
  2
LTYPE
  5
2
330
0
100
AcDbSymbolTable
 70
3
  0
LTYPE
  5
24
330
2
100
AcDbSymbolTableRecord
100
AcDbLinetypeTableRecord
  2
ByBlock
 70
0
  3

 72
65
 73
0
 40
0.0
  0
LTYPE
  5
25
330
2
100
AcDbSymbolTableRecord
100
AcDbLinetypeTableRecord
  2
ByLayer
 70
0
  3

 72
65
 73
0
 40
0.0
  0
LTYPE
  5
26
330
2
100
AcDbSymbolTableRecord
100
AcDbLinetypeTableRecord
  2
Continuous
 70
0
  3

 72
65
 73
0
 40
0.0
  0
ENDTAB
  0
TABLE
  2
LAYER
  5
1
330
0
100
AcDbSymbolTable
 70
4
  0
LAYER
  5
27
330
1
100
AcDbSymbolTableRecord
100
AcDbLayerTableRecord
  2
0
 70
0
 62
7
  6
Continuous
370
-3
390
13
347
21
  0
LAYER
  5
28
330
1
100
AcDbSymbolTableRecord
100
AcDbLayerTableRecord
  2
Defpoints
 70
0
 62
7
  6
Continuous
290
0
370
-3
390
13
347
21
  0
LAYER
  5
2F
330
1
100
AcDbSymbolTableRecord
100
AcDbLayerTableRecord
  2
Outline
 70
0
 62
7
  6
Continuous
370
-3
390
13
347
21
  0
LAYER
  5
30
330
1
100
AcDbSymbolTableRecord
100
AcDbLayerTableRecord
  2
BoundaryBox
 70
0
 62
3
  6
Continuous
370
-3
390
13
347
21
  0
ENDTAB
  0
TABLE
  2
STYLE
  5
5
330
0
100
AcDbSymbolTable
 70
1
  0
STYLE
  5
29
330
5
100
AcDbSymbolTableRecord
100
AcDbTextStyleTableRecord
  2
Standard
 70
0
 40
0.0
 41
1.0
 50
0.0
 71
0
 42
2.5
  3
txt
  4

  0
ENDTAB
  0
TABLE
  2
VIEW
  5
7
330
0
100
AcDbSymbolTable
 70
0
  0
ENDTAB
  0
TABLE
  2
UCS
  5
6
330
0
100
AcDbSymbolTable
 70
0
  0
ENDTAB
  0
TABLE
  2
APPID
  5
3
330
0
100
AcDbSymbolTable
 70
3
  0
APPID
  5
2A
330
3
100
AcDbSymbolTableRecord
100
AcDbRegAppTableRecord
  2
ACAD
 70
0
  0
APPID
  5
41
330
3
100
AcDbSymbolTableRecord
100
AcDbRegAppTableRecord
  2
HATCHBACKGROUNDCOLOR
 70
0
  0
APPID
  5
42
330
3
100
AcDbSymbolTableRecord
100
AcDbRegAppTableRecord
  2
EZDXF
 70
0
  0
ENDTAB
  0
TABLE
  2
DIMSTYLE
  5
4
330
0
100
AcDbSymbolTable
 70
1
100
AcDbDimStyleTable
  0
DIMSTYLE
105
2B
330
4
100
AcDbSymbolTableRecord
100
AcDbDimStyleTableRecord
  2
Standard
 70
0
 40
1.0
 41
2.5
 42
0.625
 43
3.75
 44
1.25
 45
0.0
 46
0.0
 47
0.0
 48
0.0
 49
2.5
140
2.5
141
2.5
142
0.0
143
0.03937007874
144
1.0
145
0.0
146
1.0
147
0.625
148
0.0
 69
0
 70
0
 71
0
 72
0
 73
0
 74
0
 75
0
 76
0
 77
1
 78
8
 79
3
170
0
171
3
172
1
173
0
174
0
175
0
176
0
177
0
178
0
179
2
271
2
272
2
273
2
274
3
275
0
276
0
277
2
278
44
279
0
280
0
281
0
282
0
283
0
284
8
285
0
286
0
288
0
289
3
290
0
371
-2
372
-2
  0
ENDTAB
  0
TABLE
  2
BLOCK_RECORD
  5
9
330
0
100
AcDbSymbolTable
 70
2
  0
BLOCK_RECORD
  5
17
330
9
100
AcDbSymbolTableRecord
100
AcDbBlockTableRecord
  2
*Model_Space
340
1A
 70
0
280
1
281
0
  0
BLOCK_RECORD
  5
1B
330
9
100
AcDbSymbolTableRecord
100
AcDbBlockTableRecord
  2
*Paper_Space
340
1E
 70
0
280
1
281
0
  0
ENDTAB
  0
ENDSEC
  0
SECTION
  2
BLOCKS
  0
BLOCK
  5
18
330
17
100
AcDbEntity
  8
0
100
AcDbBlockBegin
  2
*Model_Space
 70
0
 10
0.0
 20
0.0
 30
0.0
  3
*Model_Space
  1

  0
ENDBLK
  5
19
330
17
100
AcDbEntity
  8
0
100
AcDbBlockEnd
  0
BLOCK
  5
1C
330
1B
100
AcDbEntity
  8
0
100
AcDbBlockBegin
  2
*Paper_Space
 70
0
 10
0.0
 20
0.0
 30
0.0
  3
*Paper_Space
  1

  0
ENDBLK
  5
1D
330
1B
100
AcDbEntity
  8
0
100
AcDbBlockEnd
  0
ENDSEC
  0
SECTION
  2
ENTITIES
  0
LWPOLYLINE
  5
31
330
17
100
AcDbEntity
  8
BoundaryBox
100
AcDbPolyline
 90
5
 70
1
 10
0.0
 20
14.87660026550293
 10
21.698253631591797
 20
14.87660026550293
 10
21.698253631591797
 20
0.0
 10
0.0
 20
0.0
 10
0.0
 20
14.87660026550293
  0
LWPOLYLINE
  5
32
330
17
100
AcDbEntity
  8
Outline
100
AcDbPolyline
 90
200
 70
0
 10
7.553921222686768
 20
12.988120079040527
 10
7.534651279449463
 20
12.968850135803223
 10
7.496110916137695
 20
12.968850135803223
 10
7.476840496063232
 20
12.949579238891602
 10
7.457570552825928
 20
12.949579238891602
 10
7.438300132751465
 20
12.930309295654297
 10
7.399759769439697
 20
12.930309295654297
 10
7.380489349365234
 20
12.911039352416992
 10
7.36121940612793
 20
12.911039352416992
 10
7.341948986053467
 20
12.891769409179688
 10
7.322679042816162
 20
12.891769409179688
 10
7.207057476043701
 20
12.776147842407227
 10
7.1877875328063965
 20
12.776147842407227
 10
7.168517112731934
 20
12.756877899169922
 10
7.149247169494629
 20
12.756877899169922
 10
7.110706806182861
 20
12.718337059020996
 10
7.091436386108398
 20
12.718337059020996
 10
7.072166442871094
 20
12.699067115783691
 10
7.014355659484863
 20
12.699067115783691
 10
6.9950852394104
 20
12.67979621887207
 10
6.8987345695495605
 20
12.67979621887207
 10
6.879464149475098
 20
12.660526275634766
 10
6.821653366088867
 20
12.660526275634766
 10
6.8023834228515625
 20
12.641256332397461
 10
6.744572639465332
 20
12.641256332397461
 10
6.725302696228027
 20
12.621986389160156
 10
6.532600402832031
 20
12.621986389160156
 10
6.513329982757568
 20
12.602715492248535
 10
6.050845146179199
 20
12.602715492248535
 10
6.0315752029418945
 20
12.621986389160156
 10
5.896683692932129
 20
12.621986389160156
 10
5.877413272857666
 20
12.602715492248535
 10
4.933173179626465
 20
12.602715492248535
 10
4.913902759552002
 20
12.58344554901123
 10
4.663390159606934
 20
12.58344554901123
 10
4.644120216369629
 20
12.602715492248535
 10
3.8155012130737305
 20
12.602715492248535
 10
3.7962310314178467
 20
12.58344554901123
 10
3.5264480113983154
 20
12.58344554901123
 10
3.5071778297424316
 20
12.602715492248535
 10
3.3144757747650146
 20
12.602715492248535
 10
3.295205593109131
 20
12.58344554901123
 10
2.890531063079834
 20
12.58344554901123
 10
2.87126088142395
 20
12.602715492248535
 10
2.023371696472168
 20
12.602715492248535
 10
2.004101514816284
 20
12.621986389160156
 10
1.9462909698486328
 20
12.621986389160156
 10
1.927020788192749
 20
12.602715492248535
 10
1.888480305671692
 20
12.602715492248535
 10
1.869210124015808
 20
12.621986389160156
 10
1.8499399423599243
 20
12.621986389160156
 10
1.8306697607040405
 20
12.641256332397461
 10
1.8113995790481567
 20
12.641256332397461
 10
1.7921292781829834
 20
12.660526275634766
 10
1.7728590965270996
 20
12.660526275634766
 10
1.7535889148712158
 20
12.67979621887207
 10
1.734318733215332
 20
12.67979621887207
 10
1.7150484323501587
 20
12.699067115783691
 10
1.695778250694275
 20
12.699067115783691
 10
1.6765080690383911
 20
12.718337059020996
 10
1.6379677057266235
 20
12.718337059020996
 10
1.6186974048614502
 20
12.7376070022583
 10
1.445265531539917
 20
12.7376070022583
 10
1.4259953498840332
 20
12.718337059020996
 10
1.3681848049163818
 20
12.718337059020996
 10
1.3489145040512085
 20
12.699067115783691
 10
1.3296443223953247
 20
12.699067115783691
 10
1.310374140739441
 20
12.67979621887207
 10
1.2911039590835571
 20
12.67979621887207
 10
1.2525634765625
 20
12.641256332397461
 10
1.2332932949066162
 20
12.641256332397461
 10
1.1947529315948486
 20
12.602715492248535
 10
1.1947529315948486
 20
12.58344554901123
 10
1.1369422674179077
 20
12.525634765625
 10
1.1369422674179077
 20
12.46782398223877
 10
1.117672085762024
 20
12.448554039001465
 10
1.117672085762024
 20
12.21731185913086
 10
1.1369422674179077
 20
12.198041915893555
 10
1.1369422674179077
 20
12.159501075744629
 10
1.1562124490737915
 20
12.140231132507324
 10
1.1562124490737915
 20
12.120960235595703
 10
1.1754826307296753
 20
12.120960235595703
 10
1.1947529315948486
 20
12.101690292358398
 10
1.1947529315948486
 20
12.082420349121094
 10
1.2332932949066162
 20
12.043879508972168
 10
1.2525634765625
 20
12.043879508972168
 10
1.2718336582183838
 20
12.024609565734863
 10
1.2911039590835571
 20
12.024609565734863
 10
1.310374140739441
 20
12.005339622497559
 10
1.3489145040512085
 20
12.005339622497559
 10
1.3681848049163818
 20
11.986069679260254
 10
1.4067251682281494
 20
11.986069679260254
 10
1.4259953498840332
 20
11.966798782348633
 10
1.4838060140609741
 20
11.966798782348633
 10
1.503076195716858
 20
11.947528839111328
 10
1.6379677057266235
 20
11.947528839111328
 10
1.6572378873825073
 20
11.966798782348633
 10
1.734318733215332
 20
11.966798782348633
 10
1.7535889148712158
 20
11.986069679260254
 10
1.7921292781829834
 20
11.986069679260254
 10
1.8113995790481567
 20
12.005339622497559
 10
1.869210124015808
 20
12.005339622497559
 10
1.888480305671692
 20
12.024609565734863
 10
1.98483145236969
 20
12.024609565734863
 10
2.004101514816284
 20
12.043879508972168
 10
2.042642116546631
 20
12.043879508972168
 10
2.0619122982025146
 20
12.063150405883789
 10
2.1582632064819336
 20
12.063150405883789
 10
2.1775333881378174
 20
12.082420349121094
 10
2.428046226501465
 20
12.082420349121094
 10
2.4473164081573486
 20
12.101690292358398
 10
3.4108266830444336
 20
12.101690292358398
 10
3.4300968647003174
 20
12.082420349121094
 10
4.355066776275635
 20
12.082420349121094
 10
4.374337196350098
 20
12.101690292358398
 10
6.7831130027771
 20
12.101690292358398
 10
6.8023834228515625
 20
12.082420349121094
 10
6.8987345695495605
 20
12.082420349121094
 10
6.918004512786865
 20
12.063150405883789
 10
6.9950852394104
 20
12.063150405883789
 10
7.014355659484863
 20
12.043879508972168
 10
7.072166442871094
 20
12.043879508972168
 10
7.091436386108398
 20
12.024609565734863
 10
7.110706806182861
 20
12.024609565734863
 10
7.129976749420166
 20
12.005339622497559
 10
7.1877875328063965
 20
12.005339622497559
 10
7.207057476043701
 20
11.986069679260254
 10
7.245598316192627
 20
11.986069679260254
 10
7.264868259429932
 20
11.966798782348633
 10
7.2841386795043945
 20
11.966798782348633
 10
7.303408622741699
 20
11.947528839111328
 10
7.322679042816162
 20
11.947528839111328
 10
7.341948986053467
 20
11.928258895874023
 10
7.36121940612793
 20
11.928258895874023
 10
7.399759769439697
 20
11.889718055725098
 10
7.41903018951416
 20
11.889718055725098
 10
7.457570552825928
 20
11.851178169250488
 10
7.457570552825928
 20
11.831907272338867
 10
7.476840496063232
 20
11.812637329101562
 10
7.496110916137695
 20
11.812637329101562
 10
7.515380859375
 20
11.793367385864258
 10
7.5731916427612305
 20
11.793367385864258
 10
7.592462062835693
 20
11.774096488952637
 10
7.804434299468994
 20
11.774096488952637
 10
7.823704242706299
 20
11.793367385864258
 10
7.842974662780762
 20
11.793367385864258
 10
7.862244606018066
 20
11.812637329101562
 10
7.881515026092529
 20
11.812637329101562
 10
7.900784969329834
 20
11.831907272338867
 10
7.920055389404297
 20
11.831907272338867
 10
7.977866172790527
 20
11.889718055725098
 10
8.016406059265137
 20
11.889718055725098
 10
8.093486785888672
 20
11.966798782348633
 10
8.093486785888672
 20
11.986069679260254
 10
8.112757682800293
 20
12.005339622497559
 10
8.112757682800293
 20
12.024609565734863
 10
8.132027626037598
 20
12.043879508972168
 10
8.132027626037598
 20
12.063150405883789
 10
8.170568466186523
 20
12.101690292358398
 10
8.170568466186523
 20
12.120960235595703
 10
8.189838409423828
 20
12.140231132507324
 10
8.189838409423828
 20
12.159501075744629
 10
8.209108352661133
 20
12.178771018981934
 10
8.189838409423828
 20
12.198041915893555
 10
8.189838409423828
 20
12.21731185913086
 10
8.035676956176758
 20
12.21731185913086
 10
8.016406059265137
 20
12.198041915893555
 10
7.900784969329834
 20
12.198041915893555
 10
7.881515026092529
 20
12.178771018981934
 10
7.765893936157227
 20
12.178771018981934
 10
7.631002426147461
 20
12.3136625289917
 10
7.631002426147461
 20
12.37147331237793
 10
7.611732006072998
 20
12.390743255615234
 10
7.611732006072998
 20
12.48709487915039
 10
7.631002426147461
 20
12.506364822387695
 10
7.631002426147461
 20
12.58344554901123
 10
7.6695427894592285
 20
12.621986389160156
 10
7.688812732696533
 20
12.621986389160156
 10
7.746623516082764
 20
12.67979621887207
 10
7.785163879394531
 20
12.67979621887207
 10
7.804434299468994
 20
12.699067115783691
 10
7.842974662780762
 20
12.699067115783691
 10
7.862244606018066
 20
12.718337059020996
 10
7.900784969329834
 20
12.718337059020996
 10
7.920055389404297
 20
12.7376070022583
 10
7.93932580947876
 20
12.7376070022583
 10
7.9585957527160645
 20
12.756877899169922
 10
7.997136116027832
 20
12.756877899169922
 10
8.035676956176758
 20
12.795417785644531
 10
8.035676956176758
 20
12.833958625793457
 10
7.977866172790527
 20
12.891769409179688
 10
7.9585957527160645
 20
12.891769409179688
 10
7.920055389404297
 20
12.930309295654297
 10
7.881515026092529
 20
12.930309295654297
 10
7.862244606018066
 20
12.949579238891602
 10
7.842974662780762
 20
12.949579238891602
 10
7.823704242706299
 20
12.968850135803223
 10
7.765893936157227
 20
12.968850135803223
 10
7.746623516082764
 20
12.988120079040527
 10
7.553921222686768
 20
12.988120079040527
  0
LWPOLYLINE
  5
33
330
17
100
AcDbEntity
  8
Outline
100
AcDbPolyline
 90
159
 70
0
 10
6.821653366088867
 20
11.11890983581543
 10
6.8023834228515625
 20
11.099639892578125
 10
6.725302696228027
 20
11.099639892578125
 10
6.7060322761535645
 20
11.080368995666504
 10
6.686761856079102
 20
11.080368995666504
 10
6.571140766143799
 20
10.96474838256836
 10
6.551870822906494
 20
10.96474838256836
 10
6.513329982757568
 20
10.926207542419434
 10
6.474789619445801
 20
10.926207542419434
 10
6.436249256134033
 20
10.887667655944824
 10
6.378438949584961
 20
10.887667655944824
 10
6.359168529510498
 20
10.868396759033203
 10
6.282087802886963
 20
10.868396759033203
 10
6.2628173828125
 20
10.849126815795898
 10
5.877413272857666
 20
10.849126815795898
 10
5.858143329620361
 20
10.829856872558594
 10
4.798281669616699
 20
10.829856872558594
 10
4.7790117263793945
 20
10.849126815795898
 10
4.759741306304932
 20
10.829856872558594
 10
4.5670390129089355
 20
10.829856872558594
 10
4.547769069671631
 20
10.849126815795898
 10
4.046743392944336
 20
10.849126815795898
 10
4.027473449707031
 20
10.829856872558594
 10
2.7363696098327637
 20
10.829856872558594
 10
2.717099189758301
 20
10.849126815795898
 10
2.042642116546631
 20
10.849126815795898
 10
2.023371696472168
 20
10.868396759033203
 10
1.7728590965270996
 20
10.868396759033203
 10
1.7535889148712158
 20
10.887667655944824
 10
1.734318733215332
 20
10.887667655944824
 10
1.7150484323501587
 20
10.906937599182129
 10
1.695778250694275
 20
10.906937599182129
 10
1.6572378873825073
 20
10.945478439331055
 10
1.6379677057266235
 20
10.945478439331055
 10
1.6186974048614502
 20
10.96474838256836
 10
1.5801570415496826
 20
10.96474838256836
 10
1.5608868598937988
 20
10.984018325805664
 10
1.503076195716858
 20
10.984018325805664
 10
1.4838060140609741
 20
11.003288269042969
 10
1.310374140739441
 20
11.003288269042969
 10
1.2911039590835571
 20
10.984018325805664
 10
1.2718336582183838
 20
10.984018325805664
 10
1.2140231132507324
 20
10.926207542419434
 10
1.1947529315948486
 20
10.926207542419434
 10
1.1562124490737915
 20
10.887667655944824
 10
1.1369422674179077
 20
10.887667655944824
 10
1.1369422674179077
 20
10.868396759033203
 10
1.117672085762024
 20
10.849126815795898
 10
1.117672085762024
 20
10.829856872558594
 10
1.0984017848968506
 20
10.810586929321289
 10
1.0984017848968506
 20
10.791316032409668
 10
1.0791316032409668
 20
10.772046089172363
 10
1.0791316032409668
 20
10.733505249023438
 10
1.059861421585083
 20
10.714235305786133
 10
1.059861421585083
 20
10.560073852539062
 10
1.0791316032409668
 20
10.540803909301758
 10
1.0791316032409668
 20
10.502263069152832
 10
1.117672085762024
 20
10.463723182678223
 10
1.117672085762024
 20
10.444452285766602
 10
1.1369422674179077
 20
10.425182342529297
 10
1.1369422674179077
 20
10.405912399291992
 10
1.2332932949066162
 20
10.309560775756836
 10
1.2718336582183838
 20
10.309560775756836
 10
1.2911039590835571
 20
10.290290832519531
 10
1.4645358324050903
 20
10.290290832519531
 10
1.4838060140609741
 20
10.309560775756836
 10
1.6186974048614502
 20
10.309560775756836
 10
1.6379677057266235
 20
10.328831672668457
 10
1.6765080690383911
 20
10.328831672668457
 10
1.7150484323501587
 20
10.367371559143066
 10
1.8306697607040405
 20
10.367371559143066
 10
1.8499399423599243
 20
10.386641502380371
 10
1.9077506065368652
 20
10.386641502380371
 10
1.927020788192749
 20
10.405912399291992
 10
2.0619122982025146
 20
10.405912399291992
 10
2.0811824798583984
 20
10.425182342529297
 10
2.235344171524048
 20
10.425182342529297
 10
2.2546143531799316
 20
10.405912399291992
 10
2.4473164081573486
 20
10.405912399291992
 10
2.4665865898132324
 20
10.425182342529297
 10
2.678558826446533
 20
10.425182342529297
 10
2.697829008102417
 20
10.405912399291992
 10
2.8519906997680664
 20
10.405912399291992
 10
2.87126088142395
 20
10.386641502380371
 10
3.854041576385498
 20
10.386641502380371
 10
3.873311758041382
 20
10.367371559143066
 10
4.008203029632568
 20
10.367371559143066
 10
4.027473449707031
 20
10.386641502380371
 10
6.147196292877197
 20
10.386641502380371
 10
6.16646671295166
 20
10.367371559143066
 10
6.3206281661987305
 20
10.367371559143066
 10
6.339898109436035
 20
10.348101615905762
 10
6.397708892822266
 20
10.348101615905762
 10
6.4169793128967285
 20
10.328831672668457
 10
6.436249256134033
 20
10.328831672668457
 10
6.455519676208496
 20
10.309560775756836
 10
6.474789619445801
 20
10.309560775756836
 10
6.494060039520264
 20
10.290290832519531
 10
6.513329982757568
 20
10.290290832519531
 10
6.551870822906494
 20
10.251750946044922
 10
6.571140766143799
 20
10.251750946044922
 10
6.648221492767334
 20
10.17466926574707
 10
6.667491912841797
 20
10.17466926574707
 10
6.686761856079102
 20
10.155399322509766
 10
6.7060322761535645
 20
10.155399322509766
 10
6.725302696228027
 20
10.136129379272461
 10
6.7831130027771
 20
10.136129379272461
 10
6.8023834228515625
 20
10.116859436035156
 10
6.9950852394104
 20
10.116859436035156
 10
7.014355659484863
 20
10.136129379272461
 10
7.110706806182861
 20
10.136129379272461
 10
7.129976749420166
 20
10.155399322509766
 10
7.168517112731934
 20
10.155399322509766
 10
7.207057476043701
 20
10.193940162658691
 10
7.226327896118164
 20
10.193940162658691
 10
7.264868259429932
 20
10.2324800491333
 10
7.264868259429932
 20
10.251750946044922
 10
7.322679042816162
 20
10.309560775756836
 10
7.322679042816162
 20
10.328831672668457
 10
7.2841386795043945
 20
10.328831672668457
 10
7.264868259429932
 20
10.348101615905762
 10
7.226327896118164
 20
10.348101615905762
 10
7.207057476043701
 20
10.367371559143066
 10
7.1877875328063965
 20
10.367371559143066
 10
7.168517112731934
 20
10.386641502380371
 10
7.091436386108398
 20
10.386641502380371
 10
7.072166442871094
 20
10.405912399291992
 10
7.014355659484863
 20
10.405912399291992
 10
6.9950852394104
 20
10.425182342529297
 10
6.975815296173096
 20
10.425182342529297
 10
6.956544876098633
 20
10.444452285766602
 10
6.937274932861328
 20
10.444452285766602
 10
6.918004512786865
 20
10.463723182678223
 10
6.918004512786865
 20
10.502263069152832
 10
6.8987345695495605
 20
10.521533012390137
 10
6.8987345695495605
 20
10.579343795776367
 10
6.879464149475098
 20
10.598614692687988
 10
6.879464149475098
 20
10.791316032409668
 10
6.937274932861328
 20
10.849126815795898
 10
6.956544876098633
 20
10.849126815795898
 10
6.975815296173096
 20
10.868396759033203
 10
7.014355659484863
 20
10.868396759033203
 10
7.033625602722168
 20
10.887667655944824
 10
7.072166442871094
 20
10.887667655944824
 10
7.091436386108398
 20
10.906937599182129
 10
7.110706806182861
 20
10.906937599182129
 10
7.149247169494629
 20
10.945478439331055
 10
7.168517112731934
 20
10.945478439331055
 10
7.1877875328063965
 20
10.96474838256836
 10
7.226327896118164
 20
10.96474838256836
 10
7.226327896118164
 20
11.02255916595459
 10
7.1877875328063965
 20
11.0610990524292
 10
7.168517112731934
 20
11.0610990524292
 10
7.149247169494629
 20
11.080368995666504
 10
7.110706806182861
 20
11.080368995666504
 10
7.091436386108398
 20
11.099639892578125
 10
6.9950852394104
 20
11.099639892578125
 10
6.975815296173096
 20
11.11890983581543
 10
6.821653366088867
 20
11.11890983581543
  0
LWPOLYLINE
  5
34
330
17
100
AcDbEntity
  8
Outline
100
AcDbPolyline
 90
157
 70
0
 10
6.455519676208496
 20
9.346051216125488
 10
6.436249256134033
 20
9.326780319213867
 10
6.359168529510498
 20
9.326780319213867
 10
6.339898109436035
 20
9.307510375976562
 10
6.3206281661987305
 20
9.307510375976562
 10
6.301357746124268
 20
9.288240432739258
 10
6.2628173828125
 20
9.288240432739258
 10
6.224277019500732
 20
9.249699592590332
 10
6.205007076263428
 20
9.249699592590332
 10
6.16646671295166
 20
9.211159706115723
 10
6.147196292877197
 20
9.211159706115723
 10
6.127925872802734
 20
9.191888809204102
 10
6.089385509490967
 20
9.191888809204102
 10
6.070115566253662
 20
9.172618865966797
 10
5.954493999481201
 20
9.172618865966797
 10
5.9352240562438965
 20
9.153348922729492
 10
5.896683692932129
 20
9.153348922729492
 10
5.877413272857666
 20
9.134078025817871
 10
5.145145416259766
 20
9.134078025817871
 10
5.125875473022461
 20
9.153348922729492
 10
5.029524326324463
 20
9.153348922729492
 10
5.01025390625
 20
9.172618865966797
 10
4.740470886230469
 20
9.172618865966797
 10
4.721200942993164
 20
9.191888809204102
 10
4.412877559661865
 20
9.191888809204102
 10
4.393607139587402
 20
9.172618865966797
 10
3.6420693397521973
 20
9.172618865966797
 10
3.6227991580963135
 20
9.191888809204102
 10
3.564988374710083
 20
9.191888809204102
 10
3.545718193054199
 20
9.172618865966797
 10
3.468637466430664
 20
9.172618865966797
 10
3.4493672847747803
 20
9.191888809204102
 10
3.4108266830444336
 20
9.191888809204102
 10
3.39155650138855
 20
9.172618865966797
 10
2.5629377365112305
 20
9.172618865966797
 10
2.5436673164367676
 20
9.191888809204102
 10
2.023371696472168
 20
9.191888809204102
 10
2.004101514816284
 20
9.211159706115723
 10
1.888480305671692
 20
9.211159706115723
 10
1.869210124015808
 20
9.230429649353027
 10
1.7150484323501587
 20
9.230429649353027
 10
1.695778250694275
 20
9.249699592590332
 10
1.6765080690383911
 20
9.249699592590332
 10
1.6572378873825073
 20
9.268969535827637
 10
1.6379677057266235
 20
9.268969535827637
 10
1.6186974048614502
 20
9.288240432739258
 10
1.4838060140609741
 20
9.288240432739258
 10
1.4645358324050903
 20
9.307510375976562
 10
1.445265531539917
 20
9.288240432739258
 10
1.2718336582183838
 20
9.288240432739258
 10
1.2332932949066162
 20
9.249699592590332
 10
1.2140231132507324
 20
9.249699592590332
 10
1.1754826307296753
 20
9.211159706115723
 10
1.1754826307296753
 20
9.191888809204102
 10
1.1369422674179077
 20
9.153348922729492
 10
1.1369422674179077
 20
9.134078025817871
 10
1.117672085762024
 20
9.114808082580566
 10
1.117672085762024
 20
8.92210578918457
 10
1.1369422674179077
 20
8.902835845947266
 10
1.1369422674179077
 20
8.864295959472656
 10
1.1562124490737915
 20
8.864295959472656
 10
1.1754826307296753
 20
8.845025062561035
 10
1.1754826307296753
 20
8.82575511932373
 10
1.2140231132507324
 20
8.787214279174805
 10
1.2140231132507324
 20
8.7679443359375
 10
1.2332932949066162
 20
8.748674392700195
 10
1.2525634765625
 20
8.748674392700195
 10
1.310374140739441
 20
8.690863609313965
 10
1.3681848049163818
 20
8.690863609313965
 10
1.3874549865722656
 20
8.67159366607666
 10
1.5223463773727417
 20
8.67159366607666
 10
1.541616678237915
 20
8.690863609313965
 10
1.6186974048614502
 20
8.690863609313965
 10
1.6379677057266235
 20
8.71013355255127
 10
1.6572378873825073
 20
8.71013355255127
 10
1.695778250694275
 20
8.748674392700195
 10
1.734318733215332
 20
8.748674392700195
 10
1.7535889148712158
 20
8.7679443359375
 10
1.7921292781829834
 20
8.7679443359375
 10
1.8113995790481567
 20
8.787214279174805
 10
1.9462909698486328
 20
8.787214279174805
 10
1.9655611515045166
 20
8.806485176086426
 10
2.717099189758301
 20
8.806485176086426
 10
2.7363696098327637
 20
8.787214279174805
 10
2.7556397914886475
 20
8.787214279174805
 10
2.7749099731445312
 20
8.806485176086426
 10
3.854041576385498
 20
8.806485176086426
 10
3.873311758041382
 20
8.787214279174805
 10
4.894632816314697
 20
8.787214279174805
 10
4.913902759552002
 20
8.7679443359375
 10
5.183685779571533
 20
8.7679443359375
 10
5.202956199645996
 20
8.787214279174805
 10
5.222226142883301
 20
8.7679443359375
 10
5.376388072967529
 20
8.7679443359375
 10
5.395658016204834
 20
8.748674392700195
 10
5.858143329620361
 20
8.748674392700195
 10
5.877413272857666
 20
8.72940444946289
 10
5.954493999481201
 20
8.72940444946289
 10
5.973764419555664
 20
8.71013355255127
 10
6.050845146179199
 20
8.71013355255127
 10
6.070115566253662
 20
8.690863609313965
 10
6.10865592956543
 20
8.690863609313965
 10
6.147196292877197
 20
8.652323722839355
 10
6.16646671295166
 20
8.652323722839355
 10
6.185736656188965
 20
8.633052825927734
 10
6.205007076263428
 20
8.633052825927734
 10
6.224277019500732
 20
8.61378288269043
 10
6.243547439575195
 20
8.61378288269043
 10
6.2628173828125
 20
8.594512939453125
 10
6.2628173828125
 20
8.575242042541504
 10
6.3206281661987305
 20
8.51743221282959
 10
6.359168529510498
 20
8.51743221282959
 10
6.378438949584961
 20
8.498161315917969
 10
6.513329982757568
 20
8.498161315917969
 10
6.532600402832031
 20
8.51743221282959
 10
6.590411186218262
 20
8.51743221282959
 10
6.609681129455566
 20
8.536702156066895
 10
6.628951549530029
 20
8.536702156066895
 10
6.648221492767334
 20
8.5559720993042
 10
6.686761856079102
 20
8.5559720993042
 10
6.7060322761535645
 20
8.575242042541504
 10
6.744572639465332
 20
8.575242042541504
 10
6.744572639465332
 20
8.594512939453125
 10
6.763843059539795
 20
8.61378288269043
 10
6.7831130027771
 20
8.61378288269043
 10
6.8023834228515625
 20
8.633052825927734
 10
6.821653366088867
 20
8.633052825927734
 10
6.84092378616333
 20
8.652323722839355
 10
6.84092378616333
 20
8.67159366607666
 10
6.860193729400635
 20
8.690863609313965
 10
6.860193729400635
 20
8.72940444946289
 10
6.84092378616333
 20
8.748674392700195
 10
6.7060322761535645
 20
8.748674392700195
 10
6.686761856079102
 20
8.72940444946289
 10
6.571140766143799
 20
8.72940444946289
 10
6.436249256134033
 20
8.864295959472656
 10
6.436249256134033
 20
8.883565902709961
 10
6.4169793128967285
 20
8.902835845947266
 10
6.4169793128967285
 20
9.037727355957031
 10
6.436249256134033
 20
9.056997299194336
 10
6.436249256134033
 20
9.076268196105957
 10
6.474789619445801
 20
9.114808082580566
 10
6.494060039520264
 20
9.114808082580566
 10
6.513329982757568
 20
9.134078025817871
 10
6.551870822906494
 20
9.134078025817871
 10
6.571140766143799
 20
9.153348922729492
 10
6.628951549530029
 20
9.153348922729492
 10
6.648221492767334
 20
9.172618865966797
 10
6.7060322761535645
 20
9.172618865966797
 10
6.744572639465332
 20
9.211159706115723
 10
6.744572639465332
 20
9.288240432739258
 10
6.725302696228027
 20
9.307510375976562
 10
6.686761856079102
 20
9.307510375976562
 10
6.667491912841797
 20
9.326780319213867
 10
6.590411186218262
 20
9.326780319213867
 10
6.571140766143799
 20
9.346051216125488
 10
6.455519676208496
 20
9.346051216125488
  0
LWPOLYLINE
  5
35
330
17
100
AcDbEntity
  8
Outline
100
AcDbPolyline
 90
133
 70
0
 10
5.800332546234131
 20
7.881515026092529
 10
5.761792182922363
 20
7.842974662780762
 10
5.7425217628479
 20
7.842974662780762
 10
5.723251819610596
 20
7.823704242706299
 10
5.703981399536133
 20
7.823704242706299
 10
5.665441036224365
 20
7.785163879394531
 10
5.6461710929870605
 20
7.785163879394531
 10
5.626900672912598
 20
7.765893936157227
 10
5.607630252838135
 20
7.765893936157227
 10
5.58836030960083
 20
7.746623516082764
 10
5.569089889526367
 20
7.746623516082764
 10
5.5498199462890625
 20
7.727353096008301
 10
5.511279582977295
 20
7.727353096008301
 10
5.492009162902832
 20
7.708083152770996
 10
5.4534687995910645
 20
7.708083152770996
 10
5.434198379516602
 20
7.688812732696533
 10
5.376388072967529
 20
7.688812732696533
 10
5.357117652893066
 20
7.6695427894592285
 10
5.241496562957764
 20
7.6695427894592285
 10
5.222226142883301
 20
7.650272369384766
 10
4.6826605796813965
 20
7.650272369384766
 10
4.663390159606934
 20
7.6695427894592285
 10
4.220175266265869
 20
7.6695427894592285
 10
4.2009053230285645
 20
7.650272369384766
 10
1.7150484323501587
 20
7.650272369384766
 10
1.695778250694275
 20
7.6695427894592285
 10
1.6379677057266235
 20
7.6695427894592285
 10
1.5801570415496826
 20
7.727353096008301
 10
1.541616678237915
 20
7.727353096008301
 10
1.5223463773727417
 20
7.746623516082764
 10
1.503076195716858
 20
7.746623516082764
 10
1.4838060140609741
 20
7.765893936157227
 10
1.2911039590835571
 20
7.765893936157227
 10
1.2718336582183838
 20
7.746623516082764
 10
1.2525634765625
 20
7.746623516082764
 10
1.1947529315948486
 20
7.688812732696533
 10
1.1947529315948486
 20
7.6695427894592285
 10
1.1754826307296753
 20
7.650272369384766
 10
1.1562124490737915
 20
7.650272369384766
 10
1.1369422674179077
 20
7.631002426147461
 10
1.1369422674179077
 20
7.592462062835693
 10
1.117672085762024
 20
7.5731916427612305
 10
1.117672085762024
 20
7.380489349365234
 10
1.1369422674179077
 20
7.36121940612793
 10
1.1369422674179077
 20
7.341948986053467
 10
1.1562124490737915
 20
7.322679042816162
 10
1.1562124490737915
 20
7.303408622741699
 10
1.2140231132507324
 20
7.245598316192627
 10
1.2332932949066162
 20
7.245598316192627
 10
1.2525634765625
 20
7.226327896118164
 10
1.2718336582183838
 20
7.226327896118164
 10
1.2911039590835571
 20
7.207057476043701
 10
1.310374140739441
 20
7.207057476043701
 10
1.3296443223953247
 20
7.1877875328063965
 10
1.4645358324050903
 20
7.1877875328063965
 10
1.4838060140609741
 20
7.207057476043701
 10
1.503076195716858
 20
7.207057476043701
 10
1.5223463773727417
 20
7.226327896118164
 10
1.5608868598937988
 20
7.226327896118164
 10
1.5801570415496826
 20
7.245598316192627
 10
1.6379677057266235
 20
7.245598316192627
 10
1.6765080690383911
 20
7.2841386795043945
 10
1.695778250694275
 20
7.2841386795043945
 10
1.7150484323501587
 20
7.303408622741699
 10
1.9655611515045166
 20
7.303408622741699
 10
1.98483145236969
 20
7.322679042816162
 10
2.004101514816284
 20
7.303408622741699
 10
2.6592886447906494
 20
7.303408622741699
 10
2.678558826446533
 20
7.322679042816162
 10
2.813450336456299
 20
7.322679042816162
 10
2.8327205181121826
 20
7.341948986053467
 10
2.8519906997680664
 20
7.322679042816162
 10
4.162364959716797
 20
7.322679042816162
 10
4.181634902954102
 20
7.341948986053467
 10
5.472739219665527
 20
7.341948986053467
 10
5.492009162902832
 20
7.322679042816162
 10
5.511279582977295
 20
7.322679042816162
 10
5.5305495262146
 20
7.303408622741699
 10
5.569089889526367
 20
7.303408622741699
 10
5.58836030960083
 20
7.2841386795043945
 10
5.607630252838135
 20
7.2841386795043945
 10
5.626900672912598
 20
7.264868259429932
 10
5.6461710929870605
 20
7.264868259429932
 10
5.665441036224365
 20
7.245598316192627
 10
5.684711456298828
 20
7.245598316192627
 10
5.703981399536133
 20
7.226327896118164
 10
5.7425217628479
 20
7.226327896118164
 10
5.781062126159668
 20
7.1877875328063965
 10
5.819602966308594
 20
7.1877875328063965
 10
5.838872909545898
 20
7.168517112731934
 10
5.896683692932129
 20
7.168517112731934
 10
5.915953636169434
 20
7.149247169494629
 10
6.050845146179199
 20
7.149247169494629
 10
6.070115566253662
 20
7.168517112731934
 10
6.127925872802734
 20
7.168517112731934
 10
6.147196292877197
 20
7.1877875328063965
 10
6.185736656188965
 20
7.1877875328063965
 10
6.205007076263428
 20
7.207057476043701
 10
6.224277019500732
 20
7.207057476043701
 10
6.243547439575195
 20
7.226327896118164
 10
6.282087802886963
 20
7.226327896118164
 10
6.301357746124268
 20
7.245598316192627
 10
6.3206281661987305
 20
7.245598316192627
 10
6.378438949584961
 20
7.303408622741699
 10
6.378438949584961
 20
7.36121940612793
 10
6.2628173828125
 20
7.36121940612793
 10
6.243547439575195
 20
7.341948986053467
 10
6.16646671295166
 20
7.341948986053467
 10
6.147196292877197
 20
7.322679042816162
 10
6.127925872802734
 20
7.322679042816162
 10
6.10865592956543
 20
7.341948986053467
 10
6.089385509490967
 20
7.341948986053467
 10
6.012304782867432
 20
7.41903018951416
 10
6.012304782867432
 20
7.438300132751465
 10
5.973764419555664
 20
7.476840496063232
 10
5.973764419555664
 20
7.515380859375
 10
5.954493999481201
 20
7.534651279449463
 10
5.954493999481201
 20
7.611732006072998
 10
5.973764419555664
 20
7.631002426147461
 10
5.973764419555664
 20
7.650272369384766
 10
6.012304782867432
 20
7.688812732696533
 10
6.0315752029418945
 20
7.688812732696533
 10
6.089385509490967
 20
7.746623516082764
 10
6.147196292877197
 20
7.746623516082764
 10
6.16646671295166
 20
7.765893936157227
 10
6.224277019500732
 20
7.765893936157227
 10
6.224277019500732
 20
7.823704242706299
 10
6.205007076263428
 20
7.842974662780762
 10
6.16646671295166
 20
7.842974662780762
 10
6.147196292877197
 20
7.862244606018066
 10
6.127925872802734
 20
7.862244606018066
 10
6.10865592956543
 20
7.881515026092529
 10
5.800332546234131
 20
7.881515026092529
  0
LWPOLYLINE
  5
36
330
17
100
AcDbEntity
  8
Outline
100
AcDbPolyline
 90
134
 70
0
 10
5.877413272857666
 20
6.397708892822266
 10
5.858143329620361
 20
6.378438949584961
 10
5.761792182922363
 20
6.378438949584961
 10
5.7425217628479
 20
6.359168529510498
 10
5.723251819610596
 20
6.359168529510498
 10
5.703981399536133
 20
6.339898109436035
 10
5.684711456298828
 20
6.339898109436035
 10
5.665441036224365
 20
6.3206281661987305
 10
5.6461710929870605
 20
6.3206281661987305
 10
5.626900672912598
 20
6.301357746124268
 10
5.607630252838135
 20
6.301357746124268
 10
5.58836030960083
 20
6.282087802886963
 10
5.511279582977295
 20
6.282087802886963
 10
5.492009162902832
 20
6.2628173828125
 10
5.414928436279297
 20
6.2628173828125
 10
5.395658016204834
 20
6.243547439575195
 10
5.260766506195068
 20
6.243547439575195
 10
5.241496562957764
 20
6.224277019500732
 10
4.316526412963867
 20
6.224277019500732
 10
4.2972564697265625
 20
6.205007076263428
 10
2.697829008102417
 20
6.205007076263428
 10
2.678558826446533
 20
6.224277019500732
 10
1.888480305671692
 20
6.224277019500732
 10
1.869210124015808
 20
6.205007076263428
 10
1.7921292781829834
 20
6.205007076263428
 10
1.7728590965270996
 20
6.224277019500732
 10
1.7150484323501587
 20
6.224277019500732
 10
1.695778250694275
 20
6.243547439575195
 10
1.6765080690383911
 20
6.243547439575195
 10
1.6572378873825073
 20
6.2628173828125
 10
1.6186974048614502
 20
6.2628173828125
 10
1.5994272232055664
 20
6.282087802886963
 10
1.5608868598937988
 20
6.282087802886963
 10
1.541616678237915
 20
6.301357746124268
 10
1.4645358324050903
 20
6.301357746124268
 10
1.445265531539917
 20
6.282087802886963
 10
1.4067251682281494
 20
6.282087802886963
 10
1.3489145040512085
 20
6.224277019500732
 10
1.3296443223953247
 20
6.224277019500732
 10
1.2911039590835571
 20
6.185736656188965
 10
1.2911039590835571
 20
6.16646671295166
 10
1.2718336582183838
 20
6.147196292877197
 10
1.2718336582183838
 20
6.089385509490967
 10
1.2525634765625
 20
6.070115566253662
 10
1.2525634765625
 20
5.915953636169434
 10
1.2718336582183838
 20
5.896683692932129
 10
1.2718336582183838
 20
5.877413272857666
 10
1.2911039590835571
 20
5.858143329620361
 10
1.2911039590835571
 20
5.838872909545898
 10
1.310374140739441
 20
5.819602966308594
 10
1.310374140739441
 20
5.800332546234131
 10
1.3296443223953247
 20
5.800332546234131
 10
1.3874549865722656
 20
5.7425217628479
 10
1.5994272232055664
 20
5.7425217628479
 10
1.6186974048614502
 20
5.761792182922363
 10
1.6572378873825073
 20
5.761792182922363
 10
1.6765080690383911
 20
5.781062126159668
 10
1.7150484323501587
 20
5.781062126159668
 10
1.734318733215332
 20
5.800332546234131
 10
1.7535889148712158
 20
5.800332546234131
 10
1.7728590965270996
 20
5.819602966308594
 10
1.7921292781829834
 20
5.819602966308594
 10
1.8113995790481567
 20
5.838872909545898
 10
1.927020788192749
 20
5.838872909545898
 10
1.9462909698486328
 20
5.858143329620361
 10
2.023371696472168
 20
5.858143329620361
 10
2.042642116546631
 20
5.838872909545898
 10
3.006152391433716
 20
5.838872909545898
 10
3.0254225730895996
 20
5.858143329620361
 10
3.9118521213531494
 20
5.858143329620361
 10
3.931122303009033
 20
5.877413272857666
 10
3.9889330863952637
 20
5.877413272857666
 10
4.008203029632568
 20
5.858143329620361
 10
4.027473449707031
 20
5.877413272857666
 10
4.875362396240234
 20
5.877413272857666
 10
4.894632816314697
 20
5.858143329620361
 10
5.048794269561768
 20
5.858143329620361
 10
5.0680646896362305
 20
5.877413272857666
 10
5.376388072967529
 20
5.877413272857666
 10
5.395658016204834
 20
5.858143329620361
 10
5.492009162902832
 20
5.858143329620361
 10
5.511279582977295
 20
5.838872909545898
 10
5.607630252838135
 20
5.838872909545898
 10
5.626900672912598
 20
5.819602966308594
 10
5.6461710929870605
 20
5.819602966308594
 10
5.665441036224365
 20
5.800332546234131
 10
5.684711456298828
 20
5.800332546234131
 10
5.703981399536133
 20
5.781062126159668
 10
5.723251819610596
 20
5.781062126159668
 10
5.7425217628479
 20
5.761792182922363
 10
5.761792182922363
 20
5.761792182922363
 10
5.781062126159668
 20
5.7425217628479
 10
5.819602966308594
 20
5.7425217628479
 10
5.838872909545898
 20
5.723251819610596
 10
5.915953636169434
 20
5.723251819610596
 10
5.9352240562438965
 20
5.7425217628479
 10
5.973764419555664
 20
5.7425217628479
 10
5.993034839630127
 20
5.761792182922363
 10
6.0315752029418945
 20
5.761792182922363
 10
6.050845146179199
 20
5.781062126159668
 10
6.070115566253662
 20
5.781062126159668
 10
6.089385509490967
 20
5.800332546234131
 10
6.10865592956543
 20
5.800332546234131
 10
6.127925872802734
 20
5.819602966308594
 10
6.147196292877197
 20
5.819602966308594
 10
6.185736656188965
 20
5.858143329620361
 10
6.185736656188965
 20
5.954493999481201
 10
6.10865592956543
 20
5.954493999481201
 10
6.089385509490967
 20
5.9352240562438965
 10
6.070115566253662
 20
5.9352240562438965
 10
6.050845146179199
 20
5.915953636169434
 10
5.954493999481201
 20
5.915953636169434
 10
5.915953636169434
 20
5.954493999481201
 10
5.915953636169434
 20
5.973764419555664
 10
5.877413272857666
 20
6.012304782867432
 10
5.877413272857666
 20
6.089385509490967
 10
5.858143329620361
 20
6.10865592956543
 10
5.858143329620361
 20
6.127925872802734
 10
5.877413272857666
 20
6.147196292877197
 10
5.877413272857666
 20
6.16646671295166
 10
5.915953636169434
 20
6.205007076263428
 10
5.9352240562438965
 20
6.205007076263428
 10
5.954493999481201
 20
6.224277019500732
 10
6.050845146179199
 20
6.224277019500732
 10
6.089385509490967
 20
6.2628173828125
 10
6.10865592956543
 20
6.2628173828125
 10
6.127925872802734
 20
6.282087802886963
 10
6.127925872802734
 20
6.3206281661987305
 10
6.10865592956543
 20
6.339898109436035
 10
6.089385509490967
 20
6.339898109436035
 10
6.050845146179199
 20
6.378438949584961
 10
5.915953636169434
 20
6.378438949584961
 10
5.896683692932129
 20
6.397708892822266
 10
5.877413272857666
 20
6.397708892822266
  0
LWPOLYLINE
  5
37
330
17
100
AcDbEntity
  8
Outline
100
AcDbPolyline
 90
138
 70
0
 10
1.310374140739441
 20
5.1644158363342285
 10
1.2525634765625
 20
5.106605052947998
 10
1.2332932949066162
 20
5.106605052947998
 10
1.2332932949066162
 20
5.087334632873535
 10
1.2140231132507324
 20
5.0680646896362305
 10
1.2140231132507324
 20
5.029524326324463
 10
1.1947529315948486
 20
5.01025390625
 10
1.1947529315948486
 20
4.85609245300293
 10
1.2140231132507324
 20
4.836822032928467
 10
1.2140231132507324
 20
4.7790117263793945
 10
1.2332932949066162
 20
4.759741306304932
 10
1.2332932949066162
 20
4.740470886230469
 10
1.2911039590835571
 20
4.6826605796813965
 10
1.3489145040512085
 20
4.6826605796813965
 10
1.3681848049163818
 20
4.663390159606934
 10
1.5223463773727417
 20
4.663390159606934
 10
1.541616678237915
 20
4.6826605796813965
 10
1.5994272232055664
 20
4.6826605796813965
 10
1.6186974048614502
 20
4.701930522918701
 10
1.888480305671692
 20
4.701930522918701
 10
1.9077506065368652
 20
4.721200942993164
 10
1.98483145236969
 20
4.721200942993164
 10
2.004101514816284
 20
4.701930522918701
 10
2.6400184631347656
 20
4.701930522918701
 10
2.6592886447906494
 20
4.6826605796813965
 10
2.678558826446533
 20
4.6826605796813965
 10
2.697829008102417
 20
4.701930522918701
 10
2.8519906997680664
 20
4.701930522918701
 10
2.87126088142395
 20
4.6826605796813965
 10
3.584258556365967
 20
4.6826605796813965
 10
3.6035287380218506
 20
4.663390159606934
 10
4.33579683303833
 20
4.663390159606934
 10
4.355066776275635
 20
4.644120216369629
 10
4.721200942993164
 20
4.644120216369629
 10
4.740470886230469
 20
4.624849796295166
 10
4.836822032928467
 20
4.624849796295166
 10
4.85609245300293
 20
4.605579853057861
 10
4.913902759552002
 20
4.605579853057861
 10
4.933173179626465
 20
4.586309432983398
 10
4.952443599700928
 20
4.586309432983398
 10
4.971713542938232
 20
4.5670390129089355
 10
4.990983963012695
 20
4.5670390129089355
 10
5.01025390625
 20
4.547769069671631
 10
5.029524326324463
 20
4.547769069671631
 10
5.048794269561768
 20
4.528498649597168
 10
5.0680646896362305
 20
4.528498649597168
 10
5.087334632873535
 20
4.509228706359863
 10
5.106605052947998
 20
4.509228706359863
 10
5.125875473022461
 20
4.4899582862854
 10
5.280036926269531
 20
4.4899582862854
 10
5.299307346343994
 20
4.509228706359863
 10
5.357117652893066
 20
4.509228706359863
 10
5.376388072967529
 20
4.528498649597168
 10
5.395658016204834
 20
4.528498649597168
 10
5.434198379516602
 20
4.5670390129089355
 10
5.4534687995910645
 20
4.5670390129089355
 10
5.472739219665527
 20
4.586309432983398
 10
5.472739219665527
 20
4.605579853057861
 10
5.492009162902832
 20
4.624849796295166
 10
5.492009162902832
 20
4.663390159606934
 10
5.472739219665527
 20
4.663390159606934
 10
5.4534687995910645
 20
4.6826605796813965
 10
5.337847709655762
 20
4.6826605796813965
 10
5.318577289581299
 20
4.663390159606934
 10
5.280036926269531
 20
4.663390159606934
 10
5.260766506195068
 20
4.6826605796813965
 10
5.241496562957764
 20
4.6826605796813965
 10
5.222226142883301
 20
4.701930522918701
 10
5.202956199645996
 20
4.701930522918701
 10
5.183685779571533
 20
4.721200942993164
 10
5.183685779571533
 20
4.759741306304932
 10
5.1644158363342285
 20
4.7790117263793945
 10
5.1644158363342285
 20
4.875362396240234
 10
5.183685779571533
 20
4.894632816314697
 10
5.183685779571533
 20
4.913902759552002
 10
5.202956199645996
 20
4.933173179626465
 10
5.222226142883301
 20
4.933173179626465
 10
5.241496562957764
 20
4.952443599700928
 10
5.280036926269531
 20
4.952443599700928
 10
5.299307346343994
 20
4.971713542938232
 10
5.337847709655762
 20
4.971713542938232
 10
5.357117652893066
 20
4.990983963012695
 10
5.376388072967529
 20
4.990983963012695
 10
5.376388072967529
 20
5.01025390625
 10
5.395658016204834
 20
5.029524326324463
 10
5.357117652893066
 20
5.0680646896362305
 10
5.337847709655762
 20
5.0680646896362305
 10
5.318577289581299
 20
5.087334632873535
 10
5.280036926269531
 20
5.087334632873535
 10
5.260766506195068
 20
5.106605052947998
 10
5.125875473022461
 20
5.106605052947998
 10
5.106605052947998
 20
5.087334632873535
 10
5.0680646896362305
 20
5.087334632873535
 10
5.048794269561768
 20
5.0680646896362305
 10
5.029524326324463
 20
5.0680646896362305
 10
5.01025390625
 20
5.048794269561768
 10
4.990983963012695
 20
5.048794269561768
 10
4.952443599700928
 20
5.01025390625
 10
4.933173179626465
 20
5.01025390625
 10
4.913902759552002
 20
4.990983963012695
 10
4.875362396240234
 20
4.990983963012695
 10
4.85609245300293
 20
4.971713542938232
 10
3.7962310314178467
 20
4.971713542938232
 10
3.776960611343384
 20
4.990983963012695
 10
3.468637466430664
 20
4.990983963012695
 10
3.4493672847747803
 20
5.01025390625
 10
3.3530161380767822
 20
5.01025390625
 10
3.3337459564208984
 20
4.990983963012695
 10
3.3144757747650146
 20
5.01025390625
 10
3.0254225730895996
 20
5.01025390625
 10
3.006152391433716
 20
4.990983963012695
 10
2.986882209777832
 20
4.990983963012695
 10
2.9676120281219482
 20
5.01025390625
 10
2.678558826446533
 20
5.01025390625
 10
2.6592886447906494
 20
4.990983963012695
 10
2.6400184631347656
 20
5.01025390625
 10
2.428046226501465
 20
5.01025390625
 10
2.408776044845581
 20
4.990983963012695
 10
2.3895058631896973
 20
5.01025390625
 10
2.1004526615142822
 20
5.01025390625
 10
2.0811824798583984
 20
5.029524326324463
 10
2.0619122982025146
 20
5.029524326324463
 10
2.042642116546631
 20
5.01025390625
 10
1.9462909698486328
 20
5.01025390625
 10
1.927020788192749
 20
5.029524326324463
 10
1.8306697607040405
 20
5.029524326324463
 10
1.8113995790481567
 20
5.048794269561768
 10
1.6379677057266235
 20
5.048794269561768
 10
1.5994272232055664
 20
5.087334632873535
 10
1.5801570415496826
 20
5.087334632873535
 10
1.5608868598937988
 20
5.106605052947998
 10
1.5223463773727417
 20
5.106605052947998
 10
1.503076195716858
 20
5.125875473022461
 10
1.4838060140609741
 20
5.125875473022461
 10
1.4645358324050903
 20
5.145145416259766
 10
1.445265531539917
 20
5.145145416259766
 10
1.4259953498840332
 20
5.1644158363342285
 10
1.310374140739441
 20
5.1644158363342285
  0
LWPOLYLINE
  5
38
330
17
100
AcDbEntity
  8
Outline
100
AcDbPolyline
 90
105
 70
0
 10
4.7790117263793945
 20
3.8347713947296143
 10
4.759741306304932
 20
3.8155012130737305
 10
4.740470886230469
 20
3.8155012130737305
 10
4.721200942993164
 20
3.7962310314178467
 10
4.701930522918701
 20
3.7962310314178467
 10
4.6826605796813965
 20
3.776960611343384
 10
4.624849796295166
 20
3.776960611343384
 10
4.605579853057861
 20
3.7576904296875
 10
4.4899582862854
 20
3.7576904296875
 10
4.470688343048096
 20
3.738420248031616
 10
3.96966290473938
 20
3.738420248031616
 10
3.950392484664917
 20
3.7191500663757324
 10
3.9118521213531494
 20
3.7191500663757324
 10
3.8925819396972656
 20
3.738420248031616
 10
3.0254225730895996
 20
3.738420248031616
 10
3.006152391433716
 20
3.7191500663757324
 10
2.6400184631347656
 20
3.7191500663757324
 10
2.620748281478882
 20
3.738420248031616
 10
2.196803569793701
 20
3.738420248031616
 10
2.1775333881378174
 20
3.7191500663757324
 10
1.8499399423599243
 20
3.7191500663757324
 10
1.8306697607040405
 20
3.738420248031616
 10
1.6379677057266235
 20
3.738420248031616
 10
1.6186974048614502
 20
3.7576904296875
 10
1.541616678237915
 20
3.7576904296875
 10
1.5223463773727417
 20
3.776960611343384
 10
1.3489145040512085
 20
3.776960611343384
 10
1.3296443223953247
 20
3.7576904296875
 10
1.310374140739441
 20
3.7576904296875
 10
1.2718336582183838
 20
3.7191500663757324
 10
1.2718336582183838
 20
3.6998798847198486
 10
1.2525634765625
 20
3.680609703063965
 10
1.2525634765625
 20
3.6420693397521973
 10
1.2332932949066162
 20
3.6227991580963135
 10
1.2332932949066162
 20
3.5264480113983154
 10
1.2525634765625
 20
3.5071778297424316
 10
1.2525634765625
 20
3.468637466430664
 10
1.2718336582183838
 20
3.4493672847747803
 10
1.2718336582183838
 20
3.4300968647003174
 10
1.2911039590835571
 20
3.4108266830444336
 10
1.2911039590835571
 20
3.39155650138855
 10
1.3296443223953247
 20
3.3530161380767822
 10
1.3489145040512085
 20
3.3530161380767822
 10
1.3681848049163818
 20
3.3337459564208984
 10
1.4838060140609741
 20
3.3337459564208984
 10
1.503076195716858
 20
3.3530161380767822
 10
1.5223463773727417
 20
3.3530161380767822
 10
1.541616678237915
 20
3.372286319732666
 10
1.5801570415496826
 20
3.372286319732666
 10
1.5994272232055664
 20
3.39155650138855
 10
1.6186974048614502
 20
3.39155650138855
 10
1.6379677057266235
 20
3.4108266830444336
 10
1.6572378873825073
 20
3.4108266830444336
 10
1.6765080690383911
 20
3.39155650138855
 10
2.023371696472168
 20
3.39155650138855
 10
2.042642116546631
 20
3.4108266830444336
 10
2.678558826446533
 20
3.4108266830444336
 10
2.697829008102417
 20
3.39155650138855
 10
2.794180154800415
 20
3.39155650138855
 10
2.813450336456299
 20
3.4108266830444336
 10
2.9676120281219482
 20
3.4108266830444336
 10
2.986882209777832
 20
3.39155650138855
 10
3.102503538131714
 20
3.39155650138855
 10
3.1217737197875977
 20
3.4108266830444336
 10
3.2373948097229004
 20
3.4108266830444336
 10
3.256664991378784
 20
3.39155650138855
 10
3.275935411453247
 20
3.4108266830444336
 10
4.162364959716797
 20
3.4108266830444336
 10
4.181634902954102
 20
3.39155650138855
 10
4.2009053230285645
 20
3.39155650138855
 10
4.220175266265869
 20
3.4108266830444336
 10
4.316526412963867
 20
3.4108266830444336
 10
4.33579683303833
 20
3.39155650138855
 10
4.6826605796813965
 20
3.39155650138855
 10
4.701930522918701
 20
3.372286319732666
 10
4.721200942993164
 20
3.372286319732666
 10
4.759741306304932
 20
3.3337459564208984
 10
4.7790117263793945
 20
3.3337459564208984
 10
4.817552089691162
 20
3.295205593109131
 10
4.836822032928467
 20
3.295205593109131
 10
4.85609245300293
 20
3.275935411453247
 10
4.952443599700928
 20
3.275935411453247
 10
4.990983963012695
 20
3.3144757747650146
 10
5.01025390625
 20
3.3144757747650146
 10
5.0680646896362305
 20
3.372286319732666
 10
5.0680646896362305
 20
3.39155650138855
 10
5.087334632873535
 20
3.4108266830444336
 10
5.087334632873535
 20
3.4300968647003174
 10
5.0680646896362305
 20
3.4493672847747803
 10
4.990983963012695
 20
3.4493672847747803
 10
4.971713542938232
 20
3.468637466430664
 10
4.952443599700928
 20
3.468637466430664
 10
4.913902759552002
 20
3.5071778297424316
 10
4.913902759552002
 20
3.545718193054199
 10
4.894632816314697
 20
3.564988374710083
 10
4.894632816314697
 20
3.661339521408081
 10
4.913902759552002
 20
3.680609703063965
 10
4.913902759552002
 20
3.6998798847198486
 10
4.933173179626465
 20
3.7191500663757324
 10
4.952443599700928
 20
3.7191500663757324
 10
4.990983963012695
 20
3.7576904296875
 10
4.990983963012695
 20
3.8155012130737305
 10
4.952443599700928
 20
3.8155012130737305
 10
4.933173179626465
 20
3.8347713947296143
 10
4.7790117263793945
 20
3.8347713947296143
  0
LWPOLYLINE
  5
39
330
17
100
AcDbEntity
  8
Outline
100
AcDbPolyline
 90
94
 70
0
 10
4.412877559661865
 20
2.3895058631896973
 10
4.393607139587402
 20
2.3702354431152344
 10
4.33579683303833
 20
2.3702354431152344
 10
4.316526412963867
 20
2.3509652614593506
 10
4.258716106414795
 20
2.3509652614593506
 10
4.239445686340332
 20
2.331695079803467
 10
4.162364959716797
 20
2.331695079803467
 10
4.143094539642334
 20
2.312424898147583
 10
4.085284233093262
 20
2.312424898147583
 10
4.066013813018799
 20
2.293154716491699
 10
3.9118521213531494
 20
2.293154716491699
 10
3.8925819396972656
 20
2.312424898147583
 10
2.004101514816284
 20
2.312424898147583
 10
1.98483145236969
 20
2.331695079803467
 10
1.9655611515045166
 20
2.331695079803467
 10
1.9462909698486328
 20
2.312424898147583
 10
1.8113995790481567
 20
2.312424898147583
 10
1.7921292781829834
 20
2.331695079803467
 10
1.5608868598937988
 20
2.331695079803467
 10
1.541616678237915
 20
2.3509652614593506
 10
1.4067251682281494
 20
2.3509652614593506
 10
1.3874549865722656
 20
2.3702354431152344
 10
1.2718336582183838
 20
2.3702354431152344
 10
1.2525634765625
 20
2.3509652614593506
 10
1.2140231132507324
 20
2.3509652614593506
 10
1.1562124490737915
 20
2.293154716491699
 10
1.1562124490737915
 20
2.2738845348358154
 10
1.1369422674179077
 20
2.2546143531799316
 10
1.1369422674179077
 20
2.1775333881378174
 10
1.1562124490737915
 20
2.1582632064819336
 10
1.1562124490737915
 20
2.13899302482605
 10
1.1754826307296753
 20
2.119722843170166
 10
1.1754826307296753
 20
2.1004526615142822
 10
1.1947529315948486
 20
2.0811824798583984
 10
1.1947529315948486
 20
2.0619122982025146
 10
1.2332932949066162
 20
2.023371696472168
 10
1.2718336582183838
 20
2.023371696472168
 10
1.2911039590835571
 20
2.004101514816284
 10
1.310374140739441
 20
2.004101514816284
 10
1.3296443223953247
 20
2.023371696472168
 10
1.4067251682281494
 20
2.023371696472168
 10
1.4259953498840332
 20
2.042642116546631
 10
1.445265531539917
 20
2.042642116546631
 10
1.4645358324050903
 20
2.0619122982025146
 10
1.6572378873825073
 20
2.0619122982025146
 10
1.6765080690383911
 20
2.042642116546631
 10
1.8306697607040405
 20
2.042642116546631
 10
1.8499399423599243
 20
2.0619122982025146
 10
2.0811824798583984
 20
2.0619122982025146
 10
2.1004526615142822
 20
2.0811824798583984
 10
2.13899302482605
 20
2.0811824798583984
 10
2.1582632064819336
 20
2.1004526615142822
 10
2.196803569793701
 20
2.1004526615142822
 10
2.216073989868164
 20
2.0811824798583984
 10
2.4665865898132324
 20
2.0811824798583984
 10
2.485856771469116
 20
2.0619122982025146
 10
2.678558826446533
 20
2.0619122982025146
 10
2.697829008102417
 20
2.0811824798583984
 10
2.986882209777832
 20
2.0811824798583984
 10
3.006152391433716
 20
2.0619122982025146
 10
3.7576904296875
 20
2.0619122982025146
 10
3.776960611343384
 20
2.042642116546631
 10
4.181634902954102
 20
2.042642116546631
 10
4.2009053230285645
 20
2.023371696472168
 10
4.2972564697265625
 20
2.023371696472168
 10
4.316526412963867
 20
2.004101514816284
 10
4.33579683303833
 20
2.004101514816284
 10
4.355066776275635
 20
1.98483145236969
 10
4.374337196350098
 20
1.98483145236969
 10
4.412877559661865
 20
1.9462909698486328
 10
4.432147979736328
 20
1.9462909698486328
 10
4.451417922973633
 20
1.927020788192749
 10
4.470688343048096
 20
1.927020788192749
 10
4.4899582862854
 20
1.9077506065368652
 10
4.5670390129089355
 20
1.9077506065368652
 10
4.586309432983398
 20
1.927020788192749
 10
4.624849796295166
 20
1.927020788192749
 10
4.644120216369629
 20
1.9462909698486328
 10
4.663390159606934
 20
1.9462909698486328
 10
4.721200942993164
 20
2.004101514816284
 10
4.721200942993164
 20
2.0811824798583984
 10
4.6826605796813965
 20
2.119722843170166
 10
4.605579853057861
 20
2.119722843170166
 10
4.586309432983398
 20
2.13899302482605
 10
4.605579853057861
 20
2.1582632064819336
 10
4.624849796295166
 20
2.1582632064819336
 10
4.644120216369629
 20
2.1775333881378174
 10
4.644120216369629
 20
2.196803569793701
 10
4.6826605796813965
 20
2.235344171524048
 10
4.6826605796813965
 20
2.312424898147583
 10
4.624849796295166
 20
2.3702354431152344
 10
4.586309432983398
 20
2.3702354431152344
 10
4.5670390129089355
 20
2.3895058631896973
 10
4.412877559661865
 20
2.3895058631896973
  0
LWPOLYLINE
  5
3A
330
17
100
AcDbEntity
  8
Outline
100
AcDbPolyline
 90
421
 70
0
 10
7.592462062835693
 20
3.39155650138855
 10
7.5731916427612305
 20
3.372286319732666
 10
7.476840496063232
 20
3.372286319732666
 10
7.457570552825928
 20
3.3530161380767822
 10
7.438300132751465
 20
3.3530161380767822
 10
7.41903018951416
 20
3.3337459564208984
 10
7.380489349365234
 20
3.3337459564208984
 10
7.36121940612793
 20
3.3144757747650146
 10
7.322679042816162
 20
3.3144757747650146
 10
7.303408622741699
 20
3.295205593109131
 10
7.2841386795043945
 20
3.295205593109131
 10
7.264868259429932
 20
3.275935411453247
 10
7.226327896118164
 20
3.275935411453247
 10
7.207057476043701
 20
3.256664991378784
 10
7.1877875328063965
 20
3.256664991378784
 10
7.168517112731934
 20
3.2373948097229004
 10
7.149247169494629
 20
3.2373948097229004
 10
7.129976749420166
 20
3.2181246280670166
 10
7.110706806182861
 20
3.2181246280670166
 10
7.052896022796631
 20
3.1603140830993652
 10
7.033625602722168
 20
3.1603140830993652
 10
6.9950852394104
 20
3.1217737197875977
 10
6.975815296173096
 20
3.1217737197875977
 10
6.975815296173096
 20
3.102503538131714
 10
6.84092378616333
 20
2.9676120281219482
 10
6.84092378616333
 20
2.9483418464660645
 10
6.821653366088867
 20
2.9290716648101807
 10
6.821653366088867
 20
2.909801483154297
 10
6.8023834228515625
 20
2.890531063079834
 10
6.8023834228515625
 20
2.87126088142395
 10
6.7831130027771
 20
2.8519906997680664
 10
6.7831130027771
 20
2.794180154800415
 10
6.8023834228515625
 20
2.7749099731445312
 10
6.8023834228515625
 20
2.7556397914886475
 10
6.821653366088867
 20
2.7363696098327637
 10
6.84092378616333
 20
2.7363696098327637
 10
6.860193729400635
 20
2.7556397914886475
 10
7.052896022796631
 20
2.7556397914886475
 10
7.072166442871094
 20
2.7749099731445312
 10
7.091436386108398
 20
2.7749099731445312
 10
7.110706806182861
 20
2.794180154800415
 10
7.168517112731934
 20
2.794180154800415
 10
7.1877875328063965
 20
2.813450336456299
 10
7.264868259429932
 20
2.813450336456299
 10
7.2841386795043945
 20
2.8327205181121826
 10
7.380489349365234
 20
2.8327205181121826
 10
7.399759769439697
 20
2.8519906997680664
 10
7.457570552825928
 20
2.8519906997680664
 10
7.476840496063232
 20
2.87126088142395
 10
7.553921222686768
 20
2.87126088142395
 10
7.5731916427612305
 20
2.890531063079834
 10
7.592462062835693
 20
2.87126088142395
 10
7.611732006072998
 20
2.87126088142395
 10
7.650272369384766
 20
2.8327205181121826
 10
7.6695427894592285
 20
2.8327205181121826
 10
7.688812732696533
 20
2.813450336456299
 10
7.688812732696533
 20
2.794180154800415
 10
7.765893936157227
 20
2.717099189758301
 10
7.765893936157227
 20
2.697829008102417
 10
7.785163879394531
 20
2.678558826446533
 10
7.785163879394531
 20
2.6400184631347656
 10
7.804434299468994
 20
2.620748281478882
 10
7.804434299468994
 20
2.5629377365112305
 10
7.823704242706299
 20
2.5436673164367676
 10
7.823704242706299
 20
2.4473164081573486
 10
7.842974662780762
 20
2.428046226501465
 10
7.842974662780762
 20
2.3509652614593506
 10
7.823704242706299
 20
2.331695079803467
 10
7.823704242706299
 20
2.2546143531799316
 10
7.804434299468994
 20
2.235344171524048
 10
7.804434299468994
 20
2.1775333881378174
 10
7.785163879394531
 20
2.1582632064819336
 10
7.785163879394531
 20
2.119722843170166
 10
7.765893936157227
 20
2.1004526615142822
 10
7.765893936157227
 20
2.0619122982025146
 10
7.688812732696533
 20
1.98483145236969
 10
7.6695427894592285
 20
1.98483145236969
 10
7.650272369384766
 20
1.9655611515045166
 10
7.631002426147461
 20
1.9655611515045166
 10
7.611732006072998
 20
1.9462909698486328
 10
7.592462062835693
 20
1.9462909698486328
 10
7.5731916427612305
 20
1.927020788192749
 10
7.553921222686768
 20
1.927020788192749
 10
7.534651279449463
 20
1.9077506065368652
 10
7.515380859375
 20
1.9077506065368652
 10
7.496110916137695
 20
1.888480305671692
 10
7.476840496063232
 20
1.888480305671692
 10
7.457570552825928
 20
1.869210124015808
 10
7.438300132751465
 20
1.869210124015808
 10
7.399759769439697
 20
1.8306697607040405
 10
7.380489349365234
 20
1.8306697607040405
 10
7.36121940612793
 20
1.8113995790481567
 10
7.341948986053467
 20
1.8113995790481567
 10
7.322679042816162
 20
1.7921292781829834
 10
7.2841386795043945
 20
1.7921292781829834
 10
7.264868259429932
 20
1.7728590965270996
 10
7.1877875328063965
 20
1.7728590965270996
 10
7.168517112731934
 20
1.7535889148712158
 10
7.091436386108398
 20
1.7535889148712158
 10
7.072166442871094
 20
1.734318733215332
 10
7.052896022796631
 20
1.734318733215332
 10
7.033625602722168
 20
1.7150484323501587
 10
7.033625602722168
 20
1.6379677057266235
 10
7.072166442871094
 20
1.5994272232055664
 10
7.091436386108398
 20
1.5994272232055664
 10
7.129976749420166
 20
1.5608868598937988
 10
7.168517112731934
 20
1.5608868598937988
 10
7.1877875328063965
 20
1.541616678237915
 10
7.226327896118164
 20
1.541616678237915
 10
7.245598316192627
 20
1.5223463773727417
 10
7.2841386795043945
 20
1.5223463773727417
 10
7.303408622741699
 20
1.503076195716858
 10
7.380489349365234
 20
1.503076195716858
 10
7.399759769439697
 20
1.4838060140609741
 10
7.611732006072998
 20
1.4838060140609741
 10
7.631002426147461
 20
1.4645358324050903
 10
7.746623516082764
 20
1.4645358324050903
 10
7.765893936157227
 20
1.4838060140609741
 10
7.842974662780762
 20
1.4838060140609741
 10
7.862244606018066
 20
1.503076195716858
 10
7.900784969329834
 20
1.503076195716858
 10
7.920055389404297
 20
1.5223463773727417
 10
7.9585957527160645
 20
1.5223463773727417
 10
7.977866172790527
 20
1.541616678237915
 10
7.997136116027832
 20
1.541616678237915
 10
8.016406059265137
 20
1.5608868598937988
 10
8.035676956176758
 20
1.5608868598937988
 10
8.054946899414062
 20
1.5801570415496826
 10
8.093486785888672
 20
1.5801570415496826
 10
8.209108352661133
 20
1.695778250694275
 10
8.228378295898438
 20
1.695778250694275
 10
8.266919136047363
 20
1.734318733215332
 10
8.266919136047363
 20
1.7535889148712158
 10
8.343999862670898
 20
1.8306697607040405
 10
8.363269805908203
 20
1.8306697607040405
 10
8.382540702819824
 20
1.8499399423599243
 10
8.401810646057129
 20
1.8499399423599243
 10
8.421080589294434
 20
1.869210124015808
 10
8.440350532531738
 20
1.869210124015808
 10
8.45962142944336
 20
1.888480305671692
 10
8.498161315917969
 20
1.888480305671692
 10
8.51743221282959
 20
1.9077506065368652
 10
8.536702156066895
 20
1.9077506065368652
 10
8.5559720993042
 20
1.927020788192749
 10
8.594512939453125
 20
1.927020788192749
 10
8.61378288269043
 20
1.9462909698486328
 10
8.633052825927734
 20
1.9462909698486328
 10
8.652323722839355
 20
1.9655611515045166
 10
8.690863609313965
 20
1.9655611515045166
 10
8.71013355255127
 20
1.98483145236969
 10
8.7679443359375
 20
1.98483145236969
 10
8.787214279174805
 20
2.004101514816284
 10
8.864295959472656
 20
2.004101514816284
 10
8.883565902709961
 20
2.023371696472168
 10
9.037727355957031
 20
2.023371696472168
 10
9.056997299194336
 20
2.042642116546631
 10
9.885616302490234
 20
2.042642116546631
 10
9.904887199401855
 20
2.023371696472168
 10
10.367371559143066
 20
2.023371696472168
 10
10.386641502380371
 20
2.004101514816284
 10
10.463723182678223
 20
2.004101514816284
 10
10.482993125915527
 20
2.023371696472168
 10
10.617884635925293
 20
2.023371696472168
 10
10.637154579162598
 20
2.004101514816284
 10
11.157450675964355
 20
2.004101514816284
 10
11.17672061920166
 20
2.023371696472168
 10
11.369422912597656
 20
2.023371696472168
 10
11.388692855834961
 20
2.004101514816284
 10
12.024609565734863
 20
2.004101514816284
 10
12.043879508972168
 20
1.98483145236969
 10
12.352203369140625
 20
1.98483145236969
 10
12.37147331237793
 20
1.9655611515045166
 10
12.7376070022583
 20
1.9655611515045166
 10
12.756877899169922
 20
1.9462909698486328
 10
12.968850135803223
 20
1.9462909698486328
 10
12.988120079040527
 20
1.9655611515045166
 10
13.007390022277832
 20
1.9655611515045166
 10
13.026659965515137
 20
1.9462909698486328
 10
13.508415222167969
 20
1.9462909698486328
 10
13.52768611907959
 20
1.927020788192749
 10
13.5662260055542
 20
1.927020788192749
 10
13.58549690246582
 20
1.9077506065368652
 10
13.874549865722656
 20
1.9077506065368652
 10
13.893819808959961
 20
1.888480305671692
 10
14.202142715454102
 20
1.888480305671692
 10
14.221413612365723
 20
1.9077506065368652
 10
14.240683555603027
 20
1.9077506065368652
 10
14.259953498840332
 20
1.927020788192749
 10
14.337034225463867
 20
1.927020788192749
 10
14.356305122375488
 20
1.9077506065368652
 10
14.375575065612793
 20
1.927020788192749
 10
14.857330322265625
 20
1.927020788192749
 10
14.87660026550293
 20
1.9077506065368652
 10
14.953680992126465
 20
1.9077506065368652
 10
14.97295093536377
 20
1.888480305671692
 10
14.953680992126465
 20
1.869210124015808
 10
14.8187894821167
 20
1.869210124015808
 10
14.799519538879395
 20
1.8499399423599243
 10
14.645358085632324
 20
1.8499399423599243
 10
14.760978698730469
 20
1.8499399423599243
 10
14.78024959564209
 20
1.8306697607040405
 10
15.358355522155762
 20
1.8306697607040405
 10
15.377625465393066
 20
1.8113995790481567
 10
15.512516975402832
 20
1.8113995790481567
 10
15.531787872314453
 20
1.7921292781829834
 10
15.743760108947754
 20
1.7921292781829834
 10
15.763030052185059
 20
1.7728590965270996
 10
16.12916374206543
 20
1.7728590965270996
 10
16.148433685302734
 20
1.7535889148712158
 10
16.225515365600586
 20
1.7535889148712158
 10
16.24478530883789
 20
1.7728590965270996
 10
16.514568328857422
 20
1.7728590965270996
 10
16.533838272094727
 20
1.7535889148712158
 10
16.957782745361328
 20
1.7535889148712158
 10
16.977052688598633
 20
1.734318733215332
 10
17.092674255371094
 20
1.734318733215332
 10
17.1119441986084
 20
1.7150484323501587
 10
17.863483428955078
 20
1.7150484323501587
 10
17.882753372192383
 20
1.695778250694275
 10
18.32596778869629
 20
1.695778250694275
 10
18.345237731933594
 20
1.7150484323501587
 10
18.3645076751709
 20
1.695778250694275
 10
18.55721092224121
 20
1.695778250694275
 10
18.576480865478516
 20
1.6765080690383911
 10
18.71137237548828
 20
1.6765080690383911
 10
18.730642318725586
 20
1.6572378873825073
 10
18.74991226196289
 20
1.6572378873825073
 10
18.90407371520996
 20
1.503076195716858
 10
18.90407371520996
 20
1.4838060140609741
 10
18.923343658447266
 20
1.4838060140609741
 10
18.961883544921875
 20
1.445265531539917
 10
18.961883544921875
 20
1.4259953498840332
 10
18.981155395507812
 20
1.4067251682281494
 10
18.981155395507812
 20
1.3874549865722656
 10
19.000425338745117
 20
1.3681848049163818
 10
19.019695281982422
 20
1.3681848049163818
 10
19.038965225219727
 20
1.3489145040512085
 10
19.05823516845703
 20
1.3489145040512085
 10
19.077505111694336
 20
1.3296443223953247
 10
19.09677505493164
 20
1.3296443223953247
 10
19.154586791992188
 20
1.2718336582183838
 10
19.173856735229492
 20
1.2718336582183838
 10
19.193126678466797
 20
1.2525634765625
 10
19.231666564941406
 20
1.2525634765625
 10
19.250938415527344
 20
1.2332932949066162
 10
19.520719528198242
 20
1.2332932949066162
 10
19.53999137878418
 20
1.2525634765625
 10
19.73269271850586
 20
1.2525634765625
 10
19.751962661743164
 20
1.2718336582183838
 10
19.906124114990234
 20
1.2718336582183838
 10
19.92539405822754
 20
1.2525634765625
 10
19.944665908813477
 20
1.2525634765625
 10
19.96393585205078
 20
1.2332932949066162
 10
20.00247573852539
 20
1.2332932949066162
 10
20.021745681762695
 20
1.2140231132507324
 10
20.11809730529785
 20
1.2140231132507324
 10
20.137367248535156
 20
1.2332932949066162
 10
20.15663719177246
 20
1.2332932949066162
 10
20.291528701782227
 20
1.3681848049163818
 10
20.291528701782227
 20
1.3874549865722656
 10
20.330068588256836
 20
1.4259953498840332
 10
20.330068588256836
 20
1.4645358324050903
 10
20.34933853149414
 20
1.4838060140609741
 10
20.34933853149414
 20
1.5223463773727417
 10
20.368610382080078
 20
1.541616678237915
 10
20.368610382080078
 20
1.5801570415496826
 10
20.387880325317383
 20
1.5994272232055664
 10
20.387880325317383
 20
1.8113995790481567
 10
20.368610382080078
 20
1.8306697607040405
 10
20.368610382080078
 20
1.9462909698486328
 10
20.34933853149414
 20
1.9655611515045166
 10
20.34933853149414
 20
2.023371696472168
 10
20.330068588256836
 20
2.042642116546631
 10
20.330068588256836
 20
2.0811824798583984
 10
20.31079864501953
 20
2.1004526615142822
 10
20.31079864501953
 20
2.13899302482605
 10
20.291528701782227
 20
2.1582632064819336
 10
20.291528701782227
 20
2.196803569793701
 10
20.233718872070312
 20
2.2546143531799316
 10
20.233718872070312
 20
2.2738845348358154
 10
20.175907135009766
 20
2.331695079803467
 10
20.175907135009766
 20
2.3509652614593506
 10
20.15663719177246
 20
2.3702354431152344
 10
20.137367248535156
 20
2.3702354431152344
 10
20.041015625
 20
2.4665865898132324
 10
20.021745681762695
 20
2.4665865898132324
 10
19.92539405822754
 20
2.5629377365112305
 10
19.906124114990234
 20
2.5629377365112305
 10
19.88685417175293
 20
2.5822079181671143
 10
19.867584228515625
 20
2.5822079181671143
 10
19.84831428527832
 20
2.601478099822998
 10
19.829044342041016
 20
2.601478099822998
 10
19.80977439880371
 20
2.620748281478882
 10
19.790502548217773
 20
2.620748281478882
 10
19.77123260498047
 20
2.6400184631347656
 10
19.751962661743164
 20
2.6400184631347656
 10
19.73269271850586
 20
2.6592886447906494
 10
19.713422775268555
 20
2.6592886447906494
 10
19.69415283203125
 20
2.678558826446533
 10
19.674882888793945
 20
2.678558826446533
 10
19.655611038208008
 20
2.697829008102417
 10
19.636341094970703
 20
2.697829008102417
 10
19.6170711517334
 20
2.717099189758301
 10
19.57853126525879
 20
2.717099189758301
 10
19.559261322021484
 20
2.7363696098327637
 10
19.462909698486328
 20
2.7363696098327637
 10
19.443639755249023
 20
2.7556397914886475
 10
19.347288131713867
 20
2.7556397914886475
 10
19.328018188476562
 20
2.7363696098327637
 10
19.231666564941406
 20
2.7363696098327637
 10
19.2123966217041
 20
2.717099189758301
 10
19.154586791992188
 20
2.717099189758301
 10
19.135316848754883
 20
2.697829008102417
 10
19.116046905517578
 20
2.697829008102417
 10
19.09677505493164
 20
2.678558826446533
 10
19.05823516845703
 20
2.678558826446533
 10
19.019695281982422
 20
2.6400184631347656
 10
19.000425338745117
 20
2.6400184631347656
 10
18.961883544921875
 20
2.601478099822998
 10
18.94261360168457
 20
2.601478099822998
 10
18.923343658447266
 20
2.5822079181671143
 10
18.90407371520996
 20
2.5822079181671143
 10
18.884803771972656
 20
2.5629377365112305
 10
18.846263885498047
 20
2.5629377365112305
 10
18.82699203491211
 20
2.5436673164367676
 10
18.807722091674805
 20
2.5436673164367676
 10
18.7884521484375
 20
2.524397134780884
 10
18.769182205200195
 20
2.524397134780884
 10
18.74991226196289
 20
2.505126953125
 10
18.692102432250977
 20
2.505126953125
 10
18.67283058166504
 20
2.485856771469116
 10
18.576480865478516
 20
2.485856771469116
 10
18.55721092224121
 20
2.4665865898132324
 10
18.403047561645508
 20
2.4665865898132324
 10
18.383777618408203
 20
2.4473164081573486
 10
17.709320068359375
 20
2.4473164081573486
 10
17.69005012512207
 20
2.4665865898132324
 10
17.535888671875
 20
2.4665865898132324
 10
17.516618728637695
 20
2.4473164081573486
 10
17.49734878540039
 20
2.4473164081573486
 10
17.478078842163086
 20
2.4665865898132324
 10
16.76508140563965
 20
2.4665865898132324
 10
16.745811462402344
 20
2.485856771469116
 10
16.05208396911621
 20
2.485856771469116
 10
16.032812118530273
 20
2.505126953125
 10
15.281274795532227
 20
2.505126953125
 10
15.262004852294922
 20
2.524397134780884
 10
14.93441104888916
 20
2.524397134780884
 10
14.915141105651855
 20
2.5436673164367676
 10
14.568277359008789
 20
2.5436673164367676
 10
14.549006462097168
 20
2.5629377365112305
 10
14.317764282226562
 20
2.5629377365112305
 10
14.298494338989258
 20
2.5436673164367676
 10
13.951630592346191
 20
2.5436673164367676
 10
13.932360649108887
 20
2.5629377365112305
 10
13.334983825683594
 20
2.5629377365112305
 10
13.315713882446289
 20
2.5822079181671143
 10
12.699067115783691
 20
2.5822079181671143
 10
12.67979621887207
 20
2.601478099822998
 10
12.255851745605469
 20
2.601478099822998
 10
12.236581802368164
 20
2.620748281478882
 10
11.774096488952637
 20
2.620748281478882
 10
11.754826545715332
 20
2.6400184631347656
 10
11.369422912597656
 20
2.6400184631347656
 10
11.350152015686035
 20
2.6592886447906494
 10
11.17672061920166
 20
2.6592886447906494
 10
11.157450675964355
 20
2.678558826446533
 10
10.540803909301758
 20
2.678558826446533
 10
10.521533012390137
 20
2.697829008102417
 10
10.039777755737305
 20
2.697829008102417
 10
10.0205078125
 20
2.717099189758301
 10
9.654374122619629
 20
2.717099189758301
 10
9.635104179382324
 20
2.7363696098327637
 10
9.480941772460938
 20
2.7363696098327637
 10
9.461671829223633
 20
2.7556397914886475
 10
9.307510375976562
 20
2.7556397914886475
 10
9.288240432739258
 20
2.7749099731445312
 10
9.134078025817871
 20
2.7749099731445312
 10
9.114808082580566
 20
2.794180154800415
 10
8.999187469482422
 20
2.794180154800415
 10
8.9799165725708
 20
2.813450336456299
 10
8.902835845947266
 20
2.813450336456299
 10
8.883565902709961
 20
2.8327205181121826
 10
8.82575511932373
 20
2.8327205181121826
 10
8.806485176086426
 20
2.8519906997680664
 10
8.7679443359375
 20
2.8519906997680664
 10
8.748674392700195
 20
2.87126088142395
 10
8.71013355255127
 20
2.87126088142395
 10
8.690863609313965
 20
2.890531063079834
 10
8.652323722839355
 20
2.890531063079834
 10
8.633052825927734
 20
2.909801483154297
 10
8.594512939453125
 20
2.909801483154297
 10
8.575242042541504
 20
2.9290716648101807
 10
8.536702156066895
 20
2.9290716648101807
 10
8.51743221282959
 20
2.9483418464660645
 10
8.498161315917969
 20
2.9483418464660645
 10
8.478891372680664
 20
2.9676120281219482
 10
8.45962142944336
 20
2.9676120281219482
 10
8.421080589294434
 20
3.006152391433716
 10
8.401810646057129
 20
3.006152391433716
 10
8.382540702819824
 20
3.0254225730895996
 10
8.363269805908203
 20
3.0254225730895996
 10
8.343999862670898
 20
3.0446927547454834
 10
8.324729919433594
 20
3.0446927547454834
 10
8.305459976196289
 20
3.063962936401367
 10
8.286189079284668
 20
3.063962936401367
 10
8.209108352661133
 20
3.1410439014434814
 10
8.189838409423828
 20
3.1410439014434814
 10
8.112757682800293
 20
3.2181246280670166
 10
8.112757682800293
 20
3.2373948097229004
 10
8.074216842651367
 20
3.275935411453247
 10
8.074216842651367
 20
3.295205593109131
 10
8.054946899414062
 20
3.295205593109131
 10
8.016406059265137
 20
3.3337459564208984
 10
7.977866172790527
 20
3.3337459564208984
 10
7.9585957527160645
 20
3.3530161380767822
 10
7.93932580947876
 20
3.3530161380767822
 10
7.920055389404297
 20
3.372286319732666
 10
7.862244606018066
 20
3.372286319732666
 10
7.842974662780762
 20
3.39155650138855
 10
7.592462062835693
 20
3.39155650138855
  0
LWPOLYLINE
  5
3B
330
17
100
AcDbEntity
  8
Outline
100
AcDbPolyline
 90
366
 70
0
 10
8.498161315917969
 20
5.106605052947998
 10
8.478891372680664
 20
5.087334632873535
 10
8.363269805908203
 20
5.087334632873535
 10
8.343999862670898
 20
5.0680646896362305
 10
8.305459976196289
 20
5.0680646896362305
 10
8.286189079284668
 20
5.048794269561768
 10
8.247649192810059
 20
5.048794269561768
 10
8.228378295898438
 20
5.029524326324463
 10
8.189838409423828
 20
5.029524326324463
 10
8.170568466186523
 20
5.01025390625
 10
8.151297569274902
 20
5.01025390625
 10
8.074216842651367
 20
4.933173179626465
 10
8.054946899414062
 20
4.933173179626465
 10
8.016406059265137
 20
4.894632816314697
 10
7.997136116027832
 20
4.894632816314697
 10
7.93932580947876
 20
4.836822032928467
 10
7.920055389404297
 20
4.836822032928467
 10
7.900784969329834
 20
4.817552089691162
 10
7.900784969329834
 20
4.798281669616699
 10
7.804434299468994
 20
4.701930522918701
 10
7.804434299468994
 20
4.6826605796813965
 10
7.785163879394531
 20
4.663390159606934
 10
7.785163879394531
 20
4.644120216369629
 10
7.6695427894592285
 20
4.528498649597168
 10
7.6695427894592285
 20
4.470688343048096
 10
7.650272369384766
 20
4.451417922973633
 10
7.6695427894592285
 20
4.432147979736328
 10
7.765893936157227
 20
4.432147979736328
 10
7.785163879394531
 20
4.451417922973633
 10
7.804434299468994
 20
4.451417922973633
 10
7.823704242706299
 20
4.470688343048096
 10
7.881515026092529
 20
4.470688343048096
 10
7.900784969329834
 20
4.4899582862854
 10
7.997136116027832
 20
4.4899582862854
 10
8.016406059265137
 20
4.509228706359863
 10
8.093486785888672
 20
4.509228706359863
 10
8.112757682800293
 20
4.528498649597168
 10
8.170568466186523
 20
4.528498649597168
 10
8.189838409423828
 20
4.547769069671631
 10
8.266919136047363
 20
4.547769069671631
 10
8.286189079284668
 20
4.5670390129089355
 10
8.363269805908203
 20
4.5670390129089355
 10
8.382540702819824
 20
4.586309432983398
 10
8.498161315917969
 20
4.586309432983398
 10
8.51743221282959
 20
4.5670390129089355
 10
8.5559720993042
 20
4.5670390129089355
 10
8.594512939453125
 20
4.528498649597168
 10
8.61378288269043
 20
4.528498649597168
 10
8.652323722839355
 20
4.4899582862854
 10
8.652323722839355
 20
4.470688343048096
 10
8.690863609313965
 20
4.432147979736328
 10
8.690863609313965
 20
4.412877559661865
 10
8.71013355255127
 20
4.393607139587402
 10
8.71013355255127
 20
4.374337196350098
 10
8.72940444946289
 20
4.355066776275635
 10
8.72940444946289
 20
4.33579683303833
 10
8.748674392700195
 20
4.316526412963867
 10
8.748674392700195
 20
4.2779860496521
 10
8.7679443359375
 20
4.258716106414795
 10
8.7679443359375
 20
4.239445686340332
 10
8.787214279174805
 20
4.220175266265869
 10
8.787214279174805
 20
4.181634902954102
 10
8.806485176086426
 20
4.162364959716797
 10
8.806485176086426
 20
3.950392484664917
 10
8.787214279174805
 20
3.931122303009033
 10
8.787214279174805
 20
3.854041576385498
 10
8.748674392700195
 20
3.8155012130737305
 10
8.748674392700195
 20
3.7962310314178467
 10
8.690863609313965
 20
3.738420248031616
 10
8.67159366607666
 20
3.738420248031616
 10
8.652323722839355
 20
3.7191500663757324
 10
8.594512939453125
 20
3.7191500663757324
 10
8.575242042541504
 20
3.6998798847198486
 10
8.51743221282959
 20
3.6998798847198486
 10
8.478891372680664
 20
3.661339521408081
 10
8.45962142944336
 20
3.661339521408081
 10
8.440350532531738
 20
3.6420693397521973
 10
8.401810646057129
 20
3.6420693397521973
 10
8.382540702819824
 20
3.6227991580963135
 10
8.363269805908203
 20
3.6227991580963135
 10
8.343999862670898
 20
3.6035287380218506
 10
8.305459976196289
 20
3.6035287380218506
 10
8.286189079284668
 20
3.584258556365967
 10
8.228378295898438
 20
3.584258556365967
 10
8.209108352661133
 20
3.564988374710083
 10
8.151297569274902
 20
3.564988374710083
 10
8.132027626037598
 20
3.545718193054199
 10
8.093486785888672
 20
3.545718193054199
 10
8.074216842651367
 20
3.5264480113983154
 10
8.074216842651367
 20
3.5071778297424316
 10
8.035676956176758
 20
3.468637466430664
 10
8.074216842651367
 20
3.468637466430664
 10
8.093486785888672
 20
3.4493672847747803
 10
8.112757682800293
 20
3.4493672847747803
 10
8.132027626037598
 20
3.4300968647003174
 10
8.189838409423828
 20
3.4300968647003174
 10
8.209108352661133
 20
3.4108266830444336
 10
8.266919136047363
 20
3.4108266830444336
 10
8.286189079284668
 20
3.39155650138855
 10
8.305459976196289
 20
3.39155650138855
 10
8.324729919433594
 20
3.372286319732666
 10
8.382540702819824
 20
3.372286319732666
 10
8.401810646057129
 20
3.3530161380767822
 10
8.498161315917969
 20
3.3530161380767822
 10
8.51743221282959
 20
3.3337459564208984
 10
8.864295959472656
 20
3.3337459564208984
 10
8.883565902709961
 20
3.3530161380767822
 10
8.960646629333496
 20
3.3530161380767822
 10
8.9799165725708
 20
3.372286319732666
 10
8.999187469482422
 20
3.372286319732666
 10
9.018457412719727
 20
3.39155650138855
 10
9.056997299194336
 20
3.39155650138855
 10
9.076268196105957
 20
3.4108266830444336
 10
9.114808082580566
 20
3.4108266830444336
 10
9.191888809204102
 20
3.487907648086548
 10
9.211159706115723
 20
3.487907648086548
 10
9.249699592590332
 20
3.5264480113983154
 10
9.268969535827637
 20
3.5264480113983154
 10
9.307510375976562
 20
3.564988374710083
 10
9.307510375976562
 20
3.584258556365967
 10
9.326780319213867
 20
3.6035287380218506
 10
9.346051216125488
 20
3.6035287380218506
 10
9.365321159362793
 20
3.6227991580963135
 10
9.384591102600098
 20
3.6227991580963135
 10
9.403861045837402
 20
3.6420693397521973
 10
9.442401885986328
 20
3.6420693397521973
 10
9.519482612609863
 20
3.7191500663757324
 10
9.538752555847168
 20
3.7191500663757324
 10
9.558023452758789
 20
3.738420248031616
 10
9.596563339233398
 20
3.738420248031616
 10
9.615833282470703
 20
3.7576904296875
 10
9.635104179382324
 20
3.7576904296875
 10
9.654374122619629
 20
3.776960611343384
 10
9.673644065856934
 20
3.776960611343384
 10
9.692914962768555
 20
3.7962310314178467
 10
9.76999568939209
 20
3.7962310314178467
 10
9.789265632629395
 20
3.8155012130737305
 10
10.213210105895996
 20
3.8155012130737305
 10
10.2324800491333
 20
3.8347713947296143
 10
10.675695419311523
 20
3.8347713947296143
 10
10.694965362548828
 20
3.8155012130737305
 10
10.926207542419434
 20
3.8155012130737305
 10
10.945478439331055
 20
3.8347713947296143
 10
11.003288269042969
 20
3.8347713947296143
 10
11.02255916595459
 20
3.8155012130737305
 10
11.099639892578125
 20
3.8155012130737305
 10
11.11890983581543
 20
3.8347713947296143
 10
11.138179779052734
 20
3.8347713947296143
 10
11.157450675964355
 20
3.8155012130737305
 10
11.523584365844727
 20
3.8155012130737305
 10
11.542854309082031
 20
3.8347713947296143
 10
11.639205932617188
 20
3.8347713947296143
 10
11.658475875854492
 20
3.8155012130737305
 10
11.735556602478027
 20
3.8155012130737305
 10
11.754826545715332
 20
3.8347713947296143
 10
12.352203369140625
 20
3.8347713947296143
 10
12.37147331237793
 20
3.8155012130737305
 10
14.741708755493164
 20
3.8155012130737305
 10
14.760978698730469
 20
3.7962310314178467
 10
14.799519538879395
 20
3.7962310314178467
 10
14.8187894821167
 20
3.8155012130737305
 10
15.08857250213623
 20
3.8155012130737305
 10
15.107842445373535
 20
3.7962310314178467
 10
15.146383285522461
 20
3.7962310314178467
 10
15.165653228759766
 20
3.8155012130737305
 10
15.223464012145996
 20
3.8155012130737305
 10
15.2427339553833
 20
3.7962310314178467
 10
15.435436248779297
 20
3.7962310314178467
 10
15.454706192016602
 20
3.776960611343384
 10
15.473977088928223
 20
3.7962310314178467
 10
15.685949325561523
 20
3.7962310314178467
 10
15.705219268798828
 20
3.776960611343384
 10
15.897921562194824
 20
3.776960611343384
 10
15.917191505432129
 20
3.7576904296875
 10
15.955732345581055
 20
3.7576904296875
 10
15.97500228881836
 20
3.738420248031616
 10
16.264055252075195
 20
3.738420248031616
 10
16.2833251953125
 20
3.7191500663757324
 10
16.456756591796875
 20
3.7191500663757324
 10
16.476028442382812
 20
3.6998798847198486
 10
16.938512802124023
 20
3.6998798847198486
 10
16.957782745361328
 20
3.680609703063965
 10
17.400997161865234
 20
3.680609703063965
 10
17.42026710510254
 20
3.661339521408081
 10
18.3645076751709
 20
3.661339521408081
 10
18.383777618408203
 20
3.6420693397521973
 10
18.730642318725586
 20
3.6420693397521973
 10
18.74991226196289
 20
3.6227991580963135
 10
18.90407371520996
 20
3.6227991580963135
 10
18.94261360168457
 20
3.584258556365967
 10
18.961883544921875
 20
3.584258556365967
 10
19.077505111694336
 20
3.468637466430664
 10
19.09677505493164
 20
3.468637466430664
 10
19.154586791992188
 20
3.4108266830444336
 10
19.173856735229492
 20
3.4108266830444336
 10
19.193126678466797
 20
3.39155650138855
 10
19.2123966217041
 20
3.39155650138855
 10
19.250938415527344
 20
3.3530161380767822
 10
19.27020835876465
 20
3.3530161380767822
 10
19.289478302001953
 20
3.3337459564208984
 10
19.308748245239258
 20
3.3337459564208984
 10
19.328018188476562
 20
3.3144757747650146
 10
19.347288131713867
 20
3.3144757747650146
 10
19.366558074951172
 20
3.295205593109131
 10
19.443639755249023
 20
3.295205593109131
 10
19.462909698486328
 20
3.275935411453247
 10
19.501449584960938
 20
3.275935411453247
 10
19.520719528198242
 20
3.256664991378784
 10
19.6170711517334
 20
3.256664991378784
 10
19.636341094970703
 20
3.275935411453247
 10
19.655611038208008
 20
3.275935411453247
 10
19.674882888793945
 20
3.295205593109131
 10
19.69415283203125
 20
3.295205593109131
 10
19.713422775268555
 20
3.3144757747650146
 10
19.73269271850586
 20
3.3144757747650146
 10
19.751962661743164
 20
3.3337459564208984
 10
19.77123260498047
 20
3.3337459564208984
 10
19.84831428527832
 20
3.4108266830444336
 10
19.867584228515625
 20
3.4108266830444336
 10
19.944665908813477
 20
3.487907648086548
 10
19.96393585205078
 20
3.487907648086548
 10
19.96393585205078
 20
3.5071778297424316
 10
20.00247573852539
 20
3.545718193054199
 10
20.00247573852539
 20
3.564988374710083
 10
20.060285568237305
 20
3.6227991580963135
 10
20.060285568237305
 20
3.6420693397521973
 10
20.07955551147461
 20
3.661339521408081
 10
20.07955551147461
 20
3.680609703063965
 10
20.11809730529785
 20
3.7191500663757324
 10
20.11809730529785
 20
3.7576904296875
 10
20.137367248535156
 20
3.776960611343384
 10
20.137367248535156
 20
3.873311758041382
 10
20.15663719177246
 20
3.8925819396972656
 10
20.15663719177246
 20
3.950392484664917
 10
20.175907135009766
 20
3.96966290473938
 10
20.175907135009766
 20
4.123824596405029
 10
20.15663719177246
 20
4.143094539642334
 10
20.15663719177246
 20
4.239445686340332
 10
20.137367248535156
 20
4.258716106414795
 10
20.137367248535156
 20
4.2779860496521
 10
20.098827362060547
 20
4.316526412963867
 10
20.098827362060547
 20
4.33579683303833
 10
20.07955551147461
 20
4.355066776275635
 10
20.07955551147461
 20
4.374337196350098
 10
19.944665908813477
 20
4.509228706359863
 10
19.92539405822754
 20
4.509228706359863
 10
19.867584228515625
 20
4.5670390129089355
 10
19.84831428527832
 20
4.5670390129089355
 10
19.829044342041016
 20
4.586309432983398
 10
19.790502548217773
 20
4.586309432983398
 10
19.77123260498047
 20
4.605579853057861
 10
19.73269271850586
 20
4.605579853057861
 10
19.713422775268555
 20
4.624849796295166
 10
19.674882888793945
 20
4.624849796295166
 10
19.655611038208008
 20
4.644120216369629
 10
19.6170711517334
 20
4.644120216369629
 10
19.597801208496094
 20
4.663390159606934
 10
19.520719528198242
 20
4.663390159606934
 10
19.501449584960938
 20
4.6826605796813965
 10
19.347288131713867
 20
4.6826605796813965
 10
19.328018188476562
 20
4.663390159606934
 10
19.250938415527344
 20
4.663390159606934
 10
19.231666564941406
 20
4.644120216369629
 10
19.193126678466797
 20
4.644120216369629
 10
19.173856735229492
 20
4.624849796295166
 10
19.077505111694336
 20
4.624849796295166
 10
19.000425338745117
 20
4.547769069671631
 10
18.981155395507812
 20
4.547769069671631
 10
18.961883544921875
 20
4.528498649597168
 10
18.923343658447266
 20
4.528498649597168
 10
18.884803771972656
 20
4.4899582862854
 10
18.86553382873535
 20
4.4899582862854
 10
18.846263885498047
 20
4.470688343048096
 10
18.730642318725586
 20
4.470688343048096
 10
18.71137237548828
 20
4.451417922973633
 10
18.67283058166504
 20
4.451417922973633
 10
18.653560638427734
 20
4.432147979736328
 10
18.51866912841797
 20
4.432147979736328
 10
18.499399185180664
 20
4.412877559661865
 10
18.248886108398438
 20
4.412877559661865
 10
18.229616165161133
 20
4.393607139587402
 10
17.824941635131836
 20
4.393607139587402
 10
17.80567169189453
 20
4.412877559661865
 10
16.861431121826172
 20
4.412877559661865
 10
16.842161178588867
 20
4.432147979736328
 10
16.668729782104492
 20
4.432147979736328
 10
16.649459838867188
 20
4.451417922973633
 10
16.43748664855957
 20
4.451417922973633
 10
16.418216705322266
 20
4.432147979736328
 10
16.341136932373047
 20
4.432147979736328
 10
16.32186508178711
 20
4.451417922973633
 10
16.09062385559082
 20
4.451417922973633
 10
16.071353912353516
 20
4.432147979736328
 10
16.05208396911621
 20
4.432147979736328
 10
16.032812118530273
 20
4.451417922973633
 10
15.955732345581055
 20
4.451417922973633
 10
15.936461448669434
 20
4.432147979736328
 10
15.840110778808594
 20
4.432147979736328
 10
15.820840835571289
 20
4.451417922973633
 10
15.319814682006836
 20
4.451417922973633
 10
15.300544738769531
 20
4.470688343048096
 10
15.281274795532227
 20
4.470688343048096
 10
15.262004852294922
 20
4.451417922973633
 10
15.08857250213623
 20
4.451417922973633
 10
15.069302558898926
 20
4.470688343048096
 10
14.895870208740234
 20
4.470688343048096
 10
14.87660026550293
 20
4.451417922973633
 10
14.83806037902832
 20
4.451417922973633
 10
14.8187894821167
 20
4.470688343048096
 10
13.73965835571289
 20
4.470688343048096
 10
13.72038745880127
 20
4.4899582862854
 10
13.200092315673828
 20
4.4899582862854
 10
13.180822372436523
 20
4.509228706359863
 10
12.776147842407227
 20
4.509228706359863
 10
12.756877899169922
 20
4.4899582862854
 10
12.564175605773926
 20
4.4899582862854
 10
12.544905662536621
 20
4.509228706359863
 10
12.42928409576416
 20
4.509228706359863
 10
12.410014152526855
 20
4.4899582862854
 10
12.390743255615234
 20
4.4899582862854
 10
12.37147331237793
 20
4.509228706359863
 10
11.581395149230957
 20
4.509228706359863
 10
11.562124252319336
 20
4.528498649597168
 10
11.542854309082031
 20
4.509228706359863
 10
11.11890983581543
 20
4.509228706359863
 10
11.099639892578125
 20
4.528498649597168
 10
10.097588539123535
 20
4.528498649597168
 10
10.07831859588623
 20
4.547769069671631
 10
9.86634635925293
 20
4.547769069671631
 10
9.847076416015625
 20
4.5670390129089355
 10
9.76999568939209
 20
4.5670390129089355
 10
9.750724792480469
 20
4.586309432983398
 10
9.654374122619629
 20
4.586309432983398
 10
9.635104179382324
 20
4.605579853057861
 10
9.577293395996094
 20
4.605579853057861
 10
9.558023452758789
 20
4.624849796295166
 10
9.519482612609863
 20
4.624849796295166
 10
9.500212669372559
 20
4.644120216369629
 10
9.480941772460938
 20
4.644120216369629
 10
9.461671829223633
 20
4.663390159606934
 10
9.442401885986328
 20
4.663390159606934
 10
9.423131942749023
 20
4.6826605796813965
 10
9.403861045837402
 20
4.6826605796813965
 10
9.384591102600098
 20
4.701930522918701
 10
9.346051216125488
 20
4.701930522918701
 10
9.307510375976562
 20
4.740470886230469
 10
9.288240432739258
 20
4.740470886230469
 10
9.268969535827637
 20
4.759741306304932
 10
9.249699592590332
 20
4.759741306304932
 10
9.211159706115723
 20
4.798281669616699
 10
9.191888809204102
 20
4.798281669616699
 10
9.037727355957031
 20
4.952443599700928
 10
9.037727355957031
 20
4.971713542938232
 10
9.018457412719727
 20
4.971713542938232
 10
8.9799165725708
 20
5.01025390625
 10
8.960646629333496
 20
5.01025390625
 10
8.941376686096191
 20
5.029524326324463
 10
8.902835845947266
 20
5.029524326324463
 10
8.883565902709961
 20
5.048794269561768
 10
8.864295959472656
 20
5.048794269561768
 10
8.845025062561035
 20
5.0680646896362305
 10
8.82575511932373
 20
5.0680646896362305
 10
8.806485176086426
 20
5.087334632873535
 10
8.7679443359375
 20
5.087334632873535
 10
8.748674392700195
 20
5.106605052947998
 10
8.498161315917969
 20
5.106605052947998
  0
LWPOLYLINE
  5
3C
330
17
100
AcDbEntity
  8
Outline
100
AcDbPolyline
 90
332
 70
0
 10
9.172618865966797
 20
6.975815296173096
 10
9.153348922729492
 20
6.956544876098633
 10
9.095538139343262
 20
6.956544876098633
 10
9.076268196105957
 20
6.937274932861328
 10
9.037727355957031
 20
6.937274932861328
 10
9.018457412719727
 20
6.918004512786865
 10
8.999187469482422
 20
6.918004512786865
 10
8.9799165725708
 20
6.8987345695495605
 10
8.941376686096191
 20
6.8987345695495605
 10
8.92210578918457
 20
6.879464149475098
 10
8.902835845947266
 20
6.879464149475098
 10
8.883565902709961
 20
6.860193729400635
 10
8.845025062561035
 20
6.860193729400635
 10
8.82575511932373
 20
6.84092378616333
 10
8.806485176086426
 20
6.84092378616333
 10
8.806485176086426
 20
6.821653366088867
 10
8.7679443359375
 20
6.7831130027771
 10
8.748674392700195
 20
6.7831130027771
 10
8.71013355255127
 20
6.744572639465332
 10
8.690863609313965
 20
6.744572639465332
 10
8.575242042541504
 20
6.628951549530029
 10
8.575242042541504
 20
6.609681129455566
 10
8.5559720993042
 20
6.590411186218262
 10
8.5559720993042
 20
6.571140766143799
 10
8.536702156066895
 20
6.551870822906494
 10
8.536702156066895
 20
6.474789619445801
 10
8.575242042541504
 20
6.436249256134033
 10
8.748674392700195
 20
6.436249256134033
 10
8.7679443359375
 20
6.455519676208496
 10
8.806485176086426
 20
6.455519676208496
 10
8.82575511932373
 20
6.474789619445801
 10
8.864295959472656
 20
6.474789619445801
 10
8.883565902709961
 20
6.494060039520264
 10
8.9799165725708
 20
6.494060039520264
 10
8.999187469482422
 20
6.513329982757568
 10
9.211159706115723
 20
6.513329982757568
 10
9.288240432739258
 20
6.436249256134033
 10
9.288240432739258
 20
6.4169793128967285
 10
9.307510375976562
 20
6.397708892822266
 10
9.307510375976562
 20
6.378438949584961
 10
9.326780319213867
 20
6.359168529510498
 10
9.326780319213867
 20
6.339898109436035
 10
9.346051216125488
 20
6.3206281661987305
 10
9.346051216125488
 20
6.301357746124268
 10
9.384591102600098
 20
6.2628173828125
 10
9.384591102600098
 20
6.243547439575195
 10
9.403861045837402
 20
6.224277019500732
 10
9.403861045837402
 20
6.185736656188965
 10
9.423131942749023
 20
6.16646671295166
 10
9.423131942749023
 20
6.070115566253662
 10
9.442401885986328
 20
6.050845146179199
 10
9.442401885986328
 20
5.877413272857666
 10
9.423131942749023
 20
5.858143329620361
 10
9.423131942749023
 20
5.819602966308594
 10
9.403861045837402
 20
5.800332546234131
 10
9.403861045837402
 20
5.781062126159668
 10
9.346051216125488
 20
5.723251819610596
 10
9.326780319213867
 20
5.723251819610596
 10
9.307510375976562
 20
5.703981399536133
 10
9.268969535827637
 20
5.703981399536133
 10
9.249699592590332
 20
5.684711456298828
 10
9.191888809204102
 20
5.684711456298828
 10
9.172618865966797
 20
5.665441036224365
 10
9.114808082580566
 20
5.665441036224365
 10
9.095538139343262
 20
5.6461710929870605
 10
8.999187469482422
 20
5.6461710929870605
 10
8.9799165725708
 20
5.626900672912598
 10
8.883565902709961
 20
5.626900672912598
 10
8.864295959472656
 20
5.607630252838135
 10
8.845025062561035
 20
5.607630252838135
 10
8.806485176086426
 20
5.569089889526367
 10
8.806485176086426
 20
5.5498199462890625
 10
8.941376686096191
 20
5.414928436279297
 10
8.960646629333496
 20
5.414928436279297
 10
8.999187469482422
 20
5.376388072967529
 10
9.018457412719727
 20
5.376388072967529
 10
9.037727355957031
 20
5.357117652893066
 10
9.095538139343262
 20
5.357117652893066
 10
9.114808082580566
 20
5.337847709655762
 10
9.172618865966797
 20
5.337847709655762
 10
9.191888809204102
 20
5.318577289581299
 10
9.442401885986328
 20
5.318577289581299
 10
9.461671829223633
 20
5.337847709655762
 10
9.615833282470703
 20
5.337847709655762
 10
9.635104179382324
 20
5.357117652893066
 10
9.692914962768555
 20
5.357117652893066
 10
9.71218490600586
 20
5.376388072967529
 10
9.731454849243164
 20
5.376388072967529
 10
9.750724792480469
 20
5.395658016204834
 10
9.76999568939209
 20
5.395658016204834
 10
9.789265632629395
 20
5.414928436279297
 10
9.8085355758667
 20
5.414928436279297
 10
9.92415714263916
 20
5.5305495262146
 10
9.943427085876465
 20
5.5305495262146
 10
9.98196792602539
 20
5.569089889526367
 10
10.001237869262695
 20
5.569089889526367
 10
10.0205078125
 20
5.58836030960083
 10
10.059048652648926
 20
5.58836030960083
 10
10.07831859588623
 20
5.607630252838135
 10
10.116859436035156
 20
5.607630252838135
 10
10.136129379272461
 20
5.626900672912598
 10
10.155399322509766
 20
5.626900672912598
 10
10.193940162658691
 20
5.665441036224365
 10
10.2324800491333
 20
5.665441036224365
 10
10.251750946044922
 20
5.684711456298828
 10
10.290290832519531
 20
5.684711456298828
 10
10.309560775756836
 20
5.703981399536133
 10
10.348101615905762
 20
5.703981399536133
 10
10.367371559143066
 20
5.723251819610596
 10
10.425182342529297
 20
5.723251819610596
 10
10.444452285766602
 20
5.7425217628479
 10
10.521533012390137
 20
5.7425217628479
 10
10.540803909301758
 20
5.761792182922363
 10
10.675695419311523
 20
5.761792182922363
 10
10.694965362548828
 20
5.781062126159668
 10
11.041829109191895
 20
5.781062126159668
 10
11.0610990524292
 20
5.761792182922363
 10
11.677745819091797
 20
5.761792182922363
 10
11.697015762329102
 20
5.7425217628479
 10
12.67979621887207
 20
5.7425217628479
 10
12.699067115783691
 20
5.723251819610596
 10
12.949579238891602
 20
5.723251819610596
 10
12.968850135803223
 20
5.7425217628479
 10
13.007390022277832
 20
5.7425217628479
 10
13.026659965515137
 20
5.723251819610596
 10
13.200092315673828
 20
5.723251819610596
 10
13.219362258911133
 20
5.7425217628479
 10
13.373523712158203
 20
5.7425217628479
 10
13.392794609069824
 20
5.723251819610596
 10
13.46987533569336
 20
5.723251819610596
 10
13.489145278930664
 20
5.7425217628479
 10
13.52768611907959
 20
5.7425217628479
 10
13.546956062316895
 20
5.723251819610596
 10
15.08857250213623
 20
5.723251819610596
 10
15.107842445373535
 20
5.703981399536133
 10
15.377625465393066
 20
5.703981399536133
 10
15.396896362304688
 20
5.684711456298828
 10
15.570327758789062
 20
5.684711456298828
 10
15.589597702026367
 20
5.703981399536133
 10
15.743760108947754
 20
5.703981399536133
 10
15.763030052185059
 20
5.684711456298828
 10
16.302595138549805
 20
5.684711456298828
 10
16.32186508178711
 20
5.665441036224365
 10
16.533838272094727
 20
5.665441036224365
 10
16.55310821533203
 20
5.6461710929870605
 10
17.22756576538086
 20
5.6461710929870605
 10
17.246835708618164
 20
5.626900672912598
 10
17.767131805419922
 20
5.626900672912598
 10
17.786401748657227
 20
5.607630252838135
 10
18.056184768676758
 20
5.607630252838135
 10
18.075454711914062
 20
5.58836030960083
 10
18.28742790222168
 20
5.58836030960083
 10
18.306697845458984
 20
5.569089889526367
 10
18.59575080871582
 20
5.569089889526367
 10
18.615020751953125
 20
5.5498199462890625
 10
18.769182205200195
 20
5.5498199462890625
 10
18.7884521484375
 20
5.5305495262146
 10
18.94261360168457
 20
5.5305495262146
 10
18.981155395507812
 20
5.492009162902832
 10
19.000425338745117
 20
5.492009162902832
 10
19.019695281982422
 20
5.472739219665527
 10
19.05823516845703
 20
5.472739219665527
 10
19.077505111694336
 20
5.4534687995910645
 10
19.116046905517578
 20
5.4534687995910645
 10
19.135316848754883
 20
5.434198379516602
 10
19.173856735229492
 20
5.434198379516602
 10
19.193126678466797
 20
5.414928436279297
 10
19.250938415527344
 20
5.414928436279297
 10
19.27020835876465
 20
5.395658016204834
 10
19.289478302001953
 20
5.395658016204834
 10
19.308748245239258
 20
5.376388072967529
 10
19.328018188476562
 20
5.376388072967529
 10
19.347288131713867
 20
5.357117652893066
 10
19.405099868774414
 20
5.357117652893066
 10
19.42436981201172
 20
5.337847709655762
 10
19.482179641723633
 20
5.337847709655762
 10
19.501449584960938
 20
5.318577289581299
 10
19.57853126525879
 20
5.318577289581299
 10
19.597801208496094
 20
5.299307346343994
 10
19.655611038208008
 20
5.299307346343994
 10
19.674882888793945
 20
5.318577289581299
 10
19.790502548217773
 20
5.318577289581299
 10
19.80977439880371
 20
5.337847709655762
 10
19.829044342041016
 20
5.337847709655762
 10
19.867584228515625
 20
5.376388072967529
 10
19.88685417175293
 20
5.376388072967529
 10
19.92539405822754
 20
5.414928436279297
 10
19.96393585205078
 20
5.414928436279297
 10
19.983205795288086
 20
5.434198379516602
 10
20.021745681762695
 20
5.434198379516602
 10
20.041015625
 20
5.4534687995910645
 10
20.041015625
 20
5.472739219665527
 10
20.060285568237305
 20
5.492009162902832
 10
20.060285568237305
 20
5.511279582977295
 10
20.07955551147461
 20
5.5305495262146
 10
20.07955551147461
 20
5.5498199462890625
 10
20.11809730529785
 20
5.58836030960083
 10
20.11809730529785
 20
5.626900672912598
 10
20.137367248535156
 20
5.6461710929870605
 10
20.137367248535156
 20
5.665441036224365
 10
20.15663719177246
 20
5.684711456298828
 10
20.15663719177246
 20
5.703981399536133
 10
20.175907135009766
 20
5.723251819610596
 10
20.175907135009766
 20
5.7425217628479
 10
20.19517707824707
 20
5.761792182922363
 10
20.19517707824707
 20
5.819602966308594
 10
20.214447021484375
 20
5.838872909545898
 10
20.214447021484375
 20
5.973764419555664
 10
20.19517707824707
 20
5.993034839630127
 10
20.19517707824707
 20
6.012304782867432
 10
20.175907135009766
 20
6.0315752029418945
 10
20.214447021484375
 20
6.070115566253662
 10
20.214447021484375
 20
6.127925872802734
 10
20.233718872070312
 20
6.147196292877197
 10
20.214447021484375
 20
6.16646671295166
 10
20.214447021484375
 20
6.205007076263428
 10
20.175907135009766
 20
6.243547439575195
 10
20.175907135009766
 20
6.2628173828125
 10
20.15663719177246
 20
6.2628173828125
 10
20.137367248535156
 20
6.282087802886963
 10
20.041015625
 20
6.282087802886963
 10
20.00247573852539
 20
6.3206281661987305
 10
20.00247573852539
 20
6.378438949584961
 10
19.92539405822754
 20
6.455519676208496
 10
19.906124114990234
 20
6.455519676208496
 10
19.88685417175293
 20
6.474789619445801
 10
19.84831428527832
 20
6.474789619445801
 10
19.829044342041016
 20
6.494060039520264
 10
19.636341094970703
 20
6.494060039520264
 10
19.6170711517334
 20
6.513329982757568
 10
19.38582992553711
 20
6.513329982757568
 10
19.366558074951172
 20
6.494060039520264
 10
19.250938415527344
 20
6.494060039520264
 10
19.231666564941406
 20
6.474789619445801
 10
19.2123966217041
 20
6.474789619445801
 10
19.193126678466797
 20
6.455519676208496
 10
19.09677505493164
 20
6.455519676208496
 10
19.077505111694336
 20
6.436249256134033
 10
19.05823516845703
 20
6.436249256134033
 10
19.038965225219727
 20
6.4169793128967285
 10
19.019695281982422
 20
6.4169793128967285
 10
18.94261360168457
 20
6.339898109436035
 10
18.923343658447266
 20
6.339898109436035
 10
18.90407371520996
 20
6.3206281661987305
 10
18.86553382873535
 20
6.3206281661987305
 10
18.846263885498047
 20
6.301357746124268
 10
18.7884521484375
 20
6.301357746124268
 10
18.769182205200195
 20
6.3206281661987305
 10
18.74991226196289
 20
6.301357746124268
 10
18.67283058166504
 20
6.301357746124268
 10
18.653560638427734
 20
6.282087802886963
 10
18.248886108398438
 20
6.282087802886963
 10
18.229616165161133
 20
6.2628173828125
 10
17.786401748657227
 20
6.2628173828125
 10
17.767131805419922
 20
6.282087802886963
 10
17.285375595092773
 20
6.282087802886963
 10
17.26610565185547
 20
6.301357746124268
 10
16.822891235351562
 20
6.301357746124268
 10
16.803621292114258
 20
6.3206281661987305
 10
16.668729782104492
 20
6.3206281661987305
 10
16.649459838867188
 20
6.301357746124268
 10
16.071353912353516
 20
6.301357746124268
 10
16.05208396911621
 20
6.3206281661987305
 10
15.955732345581055
 20
6.3206281661987305
 10
15.936461448669434
 20
6.301357746124268
 10
15.782299995422363
 20
6.301357746124268
 10
15.763030052185059
 20
6.3206281661987305
 10
14.915141105651855
 20
6.3206281661987305
 10
14.895870208740234
 20
6.339898109436035
 10
14.587547302246094
 20
6.339898109436035
 10
14.568277359008789
 20
6.359168529510498
 10
13.546956062316895
 20
6.359168529510498
 10
13.52768611907959
 20
6.378438949584961
 10
12.564175605773926
 20
6.378438949584961
 10
12.544905662536621
 20
6.397708892822266
 10
12.27512264251709
 20
6.397708892822266
 10
12.255851745605469
 20
6.378438949584961
 10
12.236581802368164
 20
6.378438949584961
 10
12.21731185913086
 20
6.397708892822266
 10
12.178771018981934
 20
6.397708892822266
 10
12.159501075744629
 20
6.4169793128967285
 10
12.024609565734863
 20
6.4169793128967285
 10
12.005339622497559
 20
6.397708892822266
 10
11.851178169250488
 20
6.397708892822266
 10
11.831907272338867
 20
6.4169793128967285
 10
11.504314422607422
 20
6.4169793128967285
 10
11.4850435256958
 20
6.436249256134033
 10
10.714235305786133
 20
6.436249256134033
 10
10.694965362548828
 20
6.455519676208496
 10
10.540803909301758
 20
6.455519676208496
 10
10.521533012390137
 20
6.474789619445801
 10
10.425182342529297
 20
6.474789619445801
 10
10.405912399291992
 20
6.494060039520264
 10
10.367371559143066
 20
6.494060039520264
 10
10.348101615905762
 20
6.513329982757568
 10
10.290290832519531
 20
6.513329982757568
 10
10.271020889282227
 20
6.532600402832031
 10
10.213210105895996
 20
6.532600402832031
 10
10.193940162658691
 20
6.551870822906494
 10
10.17466926574707
 20
6.551870822906494
 10
10.155399322509766
 20
6.571140766143799
 10
10.136129379272461
 20
6.571140766143799
 10
10.116859436035156
 20
6.590411186218262
 10
10.07831859588623
 20
6.590411186218262
 10
10.059048652648926
 20
6.609681129455566
 10
10.039777755737305
 20
6.609681129455566
 10
10.0205078125
 20
6.628951549530029
 10
10.001237869262695
 20
6.628951549530029
 10
9.98196792602539
 20
6.648221492767334
 10
9.96269702911377
 20
6.648221492767334
 10
9.943427085876465
 20
6.667491912841797
 10
9.92415714263916
 20
6.667491912841797
 10
9.904887199401855
 20
6.686761856079102
 10
9.885616302490234
 20
6.686761856079102
 10
9.86634635925293
 20
6.7060322761535645
 10
9.847076416015625
 20
6.7060322761535645
 10
9.827805519104004
 20
6.725302696228027
 10
9.8085355758667
 20
6.725302696228027
 10
9.71218490600586
 20
6.821653366088867
 10
9.692914962768555
 20
6.821653366088867
 10
9.635104179382324
 20
6.879464149475098
 10
9.615833282470703
 20
6.879464149475098
 10
9.596563339233398
 20
6.8987345695495605
 10
9.577293395996094
 20
6.8987345695495605
 10
9.558023452758789
 20
6.918004512786865
 10
9.538752555847168
 20
6.918004512786865
 10
9.519482612609863
 20
6.937274932861328
 10
9.480941772460938
 20
6.937274932861328
 10
9.461671829223633
 20
6.956544876098633
 10
9.423131942749023
 20
6.956544876098633
 10
9.403861045837402
 20
6.975815296173096
 10
9.172618865966797
 20
6.975815296173096
  0
LWPOLYLINE
  5
3D
330
17
100
AcDbEntity
  8
Outline
100
AcDbPolyline
 90
311
 70
0
 10
10.290290832519531
 20
8.633052825927734
 10
10.271020889282227
 20
8.61378288269043
 10
10.155399322509766
 20
8.61378288269043
 10
10.136129379272461
 20
8.594512939453125
 10
10.097588539123535
 20
8.594512939453125
 10
10.07831859588623
 20
8.575242042541504
 10
10.059048652648926
 20
8.575242042541504
 10
10.039777755737305
 20
8.5559720993042
 10
10.0205078125
 20
8.5559720993042
 10
10.001237869262695
 20
8.536702156066895
 10
9.98196792602539
 20
8.536702156066895
 10
9.96269702911377
 20
8.51743221282959
 10
9.943427085876465
 20
8.51743221282959
 10
9.92415714263916
 20
8.498161315917969
 10
9.904887199401855
 20
8.498161315917969
 10
9.885616302490234
 20
8.478891372680664
 10
9.86634635925293
 20
8.478891372680664
 10
9.847076416015625
 20
8.45962142944336
 10
9.827805519104004
 20
8.45962142944336
 10
9.76999568939209
 20
8.401810646057129
 10
9.750724792480469
 20
8.401810646057129
 10
9.71218490600586
 20
8.363269805908203
 10
9.692914962768555
 20
8.363269805908203
 10
9.615833282470703
 20
8.286189079284668
 10
9.615833282470703
 20
8.266919136047363
 10
9.596563339233398
 20
8.247649192810059
 10
9.596563339233398
 20
8.228378295898438
 10
9.577293395996094
 20
8.209108352661133
 10
9.577293395996094
 20
8.189838409423828
 10
9.558023452758789
 20
8.170568466186523
 10
9.558023452758789
 20
8.151297569274902
 10
9.538752555847168
 20
8.132027626037598
 10
9.538752555847168
 20
8.093486785888672
 10
9.577293395996094
 20
8.054946899414062
 10
9.596563339233398
 20
8.054946899414062
 10
9.615833282470703
 20
8.035676956176758
 10
9.635104179382324
 20
8.054946899414062
 10
9.673644065856934
 20
8.054946899414062
 10
9.692914962768555
 20
8.074216842651367
 10
9.789265632629395
 20
8.074216842651367
 10
9.8085355758667
 20
8.093486785888672
 10
9.847076416015625
 20
8.093486785888672
 10
9.86634635925293
 20
8.112757682800293
 10
9.943427085876465
 20
8.112757682800293
 10
9.96269702911377
 20
8.132027626037598
 10
10.136129379272461
 20
8.132027626037598
 10
10.271020889282227
 20
7.997136116027832
 10
10.271020889282227
 20
7.977866172790527
 10
10.290290832519531
 20
7.9585957527160645
 10
10.290290832519531
 20
7.93932580947876
 10
10.309560775756836
 20
7.920055389404297
 10
10.309560775756836
 20
7.900784969329834
 10
10.328831672668457
 20
7.881515026092529
 10
10.328831672668457
 20
7.823704242706299
 10
10.348101615905762
 20
7.804434299468994
 10
10.348101615905762
 20
7.746623516082764
 10
10.367371559143066
 20
7.727353096008301
 10
10.367371559143066
 20
7.5731916427612305
 10
10.348101615905762
 20
7.553921222686768
 10
10.348101615905762
 20
7.496110916137695
 10
10.271020889282227
 20
7.41903018951416
 10
10.2324800491333
 20
7.41903018951416
 10
10.213210105895996
 20
7.399759769439697
 10
10.193940162658691
 20
7.399759769439697
 10
10.155399322509766
 20
7.36121940612793
 10
10.136129379272461
 20
7.36121940612793
 10
10.116859436035156
 20
7.341948986053467
 10
10.059048652648926
 20
7.341948986053467
 10
10.039777755737305
 20
7.322679042816162
 10
9.98196792602539
 20
7.322679042816162
 10
9.96269702911377
 20
7.303408622741699
 10
9.92415714263916
 20
7.303408622741699
 10
9.904887199401855
 20
7.2841386795043945
 10
9.885616302490234
 20
7.2841386795043945
 10
9.86634635925293
 20
7.264868259429932
 10
9.827805519104004
 20
7.264868259429932
 10
9.8085355758667
 20
7.245598316192627
 10
9.789265632629395
 20
7.245598316192627
 10
9.731454849243164
 20
7.1877875328063965
 10
9.750724792480469
 20
7.168517112731934
 10
9.76999568939209
 20
7.168517112731934
 10
9.8085355758667
 20
7.129976749420166
 10
9.847076416015625
 20
7.129976749420166
 10
9.86634635925293
 20
7.110706806182861
 10
9.904887199401855
 20
7.110706806182861
 10
9.92415714263916
 20
7.091436386108398
 10
9.98196792602539
 20
7.091436386108398
 10
10.001237869262695
 20
7.072166442871094
 10
10.136129379272461
 20
7.072166442871094
 10
10.155399322509766
 20
7.052896022796631
 10
10.328831672668457
 20
7.052896022796631
 10
10.348101615905762
 20
7.033625602722168
 10
10.444452285766602
 20
7.033625602722168
 10
10.463723182678223
 20
7.052896022796631
 10
10.502263069152832
 20
7.052896022796631
 10
10.521533012390137
 20
7.072166442871094
 10
10.560073852539062
 20
7.072166442871094
 10
10.598614692687988
 20
7.110706806182861
 10
10.617884635925293
 20
7.110706806182861
 10
10.637154579162598
 20
7.129976749420166
 10
10.656424522399902
 20
7.129976749420166
 10
10.694965362548828
 20
7.168517112731934
 10
10.714235305786133
 20
7.168517112731934
 10
10.733505249023438
 20
7.1877875328063965
 10
10.752776145935059
 20
7.1877875328063965
 10
10.849126815795898
 20
7.2841386795043945
 10
10.868396759033203
 20
7.2841386795043945
 10
10.906937599182129
 20
7.322679042816162
 10
10.945478439331055
 20
7.322679042816162
 10
10.96474838256836
 20
7.341948986053467
 10
10.984018325805664
 20
7.341948986053467
 10
11.003288269042969
 20
7.36121940612793
 10
11.041829109191895
 20
7.36121940612793
 10
11.0610990524292
 20
7.380489349365234
 10
11.080368995666504
 20
7.380489349365234
 10
11.099639892578125
 20
7.399759769439697
 10
11.138179779052734
 20
7.399759769439697
 10
11.157450675964355
 20
7.41903018951416
 10
11.21526050567627
 20
7.41903018951416
 10
11.23453140258789
 20
7.438300132751465
 10
11.292342185974121
 20
7.438300132751465
 10
11.311612129211426
 20
7.457570552825928
 10
11.369422912597656
 20
7.457570552825928
 10
11.388692855834961
 20
7.476840496063232
 10
11.523584365844727
 20
7.476840496063232
 10
11.542854309082031
 20
7.496110916137695
 10
11.851178169250488
 20
7.496110916137695
 10
11.870448112487793
 20
7.476840496063232
 10
12.833958625793457
 20
7.476840496063232
 10
12.853228569030762
 20
7.457570552825928
 10
13.951630592346191
 20
7.457570552825928
 10
13.970900535583496
 20
7.438300132751465
 10
14.047981262207031
 20
7.438300132751465
 10
14.067251205444336
 20
7.457570552825928
 10
14.298494338989258
 20
7.457570552825928
 10
14.317764282226562
 20
7.438300132751465
 10
14.549006462097168
 20
7.438300132751465
 10
14.568277359008789
 20
7.457570552825928
 10
14.645358085632324
 20
7.457570552825928
 10
14.664628028869629
 20
7.438300132751465
 10
14.72243881225586
 20
7.438300132751465
 10
14.741708755493164
 20
7.457570552825928
 10
15.011491775512695
 20
7.457570552825928
 10
15.03076171875
 20
7.438300132751465
 10
15.050032615661621
 20
7.438300132751465
 10
15.069302558898926
 20
7.457570552825928
 10
16.302595138549805
 20
7.457570552825928
 10
16.32186508178711
 20
7.438300132751465
 10
16.803621292114258
 20
7.438300132751465
 10
16.822891235351562
 20
7.457570552825928
 10
16.842161178588867
 20
7.457570552825928
 10
16.861431121826172
 20
7.438300132751465
 10
17.38172721862793
 20
7.438300132751465
 10
17.400997161865234
 20
7.41903018951416
 10
17.42026710510254
 20
7.41903018951416
 10
17.439537048339844
 20
7.438300132751465
 10
17.728591918945312
 20
7.438300132751465
 10
17.747861862182617
 20
7.41903018951416
 10
17.767131805419922
 20
7.438300132751465
 10
17.902023315429688
 20
7.438300132751465
 10
17.921293258666992
 20
7.41903018951416
 10
18.28742790222168
 20
7.41903018951416
 10
18.306697845458984
 20
7.438300132751465
 10
18.3645076751709
 20
7.438300132751465
 10
18.383777618408203
 20
7.41903018951416
 10
18.576480865478516
 20
7.41903018951416
 10
18.59575080871582
 20
7.399759769439697
 10
18.90407371520996
 20
7.399759769439697
 10
18.923343658447266
 20
7.41903018951416
 10
18.94261360168457
 20
7.41903018951416
 10
18.961883544921875
 20
7.399759769439697
 10
18.961883544921875
 20
7.380489349365234
 10
19.000425338745117
 20
7.341948986053467
 10
19.019695281982422
 20
7.341948986053467
 10
19.077505111694336
 20
7.2841386795043945
 10
19.09677505493164
 20
7.2841386795043945
 10
19.135316848754883
 20
7.245598316192627
 10
19.154586791992188
 20
7.245598316192627
 10
19.173856735229492
 20
7.226327896118164
 10
19.193126678466797
 20
7.226327896118164
 10
19.2123966217041
 20
7.207057476043701
 10
19.250938415527344
 20
7.207057476043701
 10
19.27020835876465
 20
7.1877875328063965
 10
19.308748245239258
 20
7.1877875328063965
 10
19.328018188476562
 20
7.168517112731934
 10
19.38582992553711
 20
7.168517112731934
 10
19.405099868774414
 20
7.149247169494629
 10
19.482179641723633
 20
7.149247169494629
 10
19.501449584960938
 20
7.168517112731934
 10
19.6170711517334
 20
7.168517112731934
 10
19.636341094970703
 20
7.1877875328063965
 10
19.674882888793945
 20
7.1877875328063965
 10
19.69415283203125
 20
7.207057476043701
 10
19.73269271850586
 20
7.207057476043701
 10
19.751962661743164
 20
7.226327896118164
 10
19.77123260498047
 20
7.226327896118164
 10
19.96393585205078
 20
7.41903018951416
 10
19.96393585205078
 20
7.438300132751465
 10
19.983205795288086
 20
7.457570552825928
 10
19.983205795288086
 20
7.496110916137695
 10
20.00247573852539
 20
7.515380859375
 10
20.00247573852539
 20
7.534651279449463
 10
20.021745681762695
 20
7.553921222686768
 10
20.021745681762695
 20
7.611732006072998
 10
20.041015625
 20
7.631002426147461
 10
20.041015625
 20
7.804434299468994
 10
20.021745681762695
 20
7.823704242706299
 10
20.021745681762695
 20
7.881515026092529
 10
20.00247573852539
 20
7.900784969329834
 10
20.00247573852539
 20
7.93932580947876
 10
19.983205795288086
 20
7.9585957527160645
 10
19.983205795288086
 20
7.997136116027832
 10
19.906124114990234
 20
8.074216842651367
 10
19.906124114990234
 20
8.093486785888672
 10
19.80977439880371
 20
8.189838409423828
 10
19.790502548217773
 20
8.189838409423828
 10
19.751962661743164
 20
8.228378295898438
 10
19.73269271850586
 20
8.228378295898438
 10
19.69415283203125
 20
8.266919136047363
 10
19.674882888793945
 20
8.266919136047363
 10
19.655611038208008
 20
8.286189079284668
 10
19.636341094970703
 20
8.286189079284668
 10
19.6170711517334
 20
8.305459976196289
 10
19.57853126525879
 20
8.305459976196289
 10
19.559261322021484
 20
8.324729919433594
 10
19.482179641723633
 20
8.324729919433594
 10
19.462909698486328
 20
8.343999862670898
 10
19.366558074951172
 20
8.343999862670898
 10
19.347288131713867
 20
8.324729919433594
 10
19.308748245239258
 20
8.324729919433594
 10
19.289478302001953
 20
8.305459976196289
 10
19.231666564941406
 20
8.305459976196289
 10
19.2123966217041
 20
8.286189079284668
 10
19.173856735229492
 20
8.286189079284668
 10
19.154586791992188
 20
8.266919136047363
 10
19.135316848754883
 20
8.266919136047363
 10
19.116046905517578
 20
8.247649192810059
 10
19.077505111694336
 20
8.247649192810059
 10
19.05823516845703
 20
8.228378295898438
 10
19.038965225219727
 20
8.228378295898438
 10
19.000425338745117
 20
8.189838409423828
 10
18.961883544921875
 20
8.189838409423828
 10
18.94261360168457
 20
8.170568466186523
 10
18.90407371520996
 20
8.170568466186523
 10
18.884803771972656
 20
8.151297569274902
 10
18.807722091674805
 20
8.151297569274902
 10
18.7884521484375
 20
8.132027626037598
 10
18.71137237548828
 20
8.132027626037598
 10
18.692102432250977
 20
8.112757682800293
 10
18.653560638427734
 20
8.112757682800293
 10
18.63429069519043
 20
8.093486785888672
 10
18.499399185180664
 20
8.093486785888672
 10
18.48012924194336
 20
8.074216842651367
 10
17.940563201904297
 20
8.074216842651367
 10
17.921293258666992
 20
8.054946899414062
 10
17.80567169189453
 20
8.054946899414062
 10
17.786401748657227
 20
8.074216842651367
 10
17.516618728637695
 20
8.074216842651367
 10
17.49734878540039
 20
8.093486785888672
 10
17.478078842163086
 20
8.093486785888672
 10
17.45880889892578
 20
8.074216842651367
 10
15.897921562194824
 20
8.074216842651367
 10
15.87865161895752
 20
8.093486785888672
 10
15.396896362304688
 20
8.093486785888672
 10
15.377625465393066
 20
8.112757682800293
 10
15.358355522155762
 20
8.112757682800293
 10
15.339085578918457
 20
8.093486785888672
 10
15.2427339553833
 20
8.093486785888672
 10
15.223464012145996
 20
8.112757682800293
 10
15.204194068908691
 20
8.112757682800293
 10
15.184924125671387
 20
8.093486785888672
 10
14.568277359008789
 20
8.093486785888672
 10
14.549006462097168
 20
8.112757682800293
 10
13.46987533569336
 20
8.112757682800293
 10
13.450605392456055
 20
8.093486785888672
 10
13.238633155822754
 20
8.093486785888672
 10
13.219362258911133
 20
8.112757682800293
 10
11.754826545715332
 20
8.112757682800293
 10
11.735556602478027
 20
8.132027626037598
 10
11.388692855834961
 20
8.132027626037598
 10
11.369422912597656
 20
8.151297569274902
 10
11.253801345825195
 20
8.151297569274902
 10
11.23453140258789
 20
8.170568466186523
 10
11.195990562438965
 20
8.170568466186523
 10
11.17672061920166
 20
8.189838409423828
 10
11.157450675964355
 20
8.189838409423828
 10
11.138179779052734
 20
8.209108352661133
 10
11.080368995666504
 20
8.209108352661133
 10
11.0610990524292
 20
8.228378295898438
 10
11.041829109191895
 20
8.228378295898438
 10
11.02255916595459
 20
8.247649192810059
 10
11.003288269042969
 20
8.247649192810059
 10
10.984018325805664
 20
8.266919136047363
 10
10.945478439331055
 20
8.266919136047363
 10
10.926207542419434
 20
8.286189079284668
 10
10.887667655944824
 20
8.286189079284668
 10
10.868396759033203
 20
8.305459976196289
 10
10.849126815795898
 20
8.305459976196289
 10
10.791316032409668
 20
8.363269805908203
 10
10.752776145935059
 20
8.363269805908203
 10
10.733505249023438
 20
8.382540702819824
 10
10.714235305786133
 20
8.382540702819824
 10
10.579343795776367
 20
8.51743221282959
 10
10.560073852539062
 20
8.51743221282959
 10
10.540803909301758
 20
8.536702156066895
 10
10.521533012390137
 20
8.536702156066895
 10
10.463723182678223
 20
8.594512939453125
 10
10.405912399291992
 20
8.594512939453125
 10
10.386641502380371
 20
8.61378288269043
 10
10.309560775756836
 20
8.61378288269043
 10
10.290290832519531
 20
8.633052825927734
  0
LWPOLYLINE
  5
3E
330
17
100
AcDbEntity
  8
Outline
100
AcDbPolyline
 90
257
 70
0
 10
10.675695419311523
 20
10.463723182678223
 10
10.656424522399902
 20
10.444452285766602
 10
10.540803909301758
 20
10.444452285766602
 10
10.521533012390137
 20
10.425182342529297
 10
10.502263069152832
 20
10.425182342529297
 10
10.482993125915527
 20
10.405912399291992
 10
10.444452285766602
 20
10.405912399291992
 10
10.425182342529297
 20
10.386641502380371
 10
10.386641502380371
 20
10.386641502380371
 10
10.367371559143066
 20
10.367371559143066
 10
10.348101615905762
 20
10.367371559143066
 10
10.309560775756836
 20
10.328831672668457
 10
10.290290832519531
 20
10.328831672668457
 10
10.251750946044922
 20
10.290290832519531
 10
10.2324800491333
 20
10.290290832519531
 10
10.059048652648926
 20
10.116859436035156
 10
10.059048652648926
 20
10.097588539123535
 10
10.0205078125
 20
10.059048652648926
 10
10.0205078125
 20
10.039777755737305
 10
10.001237869262695
 20
10.0205078125
 10
10.001237869262695
 20
9.943427085876465
 10
10.0205078125
 20
9.943427085876465
 10
10.039777755737305
 20
9.92415714263916
 10
10.213210105895996
 20
9.92415714263916
 10
10.2324800491333
 20
9.943427085876465
 10
10.328831672668457
 20
9.943427085876465
 10
10.348101615905762
 20
9.96269702911377
 10
10.463723182678223
 20
9.96269702911377
 10
10.482993125915527
 20
9.98196792602539
 10
10.579343795776367
 20
9.98196792602539
 10
10.598614692687988
 20
9.96269702911377
 10
10.617884635925293
 20
9.96269702911377
 10
10.675695419311523
 20
9.904887199401855
 10
10.675695419311523
 20
9.885616302490234
 10
10.714235305786133
 20
9.847076416015625
 10
10.714235305786133
 20
9.827805519104004
 10
10.733505249023438
 20
9.8085355758667
 10
10.733505249023438
 20
9.789265632629395
 10
10.752776145935059
 20
9.76999568939209
 10
10.752776145935059
 20
9.750724792480469
 10
10.772046089172363
 20
9.731454849243164
 10
10.772046089172363
 20
9.692914962768555
 10
10.791316032409668
 20
9.673644065856934
 10
10.791316032409668
 20
9.442401885986328
 10
10.772046089172363
 20
9.423131942749023
 10
10.772046089172363
 20
9.403861045837402
 10
10.714235305786133
 20
9.346051216125488
 10
10.694965362548828
 20
9.346051216125488
 10
10.675695419311523
 20
9.326780319213867
 10
10.637154579162598
 20
9.326780319213867
 10
10.617884635925293
 20
9.307510375976562
 10
10.540803909301758
 20
9.307510375976562
 10
10.521533012390137
 20
9.288240432739258
 10
10.463723182678223
 20
9.288240432739258
 10
10.444452285766602
 20
9.268969535827637
 10
10.367371559143066
 20
9.268969535827637
 10
10.348101615905762
 20
9.249699592590332
 10
10.290290832519531
 20
9.249699592590332
 10
10.271020889282227
 20
9.230429649353027
 10
10.251750946044922
 20
9.230429649353027
 10
10.213210105895996
 20
9.191888809204102
 10
10.213210105895996
 20
9.153348922729492
 10
10.2324800491333
 20
9.134078025817871
 10
10.2324800491333
 20
9.114808082580566
 10
10.271020889282227
 20
9.076268196105957
 10
10.290290832519531
 20
9.076268196105957
 10
10.309560775756836
 20
9.056997299194336
 10
10.328831672668457
 20
9.056997299194336
 10
10.348101615905762
 20
9.037727355957031
 10
10.386641502380371
 20
9.037727355957031
 10
10.405912399291992
 20
9.018457412719727
 10
10.444452285766602
 20
9.018457412719727
 10
10.463723182678223
 20
8.999187469482422
 10
10.540803909301758
 20
8.999187469482422
 10
10.560073852539062
 20
8.9799165725708
 10
10.694965362548828
 20
8.9799165725708
 10
10.714235305786133
 20
8.960646629333496
 10
10.849126815795898
 20
8.960646629333496
 10
10.868396759033203
 20
8.9799165725708
 10
10.96474838256836
 20
8.9799165725708
 10
10.984018325805664
 20
8.999187469482422
 10
11.003288269042969
 20
8.999187469482422
 10
11.02255916595459
 20
9.018457412719727
 10
11.041829109191895
 20
9.018457412719727
 10
11.080368995666504
 20
9.056997299194336
 10
11.099639892578125
 20
9.056997299194336
 10
11.138179779052734
 20
9.095538139343262
 10
11.157450675964355
 20
9.095538139343262
 10
11.2730712890625
 20
9.211159706115723
 10
11.292342185974121
 20
9.211159706115723
 10
11.33088207244873
 20
9.249699592590332
 10
11.350152015686035
 20
9.249699592590332
 10
11.369422912597656
 20
9.268969535827637
 10
11.407962799072266
 20
9.268969535827637
 10
11.42723274230957
 20
9.288240432739258
 10
11.446503639221191
 20
9.288240432739258
 10
11.465773582458496
 20
9.307510375976562
 10
11.504314422607422
 20
9.307510375976562
 10
11.523584365844727
 20
9.326780319213867
 10
11.562124252319336
 20
9.326780319213867
 10
11.581395149230957
 20
9.346051216125488
 10
11.658475875854492
 20
9.346051216125488
 10
11.677745819091797
 20
9.365321159362793
 10
11.774096488952637
 20
9.365321159362793
 10
11.793367385864258
 20
9.384591102600098
 10
11.947528839111328
 20
9.384591102600098
 10
11.966798782348633
 20
9.403861045837402
 10
13.065200805664062
 20
9.403861045837402
 10
13.084470748901367
 20
9.384591102600098
 10
16.39894676208496
 20
9.384591102600098
 10
16.418216705322266
 20
9.403861045837402
 10
16.996322631835938
 20
9.403861045837402
 10
17.015592575073242
 20
9.384591102600098
 10
17.979103088378906
 20
9.384591102600098
 10
17.998374938964844
 20
9.365321159362793
 10
18.152536392211914
 20
9.365321159362793
 10
18.17180633544922
 20
9.384591102600098
 10
18.191076278686523
 20
9.365321159362793
 10
18.59575080871582
 20
9.365321159362793
 10
18.615020751953125
 20
9.346051216125488
 10
18.653560638427734
 20
9.346051216125488
 10
18.67283058166504
 20
9.326780319213867
 10
18.769182205200195
 20
9.326780319213867
 10
18.7884521484375
 20
9.307510375976562
 10
18.90407371520996
 20
9.307510375976562
 10
18.923343658447266
 20
9.288240432739258
 10
18.981155395507812
 20
9.288240432739258
 10
19.000425338745117
 20
9.268969535827637
 10
19.038965225219727
 20
9.268969535827637
 10
19.05823516845703
 20
9.249699592590332
 10
19.09677505493164
 20
9.249699592590332
 10
19.116046905517578
 20
9.230429649353027
 10
19.135316848754883
 20
9.230429649353027
 10
19.173856735229492
 20
9.191888809204102
 10
19.2123966217041
 20
9.191888809204102
 10
19.231666564941406
 20
9.172618865966797
 10
19.250938415527344
 20
9.172618865966797
 10
19.27020835876465
 20
9.153348922729492
 10
19.308748245239258
 20
9.153348922729492
 10
19.328018188476562
 20
9.134078025817871
 10
19.366558074951172
 20
9.134078025817871
 10
19.38582992553711
 20
9.114808082580566
 10
19.520719528198242
 20
9.114808082580566
 10
19.53999137878418
 20
9.134078025817871
 10
19.57853126525879
 20
9.134078025817871
 10
19.597801208496094
 20
9.153348922729492
 10
19.6170711517334
 20
9.153348922729492
 10
19.636341094970703
 20
9.172618865966797
 10
19.655611038208008
 20
9.172618865966797
 10
19.674882888793945
 20
9.191888809204102
 10
19.69415283203125
 20
9.191888809204102
 10
19.713422775268555
 20
9.211159706115723
 10
19.73269271850586
 20
9.211159706115723
 10
19.829044342041016
 20
9.307510375976562
 10
19.829044342041016
 20
9.326780319213867
 10
19.867584228515625
 20
9.365321159362793
 10
19.867584228515625
 20
9.384591102600098
 10
19.906124114990234
 20
9.423131942749023
 10
19.906124114990234
 20
9.461671829223633
 10
19.92539405822754
 20
9.480941772460938
 10
19.92539405822754
 20
9.500212669372559
 10
19.944665908813477
 20
9.519482612609863
 10
19.944665908813477
 20
9.577293395996094
 10
19.96393585205078
 20
9.596563339233398
 10
19.96393585205078
 20
9.673644065856934
 10
19.944665908813477
 20
9.692914962768555
 10
19.944665908813477
 20
9.76999568939209
 10
19.92539405822754
 20
9.789265632629395
 10
19.92539405822754
 20
9.827805519104004
 10
19.906124114990234
 20
9.847076416015625
 10
19.906124114990234
 20
9.885616302490234
 10
19.867584228515625
 20
9.92415714263916
 10
19.867584228515625
 20
9.943427085876465
 10
19.84831428527832
 20
9.96269702911377
 10
19.84831428527832
 20
9.98196792602539
 10
19.790502548217773
 20
10.039777755737305
 10
19.77123260498047
 20
10.039777755737305
 10
19.751962661743164
 20
10.059048652648926
 10
19.73269271850586
 20
10.059048652648926
 10
19.713422775268555
 20
10.07831859588623
 10
19.69415283203125
 20
10.07831859588623
 10
19.655611038208008
 20
10.116859436035156
 10
19.636341094970703
 20
10.116859436035156
 10
19.6170711517334
 20
10.136129379272461
 10
19.597801208496094
 20
10.136129379272461
 10
19.57853126525879
 20
10.155399322509766
 10
19.520719528198242
 20
10.155399322509766
 10
19.501449584960938
 20
10.17466926574707
 10
19.2123966217041
 20
10.17466926574707
 10
19.193126678466797
 20
10.155399322509766
 10
19.154586791992188
 20
10.155399322509766
 10
19.135316848754883
 20
10.136129379272461
 10
19.116046905517578
 20
10.136129379272461
 10
19.09677505493164
 20
10.116859436035156
 10
19.038965225219727
 20
10.116859436035156
 10
19.000425338745117
 20
10.07831859588623
 10
18.981155395507812
 20
10.07831859588623
 10
18.961883544921875
 20
10.059048652648926
 10
18.923343658447266
 20
10.059048652648926
 10
18.90407371520996
 20
10.039777755737305
 10
18.86553382873535
 20
10.039777755737305
 10
18.846263885498047
 20
10.0205078125
 10
18.769182205200195
 20
10.0205078125
 10
18.74991226196289
 20
10.001237869262695
 10
18.63429069519043
 20
10.001237869262695
 10
18.615020751953125
 20
9.98196792602539
 10
16.05208396911621
 20
9.98196792602539
 10
16.032812118530273
 20
9.96269702911377
 10
15.396896362304688
 20
9.96269702911377
 10
15.377625465393066
 20
9.98196792602539
 10
15.319814682006836
 20
9.98196792602539
 10
15.300544738769531
 20
9.96269702911377
 10
15.281274795532227
 20
9.98196792602539
 10
15.03076171875
 20
9.98196792602539
 10
15.011491775512695
 20
9.96269702911377
 10
14.279224395751953
 20
9.96269702911377
 10
14.259953498840332
 20
9.98196792602539
 10
13.52768611907959
 20
9.98196792602539
 10
13.508415222167969
 20
10.001237869262695
 10
13.489145278930664
 20
10.001237869262695
 10
13.46987533569336
 20
9.98196792602539
 10
13.065200805664062
 20
9.98196792602539
 10
13.045930862426758
 20
10.001237869262695
 10
12.544905662536621
 20
10.001237869262695
 10
12.525634765625
 20
10.0205078125
 10
11.658475875854492
 20
10.0205078125
 10
11.639205932617188
 20
10.039777755737305
 10
11.523584365844727
 20
10.039777755737305
 10
11.504314422607422
 20
10.059048652648926
 10
11.446503639221191
 20
10.059048652648926
 10
11.42723274230957
 20
10.07831859588623
 10
11.388692855834961
 20
10.07831859588623
 10
11.350152015686035
 20
10.116859436035156
 10
11.311612129211426
 20
10.116859436035156
 10
11.292342185974121
 20
10.136129379272461
 10
11.23453140258789
 20
10.136129379272461
 10
11.21526050567627
 20
10.155399322509766
 10
11.17672061920166
 20
10.155399322509766
 10
11.138179779052734
 20
10.193940162658691
 10
11.11890983581543
 20
10.193940162658691
 10
11.080368995666504
 20
10.2324800491333
 10
11.0610990524292
 20
10.2324800491333
 10
11.041829109191895
 20
10.251750946044922
 10
11.041829109191895
 20
10.271020889282227
 10
10.984018325805664
 20
10.328831672668457
 10
10.984018325805664
 20
10.348101615905762
 10
10.96474838256836
 20
10.348101615905762
 10
10.926207542419434
 20
10.386641502380371
 10
10.906937599182129
 20
10.386641502380371
 10
10.887667655944824
 20
10.405912399291992
 10
10.868396759033203
 20
10.405912399291992
 10
10.849126815795898
 20
10.425182342529297
 10
10.829856872558594
 20
10.425182342529297
 10
10.810586929321289
 20
10.444452285766602
 10
10.752776145935059
 20
10.444452285766602
 10
10.733505249023438
 20
10.463723182678223
 10
10.675695419311523
 20
10.463723182678223
  0
LWPOLYLINE
  5
3F
330
17
100
AcDbEntity
  8
Outline
100
AcDbPolyline
 90
265
 70
0
 10
11.619935035705566
 20
12.255851745605469
 10
11.600665092468262
 20
12.236581802368164
 10
11.542854309082031
 20
12.236581802368164
 10
11.523584365844727
 20
12.21731185913086
 10
11.4850435256958
 20
12.21731185913086
 10
11.465773582458496
 20
12.198041915893555
 10
11.42723274230957
 20
12.198041915893555
 10
11.407962799072266
 20
12.178771018981934
 10
11.388692855834961
 20
12.178771018981934
 10
11.369422912597656
 20
12.159501075744629
 10
11.350152015686035
 20
12.159501075744629
 10
11.311612129211426
 20
12.120960235595703
 10
11.292342185974121
 20
12.120960235595703
 10
11.2730712890625
 20
12.101690292358398
 10
11.253801345825195
 20
12.101690292358398
 10
11.23453140258789
 20
12.082420349121094
 10
11.21526050567627
 20
12.082420349121094
 10
11.0610990524292
 20
11.928258895874023
 10
11.0610990524292
 20
11.908987998962402
 10
11.02255916595459
 20
11.870448112487793
 10
11.02255916595459
 20
11.831907272338867
 10
11.003288269042969
 20
11.812637329101562
 10
11.003288269042969
 20
11.754826545715332
 10
11.041829109191895
 20
11.716286659240723
 10
11.17672061920166
 20
11.716286659240723
 10
11.195990562438965
 20
11.735556602478027
 10
11.253801345825195
 20
11.735556602478027
 10
11.2730712890625
 20
11.754826545715332
 10
11.388692855834961
 20
11.754826545715332
 10
11.407962799072266
 20
11.774096488952637
 10
11.562124252319336
 20
11.774096488952637
 10
11.581395149230957
 20
11.754826545715332
 10
11.600665092468262
 20
11.754826545715332
 10
11.677745819091797
 20
11.677745819091797
 10
11.677745819091797
 20
11.658475875854492
 10
11.697015762329102
 20
11.639205932617188
 10
11.697015762329102
 20
11.619935035705566
 10
11.716286659240723
 20
11.600665092468262
 10
11.716286659240723
 20
11.542854309082031
 10
11.735556602478027
 20
11.523584365844727
 10
11.735556602478027
 20
11.446503639221191
 10
11.754826545715332
 20
11.42723274230957
 10
11.735556602478027
 20
11.407962799072266
 10
11.735556602478027
 20
11.311612129211426
 10
11.716286659240723
 20
11.292342185974121
 10
11.716286659240723
 20
11.23453140258789
 10
11.697015762329102
 20
11.21526050567627
 10
11.697015762329102
 20
11.195990562438965
 10
11.677745819091797
 20
11.17672061920166
 10
11.658475875854492
 20
11.17672061920166
 10
11.639205932617188
 20
11.157450675964355
 10
11.600665092468262
 20
11.157450675964355
 10
11.581395149230957
 20
11.138179779052734
 10
11.523584365844727
 20
11.138179779052734
 10
11.504314422607422
 20
11.11890983581543
 10
11.42723274230957
 20
11.11890983581543
 10
11.407962799072266
 20
11.099639892578125
 10
11.350152015686035
 20
11.099639892578125
 10
11.33088207244873
 20
11.080368995666504
 10
11.292342185974121
 20
11.080368995666504
 10
11.2730712890625
 20
11.0610990524292
 10
11.253801345825195
 20
11.0610990524292
 10
11.23453140258789
 20
11.041829109191895
 10
11.21526050567627
 20
11.041829109191895
 10
11.21526050567627
 20
10.984018325805664
 10
11.23453140258789
 20
10.96474838256836
 10
11.23453140258789
 20
10.945478439331055
 10
11.2730712890625
 20
10.906937599182129
 10
11.311612129211426
 20
10.906937599182129
 10
11.33088207244873
 20
10.887667655944824
 10
11.350152015686035
 20
10.887667655944824
 10
11.369422912597656
 20
10.868396759033203
 10
11.407962799072266
 20
10.868396759033203
 10
11.42723274230957
 20
10.849126815795898
 10
11.465773582458496
 20
10.849126815795898
 10
11.4850435256958
 20
10.829856872558594
 10
11.639205932617188
 20
10.829856872558594
 10
11.658475875854492
 20
10.810586929321289
 10
11.851178169250488
 20
10.810586929321289
 10
11.870448112487793
 20
10.829856872558594
 10
11.947528839111328
 20
10.829856872558594
 10
11.966798782348633
 20
10.849126815795898
 10
11.986069679260254
 20
10.849126815795898
 10
12.005339622497559
 20
10.868396759033203
 10
12.024609565734863
 20
10.868396759033203
 10
12.063150405883789
 20
10.906937599182129
 10
12.082420349121094
 20
10.906937599182129
 10
12.21731185913086
 20
11.041829109191895
 10
12.236581802368164
 20
11.041829109191895
 10
12.255851745605469
 20
11.0610990524292
 10
12.27512264251709
 20
11.0610990524292
 10
12.294392585754395
 20
11.080368995666504
 10
12.3136625289917
 20
11.080368995666504
 10
12.33293342590332
 20
11.099639892578125
 10
12.352203369140625
 20
11.099639892578125
 10
12.37147331237793
 20
11.11890983581543
 10
12.390743255615234
 20
11.11890983581543
 10
12.410014152526855
 20
11.138179779052734
 10
12.448554039001465
 20
11.138179779052734
 10
12.46782398223877
 20
11.157450675964355
 10
12.48709487915039
 20
11.157450675964355
 10
12.506364822387695
 20
11.17672061920166
 10
12.525634765625
 20
11.17672061920166
 10
12.544905662536621
 20
11.195990562438965
 10
12.564175605773926
 20
11.195990562438965
 10
12.58344554901123
 20
11.21526050567627
 10
12.641256332397461
 20
11.21526050567627
 10
12.660526275634766
 20
11.23453140258789
 10
13.334983825683594
 20
11.23453140258789
 10
13.354253768920898
 20
11.21526050567627
 10
13.72038745880127
 20
11.21526050567627
 10
13.73965835571289
 20
11.195990562438965
 10
13.855278968811035
 20
11.195990562438965
 10
13.874549865722656
 20
11.21526050567627
 10
14.375575065612793
 20
11.21526050567627
 10
14.394845008850098
 20
11.195990562438965
 10
15.589597702026367
 20
11.195990562438965
 10
15.608868598937988
 20
11.21526050567627
 10
16.225515365600586
 20
11.21526050567627
 10
16.24478530883789
 20
11.23453140258789
 10
16.861431121826172
 20
11.23453140258789
 10
16.880701065063477
 20
11.253801345825195
 10
16.899972915649414
 20
11.253801345825195
 10
16.91924285888672
 20
11.23453140258789
 10
17.69005012512207
 20
11.23453140258789
 10
17.709320068359375
 20
11.253801345825195
 10
17.767131805419922
 20
11.253801345825195
 10
17.786401748657227
 20
11.23453140258789
 10
18.48012924194336
 20
11.23453140258789
 10
18.499399185180664
 20
11.21526050567627
 10
18.7884521484375
 20
11.21526050567627
 10
18.807722091674805
 20
11.195990562438965
 10
18.884803771972656
 20
11.195990562438965
 10
18.90407371520996
 20
11.17672061920166
 10
18.961883544921875
 20
11.17672061920166
 10
18.981155395507812
 20
11.157450675964355
 10
19.038965225219727
 20
11.157450675964355
 10
19.05823516845703
 20
11.138179779052734
 10
19.116046905517578
 20
11.138179779052734
 10
19.135316848754883
 20
11.11890983581543
 10
19.173856735229492
 20
11.11890983581543
 10
19.193126678466797
 20
11.099639892578125
 10
19.250938415527344
 20
11.099639892578125
 10
19.27020835876465
 20
11.080368995666504
 10
19.328018188476562
 20
11.080368995666504
 10
19.347288131713867
 20
11.0610990524292
 10
19.443639755249023
 20
11.0610990524292
 10
19.462909698486328
 20
11.080368995666504
 10
19.559261322021484
 20
11.080368995666504
 10
19.57853126525879
 20
11.099639892578125
 10
19.597801208496094
 20
11.099639892578125
 10
19.6170711517334
 20
11.11890983581543
 10
19.655611038208008
 20
11.11890983581543
 10
19.77123260498047
 20
11.23453140258789
 10
19.77123260498047
 20
11.253801345825195
 10
19.790502548217773
 20
11.2730712890625
 10
19.790502548217773
 20
11.292342185974121
 10
19.829044342041016
 20
11.33088207244873
 10
19.829044342041016
 20
11.350152015686035
 10
19.84831428527832
 20
11.369422912597656
 10
19.84831428527832
 20
11.388692855834961
 10
19.88685417175293
 20
11.42723274230957
 10
19.88685417175293
 20
11.446503639221191
 10
19.92539405822754
 20
11.4850435256958
 10
19.92539405822754
 20
11.562124252319336
 10
19.96393585205078
 20
11.600665092468262
 10
19.96393585205078
 20
11.697015762329102
 10
19.983205795288086
 20
11.716286659240723
 10
19.96393585205078
 20
11.735556602478027
 10
19.96393585205078
 20
11.928258895874023
 10
19.944665908813477
 20
11.947528839111328
 10
19.944665908813477
 20
11.966798782348633
 10
19.906124114990234
 20
12.005339622497559
 10
19.906124114990234
 20
12.024609565734863
 10
19.790502548217773
 20
12.140231132507324
 10
19.77123260498047
 20
12.140231132507324
 10
19.751962661743164
 20
12.159501075744629
 10
19.73269271850586
 20
12.159501075744629
 10
19.713422775268555
 20
12.178771018981934
 10
19.636341094970703
 20
12.178771018981934
 10
19.6170711517334
 20
12.159501075744629
 10
19.597801208496094
 20
12.159501075744629
 10
19.57853126525879
 20
12.140231132507324
 10
19.559261322021484
 20
12.140231132507324
 10
19.53999137878418
 20
12.120960235595703
 10
19.482179641723633
 20
12.120960235595703
 10
19.462909698486328
 20
12.101690292358398
 10
19.405099868774414
 20
12.101690292358398
 10
19.38582992553711
 20
12.082420349121094
 10
19.366558074951172
 20
12.082420349121094
 10
19.347288131713867
 20
12.063150405883789
 10
19.328018188476562
 20
12.063150405883789
 10
19.308748245239258
 20
12.043879508972168
 10
19.27020835876465
 20
12.043879508972168
 10
19.250938415527344
 20
12.024609565734863
 10
19.2123966217041
 20
12.024609565734863
 10
19.193126678466797
 20
12.005339622497559
 10
19.173856735229492
 20
12.005339622497559
 10
19.154586791992188
 20
11.986069679260254
 10
19.135316848754883
 20
11.986069679260254
 10
19.116046905517578
 20
11.966798782348633
 10
19.09677505493164
 20
11.966798782348633
 10
19.077505111694336
 20
11.947528839111328
 10
19.05823516845703
 20
11.947528839111328
 10
19.038965225219727
 20
11.928258895874023
 10
19.019695281982422
 20
11.928258895874023
 10
18.981155395507812
 20
11.889718055725098
 10
18.961883544921875
 20
11.889718055725098
 10
18.94261360168457
 20
11.870448112487793
 10
18.90407371520996
 20
11.870448112487793
 10
18.884803771972656
 20
11.851178169250488
 10
18.807722091674805
 20
11.851178169250488
 10
18.7884521484375
 20
11.831907272338867
 10
18.692102432250977
 20
11.831907272338867
 10
18.67283058166504
 20
11.812637329101562
 10
18.653560638427734
 20
11.831907272338867
 10
17.921293258666992
 20
11.831907272338867
 10
17.902023315429688
 20
11.812637329101562
 10
17.80567169189453
 20
11.812637329101562
 10
17.786401748657227
 20
11.793367385864258
 10
17.709320068359375
 20
11.793367385864258
 10
17.69005012512207
 20
11.774096488952637
 10
16.996322631835938
 20
11.774096488952637
 10
16.977052688598633
 20
11.754826545715332
 10
16.24478530883789
 20
11.754826545715332
 10
16.225515365600586
 20
11.735556602478027
 10
15.840110778808594
 20
11.735556602478027
 10
15.820840835571289
 20
11.754826545715332
 10
15.223464012145996
 20
11.754826545715332
 10
15.204194068908691
 20
11.735556602478027
 10
14.375575065612793
 20
11.735556602478027
 10
14.356305122375488
 20
11.754826545715332
 10
13.450605392456055
 20
11.754826545715332
 10
13.431334495544434
 20
11.774096488952637
 10
13.238633155822754
 20
11.774096488952637
 10
13.219362258911133
 20
11.793367385864258
 10
12.911039352416992
 20
11.793367385864258
 10
12.891769409179688
 20
11.812637329101562
 10
12.756877899169922
 20
11.812637329101562
 10
12.7376070022583
 20
11.831907272338867
 10
12.564175605773926
 20
11.831907272338867
 10
12.544905662536621
 20
11.851178169250488
 10
12.46782398223877
 20
11.851178169250488
 10
12.448554039001465
 20
11.870448112487793
 10
12.37147331237793
 20
11.870448112487793
 10
12.352203369140625
 20
11.889718055725098
 10
12.255851745605469
 20
11.889718055725098
 10
12.236581802368164
 20
11.908987998962402
 10
12.198041915893555
 20
11.908987998962402
 10
12.140231132507324
 20
11.966798782348633
 10
12.120960235595703
 20
11.966798782348633
 10
12.063150405883789
 20
12.024609565734863
 10
12.043879508972168
 20
12.024609565734863
 10
12.005339622497559
 20
12.063150405883789
 10
12.005339622497559
 20
12.082420349121094
 10
11.947528839111328
 20
12.140231132507324
 10
11.928258895874023
 20
12.140231132507324
 10
11.870448112487793
 20
12.198041915893555
 10
11.831907272338867
 20
12.198041915893555
 10
11.812637329101562
 20
12.21731185913086
 10
11.735556602478027
 20
12.21731185913086
 10
11.716286659240723
 20
12.236581802368164
 10
11.677745819091797
 20
12.236581802368164
 10
11.658475875854492
 20
12.255851745605469
 10
11.619935035705566
 20
12.255851745605469
  0
LWPOLYLINE
  5
40
330
17
100
AcDbEntity
  8
Outline
100
AcDbPolyline
 90
244
 70
0
 10
19.42436981201172
 20
13.932360649108887
 10
19.405099868774414
 20
13.913089752197266
 10
19.366558074951172
 20
13.913089752197266
 10
19.308748245239258
 20
13.855278968811035
 10
19.308748245239258
 20
13.83600902557373
 10
19.231666564941406
 20
13.758928298950195
 10
19.2123966217041
 20
13.758928298950195
 10
19.193126678466797
 20
13.73965835571289
 10
19.173856735229492
 20
13.73965835571289
 10
19.154586791992188
 20
13.72038745880127
 10
19.09677505493164
 20
13.72038745880127
 10
19.077505111694336
 20
13.701117515563965
 10
19.038965225219727
 20
13.701117515563965
 10
19.019695281982422
 20
13.68184757232666
 10
19.000425338745117
 20
13.68184757232666
 10
18.981155395507812
 20
13.662577629089355
 10
18.961883544921875
 20
13.662577629089355
 10
18.884803771972656
 20
13.58549690246582
 10
18.86553382873535
 20
13.58549690246582
 10
18.82699203491211
 20
13.546956062316895
 10
18.807722091674805
 20
13.546956062316895
 10
18.7884521484375
 20
13.52768611907959
 10
18.460859298706055
 20
13.52768611907959
 10
18.44158935546875
 20
13.508415222167969
 10
18.036914825439453
 20
13.508415222167969
 10
18.01764488220215
 20
13.489145278930664
 10
17.9598331451416
 20
13.489145278930664
 10
17.940563201904297
 20
13.508415222167969
 10
17.84421157836914
 20
13.508415222167969
 10
17.824941635131836
 20
13.489145278930664
 10
17.80567169189453
 20
13.508415222167969
 10
17.747861862182617
 20
13.508415222167969
 10
17.728591918945312
 20
13.489145278930664
 10
16.418216705322266
 20
13.489145278930664
 10
16.39894676208496
 20
13.46987533569336
 10
16.36040687561035
 20
13.46987533569336
 10
16.341136932373047
 20
13.489145278930664
 10
16.01354217529297
 20
13.489145278930664
 10
15.994272232055664
 20
13.46987533569336
 10
15.955732345581055
 20
13.46987533569336
 10
15.936461448669434
 20
13.489145278930664
 10
14.452655792236328
 20
13.489145278930664
 10
14.433385848999023
 20
13.46987533569336
 10
14.240683555603027
 20
13.46987533569336
 10
14.221413612365723
 20
13.489145278930664
 10
13.970900535583496
 20
13.489145278930664
 10
13.951630592346191
 20
13.508415222167969
 10
13.855278968811035
 20
13.508415222167969
 10
13.83600902557373
 20
13.52768611907959
 10
13.46987533569336
 20
13.52768611907959
 10
13.450605392456055
 20
13.546956062316895
 10
13.277173042297363
 20
13.546956062316895
 10
13.257903099060059
 20
13.5662260055542
 10
13.180822372436523
 20
13.5662260055542
 10
13.161551475524902
 20
13.58549690246582
 10
13.084470748901367
 20
13.58549690246582
 10
13.065200805664062
 20
13.604766845703125
 10
13.045930862426758
 20
13.604766845703125
 10
12.988120079040527
 20
13.662577629089355
 10
12.968850135803223
 20
13.662577629089355
 10
12.930309295654297
 20
13.701117515563965
 10
12.911039352416992
 20
13.701117515563965
 10
12.853228569030762
 20
13.758928298950195
 10
12.833958625793457
 20
13.758928298950195
 10
12.814687728881836
 20
13.7781982421875
 10
12.795417785644531
 20
13.7781982421875
 10
12.756877899169922
 20
13.816739082336426
 10
12.718337059020996
 20
13.816739082336426
 10
12.699067115783691
 20
13.83600902557373
 10
12.67979621887207
 20
13.83600902557373
 10
12.660526275634766
 20
13.855278968811035
 10
12.46782398223877
 20
13.855278968811035
 10
12.448554039001465
 20
13.83600902557373
 10
12.352203369140625
 20
13.83600902557373
 10
12.33293342590332
 20
13.816739082336426
 10
12.294392585754395
 20
13.816739082336426
 10
12.27512264251709
 20
13.797469139099121
 10
12.255851745605469
 20
13.797469139099121
 10
12.236581802368164
 20
13.7781982421875
 10
12.21731185913086
 20
13.7781982421875
 10
12.198041915893555
 20
13.758928298950195
 10
12.159501075744629
 20
13.758928298950195
 10
12.101690292358398
 20
13.701117515563965
 10
12.101690292358398
 20
13.68184757232666
 10
12.082420349121094
 20
13.662577629089355
 10
12.082420349121094
 20
13.643306732177734
 10
12.043879508972168
 20
13.604766845703125
 10
12.043879508972168
 20
13.489145278930664
 10
12.063150405883789
 20
13.46987533569336
 10
12.063150405883789
 20
13.450605392456055
 10
12.101690292358398
 20
13.450605392456055
 10
12.120960235595703
 20
13.431334495544434
 10
12.178771018981934
 20
13.431334495544434
 10
12.198041915893555
 20
13.450605392456055
 10
12.294392585754395
 20
13.450605392456055
 10
12.3136625289917
 20
13.46987533569336
 10
12.48709487915039
 20
13.46987533569336
 10
12.506364822387695
 20
13.450605392456055
 10
12.525634765625
 20
13.450605392456055
 10
12.621986389160156
 20
13.354253768920898
 10
12.621986389160156
 20
13.334983825683594
 10
12.641256332397461
 20
13.315713882446289
 10
12.641256332397461
 20
13.296442985534668
 10
12.660526275634766
 20
13.277173042297363
 10
12.660526275634766
 20
13.257903099060059
 10
12.67979621887207
 20
13.238633155822754
 10
12.67979621887207
 20
13.200092315673828
 10
12.699067115783691
 20
13.180822372436523
 10
12.699067115783691
 20
13.007390022277832
 10
12.67979621887207
 20
12.988120079040527
 10
12.67979621887207
 20
12.968850135803223
 10
12.641256332397461
 20
12.930309295654297
 10
12.621986389160156
 20
12.930309295654297
 10
12.602715492248535
 20
12.911039352416992
 10
12.564175605773926
 20
12.911039352416992
 10
12.544905662536621
 20
12.891769409179688
 10
12.390743255615234
 20
12.891769409179688
 10
12.37147331237793
 20
12.872498512268066
 10
12.236581802368164
 20
12.872498512268066
 10
12.21731185913086
 20
12.853228569030762
 10
12.198041915893555
 20
12.853228569030762
 10
12.178771018981934
 20
12.833958625793457
 10
12.178771018981934
 20
12.814687728881836
 10
12.198041915893555
 20
12.795417785644531
 10
12.198041915893555
 20
12.756877899169922
 10
12.255851745605469
 20
12.699067115783691
 10
12.27512264251709
 20
12.699067115783691
 10
12.3136625289917
 20
12.660526275634766
 10
12.352203369140625
 20
12.660526275634766
 10
12.37147331237793
 20
12.641256332397461
 10
12.410014152526855
 20
12.641256332397461
 10
12.42928409576416
 20
12.621986389160156
 10
12.506364822387695
 20
12.621986389160156
 10
12.525634765625
 20
12.602715492248535
 10
12.602715492248535
 20
12.602715492248535
 10
12.621986389160156
 20
12.58344554901123
 10
12.718337059020996
 20
12.58344554901123
 10
12.7376070022583
 20
12.602715492248535
 10
12.853228569030762
 20
12.602715492248535
 10
12.872498512268066
 20
12.621986389160156
 10
12.891769409179688
 20
12.621986389160156
 10
12.911039352416992
 20
12.641256332397461
 10
12.930309295654297
 20
12.641256332397461
 10
12.968850135803223
 20
12.67979621887207
 10
12.988120079040527
 20
12.67979621887207
 10
13.026659965515137
 20
12.718337059020996
 10
13.045930862426758
 20
12.718337059020996
 10
13.084470748901367
 20
12.756877899169922
 10
13.103741645812988
 20
12.756877899169922
 10
13.123011589050293
 20
12.776147842407227
 10
13.142281532287598
 20
12.776147842407227
 10
13.180822372436523
 20
12.814687728881836
 10
13.200092315673828
 20
12.814687728881836
 10
13.219362258911133
 20
12.833958625793457
 10
13.238633155822754
 20
12.833958625793457
 10
13.257903099060059
 20
12.853228569030762
 10
13.296442985534668
 20
12.853228569030762
 10
13.315713882446289
 20
12.872498512268066
 10
13.354253768920898
 20
12.872498512268066
 10
13.373523712158203
 20
12.891769409179688
 10
13.431334495544434
 20
12.891769409179688
 10
13.450605392456055
 20
12.911039352416992
 10
13.52768611907959
 20
12.911039352416992
 10
13.546956062316895
 20
12.930309295654297
 10
13.643306732177734
 20
12.930309295654297
 10
13.662577629089355
 20
12.949579238891602
 10
13.893819808959961
 20
12.949579238891602
 10
13.913089752197266
 20
12.930309295654297
 10
14.8187894821167
 20
12.930309295654297
 10
14.83806037902832
 20
12.949579238891602
 10
17.747861862182617
 20
12.949579238891602
 10
17.767131805419922
 20
12.930309295654297
 10
17.824941635131836
 20
12.930309295654297
 10
17.84421157836914
 20
12.949579238891602
 10
18.191076278686523
 20
12.949579238891602
 10
18.210346221923828
 20
12.930309295654297
 10
18.268156051635742
 20
12.930309295654297
 10
18.28742790222168
 20
12.949579238891602
 10
18.460859298706055
 20
12.949579238891602
 10
18.48012924194336
 20
12.930309295654297
 10
18.63429069519043
 20
12.930309295654297
 10
18.653560638427734
 20
12.911039352416992
 10
18.769182205200195
 20
12.911039352416992
 10
18.7884521484375
 20
12.891769409179688
 10
18.82699203491211
 20
12.891769409179688
 10
18.846263885498047
 20
12.872498512268066
 10
18.884803771972656
 20
12.872498512268066
 10
18.90407371520996
 20
12.853228569030762
 10
18.923343658447266
 20
12.853228569030762
 10
18.94261360168457
 20
12.833958625793457
 10
18.961883544921875
 20
12.833958625793457
 10
18.981155395507812
 20
12.814687728881836
 10
19.000425338745117
 20
12.814687728881836
 10
19.019695281982422
 20
12.795417785644531
 10
19.038965225219727
 20
12.795417785644531
 10
19.05823516845703
 20
12.776147842407227
 10
19.09677505493164
 20
12.776147842407227
 10
19.116046905517578
 20
12.756877899169922
 10
19.173856735229492
 20
12.756877899169922
 10
19.193126678466797
 20
12.7376070022583
 10
19.328018188476562
 20
12.7376070022583
 10
19.347288131713867
 20
12.756877899169922
 10
19.38582992553711
 20
12.756877899169922
 10
19.405099868774414
 20
12.776147842407227
 10
19.42436981201172
 20
12.776147842407227
 10
19.462909698486328
 20
12.814687728881836
 10
19.482179641723633
 20
12.814687728881836
 10
19.501449584960938
 20
12.833958625793457
 10
19.520719528198242
 20
12.833958625793457
 10
19.520719528198242
 20
12.853228569030762
 10
19.559261322021484
 20
12.891769409179688
 10
19.559261322021484
 20
12.930309295654297
 10
19.57853126525879
 20
12.949579238891602
 10
19.57853126525879
 20
12.968850135803223
 10
19.597801208496094
 20
12.988120079040527
 10
19.597801208496094
 20
13.007390022277832
 10
19.636341094970703
 20
13.045930862426758
 10
19.636341094970703
 20
13.084470748901367
 10
19.69415283203125
 20
13.142281532287598
 10
19.69415283203125
 20
13.161551475524902
 10
19.713422775268555
 20
13.180822372436523
 10
19.713422775268555
 20
13.200092315673828
 10
19.751962661743164
 20
13.238633155822754
 10
19.751962661743164
 20
13.296442985534668
 10
19.77123260498047
 20
13.315713882446289
 10
19.77123260498047
 20
13.431334495544434
 10
19.790502548217773
 20
13.450605392456055
 10
19.790502548217773
 20
13.58549690246582
 10
19.77123260498047
 20
13.604766845703125
 10
19.77123260498047
 20
13.643306732177734
 10
19.751962661743164
 20
13.662577629089355
 10
19.751962661743164
 20
13.68184757232666
 10
19.73269271850586
 20
13.701117515563965
 10
19.73269271850586
 20
13.72038745880127
 10
19.69415283203125
 20
13.758928298950195
 10
19.69415283203125
 20
13.7781982421875
 10
19.597801208496094
 20
13.874549865722656
 10
19.57853126525879
 20
13.874549865722656
 10
19.559261322021484
 20
13.893819808959961
 10
19.53999137878418
 20
13.893819808959961
 10
19.520719528198242
 20
13.913089752197266
 10
19.462909698486328
 20
13.913089752197266
 10
19.443639755249023
 20
13.932360649108887
 10
19.42436981201172
 20
13.932360649108887
  0
ENDSEC
  0
SECTION
  2
OBJECTS
  0
DICTIONARY
  5
A
330
0
100
AcDbDictionary
281
1
  3
ACAD_COLOR
350
B
  3
ACAD_GROUP
350
C
  3
ACAD_LAYOUT
350
D
  3
ACAD_MATERIAL
350
E
  3
ACAD_MLEADERSTYLE
350
F
  3
ACAD_MLINESTYLE
350
10
  3
ACAD_PLOTSETTINGS
350
11
  3
ACAD_PLOTSTYLENAME
350
12
  3
ACAD_SCALELIST
350
14
  3
ACAD_TABLESTYLE
350
15
  3
ACAD_VISUALSTYLE
350
16
  3
EZDXF_META
350
2D
  0
DICTIONARY
  5
B
330
A
100
AcDbDictionary
281
1
  0
DICTIONARY
  5
C
330
A
100
AcDbDictionary
281
1
  0
DICTIONARY
  5
D
330
A
100
AcDbDictionary
281
1
  3
Model
350
1A
  3
Layout1
350
1E
  0
DICTIONARY
  5
E
330
A
100
AcDbDictionary
281
1
  3
ByBlock
350
1F
  3
ByLayer
350
20
  3
Global
350
21
  0
DICTIONARY
  5
F
330
A
100
AcDbDictionary
281
1
  3
Standard
350
2C
  0
DICTIONARY
  5
10
330
A
100
AcDbDictionary
281
1
  3
Standard
350
22
  0
DICTIONARY
  5
11
330
A
100
AcDbDictionary
281
1
  0
ACDBDICTIONARYWDFLT
  5
12
330
A
100
AcDbDictionary
281
1
  3
Normal
350
13
100
AcDbDictionaryWithDefault
340
13
  0
ACDBPLACEHOLDER
  5
13
330
12
  0
DICTIONARY
  5
14
330
A
100
AcDbDictionary
281
1
  0
DICTIONARY
  5
15
330
A
100
AcDbDictionary
281
1
  0
DICTIONARY
  5
16
330
A
100
AcDbDictionary
281
1
  0
LAYOUT
  5
1A
330
D
100
AcDbPlotSettings
  1

  4
A3
  6

 40
7.5
 41
20.0
 42
7.5
 43
20.0
 44
420.0
 45
297.0
 46
0.0
 47
0.0
 48
0.0
 49
0.0
140
0.0
141
0.0
142
1.0
143
1.0
 70
1024
 72
1
 73
0
 74
5
  7

 75
16
 76
0
 77
2
 78
300
147
1.0
148
0.0
149
0.0
100
AcDbLayout
  1
Model
 70
1
 71
0
 10
0.0
 20
0.0
 11
420.0
 21
297.0
 12
0.0
 22
0.0
 32
0.0
 14
1e+20
 24
1e+20
 34
1e+20
 15
-1e+20
 25
-1e+20
 35
-1e+20
146
0.0
 13
0.0
 23
0.0
 33
0.0
 16
1.0
 26
0.0
 36
0.0
 17
0.0
 27
1.0
 37
0.0
 76
1
330
17
  0
LAYOUT
  5
1E
330
D
100
AcDbPlotSettings
  1

  4
A3
  6

 40
7.5
 41
20.0
 42
7.5
 43
20.0
 44
420.0
 45
297.0
 46
0.0
 47
0.0
 48
0.0
 49
0.0
140
0.0
141
0.0
142
1.0
143
1.0
 70
0
 72
1
 73
0
 74
5
  7

 75
16
 76
0
 77
2
 78
300
147
1.0
148
0.0
149
0.0
100
AcDbLayout
  1
Layout1
 70
1
 71
1
 10
0.0
 20
0.0
 11
420.0
 21
297.0
 12
0.0
 22
0.0
 32
0.0
 14
1e+20
 24
1e+20
 34
1e+20
 15
-1e+20
 25
-1e+20
 35
-1e+20
146
0.0
 13
0.0
 23
0.0
 33
0.0
 16
1.0
 26
0.0
 36
0.0
 17
0.0
 27
1.0
 37
0.0
 76
1
330
1B
  0
MATERIAL
  5
1F
102
{ACAD_REACTORS
330
E
102
}
330
E
100
AcDbMaterial
  1
ByBlock
  2

 70
0
 40
1.0
 71
1
 41
1.0
 91
-1023410177
 42
1.0
 72
1
  3

 73
1
 74
1
 75
1
 44
0.5
 73
0
 45
1.0
 46
1.0
 77
1
  4

 78
1
 79
1
170
1
 48
1.0
171
1
  6

172
1
173
1
174
1
140
1.0
141
1.0
175
1
  7

176
1
177
1
178
1
143
1.0
179
1
  8

270
1
271
1
272
1
145
1.0
146
1.0
273
1
  9

274
1
275
1
276
1
 42
1.0
 72
1
  3

 73
1
 74
1
 75
1
 94
63
  0
MATERIAL
  5
20
102
{ACAD_REACTORS
330
E
102
}
330
E
100
AcDbMaterial
  1
ByLayer
  2

 70
0
 40
1.0
 71
1
 41
1.0
 91
-1023410177
 42
1.0
 72
1
  3

 73
1
 74
1
 75
1
 44
0.5
 73
0
 45
1.0
 46
1.0
 77
1
  4

 78
1
 79
1
170
1
 48
1.0
171
1
  6

172
1
173
1
174
1
140
1.0
141
1.0
175
1
  7

176
1
177
1
178
1
143
1.0
179
1
  8

270
1
271
1
272
1
145
1.0
146
1.0
273
1
  9

274
1
275
1
276
1
 42
1.0
 72
1
  3

 73
1
 74
1
 75
1
 94
63
  0
MATERIAL
  5
21
102
{ACAD_REACTORS
330
E
102
}
330
E
100
AcDbMaterial
  1
Global
  2

 70
0
 40
1.0
 71
1
 41
1.0
 91
-1023410177
 42
1.0
 72
1
  3

 73
1
 74
1
 75
1
 44
0.5
 73
0
 45
1.0
 46
1.0
 77
1
  4

 78
1
 79
1
170
1
 48
1.0
171
1
  6

172
1
173
1
174
1
140
1.0
141
1.0
175
1
  7

176
1
177
1
178
1
143
1.0
179
1
  8

270
1
271
1
272
1
145
1.0
146
1.0
273
1
  9

274
1
275
1
276
1
 42
1.0
 72
1
  3

 73
1
 74
1
 75
1
 94
63
  0
MLINESTYLE
  5
22
102
{ACAD_REACTORS
330
10
102
}
330
10
100
AcDbMlineStyle
  2
Standard
 70
0
  3

 62
256
 51
90.0
 52
90.0
 71
2
 49
0.5
 62
256
  6
BYLAYER
 49
-0.5
 62
256
  6
BYLAYER
  0
MLEADERSTYLE
  5
2C
102
{ACAD_REACTORS
330
F
102
}
330
F
100
AcDbMLeaderStyle
179
2
170
2
171
1
172
0
 90
2
 40
0.0
 41
0.0
173
1
 91
-1056964608
 92
-2
290
1
 42
2.0
291
1
 43
8.0
  3
Standard
 44
4.0
300

342
29
174
1
175
1
176
0
178
1
 93
-1056964608
 45
4.0
292
0
297
0
 46
4.0
 94
-1056964608
 47
1.0
 49
1.0
140
1.0
294
1
141
0.0
177
0
142
1.0
295
0
296
0
143
3.75
271
0
272
9
273
9
  0
DICTIONARY
  5
2D
330
A
100
AcDbDictionary
280
1
281
1
  3
CREATED_BY_EZDXF
350
2E
  3
WRITTEN_BY_EZDXF
350
43
  0
DICTIONARYVAR
  5
2E
330
2D
100
DictionaryVariables
280
0
  1
1.4.3 @ 2026-04-08T20:00:41.606067+00:00
  0
DICTIONARYVAR
  5
43
330
2D
100
DictionaryVariables
280
0
  1
1.4.3 @ 2026-04-08T20:00:41.616130+00:00
  0
ENDSEC
  0
EOF
