  0
SECTION
  2
HEADER
  9
$ACADVER
  1
AC1024
  9
$ACADMAINTVER
 70
6
  9
$DWGCODEPAGE
  3
ANSI_1252
  9
$LASTSAVEDBY
  1
ezdxf
  9
$INSBASE
 10
0.0
 20
0.0
 30
0.0
  9
$EXTMIN
 10
1e+20
 20
1e+20
 30
1e+20
  9
$EXTMAX
 10
-1e+20
 20
-1e+20
 30
-1e+20
  9
$LIMMIN
 10
0.0
 20
0.0
  9
$LIMMAX
 10
420.0
 20
297.0
  9
$ORTHOMODE
 70
0
  9
$REGENMODE
 70
1
  9
$FILLMODE
 70
1
  9
$QTEXTMODE
 70
0
  9
$MIRRTEXT
 70
1
  9
$LTSCALE
 40
1.0
  9
$ATTMODE
 70
1
  9
$TEXTSIZE
 40
2.5
  9
$TRACEWID
 40
1.0
  9
$TEXTSTYLE
  7
Standard
  9
$CLAYER
  8
0
  9
$CELTYPE
  6
ByLayer
  9
$CECOLOR
 62
256
  9
$CELTSCALE
 40
1.0
  9
$DISPSILH
 70
0
  9
$DIMSCALE
 40
1.0
  9
$DIMASZ
 40
2.5
  9
$DIMEXO
 40
0.625
  9
$DIMDLI
 40
3.75
  9
$DIMRND
 40
0.0
  9
$DIMDLE
 40
0.0
  9
$DIMEXE
 40
1.25
  9
$DIMTP
 40
0.0
  9
$DIMTM
 40
0.0
  9
$DIMTXT
 40
2.5
  9
$DIMCEN
 40
2.5
  9
$DIMTSZ
 40
0.0
  9
$DIMTOL
 70
0
  9
$DIMLIM
 70
0
  9
$DIMTIH
 70
0
  9
$DIMTOH
 70
0
  9
$DIMSE1
 70
0
  9
$DIMSE2
 70
0
  9
$DIMTAD
 70
1
  9
$DIMZIN
 70
8
  9
$DIMBLK
  1

  9
$DIMASO
 70
1
  9
$DIMSHO
 70
1
  9
$DIMPOST
  1

  9
$DIMAPOST
  1

  9
$DIMALT
 70
0
  9
$DIMALTD
 70
3
  9
$DIMALTF
 40
0.03937007874
  9
$DIMLFAC
 40
1.0
  9
$DIMTOFL
 70
1
  9
$DIMTVP
 40
0.0
  9
$DIMTIX
 70
0
  9
$DIMSOXD
 70
0
  9
$DIMSAH
 70
0
  9
$DIMBLK1
  1

  9
$DIMBLK2
  1

  9
$DIMSTYLE
  2
ISO-25
  9
$DIMCLRD
 70
0
  9
$DIMCLRE
 70
0
  9
$DIMCLRT
 70
0
  9
$DIMTFAC
 40
1.0
  9
$DIMGAP
 40
0.625
  9
$DIMJUST
 70
0
  9
$DIMSD1
 70
0
  9
$DIMSD2
 70
0
  9
$DIMTOLJ
 70
0
  9
$DIMTZIN
 70
8
  9
$DIMALTZ
 70
0
  9
$DIMALTTZ
 70
0
  9
$DIMUPT
 70
0
  9
$DIMDEC
 70
2
  9
$DIMTDEC
 70
2
  9
$DIMALTU
 70
2
  9
$DIMALTTD
 70
3
  9
$DIMTXSTY
  7
Standard
  9
$DIMAUNIT
 70
0
  9
$DIMADEC
 70
0
  9
$DIMALTRND
 40
0.0
  9
$DIMAZIN
 70
0
  9
$DIMDSEP
 70
44
  9
$DIMATFIT
 70
3
  9
$DIMFRAC
 70
0
  9
$DIMLDRBLK
  1

  9
$DIMLUNIT
 70
2
  9
$DIMLWD
 70
-2
  9
$DIMLWE
 70
-2
  9
$DIMTMOVE
 70
0
  9
$DIMFXL
 40
1.0
  9
$DIMFXLON
 70
0
  9
$DIMJOGANG
 40
0.785398163397
  9
$DIMTFILL
 70
0
  9
$DIMTFILLCLR
 70
0
  9
$DIMARCSYM
 70
0
  9
$DIMLTYPE
  6

  9
$DIMLTEX1
  6

  9
$DIMLTEX2
  6

  9
$DIMTXTDIRECTION
 70
0
  9
$LUNITS
 70
2
  9
$LUPREC
 70
4
  9
$SKETCHINC
 40
1.0
  9
$FILLETRAD
 40
10.0
  9
$AUNITS
 70
0
  9
$AUPREC
 70
2
  9
$MENU
  1
.
  9
$ELEVATION
 40
0.0
  9
$PELEVATION
 40
0.0
  9
$THICKNESS
 40
0.0
  9
$LIMCHECK
 70
0
  9
$CHAMFERA
 40
0.0
  9
$CHAMFERB
 40
0.0
  9
$CHAMFERC
 40
0.0
  9
$CHAMFERD
 40
0.0
  9
$SKPOLY
 70
0
  9
$TDCREATE
 40
2461139.665949074
  9
$TDUCREATE
 40
2458532.153996898
  9
$TDUPDATE
 40
2461139.665949074
  9
$TDUUPDATE
 40
2458532.1544311
  9
$TDINDWG
 40
0.0
  9
$TDUSRTIMER
 40
0.0
  9
$USRTIMER
 70
1
  9
$ANGBASE
 50
0.0
  9
$ANGDIR
 70
0
  9
$PDMODE
 70
0
  9
$PDSIZE
 40
0.0
  9
$PLINEWID
 40
0.0
  9
$SPLFRAME
 70
0
  9
$SPLINETYPE
 70
6
  9
$SPLINESEGS
 70
8
  9
$HANDSEED
  5
44
  9
$SURFTAB1
 70
6
  9
$SURFTAB2
 70
6
  9
$SURFTYPE
 70
6
  9
$SURFU
 70
6
  9
$SURFV
 70
6
  9
$UCSBASE
  2

  9
$UCSNAME
  2

  9
$UCSORG
 10
0.0
 20
0.0
 30
0.0
  9
$UCSXDIR
 10
1.0
 20
0.0
 30
0.0
  9
$UCSYDIR
 10
0.0
 20
1.0
 30
0.0
  9
$UCSORTHOREF
  2

  9
$UCSORTHOVIEW
 70
0
  9
$UCSORGTOP
 10
0.0
 20
0.0
 30
0.0
  9
$UCSORGBOTTOM
 10
0.0
 20
0.0
 30
0.0
  9
$UCSORGLEFT
 10
0.0
 20
0.0
 30
0.0
  9
$UCSORGRIGHT
 10
0.0
 20
0.0
 30
0.0
  9
$UCSORGFRONT
 10
0.0
 20
0.0
 30
0.0
  9
$UCSORGBACK
 10
0.0
 20
0.0
 30
0.0
  9
$PUCSBASE
  2

  9
$PUCSNAME
  2

  9
$PUCSORG
 10
0.0
 20
0.0
 30
0.0
  9
$PUCSXDIR
 10
1.0
 20
0.0
 30
0.0
  9
$PUCSYDIR
 10
0.0
 20
1.0
 30
0.0
  9
$PUCSORTHOREF
  2

  9
$PUCSORTHOVIEW
 70
0
  9
$PUCSORGTOP
 10
0.0
 20
0.0
 30
0.0
  9
$PUCSORGBOTTOM
 10
0.0
 20
0.0
 30
0.0
  9
$PUCSORGLEFT
 10
0.0
 20
0.0
 30
0.0
  9
$PUCSORGRIGHT
 10
0.0
 20
0.0
 30
0.0
  9
$PUCSORGFRONT
 10
0.0
 20
0.0
 30
0.0
  9
$PUCSORGBACK
 10
0.0
 20
0.0
 30
0.0
  9
$USERI1
 70
0
  9
$USERI2
 70
0
  9
$USERI3
 70
0
  9
$USERI4
 70
0
  9
$USERI5
 70
0
  9
$USERR1
 40
0.0
  9
$USERR2
 40
0.0
  9
$USERR3
 40
0.0
  9
$USERR4
 40
0.0
  9
$USERR5
 40
0.0
  9
$WORLDVIEW
 70
1
  9
$SHADEDGE
 70
3
  9
$SHADEDIF
 70
70
  9
$TILEMODE
 70
1
  9
$MAXACTVP
 70
64
  9
$PINSBASE
 10
0.0
 20
0.0
 30
0.0
  9
$PLIMCHECK
 70
0
  9
$PEXTMIN
 10
1e+20
 20
1e+20
 30
1e+20
  9
$PEXTMAX
 10
-1e+20
 20
-1e+20
 30
-1e+20
  9
$PLIMMIN
 10
0.0
 20
0.0
  9
$PLIMMAX
 10
420.0
 20
297.0
  9
$UNITMODE
 70
0
  9
$VISRETAIN
 70
1
  9
$PLINEGEN
 70
0
  9
$PSLTSCALE
 70
1
  9
$TREEDEPTH
 70
3020
  9
$CMLSTYLE
  2
Standard
  9
$CMLJUST
 70
0
  9
$CMLSCALE
 40
20.0
  9
$PROXYGRAPHICS
 70
1
  9
$MEASUREMENT
 70
1
  9
$CELWEIGHT
370
-1
  9
$ENDCAPS
280
0
  9
$JOINSTYLE
280
0
  9
$LWDISPLAY
290
0
  9
$INSUNITS
 70
6
  9
$HYPERLINKBASE
  1

  9
$STYLESHEET
  1

  9
$XEDIT
290
1
  9
$CEPSNTYPE
380
0
  9
$PSTYLEMODE
290
1
  9
$FINGERPRINTGUID
  2
{B3205690-EE59-4186-937A-5C6D70C64F19}
  9
$VERSIONGUID
  2
{59BA1961-EA99-42CE-9F8D-D839E4DCE688}
  9
$EXTNAMES
290
1
  9
$PSVPSCALE
 40
0.0
  9
$OLESTARTUP
290
0
  9
$SORTENTS
280
127
  9
$INDEXCTL
280
0
  9
$HIDETEXT
280
1
  9
$XCLIPFRAME
280
1
  9
$HALOGAP
280
0
  9
$OBSCOLOR
 70
257
  9
$OBSLTYPE
280
0
  9
$INTERSECTIONDISPLAY
280
0
  9
$INTERSECTIONCOLOR
 70
257
  9
$DIMASSOC
280
2
  9
$PROJECTNAME
  1

  9
$CAMERADISPLAY
290
0
  9
$LENSLENGTH
 40
50.0
  9
$CAMERAHEIGHT
 40
0.0
  9
$STEPSPERSEC
 40
24.0
  9
$STEPSIZE
 40
100.0
  9
$3DDWFPREC
 40
2.0
  9
$PSOLWIDTH
 40
0.005
  9
$PSOLHEIGHT
 40
0.08
  9
$LOFTANG1
 40
1.570796326795
  9
$LOFTANG2
 40
1.570796326795
  9
$LOFTMAG1
 40
0.0
  9
$LOFTMAG2
 40
0.0
  9
$LOFTPARAM
 70
7
  9
$LOFTNORMALS
280
1
  9
$LATITUDE
 40
37.795
  9
$LONGITUDE
 40
-122.394
  9
$NORTHDIRECTION
 40
0.0
  9
$TIMEZONE
 70
-8000
  9
$LIGHTGLYPHDISPLAY
280
1
  9
$TILEMODELIGHTSYNCH
280
1
  9
$CMATERIAL
347
20
  9
$SOLIDHIST
280
0
  9
$SHOWHIST
280
1
  9
$DWFFRAME
280
2
  9
$DGNFRAME
280
2
  9
$REALWORLDSCALE
290
1
  9
$INTERFERECOLOR
 62
256
  9
$CSHADOW
280
0
  9
$SHADOWPLANELOCATION
 40
0.0
  0
ENDSEC
  0
SECTION
  2
CLASSES
  0
CLASS
  1
ACDBDICTIONARYWDFLT
  2
AcDbDictionaryWithDefault
  3
ObjectDBX Classes
 90
0
 91
0
280
0
281
0
  0
CLASS
  1
SUN
  2
AcDbSun
  3
SCENEOE
 90
1153
 91
0
280
0
281
0
  0
CLASS
  1
VISUALSTYLE
  2
AcDbVisualStyle
  3
ObjectDBX Classes
 90
4095
 91
0
280
0
281
0
  0
CLASS
  1
MATERIAL
  2
AcDbMaterial
  3
ObjectDBX Classes
 90
1153
 91
0
280
0
281
0
  0
CLASS
  1
SCALE
  2
AcDbScale
  3
ObjectDBX Classes
 90
1153
 91
0
280
0
281
0
  0
CLASS
  1
TABLESTYLE
  2
AcDbTableStyle
  3
ObjectDBX Classes
 90
4095
 91
0
280
0
281
0
  0
CLASS
  1
MLEADERSTYLE
  2
AcDbMLeaderStyle
  3
ACDB_MLEADERSTYLE_CLASS
 90
4095
 91
0
280
0
281
0
  0
CLASS
  1
DICTIONARYVAR
  2
AcDbDictionaryVar
  3
ObjectDBX Classes
 90
0
 91
0
280
0
281
0
  0
CLASS
  1
CELLSTYLEMAP
  2
AcDbCellStyleMap
  3
ObjectDBX Classes
 90
1152
 91
0
280
0
281
0
  0
CLASS
  1
MENTALRAYRENDERSETTINGS
  2
AcDbMentalRayRenderSettings
  3
SCENEOE
 90
1024
 91
0
280
0
281
0
  0
CLASS
  1
ACDBDETAILVIEWSTYLE
  2
AcDbDetailViewStyle
  3
ObjectDBX Classes
 90
1025
 91
0
280
0
281
0
  0
CLASS
  1
ACDBSECTIONVIEWSTYLE
  2
AcDbSectionViewStyle
  3
ObjectDBX Classes
 90
1025
 91
0
280
0
281
0
  0
CLASS
  1
RASTERVARIABLES
  2
AcDbRasterVariables
  3
ISM
 90
0
 91
0
280
0
281
0
  0
CLASS
  1
ACDBPLACEHOLDER
  2
AcDbPlaceHolder
  3
ObjectDBX Classes
 90
0
 91
0
280
0
281
0
  0
CLASS
  1
LAYOUT
  2
AcDbLayout
  3
ObjectDBX Classes
 90
0
 91
0
280
0
281
0
  0
ENDSEC
  0
SECTION
  2
TABLES
  0
TABLE
  2
VPORT
  5
8
330
0
100
AcDbSymbolTable
 70
1
  0
VPORT
  5
23
330
8
100
AcDbSymbolTableRecord
100
AcDbViewportTableRecord
  2
*Active
 70
0
 10
0.0
 20
0.0
 11
1.0
 21
1.0
 12
0.0
 22
0.0
 13
0.0
 23
0.0
 14
0.5
 24
0.5
 15
0.5
 25
0.5
 16
0.0
 26
0.0
 36
1.0
 17
0.0
 27
0.0
 37
0.0
 40
1000.0
 41
1.34
 42
50.0
 43
0.0
 44
0.0
 50
0.0
 51
0.0
 71
0
 72
1000
 73
1
 74
3
 75
0
 76
0
 77
0
 78
0
281
0
 65
0
146
0.0
  0
ENDTAB
  0
TABLE
  2
LTYPE
  5
2
330
0
100
AcDbSymbolTable
 70
3
  0
LTYPE
  5
24
330
2
100
AcDbSymbolTableRecord
100
AcDbLinetypeTableRecord
  2
ByBlock
 70
0
  3

 72
65
 73
0
 40
0.0
  0
LTYPE
  5
25
330
2
100
AcDbSymbolTableRecord
100
AcDbLinetypeTableRecord
  2
ByLayer
 70
0
  3

 72
65
 73
0
 40
0.0
  0
LTYPE
  5
26
330
2
100
AcDbSymbolTableRecord
100
AcDbLinetypeTableRecord
  2
Continuous
 70
0
  3

 72
65
 73
0
 40
0.0
  0
ENDTAB
  0
TABLE
  2
LAYER
  5
1
330
0
100
AcDbSymbolTable
 70
4
  0
LAYER
  5
27
330
1
100
AcDbSymbolTableRecord
100
AcDbLayerTableRecord
  2
0
 70
0
 62
7
  6
Continuous
370
-3
390
13
347
21
  0
LAYER
  5
28
330
1
100
AcDbSymbolTableRecord
100
AcDbLayerTableRecord
  2
Defpoints
 70
0
 62
7
  6
Continuous
290
0
370
-3
390
13
347
21
  0
LAYER
  5
2F
330
1
100
AcDbSymbolTableRecord
100
AcDbLayerTableRecord
  2
Outline
 70
0
 62
7
  6
Continuous
370
-3
390
13
347
21
  0
LAYER
  5
30
330
1
100
AcDbSymbolTableRecord
100
AcDbLayerTableRecord
  2
BoundaryBox
 70
0
 62
3
  6
Continuous
370
-3
390
13
347
21
  0
ENDTAB
  0
TABLE
  2
STYLE
  5
5
330
0
100
AcDbSymbolTable
 70
1
  0
STYLE
  5
29
330
5
100
AcDbSymbolTableRecord
100
AcDbTextStyleTableRecord
  2
Standard
 70
0
 40
0.0
 41
1.0
 50
0.0
 71
0
 42
2.5
  3
txt
  4

  0
ENDTAB
  0
TABLE
  2
VIEW
  5
7
330
0
100
AcDbSymbolTable
 70
0
  0
ENDTAB
  0
TABLE
  2
UCS
  5
6
330
0
100
AcDbSymbolTable
 70
0
  0
ENDTAB
  0
TABLE
  2
APPID
  5
3
330
0
100
AcDbSymbolTable
 70
3
  0
APPID
  5
2A
330
3
100
AcDbSymbolTableRecord
100
AcDbRegAppTableRecord
  2
ACAD
 70
0
  0
APPID
  5
41
330
3
100
AcDbSymbolTableRecord
100
AcDbRegAppTableRecord
  2
HATCHBACKGROUNDCOLOR
 70
0
  0
APPID
  5
42
330
3
100
AcDbSymbolTableRecord
100
AcDbRegAppTableRecord
  2
EZDXF
 70
0
  0
ENDTAB
  0
TABLE
  2
DIMSTYLE
  5
4
330
0
100
AcDbSymbolTable
 70
1
100
AcDbDimStyleTable
  0
DIMSTYLE
105
2B
330
4
100
AcDbSymbolTableRecord
100
AcDbDimStyleTableRecord
  2
Standard
 70
0
 40
1.0
 41
2.5
 42
0.625
 43
3.75
 44
1.25
 45
0.0
 46
0.0
 47
0.0
 48
0.0
 49
2.5
140
2.5
141
2.5
142
0.0
143
0.03937007874
144
1.0
145
0.0
146
1.0
147
0.625
148
0.0
 69
0
 70
0
 71
0
 72
0
 73
0
 74
0
 75
0
 76
0
 77
1
 78
8
 79
3
170
0
171
3
172
1
173
0
174
0
175
0
176
0
177
0
178
0
179
2
271
2
272
2
273
2
274
3
275
0
276
0
277
2
278
44
279
0
280
0
281
0
282
0
283
0
284
8
285
0
286
0
288
0
289
3
290
0
371
-2
372
-2
  0
ENDTAB
  0
TABLE
  2
BLOCK_RECORD
  5
9
330
0
100
AcDbSymbolTable
 70
2
  0
BLOCK_RECORD
  5
17
330
9
100
AcDbSymbolTableRecord
100
AcDbBlockTableRecord
  2
*Model_Space
340
1A
 70
0
280
1
281
0
  0
BLOCK_RECORD
  5
1B
330
9
100
AcDbSymbolTableRecord
100
AcDbBlockTableRecord
  2
*Paper_Space
340
1E
 70
0
280
1
281
0
  0
ENDTAB
  0
ENDSEC
  0
SECTION
  2
BLOCKS
  0
BLOCK
  5
18
330
17
100
AcDbEntity
  8
0
100
AcDbBlockBegin
  2
*Model_Space
 70
0
 10
0.0
 20
0.0
 30
0.0
  3
*Model_Space
  1

  0
ENDBLK
  5
19
330
17
100
AcDbEntity
  8
0
100
AcDbBlockEnd
  0
BLOCK
  5
1C
330
1B
100
AcDbEntity
  8
0
100
AcDbBlockBegin
  2
*Paper_Space
 70
0
 10
0.0
 20
0.0
 30
0.0
  3
*Paper_Space
  1

  0
ENDBLK
  5
1D
330
1B
100
AcDbEntity
  8
0
100
AcDbBlockEnd
  0
ENDSEC
  0
SECTION
  2
ENTITIES
  0
LWPOLYLINE
  5
31
330
17
100
AcDbEntity
  8
BoundaryBox
100
AcDbPolyline
 90
5
 70
1
 10
0.0
 20
16.25525665283203
 10
22.24280548095703
 20
16.25525665283203
 10
22.24280548095703
 20
0.0
 10
0.0
 20
0.0
 10
0.0
 20
16.25525665283203
  0
LWPOLYLINE
  5
32
330
17
100
AcDbEntity
  8
Outline
100
AcDbPolyline
 90
270
 70
0
 10
2.525996685028076
 20
10.337875366210938
 10
2.502607822418213
 20
10.314486503601074
 10
2.4792189598083496
 20
10.314486503601074
 10
2.432441234588623
 20
10.267708778381348
 10
2.4090523719787598
 20
10.267708778381348
 10
2.2921080589294434
 20
10.150764465332031
 10
2.2921080589294434
 20
10.127375602722168
 10
2.26871919631958
 20
10.103986740112305
 10
2.26871919631958
 20
10.057209014892578
 10
2.245330333709717
 20
10.033820152282715
 10
2.245330333709717
 20
9.963653564453125
 10
2.2219417095184326
 20
9.940264701843262
 10
2.2219417095184326
 20
9.729764938354492
 10
2.1985528469085693
 20
9.706376075744629
 10
2.1985528469085693
 20
9.659598350524902
 10
2.2219417095184326
 20
9.636209487915039
 10
2.2219417095184326
 20
8.466767311096191
 10
2.1985528469085693
 20
8.443378448486328
 10
2.1985528469085693
 20
8.069156646728516
 10
2.175163984298706
 20
8.045767784118652
 10
2.175163984298706
 20
7.671545505523682
 10
2.1517751216888428
 20
7.648156642913818
 10
2.1517751216888428
 20
7.3908796310424805
 10
2.1283862590789795
 20
7.367490768432617
 10
2.1283862590789795
 20
7.133602142333984
 10
2.104997396469116
 20
7.110213279724121
 10
2.104997396469116
 20
6.595658302307129
 10
2.081608533859253
 20
6.572269439697266
 10
2.081608533859253
 20
6.198047637939453
 10
2.0582196712493896
 20
6.17465877532959
 10
2.0582196712493896
 20
6.057714462280273
 10
2.0348308086395264
 20
6.03432559967041
 10
2.0348308086395264
 20
5.777048110961914
 10
2.011441946029663
 20
5.753659248352051
 10
2.011441946029663
 20
5.472992897033691
 10
1.9880529642105103
 20
5.449604034423828
 10
1.9880529642105103
 20
5.262493133544922
 10
1.964664101600647
 20
5.239104270935059
 10
1.964664101600647
 20
5.1455488204956055
 10
1.9412752389907837
 20
5.122159957885742
 10
1.9412752389907837
 20
5.075382232666016
 10
1.9178863763809204
 20
5.051993370056152
 10
1.9178863763809204
 20
5.005215644836426
 10
1.8944975137710571
 20
4.9818267822265625
 10
1.8944975137710571
 20
4.935049057006836
 10
1.8711087703704834
 20
4.911660194396973
 10
1.8711087703704834
 20
4.888271331787109
 10
1.8243310451507568
 20
4.841493606567383
 10
1.8009421825408936
 20
4.841493606567383
 10
1.754164457321167
 20
4.794715881347656
 10
1.7307755947113037
 20
4.8181047439575195
 10
1.7073867321014404
 20
4.8181047439575195
 10
1.6839978694915771
 20
4.841493606567383
 10
1.6839978694915771
 20
5.356048583984375
 10
1.6606090068817139
 20
5.379437446594238
 10
1.6606090068817139
 20
5.426215171813965
 10
1.6138312816619873
 20
5.472992897033691
 10
1.6138312816619873
 20
5.496381759643555
 10
1.590442419052124
 20
5.519770622253418
 10
1.5670535564422607
 20
5.519770622253418
 10
1.5436646938323975
 20
5.543159484863281
 10
1.5202758312225342
 20
5.543159484863281
 10
1.496886968612671
 20
5.5665483474731445
 10
1.3799426555633545
 20
5.5665483474731445
 10
1.3565537929534912
 20
5.589937210083008
 10
1.333164930343628
 20
5.589937210083008
 10
1.3097760677337646
 20
5.5665483474731445
 10
1.2162206172943115
 20
5.5665483474731445
 10
1.1928317546844482
 20
5.543159484863281
 10
1.169442892074585
 20
5.543159484863281
 10
1.0758875608444214
 20
5.449604034423828
 10
1.0758875608444214
 20
5.426215171813965
 10
1.052498698234558
 20
5.402826309204102
 10
1.052498698234558
 20
5.239104270935059
 10
1.0758875608444214
 20
5.215715408325195
 10
1.0758875608444214
 20
5.075382232666016
 10
1.052498698234558
 20
5.051993370056152
 10
1.0758875608444214
 20
5.028604507446289
 10
1.0758875608444214
 20
4.560827255249023
 10
1.0992764234542847
 20
4.53743839263916
 10
1.0992764234542847
 20
4.3035502433776855
 10
1.0758875608444214
 20
4.280161380767822
 10
1.0758875608444214
 20
4.209994792938232
 10
1.052498698234558
 20
4.186605930328369
 10
1.052498698234558
 20
4.116439342498779
 10
1.0057209730148315
 20
4.069661617279053
 10
0.9823320508003235
 20
4.069661617279053
 10
0.9355543851852417
 20
4.022883892059326
 10
0.9121655225753784
 20
4.022883892059326
 10
0.9121655225753784
 20
3.999494791030884
 10
0.8887766599655151
 20
3.9761059284210205
 10
0.8887766599655151
 20
3.765606164932251
 10
0.8653877973556519
 20
3.742217540740967
 10
0.8653877973556519
 20
3.6252732276916504
 10
0.8887766599655151
 20
3.601884365081787
 10
0.8887766599655151
 20
3.5317177772521973
 10
0.8653877973556519
 20
3.508328914642334
 10
0.8419989347457886
 20
3.508328914642334
 10
0.5847214460372925
 20
3.251051425933838
 10
0.5847214460372925
 20
3.2276625633239746
 10
0.5613325834274292
 20
3.2042737007141113
 10
0.5613325834274292
 20
3.180884838104248
 10
0.5379437804222107
 20
3.1574959754943848
 10
0.5379437804222107
 20
3.017162799835205
 10
0.5145549178123474
 20
2.993773937225342
 10
0.5145549178123474
 20
2.689718723297119
 10
0.5379437804222107
 20
2.666329860687256
 10
0.5379437804222107
 20
2.6195521354675293
 10
0.5613325834274292
 20
2.596163272857666
 10
0.5613325834274292
 20
2.5727744102478027
 10
0.5847214460372925
 20
2.5493855476379395
 10
0.5847214460372925
 20
2.525996685028076
 10
0.7016657590866089
 20
2.4090523719787598
 10
0.7016657590866089
 20
2.3856635093688965
 10
0.7250546216964722
 20
2.3856635093688965
 10
0.8186100721359253
 20
2.2921080589294434
 10
0.8419989347457886
 20
2.2921080589294434
 10
0.8653877973556519
 20
2.26871919631958
 10
0.8887766599655151
 20
2.26871919631958
 10
0.9121655225753784
 20
2.245330333709717
 10
0.9355543851852417
 20
2.245330333709717
 10
0.9589431881904602
 20
2.2219417095184326
 10
0.9823320508003235
 20
2.2219417095184326
 10
1.0057209730148315
 20
2.1985528469085693
 10
1.0057209730148315
 20
1.8243310451507568
 10
1.0291098356246948
 20
1.8009421825408936
 10
1.0291098356246948
 20
1.6138312816619873
 10
1.0057209730148315
 20
1.590442419052124
 10
1.0057209730148315
 20
1.3799426555633545
 10
1.0291098356246948
 20
1.3565537929534912
 10
1.0291098356246948
 20
1.262998342514038
 10
1.052498698234558
 20
1.2396094799041748
 10
1.052498698234558
 20
1.169442892074585
 10
1.0758875608444214
 20
1.1460540294647217
 10
1.0758875608444214
 20
1.0992764234542847
 10
1.0992764234542847
 20
1.0758875608444214
 10
1.0992764234542847
 20
1.052498698234558
 10
1.1460540294647217
 20
1.0057209730148315
 10
1.1460540294647217
 20
0.9823320508003235
 10
1.2396094799041748
 20
0.8887766599655151
 10
1.2396094799041748
 20
0.8653877973556519
 10
1.262998342514038
 20
0.8419989347457886
 10
1.2863872051239014
 20
0.8419989347457886
 10
1.333164930343628
 20
0.795221209526062
 10
1.3799426555633545
 20
0.795221209526062
 10
1.4033315181732178
 20
0.7718323469161987
 10
1.426720380783081
 20
0.7718323469161987
 10
1.4501092433929443
 20
0.7484434843063354
 10
1.6372201442718506
 20
0.7484434843063354
 10
1.6606090068817139
 20
0.7250546216964722
 10
1.9178863763809204
 20
0.7250546216964722
 10
1.9412752389907837
 20
0.7484434843063354
 10
2.1517751216888428
 20
0.7484434843063354
 10
2.175163984298706
 20
0.7718323469161987
 10
2.26871919631958
 20
0.7718323469161987
 10
2.2921080589294434
 20
0.795221209526062
 10
2.362274646759033
 20
0.795221209526062
 10
2.3856635093688965
 20
0.8186100721359253
 10
2.4090523719787598
 20
0.8186100721359253
 10
2.432441234588623
 20
0.8419989347457886
 10
2.4558300971984863
 20
0.8419989347457886
 10
2.4792189598083496
 20
0.8653877973556519
 10
2.502607822418213
 20
0.8653877973556519
 10
2.5493855476379395
 20
0.9121655225753784
 10
2.5727744102478027
 20
0.9121655225753784
 10
2.6195521354675293
 20
0.9589431881904602
 10
2.6429409980773926
 20
0.9589431881904602
 10
2.7364964485168457
 20
1.052498698234558
 10
2.759885311126709
 20
1.052498698234558
 10
2.759885311126709
 20
1.0758875608444214
 10
2.8066630363464355
 20
1.1226651668548584
 10
2.8066630363464355
 20
1.1460540294647217
 10
2.830051898956299
 20
1.169442892074585
 10
2.830051898956299
 20
1.3097760677337646
 10
2.8066630363464355
 20
1.333164930343628
 10
2.8066630363464355
 20
1.3565537929534912
 10
2.7832741737365723
 20
1.3799426555633545
 10
2.759885311126709
 20
1.3799426555633545
 10
2.7364964485168457
 20
1.4033315181732178
 10
2.596163272857666
 20
1.4033315181732178
 10
2.5727744102478027
 20
1.426720380783081
 10
2.502607822418213
 20
1.426720380783081
 10
2.4792189598083496
 20
1.4501092433929443
 10
2.245330333709717
 20
1.4501092433929443
 10
2.2219417095184326
 20
1.4734981060028076
 10
2.1517751216888428
 20
1.4734981060028076
 10
2.1283862590789795
 20
1.496886968612671
 10
2.0582196712493896
 20
1.496886968612671
 10
2.0348308086395264
 20
1.5202758312225342
 10
1.8711087703704834
 20
1.5202758312225342
 10
1.8477199077606201
 20
1.5436646938323975
 10
1.8243310451507568
 20
1.5436646938323975
 10
1.7775533199310303
 20
1.590442419052124
 10
1.7775533199310303
 20
1.6372201442718506
 10
1.754164457321167
 20
1.6606090068817139
 10
1.754164457321167
 20
1.6839978694915771
 10
1.7307755947113037
 20
1.7073867321014404
 10
1.7307755947113037
 20
1.9178863763809204
 10
1.7073867321014404
 20
1.9412752389907837
 10
1.7073867321014404
 20
2.011441946029663
 10
1.7775533199310303
 20
2.081608533859253
 10
1.8009421825408936
 20
2.0582196712493896
 10
1.8477199077606201
 20
2.0582196712493896
 10
1.8944975137710571
 20
2.011441946029663
 10
1.8944975137710571
 20
1.964664101600647
 10
1.9412752389907837
 20
1.9178863763809204
 10
2.175163984298706
 20
1.9178863763809204
 10
2.1985528469085693
 20
1.9412752389907837
 10
2.3154969215393066
 20
1.9412752389907837
 10
2.33888578414917
 20
1.964664101600647
 10
2.432441234588623
 20
1.964664101600647
 10
2.4558300971984863
 20
1.9880529642105103
 10
2.6195521354675293
 20
1.9880529642105103
 10
2.6429409980773926
 20
2.011441946029663
 10
2.666329860687256
 20
2.011441946029663
 10
2.759885311126709
 20
2.104997396469116
 10
2.759885311126709
 20
2.175163984298706
 10
2.7832741737365723
 20
2.1985528469085693
 10
2.7832741737365723
 20
2.4090523719787598
 10
2.759885311126709
 20
2.432441234588623
 10
2.759885311126709
 20
2.596163272857666
 10
2.7832741737365723
 20
2.6195521354675293
 10
2.7832741737365723
 20
2.6429409980773926
 10
2.759885311126709
 20
2.666329860687256
 10
2.759885311126709
 20
2.7364964485168457
 10
2.7832741737365723
 20
2.759885311126709
 10
2.7832741737365723
 20
2.9002184867858887
 10
2.759885311126709
 20
2.923607349395752
 10
2.759885311126709
 20
3.180884838104248
 10
2.7364964485168457
 20
3.2042737007141113
 10
2.7364964485168457
 20
3.3212180137634277
 10
2.759885311126709
 20
3.344606876373291
 10
2.759885311126709
 20
3.7889950275421143
 10
2.7832741737365723
 20
3.8123838901519775
 10
2.7832741737365723
 20
4.443883419036865
 10
2.8066630363464355
 20
4.4672722816467285
 10
2.8066630363464355
 20
5.683492660522461
 10
2.830051898956299
 20
5.706881523132324
 10
2.830051898956299
 20
6.385158538818359
 10
2.853440761566162
 20
6.408547401428223
 10
2.853440761566162
 20
7.016657829284668
 10
2.8768296241760254
 20
7.040046691894531
 10
2.8768296241760254
 20
7.110213279724121
 10
2.853440761566162
 20
7.133602142333984
 10
2.853440761566162
 20
7.250546455383301
 10
2.8768296241760254
 20
7.273935317993164
 10
2.8768296241760254
 20
7.835267543792725
 10
2.9002184867858887
 20
7.858656406402588
 10
2.9002184867858887
 20
8.560322761535645
 10
2.923607349395752
 20
8.583711624145508
 10
2.923607349395752
 20
8.88776683807373
 10
2.9469962120056152
 20
8.911155700683594
 10
2.9469962120056152
 20
9.308765411376953
 10
2.9703850746154785
 20
9.332154273986816
 10
2.9703850746154785
 20
9.472487449645996
 10
2.993773937225342
 20
9.49587631225586
 10
2.993773937225342
 20
10.010431289672852
 10
2.9703850746154785
 20
10.033820152282715
 10
2.9703850746154785
 20
10.080597877502441
 10
2.9469962120056152
 20
10.103986740112305
 10
2.9469962120056152
 20
10.127375602722168
 10
2.923607349395752
 20
10.150764465332031
 10
2.923607349395752
 20
10.174153327941895
 10
2.853440761566162
 20
10.244319915771484
 10
2.853440761566162
 20
10.267708778381348
 10
2.830051898956299
 20
10.267708778381348
 10
2.8066630363464355
 20
10.291097640991211
 10
2.759885311126709
 20
10.291097640991211
 10
2.7131075859069824
 20
10.337875366210938
 10
2.525996685028076
 20
10.337875366210938
  0
LWPOLYLINE
  5
33
330
17
100
AcDbEntity
  8
Outline
100
AcDbPolyline
 90
119
 70
0
 10
3.6954398155212402
 20
8.232878684997559
 10
3.672050952911377
 20
8.209489822387695
 10
3.6252732276916504
 20
8.209489822387695
 10
3.601884365081787
 20
8.186100959777832
 10
3.601884365081787
 20
8.045767784118652
 10
3.578495502471924
 20
8.022378921508789
 10
3.578495502471924
 20
7.624767780303955
 10
3.5551066398620605
 20
7.601378917694092
 10
3.5551066398620605
 20
7.133602142333984
 10
3.5317177772521973
 20
7.110213279724121
 10
3.5317177772521973
 20
6.24482536315918
 10
3.5551066398620605
 20
6.221436500549316
 10
3.5551066398620605
 20
6.081103324890137
 10
3.5317177772521973
 20
6.057714462280273
 10
3.5317177772521973
 20
6.010936737060547
 10
3.5551066398620605
 20
5.987547874450684
 10
3.5551066398620605
 20
5.075382232666016
 10
3.578495502471924
 20
5.051993370056152
 10
3.578495502471924
 20
4.841493606567383
 10
3.601884365081787
 20
4.8181047439575195
 10
3.601884365081787
 20
4.209994792938232
 10
3.578495502471924
 20
4.186605930328369
 10
3.578495502471924
 20
3.6954398155212402
 10
3.5551066398620605
 20
3.672050952911377
 10
3.5551066398620605
 20
3.2042737007141113
 10
3.5317177772521973
 20
3.180884838104248
 10
3.5317177772521973
 20
2.9002184867858887
 10
3.508328914642334
 20
2.8768296241760254
 10
3.508328914642334
 20
2.525996685028076
 10
3.4849400520324707
 20
2.502607822418213
 10
3.4849400520324707
 20
2.2921080589294434
 10
3.4615511894226074
 20
2.26871919631958
 10
3.4615511894226074
 20
1.9178863763809204
 10
3.438162326812744
 20
1.8944975137710571
 10
3.438162326812744
 20
1.5670535564422607
 10
3.414773464202881
 20
1.5436646938323975
 10
3.414773464202881
 20
1.2162206172943115
 10
3.438162326812744
 20
1.1928317546844482
 10
3.438162326812744
 20
1.1460540294647217
 10
3.4615511894226074
 20
1.1226651668548584
 10
3.4615511894226074
 20
1.0992764234542847
 10
3.4849400520324707
 20
1.0758875608444214
 10
3.4849400520324707
 20
1.052498698234558
 10
3.508328914642334
 20
1.0291098356246948
 10
3.508328914642334
 20
1.0057209730148315
 10
3.578495502471924
 20
0.9355543851852417
 10
3.578495502471924
 20
0.9121655225753784
 10
3.6954398155212402
 20
0.795221209526062
 10
3.8825504779815674
 20
0.795221209526062
 10
3.9059393405914307
 20
0.8186100721359253
 10
3.9527170658111572
 20
0.8186100721359253
 10
3.999494791030884
 20
0.8653877973556519
 10
4.022883892059326
 20
0.8653877973556519
 10
4.093050479888916
 20
0.9355543851852417
 10
4.116439342498779
 20
0.9355543851852417
 10
4.116439342498779
 20
0.9589431881904602
 10
4.186605930328369
 20
1.0291098356246948
 10
4.186605930328369
 20
1.052498698234558
 10
4.209994792938232
 20
1.0758875608444214
 10
4.209994792938232
 20
1.0992764234542847
 10
4.256772518157959
 20
1.1460540294647217
 10
4.256772518157959
 20
1.169442892074585
 10
4.280161380767822
 20
1.1928317546844482
 10
4.280161380767822
 20
1.2162206172943115
 10
4.3035502433776855
 20
1.2396094799041748
 10
4.3035502433776855
 20
1.262998342514038
 10
4.326939105987549
 20
1.2863872051239014
 10
4.326939105987549
 20
1.333164930343628
 10
4.350327968597412
 20
1.3565537929534912
 10
4.350327968597412
 20
1.4033315181732178
 10
4.373716831207275
 20
1.426720380783081
 10
4.373716831207275
 20
2.4090523719787598
 10
4.350327968597412
 20
2.432441234588623
 10
4.350327968597412
 20
2.5727744102478027
 10
4.373716831207275
 20
2.596163272857666
 10
4.373716831207275
 20
3.5317177772521973
 10
4.397105693817139
 20
3.5551066398620605
 10
4.397105693817139
 20
4.022883892059326
 10
4.420494556427002
 20
4.0462727546691895
 10
4.420494556427002
 20
4.490660667419434
 10
4.443883419036865
 20
4.514049530029297
 10
4.443883419036865
 20
4.584216117858887
 10
4.4672722816467285
 20
4.60760498046875
 10
4.4672722816467285
 20
4.74793815612793
 10
4.490660667419434
 20
4.771327018737793
 10
4.490660667419434
 20
4.888271331787109
 10
4.514049530029297
 20
4.911660194396973
 10
4.514049530029297
 20
5.122159957885742
 10
4.53743839263916
 20
5.1455488204956055
 10
4.53743839263916
 20
5.262493133544922
 10
4.560827255249023
 20
5.285881996154785
 10
4.560827255249023
 20
5.5665483474731445
 10
4.584216117858887
 20
5.589937210083008
 10
4.584216117858887
 20
5.706881523132324
 10
4.60760498046875
 20
5.7302703857421875
 10
4.60760498046875
 20
5.8939924240112305
 10
4.630993843078613
 20
5.917381286621094
 10
4.630993843078613
 20
6.03432559967041
 10
4.654382705688477
 20
6.057714462280273
 10
4.654382705688477
 20
6.221436500549316
 10
4.67777156829834
 20
6.24482536315918
 10
4.67777156829834
 20
6.548880577087402
 10
4.701160430908203
 20
6.572269439697266
 10
4.701160430908203
 20
6.806158065795898
 10
4.724549293518066
 20
6.829546928405762
 10
4.724549293518066
 20
7.0634355545043945
 10
4.74793815612793
 20
7.086824417114258
 10
4.74793815612793
 20
7.367490768432617
 10
4.771327018737793
 20
7.3908796310424805
 10
4.771327018737793
 20
7.952211856842041
 10
4.794715881347656
 20
7.975600719451904
 10
4.794715881347656
 20
8.139323234558105
 10
4.771327018737793
 20
8.162712097167969
 10
4.74793815612793
 20
8.162712097167969
 10
4.724549293518066
 20
8.186100959777832
 10
3.999494791030884
 20
8.186100959777832
 10
3.9761059284210205
 20
8.209489822387695
 10
3.7188286781311035
 20
8.209489822387695
 10
3.6954398155212402
 20
8.232878684997559
  0
LWPOLYLINE
  5
34
330
17
100
AcDbEntity
  8
Outline
100
AcDbPolyline
 90
282
 70
0
 10
6.6424360275268555
 20
9.168432235717773
 10
6.619047164916992
 20
9.14504337310791
 10
6.619047164916992
 20
9.121654510498047
 10
6.572269439697266
 20
9.07487678527832
 10
6.548880577087402
 20
9.07487678527832
 10
6.548880577087402
 20
9.028099060058594
 10
6.525491714477539
 20
9.00471019744873
 10
6.525491714477539
 20
8.981321334838867
 10
6.502102851867676
 20
8.95793342590332
 10
6.502102851867676
 20
8.934544563293457
 10
6.4787139892578125
 20
8.911155700683594
 10
6.4787139892578125
 20
8.864377975463867
 10
6.455325126647949
 20
8.840989112854004
 10
6.455325126647949
 20
8.724044799804688
 10
6.431936264038086
 20
8.700655937194824
 10
6.431936264038086
 20
8.630489349365234
 10
6.408547401428223
 20
8.607100486755371
 10
6.408547401428223
 20
8.583711624145508
 10
6.385158538818359
 20
8.560322761535645
 10
6.385158538818359
 20
8.513545036315918
 10
6.361769676208496
 20
8.490156173706055
 10
6.361769676208496
 20
8.419989585876465
 10
6.338380813598633
 20
8.396600723266602
 10
6.338380813598633
 20
8.349822998046875
 10
6.291603088378906
 20
8.303045272827148
 10
6.291603088378906
 20
6.993268966674805
 10
6.3149919509887695
 20
6.969880104064941
 10
6.3149919509887695
 20
6.946491241455078
 10
6.338380813598633
 20
6.923102378845215
 10
6.338380813598633
 20
6.759380340576172
 10
6.361769676208496
 20
6.735991477966309
 10
6.361769676208496
 20
6.619047164916992
 10
6.385158538818359
 20
6.595658302307129
 10
6.385158538818359
 20
6.268214225769043
 10
6.408547401428223
 20
6.24482536315918
 10
6.408547401428223
 20
6.127881050109863
 10
6.431936264038086
 20
6.1044921875
 10
6.431936264038086
 20
6.081103324890137
 10
6.455325126647949
 20
6.057714462280273
 10
6.455325126647949
 20
5.870603561401367
 10
6.431936264038086
 20
5.847214698791504
 10
6.431936264038086
 20
5.543159484863281
 10
6.408547401428223
 20
5.519770622253418
 10
6.408547401428223
 20
5.472992897033691
 10
6.385158538818359
 20
5.449604034423828
 10
6.385158538818359
 20
5.309270858764648
 10
6.361769676208496
 20
5.285881996154785
 10
6.361769676208496
 20
5.1455488204956055
 10
6.338380813598633
 20
5.122159957885742
 10
6.338380813598633
 20
5.005215644836426
 10
6.291603088378906
 20
4.958437919616699
 10
6.291603088378906
 20
4.8181047439575195
 10
6.24482536315918
 20
4.771327018737793
 10
6.198047637939453
 20
4.771327018737793
 10
6.198047637939453
 20
4.74793815612793
 10
6.17465877532959
 20
4.724549293518066
 10
6.17465877532959
 20
4.701160430908203
 10
6.1044921875
 20
4.630993843078613
 10
6.1044921875
 20
4.584216117858887
 10
6.057714462280273
 20
4.53743839263916
 10
6.03432559967041
 20
4.53743839263916
 10
5.987547874450684
 20
4.490660667419434
 10
5.96415901184082
 20
4.490660667419434
 10
5.940770149230957
 20
4.4672722816467285
 10
5.940770149230957
 20
4.443883419036865
 10
5.917381286621094
 20
4.420494556427002
 10
5.8939924240112305
 20
4.420494556427002
 10
5.870603561401367
 20
4.397105693817139
 10
5.847214698791504
 20
4.397105693817139
 10
5.823825836181641
 20
4.373716831207275
 10
5.800436973571777
 20
4.373716831207275
 10
5.777048110961914
 20
4.350327968597412
 10
5.753659248352051
 20
4.350327968597412
 10
5.706881523132324
 20
4.3035502433776855
 10
5.589937210083008
 20
4.3035502433776855
 10
5.5665483474731445
 20
4.280161380767822
 10
5.543159484863281
 20
4.280161380767822
 10
5.519770622253418
 20
4.256772518157959
 10
5.356048583984375
 20
4.256772518157959
 10
5.332659721374512
 20
4.233383655548096
 10
5.239104270935059
 20
4.233383655548096
 10
5.239104270935059
 20
4.209994792938232
 10
5.192326545715332
 20
4.163217067718506
 10
5.168937683105469
 20
4.163217067718506
 10
5.168937683105469
 20
4.139828205108643
 10
5.1455488204956055
 20
4.116439342498779
 10
5.1455488204956055
 20
3.8123838901519775
 10
5.122159957885742
 20
3.7889950275421143
 10
5.122159957885742
 20
3.4615511894226074
 10
5.1455488204956055
 20
3.438162326812744
 10
5.1455488204956055
 20
3.3679957389831543
 10
5.122159957885742
 20
3.344606876373291
 10
5.122159957885742
 20
3.251051425933838
 10
5.1455488204956055
 20
3.2276625633239746
 10
5.1455488204956055
 20
3.1341071128845215
 10
5.122159957885742
 20
3.110718250274658
 10
5.122159957885742
 20
2.830051898956299
 10
5.098771095275879
 20
2.8066630363464355
 10
5.098771095275879
 20
2.7131075859069824
 10
5.075382232666016
 20
2.689718723297119
 10
5.075382232666016
 20
2.5727744102478027
 10
5.051993370056152
 20
2.5493855476379395
 10
5.051993370056152
 20
2.432441234588623
 10
5.028604507446289
 20
2.4090523719787598
 10
5.028604507446289
 20
2.1985528469085693
 10
5.005215644836426
 20
2.175163984298706
 10
5.005215644836426
 20
2.081608533859253
 10
4.935049057006836
 20
2.011441946029663
 10
4.935049057006836
 20
1.9178863763809204
 10
4.911660194396973
 20
1.8944975137710571
 10
4.911660194396973
 20
1.8243310451507568
 10
4.888271331787109
 20
1.8009421825408936
 10
4.888271331787109
 20
1.6839978694915771
 10
4.864882469177246
 20
1.6606090068817139
 10
4.864882469177246
 20
1.5670535564422607
 10
4.841493606567383
 20
1.5436646938323975
 10
4.841493606567383
 20
1.496886968612671
 10
4.8181047439575195
 20
1.4734981060028076
 10
4.8181047439575195
 20
1.3565537929534912
 10
4.794715881347656
 20
1.333164930343628
 10
4.794715881347656
 20
1.2863872051239014
 10
4.8181047439575195
 20
1.262998342514038
 10
4.8181047439575195
 20
1.169442892074585
 10
4.841493606567383
 20
1.1460540294647217
 10
4.841493606567383
 20
1.0992764234542847
 10
4.888271331787109
 20
1.052498698234558
 10
4.911660194396973
 20
1.052498698234558
 10
4.935049057006836
 20
1.0291098356246948
 10
5.005215644836426
 20
1.0291098356246948
 10
5.028604507446289
 20
1.0057209730148315
 10
6.1044921875
 20
1.0057209730148315
 10
6.127881050109863
 20
0.9823320508003235
 10
7.531212329864502
 20
0.9823320508003235
 10
7.554601192474365
 20
0.9589431881904602
 10
7.811878681182861
 20
0.9589431881904602
 10
7.835267543792725
 20
0.9355543851852417
 10
8.115934371948242
 20
0.9355543851852417
 10
8.186100959777832
 20
1.0057209730148315
 10
8.186100959777832
 20
1.2863872051239014
 10
8.162712097167969
 20
1.3097760677337646
 10
8.162712097167969
 20
1.5202758312225342
 10
8.139323234558105
 20
1.5436646938323975
 10
8.139323234558105
 20
1.9412752389907837
 10
8.115934371948242
 20
1.964664101600647
 10
8.115934371948242
 20
2.1985528469085693
 10
8.092545509338379
 20
2.2219417095184326
 10
8.092545509338379
 20
2.502607822418213
 10
8.069156646728516
 20
2.525996685028076
 10
8.069156646728516
 20
2.8768296241760254
 10
8.045767784118652
 20
2.9002184867858887
 10
8.069156646728516
 20
2.923607349395752
 10
8.069156646728516
 20
3.110718250274658
 10
8.045767784118652
 20
3.1341071128845215
 10
8.045767784118652
 20
3.1574959754943848
 10
8.069156646728516
 20
3.180884838104248
 10
8.069156646728516
 20
3.6252732276916504
 10
8.045767784118652
 20
3.6486620903015137
 10
8.045767784118652
 20
3.672050952911377
 10
8.069156646728516
 20
3.6954398155212402
 10
8.069156646728516
 20
3.765606164932251
 10
8.045767784118652
 20
3.7889950275421143
 10
8.069156646728516
 20
3.8123838901519775
 10
8.069156646728516
 20
4.022883892059326
 10
8.045767784118652
 20
4.0462727546691895
 10
8.045767784118652
 20
4.093050479888916
 10
7.998989582061768
 20
4.139828205108643
 10
7.975600719451904
 20
4.139828205108643
 10
7.952211856842041
 20
4.163217067718506
 10
7.928822994232178
 20
4.163217067718506
 10
7.9054341316223145
 20
4.186605930328369
 10
7.835267543792725
 20
4.186605930328369
 10
7.811878681182861
 20
4.209994792938232
 10
7.7417120933532715
 20
4.209994792938232
 10
7.718323230743408
 20
4.233383655548096
 10
7.624767780303955
 20
4.233383655548096
 10
7.601378917694092
 20
4.256772518157959
 10
7.554601192474365
 20
4.256772518157959
 10
7.531212329864502
 20
4.280161380767822
 10
7.507823467254639
 20
4.280161380767822
 10
7.484435081481934
 20
4.3035502433776855
 10
7.46104621887207
 20
4.3035502433776855
 10
7.3908796310424805
 20
4.373716831207275
 10
7.367490768432617
 20
4.373716831207275
 10
7.344101905822754
 20
4.397105693817139
 10
7.344101905822754
 20
4.420494556427002
 10
7.320713043212891
 20
4.420494556427002
 10
7.297324180603027
 20
4.443883419036865
 10
7.273935317993164
 20
4.443883419036865
 10
7.250546455383301
 20
4.4672722816467285
 10
7.250546455383301
 20
4.490660667419434
 10
7.2271575927734375
 20
4.514049530029297
 10
7.2271575927734375
 20
4.53743839263916
 10
7.203768730163574
 20
4.560827255249023
 10
7.180379867553711
 20
4.560827255249023
 10
7.156991004943848
 20
4.584216117858887
 10
7.156991004943848
 20
4.630993843078613
 10
7.133602142333984
 20
4.630993843078613
 10
7.086824417114258
 20
4.67777156829834
 10
7.086824417114258
 20
4.701160430908203
 10
7.0634355545043945
 20
4.724549293518066
 10
7.0634355545043945
 20
4.74793815612793
 10
7.040046691894531
 20
4.771327018737793
 10
7.040046691894531
 20
4.794715881347656
 10
7.016657829284668
 20
4.8181047439575195
 10
7.016657829284668
 20
4.864882469177246
 10
6.993268966674805
 20
4.888271331787109
 10
6.993268966674805
 20
4.958437919616699
 10
6.969880104064941
 20
4.9818267822265625
 10
6.969880104064941
 20
5.005215644836426
 10
6.946491241455078
 20
5.005215644836426
 10
6.923102378845215
 20
5.028604507446289
 10
6.923102378845215
 20
5.051993370056152
 10
6.899713516235352
 20
5.075382232666016
 10
6.899713516235352
 20
5.168937683105469
 10
6.876324653625488
 20
5.192326545715332
 10
6.876324653625488
 20
5.262493133544922
 10
6.899713516235352
 20
5.285881996154785
 10
6.899713516235352
 20
5.636714935302734
 10
6.876324653625488
 20
5.660103797912598
 10
6.876324653625488
 20
5.800436973571777
 10
6.899713516235352
 20
5.823825836181641
 10
6.899713516235352
 20
5.917381286621094
 10
6.876324653625488
 20
5.940770149230957
 10
6.876324653625488
 20
6.010936737060547
 10
6.899713516235352
 20
6.03432559967041
 10
6.899713516235352
 20
6.1044921875
 10
6.923102378845215
 20
6.127881050109863
 10
6.923102378845215
 20
6.24482536315918
 10
6.969880104064941
 20
6.291603088378906
 10
6.969880104064941
 20
6.525491714477539
 10
6.993268966674805
 20
6.548880577087402
 10
6.993268966674805
 20
6.899713516235352
 10
7.016657829284668
 20
6.923102378845215
 10
7.016657829284668
 20
6.993268966674805
 10
7.040046691894531
 20
7.016657829284668
 10
7.040046691894531
 20
7.040046691894531
 10
7.0634355545043945
 20
7.0634355545043945
 10
7.0634355545043945
 20
7.367490768432617
 10
7.086824417114258
 20
7.3908796310424805
 10
7.086824417114258
 20
7.414268493652344
 10
7.0634355545043945
 20
7.437657356262207
 10
7.0634355545043945
 20
7.531212329864502
 10
7.086824417114258
 20
7.554601192474365
 10
7.086824417114258
 20
7.624767780303955
 10
7.0634355545043945
 20
7.648156642913818
 10
7.0634355545043945
 20
7.811878681182861
 10
7.086824417114258
 20
7.835267543792725
 10
7.086824417114258
 20
7.858656406402588
 10
7.0634355545043945
 20
7.882045269012451
 10
7.0634355545043945
 20
8.022378921508789
 10
7.086824417114258
 20
8.045767784118652
 10
7.086824417114258
 20
8.069156646728516
 10
7.0634355545043945
 20
8.092545509338379
 10
7.0634355545043945
 20
8.115934371948242
 10
7.086824417114258
 20
8.139323234558105
 10
7.086824417114258
 20
8.186100959777832
 10
7.0634355545043945
 20
8.209489822387695
 10
7.0634355545043945
 20
8.490156173706055
 10
7.040046691894531
 20
8.513545036315918
 10
7.040046691894531
 20
8.536933898925781
 10
7.016657829284668
 20
8.560322761535645
 10
7.016657829284668
 20
8.630489349365234
 10
6.993268966674805
 20
8.653878211975098
 10
6.993268966674805
 20
8.74743366241455
 10
6.969880104064941
 20
8.770822525024414
 10
6.969880104064941
 20
8.794211387634277
 10
6.946491241455078
 20
8.794211387634277
 10
6.923102378845215
 20
8.81760025024414
 10
6.923102378845215
 20
8.840989112854004
 10
6.899713516235352
 20
8.864377975463867
 10
6.899713516235352
 20
8.981321334838867
 10
6.876324653625488
 20
9.00471019744873
 10
6.876324653625488
 20
9.028099060058594
 10
6.852935791015625
 20
9.051487922668457
 10
6.852935791015625
 20
9.07487678527832
 10
6.829546928405762
 20
9.098265647888184
 10
6.829546928405762
 20
9.121654510498047
 10
6.782769203186035
 20
9.121654510498047
 10
6.759380340576172
 20
9.14504337310791
 10
6.735991477966309
 20
9.14504337310791
 10
6.712602615356445
 20
9.168432235717773
 10
6.6424360275268555
 20
9.168432235717773
  0
LWPOLYLINE
  5
35
330
17
100
AcDbEntity
  8
Outline
100
AcDbPolyline
 90
177
 70
0
 10
6.268214225769043
 20
15.764090538024902
 10
6.24482536315918
 20
15.740701675415039
 10
6.127881050109863
 20
15.740701675415039
 10
6.1044921875
 20
15.717312812805176
 10
5.847214698791504
 20
15.717312812805176
 10
5.823825836181641
 20
15.693923950195312
 10
5.449604034423828
 20
15.693923950195312
 10
5.426215171813965
 20
15.67053508758545
 10
5.192326545715332
 20
15.67053508758545
 10
5.168937683105469
 20
15.693923950195312
 10
5.1455488204956055
 20
15.693923950195312
 10
5.122159957885742
 20
15.67053508758545
 10
4.771327018737793
 20
15.67053508758545
 10
4.74793815612793
 20
15.647146224975586
 10
4.724549293518066
 20
15.647146224975586
 10
4.701160430908203
 20
15.623757362365723
 10
4.67777156829834
 20
15.623757362365723
 10
4.630993843078613
 20
15.576979637145996
 10
4.630993843078613
 20
15.155980110168457
 10
4.654382705688477
 20
15.132591247558594
 10
4.654382705688477
 20
14.875314712524414
 10
4.67777156829834
 20
14.85192584991455
 10
4.67777156829834
 20
14.734981536865234
 10
4.701160430908203
 20
14.711592674255371
 10
4.701160430908203
 20
14.477704048156738
 10
4.724549293518066
 20
14.454315185546875
 10
4.724549293518066
 20
14.290593147277832
 10
4.74793815612793
 20
14.267204284667969
 10
4.74793815612793
 20
14.033315658569336
 10
4.771327018737793
 20
14.009926795959473
 10
4.771327018737793
 20
13.892982482910156
 10
4.794715881347656
 20
13.869593620300293
 10
4.794715881347656
 20
13.752649307250977
 10
4.8181047439575195
 20
13.729260444641113
 10
4.8181047439575195
 20
13.659093856811523
 10
4.841493606567383
 20
13.63570499420166
 10
4.841493606567383
 20
13.542149543762207
 10
4.864882469177246
 20
13.518760681152344
 10
4.864882469177246
 20
13.401816368103027
 10
4.888271331787109
 20
13.378427505493164
 10
4.888271331787109
 20
13.284872055053711
 10
4.911660194396973
 20
13.261483192443848
 10
4.911660194396973
 20
13.191316604614258
 10
4.935049057006836
 20
13.167927742004395
 10
4.935049057006836
 20
13.097761154174805
 10
4.958437919616699
 20
13.074372291564941
 10
4.958437919616699
 20
12.980816841125488
 10
4.9818267822265625
 20
12.957427978515625
 10
4.9818267822265625
 20
12.863872528076172
 10
5.005215644836426
 20
12.840483665466309
 10
5.005215644836426
 20
12.770317077636719
 10
5.028604507446289
 20
12.746928215026855
 10
5.028604507446289
 20
12.700150489807129
 10
5.051993370056152
 20
12.676761627197266
 10
5.051993370056152
 20
12.629983901977539
 10
5.075382232666016
 20
12.606595039367676
 10
5.075382232666016
 20
12.48965072631836
 10
5.098771095275879
 20
12.466261863708496
 10
5.098771095275879
 20
12.41948413848877
 10
5.122159957885742
 20
12.396095275878906
 10
5.122159957885742
 20
12.302539825439453
 10
5.1455488204956055
 20
12.27915096282959
 10
5.1455488204956055
 20
12.208984375
 10
5.168937683105469
 20
12.185595512390137
 10
5.168937683105469
 20
12.13881778717041
 10
5.192326545715332
 20
12.115428924560547
 10
5.192326545715332
 20
11.975095748901367
 10
5.168937683105469
 20
11.951706886291504
 10
5.168937683105469
 20
11.016152381896973
 10
5.192326545715332
 20
10.99276351928711
 10
5.192326545715332
 20
10.945985794067383
 10
5.168937683105469
 20
10.92259693145752
 10
5.168937683105469
 20
10.829041481018066
 10
5.192326545715332
 20
10.805652618408203
 10
5.192326545715332
 20
10.080597877502441
 10
5.168937683105469
 20
10.057209014892578
 10
5.168937683105469
 20
8.74743366241455
 10
5.192326545715332
 20
8.724044799804688
 10
5.192326545715332
 20
8.700655937194824
 10
5.215715408325195
 20
8.677267074584961
 10
5.215715408325195
 20
8.653878211975098
 10
5.239104270935059
 20
8.630489349365234
 10
5.239104270935059
 20
8.607100486755371
 10
5.332659721374512
 20
8.513545036315918
 10
5.356048583984375
 20
8.513545036315918
 10
5.379437446594238
 20
8.490156173706055
 10
5.402826309204102
 20
8.490156173706055
 10
5.426215171813965
 20
8.466767311096191
 10
5.449604034423828
 20
8.466767311096191
 10
5.472992897033691
 20
8.443378448486328
 10
5.496381759643555
 20
8.443378448486328
 10
5.519770622253418
 20
8.419989585876465
 10
5.589937210083008
 20
8.419989585876465
 10
5.613326072692871
 20
8.396600723266602
 10
5.753659248352051
 20
8.396600723266602
 10
5.777048110961914
 20
8.419989585876465
 10
5.870603561401367
 20
8.419989585876465
 10
5.8939924240112305
 20
8.443378448486328
 10
5.917381286621094
 20
8.443378448486328
 10
5.940770149230957
 20
8.466767311096191
 10
5.96415901184082
 20
8.466767311096191
 10
5.987547874450684
 20
8.490156173706055
 10
5.987547874450684
 20
8.513545036315918
 10
6.010936737060547
 20
8.536933898925781
 10
6.03432559967041
 20
8.536933898925781
 10
6.03432559967041
 20
8.560322761535645
 10
6.17465877532959
 20
8.700655937194824
 10
6.17465877532959
 20
9.00471019744873
 10
6.151269912719727
 20
9.028099060058594
 10
6.151269912719727
 20
9.14504337310791
 10
6.127881050109863
 20
9.168432235717773
 10
6.127881050109863
 20
9.332154273986816
 10
6.1044921875
 20
9.35554313659668
 10
6.1044921875
 20
9.659598350524902
 10
6.127881050109863
 20
9.682987213134766
 10
6.127881050109863
 20
9.940264701843262
 10
6.1044921875
 20
9.963653564453125
 10
6.1044921875
 20
10.291097640991211
 10
6.081103324890137
 20
10.314486503601074
 10
6.081103324890137
 20
10.478208541870117
 10
6.057714462280273
 20
10.50159740447998
 10
6.057714462280273
 20
10.71209716796875
 10
6.03432559967041
 20
10.735486030578613
 10
6.03432559967041
 20
10.85243034362793
 10
6.057714462280273
 20
10.875819206237793
 10
6.057714462280273
 20
10.99276351928711
 10
6.03432559967041
 20
11.016152381896973
 10
6.03432559967041
 20
11.507318496704102
 10
6.010936737060547
 20
11.530707359313965
 10
6.03432559967041
 20
11.554096221923828
 10
6.03432559967041
 20
11.717818260192871
 10
6.010936737060547
 20
11.741207122802734
 10
6.010936737060547
 20
12.185595512390137
 10
6.03432559967041
 20
12.208984375
 10
6.03432559967041
 20
12.27915096282959
 10
6.057714462280273
 20
12.302539825439453
 10
6.057714462280273
 20
12.372706413269043
 10
6.081103324890137
 20
12.396095275878906
 10
6.081103324890137
 20
12.442873001098633
 10
6.1044921875
 20
12.466261863708496
 10
6.1044921875
 20
12.513039588928223
 10
6.127881050109863
 20
12.536428451538086
 10
6.127881050109863
 20
12.629983901977539
 10
6.151269912719727
 20
12.653372764587402
 10
6.151269912719727
 20
12.723539352416992
 10
6.17465877532959
 20
12.746928215026855
 10
6.17465877532959
 20
12.840483665466309
 10
6.198047637939453
 20
12.863872528076172
 10
6.198047637939453
 20
12.980816841125488
 10
6.221436500549316
 20
13.004205703735352
 10
6.221436500549316
 20
13.074372291564941
 10
6.24482536315918
 20
13.097761154174805
 10
6.24482536315918
 20
13.191316604614258
 10
6.268214225769043
 20
13.214705467224121
 10
6.268214225769043
 20
13.308260917663574
 10
6.291603088378906
 20
13.331649780273438
 10
6.291603088378906
 20
13.42520523071289
 10
6.3149919509887695
 20
13.448594093322754
 10
6.3149919509887695
 20
13.612316131591797
 10
6.338380813598633
 20
13.63570499420166
 10
6.338380813598633
 20
13.822815895080566
 10
6.361769676208496
 20
13.84620475769043
 10
6.361769676208496
 20
13.98653793334961
 10
6.385158538818359
 20
14.009926795959473
 10
6.385158538818359
 20
14.150259971618652
 10
6.408547401428223
 20
14.173648834228516
 10
6.408547401428223
 20
14.360759735107422
 10
6.431936264038086
 20
14.384148597717285
 10
6.431936264038086
 20
14.594648361206055
 10
6.455325126647949
 20
14.618037223815918
 10
6.455325126647949
 20
15.647146224975586
 10
6.431936264038086
 20
15.67053508758545
 10
6.431936264038086
 20
15.717312812805176
 10
6.408547401428223
 20
15.740701675415039
 10
6.385158538818359
 20
15.740701675415039
 10
6.361769676208496
 20
15.764090538024902
 10
6.268214225769043
 20
15.764090538024902
  0
LWPOLYLINE
  5
36
330
17
100
AcDbEntity
  8
Outline
100
AcDbPolyline
 90
105
 70
0
 10
3.578495502471924
 20
15.202757835388184
 10
3.5551066398620605
 20
15.17936897277832
 10
3.110718250274658
 20
15.17936897277832
 10
3.087329387664795
 20
15.155980110168457
 10
3.0639405250549316
 20
15.155980110168457
 10
3.0639405250549316
 20
15.10920238494873
 10
3.0405516624450684
 20
15.085813522338867
 10
3.0405516624450684
 20
14.711592674255371
 10
3.017162799835205
 20
14.688203811645508
 10
3.017162799835205
 20
13.939760208129883
 10
3.0405516624450684
 20
13.91637134552002
 10
3.0405516624450684
 20
13.869593620300293
 10
3.0639405250549316
 20
13.84620475769043
 10
3.0639405250549316
 20
13.77603816986084
 10
3.087329387664795
 20
13.752649307250977
 10
3.087329387664795
 20
13.729260444641113
 10
3.110718250274658
 20
13.70587158203125
 10
3.110718250274658
 20
13.682482719421387
 10
3.1341071128845215
 20
13.659093856811523
 10
3.1341071128845215
 20
13.63570499420166
 10
3.1574959754943848
 20
13.612316131591797
 10
3.1574959754943848
 20
13.56553840637207
 10
3.180884838104248
 20
13.542149543762207
 10
3.180884838104248
 20
13.3550386428833
 10
3.2042737007141113
 20
13.331649780273438
 10
3.2042737007141113
 20
13.238094329833984
 10
3.2276625633239746
 20
13.214705467224121
 10
3.2276625633239746
 20
12.676761627197266
 10
3.251051425933838
 20
12.653372764587402
 10
3.251051425933838
 20
12.396095275878906
 10
3.274440288543701
 20
12.372706413269043
 10
3.274440288543701
 20
12.27915096282959
 10
3.2978291511535645
 20
12.255762100219727
 10
3.2978291511535645
 20
12.232373237609863
 10
3.3212180137634277
 20
12.208984375
 10
3.344606876373291
 20
12.208984375
 10
3.3913846015930176
 20
12.162206649780273
 10
3.3913846015930176
 20
12.13881778717041
 10
3.414773464202881
 20
12.115428924560547
 10
3.414773464202881
 20
12.092040061950684
 10
3.3913846015930176
 20
12.06865119934082
 10
3.3913846015930176
 20
11.951706886291504
 10
3.3679957389831543
 20
11.92831802368164
 10
3.3679957389831543
 20
11.413763046264648
 10
3.3913846015930176
 20
11.390374183654785
 10
3.3913846015930176
 20
11.296818733215332
 10
3.438162326812744
 20
11.250041007995605
 10
3.601884365081787
 20
11.250041007995605
 10
3.6252732276916504
 20
11.273429870605469
 10
3.6252732276916504
 20
11.343596458435059
 10
3.6486620903015137
 20
11.366985321044922
 10
3.6486620903015137
 20
11.507318496704102
 10
3.672050952911377
 20
11.530707359313965
 10
3.672050952911377
 20
11.951706886291504
 10
3.6486620903015137
 20
11.975095748901367
 10
3.6486620903015137
 20
12.021873474121094
 10
3.6252732276916504
 20
12.045262336730957
 10
3.6252732276916504
 20
12.06865119934082
 10
3.601884365081787
 20
12.092040061950684
 10
3.601884365081787
 20
12.13881778717041
 10
3.578495502471924
 20
12.162206649780273
 10
3.672050952911377
 20
12.255762100219727
 10
3.672050952911377
 20
12.27915096282959
 10
3.6954398155212402
 20
12.302539825439453
 10
3.6954398155212402
 20
12.34931755065918
 10
3.7188286781311035
 20
12.372706413269043
 10
3.7188286781311035
 20
12.653372764587402
 10
3.6954398155212402
 20
12.676761627197266
 10
3.6954398155212402
 20
12.934039115905762
 10
3.7188286781311035
 20
12.957427978515625
 10
3.7188286781311035
 20
13.214705467224121
 10
3.742217540740967
 20
13.238094329833984
 10
3.742217540740967
 20
13.448594093322754
 10
3.765606164932251
 20
13.471982955932617
 10
3.765606164932251
 20
13.56553840637207
 10
3.7889950275421143
 20
13.588927268981934
 10
3.7889950275421143
 20
13.612316131591797
 10
3.8123838901519775
 20
13.63570499420166
 10
3.8123838901519775
 20
13.682482719421387
 10
3.835772752761841
 20
13.70587158203125
 10
3.835772752761841
 20
13.729260444641113
 10
3.859161615371704
 20
13.752649307250977
 10
3.859161615371704
 20
13.799427032470703
 10
3.8825504779815674
 20
13.822815895080566
 10
3.8825504779815674
 20
13.869593620300293
 10
3.9059393405914307
 20
13.892982482910156
 10
3.9059393405914307
 20
13.91637134552002
 10
3.929328203201294
 20
13.939760208129883
 10
3.929328203201294
 20
14.126871109008789
 10
3.9527170658111572
 20
14.150259971618652
 10
3.9527170658111572
 20
14.337370872497559
 10
3.929328203201294
 20
14.360759735107422
 10
3.929328203201294
 20
14.641426086425781
 10
3.9059393405914307
 20
14.664814949035645
 10
3.9059393405914307
 20
14.758370399475098
 10
3.8825504779815674
 20
14.781759262084961
 10
3.8825504779815674
 20
14.898703575134277
 10
3.859161615371704
 20
14.92209243774414
 10
3.859161615371704
 20
15.10920238494873
 10
3.835772752761841
 20
15.132591247558594
 10
3.835772752761841
 20
15.155980110168457
 10
3.8123838901519775
 20
15.17936897277832
 10
3.7889950275421143
 20
15.17936897277832
 10
3.765606164932251
 20
15.202757835388184
 10
3.578495502471924
 20
15.202757835388184
  0
LWPOLYLINE
  5
37
330
17
100
AcDbEntity
  8
Outline
100
AcDbPolyline
 90
188
 70
0
 10
1.426720380783081
 20
15.38986873626709
 10
1.4033315181732178
 20
15.366479873657227
 10
1.2396094799041748
 20
15.366479873657227
 10
1.2162206172943115
 20
15.343091011047363
 10
1.1928317546844482
 20
15.343091011047363
 10
1.0758875608444214
 20
15.226146697998047
 10
1.0758875608444214
 20
15.202757835388184
 10
1.052498698234558
 20
15.17936897277832
 10
1.052498698234558
 20
15.132591247558594
 10
1.0291098356246948
 20
15.10920238494873
 10
1.0291098356246948
 20
15.062424659729004
 10
1.0057209730148315
 20
15.03903579711914
 10
1.0057209730148315
 20
14.992258071899414
 10
0.9823320508003235
 20
14.968870162963867
 10
0.9823320508003235
 20
14.688203811645508
 10
0.9121655225753784
 20
14.618037223815918
 10
0.9121655225753784
 20
14.594648361206055
 10
0.8887766599655151
 20
14.571259498596191
 10
0.8887766599655151
 20
14.384148597717285
 10
0.8653877973556519
 20
14.360759735107422
 10
0.8653877973556519
 20
14.197037696838379
 10
0.8887766599655151
 20
14.173648834228516
 10
0.8887766599655151
 20
13.98653793334961
 10
0.8653877973556519
 20
13.963149070739746
 10
0.8653877973556519
 20
13.869593620300293
 10
0.8419989347457886
 20
13.84620475769043
 10
0.8419989347457886
 20
13.77603816986084
 10
0.8186100721359253
 20
13.752649307250977
 10
0.8186100721359253
 20
12.55981731414795
 10
0.8419989347457886
 20
12.536428451538086
 10
0.8419989347457886
 20
12.48965072631836
 10
0.8653877973556519
 20
12.466261863708496
 10
0.8653877973556519
 20
12.41948413848877
 10
0.8887766599655151
 20
12.396095275878906
 10
0.8887766599655151
 20
12.34931755065918
 10
0.9121655225753784
 20
12.325928688049316
 10
0.9121655225753784
 20
12.27915096282959
 10
0.9355543851852417
 20
12.255762100219727
 10
0.9355543851852417
 20
12.232373237609863
 10
0.9589431881904602
 20
12.208984375
 10
0.9589431881904602
 20
12.185595512390137
 10
0.9823320508003235
 20
12.162206649780273
 10
0.9823320508003235
 20
12.045262336730957
 10
1.0057209730148315
 20
12.021873474121094
 10
1.0057209730148315
 20
11.834762573242188
 10
1.0291098356246948
 20
11.811373710632324
 10
1.0291098356246948
 20
11.741207122802734
 10
1.0057209730148315
 20
11.717818260192871
 10
1.0057209730148315
 20
11.600873947143555
 10
0.9823320508003235
 20
11.577485084533691
 10
0.9823320508003235
 20
11.530707359313965
 10
0.9121655225753784
 20
11.460540771484375
 10
0.9355543851852417
 20
11.437151908874512
 10
0.9355543851852417
 20
11.390374183654785
 10
0.9589431881904602
 20
11.366985321044922
 10
0.9589431881904602
 20
11.343596458435059
 10
0.9823320508003235
 20
11.320207595825195
 10
1.0057209730148315
 20
11.320207595825195
 10
1.052498698234558
 20
11.273429870605469
 10
1.0758875608444214
 20
11.273429870605469
 10
1.0992764234542847
 20
11.250041007995605
 10
1.1226651668548584
 20
11.250041007995605
 10
1.1460540294647217
 20
11.226652145385742
 10
1.169442892074585
 20
11.226652145385742
 10
1.1928317546844482
 20
11.203263282775879
 10
1.2162206172943115
 20
11.203263282775879
 10
1.2396094799041748
 20
11.179874420166016
 10
1.2396094799041748
 20
11.133096694946289
 10
1.262998342514038
 20
11.109707832336426
 10
1.262998342514038
 20
10.85243034362793
 10
1.2863872051239014
 20
10.829041481018066
 10
1.2863872051239014
 20
10.688708305358887
 10
1.262998342514038
 20
10.665319442749023
 10
1.262998342514038
 20
8.81760025024414
 10
1.2863872051239014
 20
8.794211387634277
 10
1.2863872051239014
 20
8.770822525024414
 10
1.333164930343628
 20
8.724044799804688
 10
1.333164930343628
 20
8.607100486755371
 10
1.3565537929534912
 20
8.583711624145508
 10
1.3565537929534912
 20
8.536933898925781
 10
1.3799426555633545
 20
8.513545036315918
 10
1.3799426555633545
 20
8.490156173706055
 10
1.4033315181732178
 20
8.466767311096191
 10
1.4033315181732178
 20
8.349822998046875
 10
1.426720380783081
 20
8.326434135437012
 10
1.426720380783081
 20
8.279656410217285
 10
1.4501092433929443
 20
8.303045272827148
 10
1.4734981060028076
 20
8.303045272827148
 10
1.5202758312225342
 20
8.349822998046875
 10
1.5202758312225342
 20
8.373211860656738
 10
1.5436646938323975
 20
8.396600723266602
 10
1.5436646938323975
 20
8.466767311096191
 10
1.5670535564422607
 20
8.490156173706055
 10
1.5670535564422607
 20
8.677267074584961
 10
1.590442419052124
 20
8.700655937194824
 10
1.590442419052124
 20
8.770822525024414
 10
1.6138312816619873
 20
8.794211387634277
 10
1.6138312816619873
 20
9.028099060058594
 10
1.6372201442718506
 20
9.051487922668457
 10
1.6372201442718506
 20
9.121654510498047
 10
1.6138312816619873
 20
9.14504337310791
 10
1.6138312816619873
 20
9.261987686157227
 10
1.6372201442718506
 20
9.28537654876709
 10
1.6372201442718506
 20
9.706376075744629
 10
1.6138312816619873
 20
9.729764938354492
 10
1.6138312816619873
 20
9.776542663574219
 10
1.6372201442718506
 20
9.799931526184082
 10
1.6372201442718506
 20
9.940264701843262
 10
1.6138312816619873
 20
9.963653564453125
 10
1.6138312816619873
 20
10.033820152282715
 10
1.6372201442718506
 20
10.057209014892578
 10
1.6372201442718506
 20
10.174153327941895
 10
1.6138312816619873
 20
10.197542190551758
 10
1.6138312816619873
 20
11.039541244506836
 10
1.6372201442718506
 20
11.0629301071167
 10
1.6372201442718506
 20
11.109707832336426
 10
1.6606090068817139
 20
11.133096694946289
 10
1.6606090068817139
 20
11.156485557556152
 10
1.6839978694915771
 20
11.179874420166016
 10
1.6839978694915771
 20
11.203263282775879
 10
1.7307755947113037
 20
11.250041007995605
 10
1.754164457321167
 20
11.250041007995605
 10
1.8711087703704834
 20
11.366985321044922
 10
1.8711087703704834
 20
11.390374183654785
 10
1.8944975137710571
 20
11.413763046264648
 10
1.8944975137710571
 20
11.437151908874512
 10
1.9178863763809204
 20
11.460540771484375
 10
1.9178863763809204
 20
11.483929634094238
 10
1.8944975137710571
 20
11.507318496704102
 10
1.8944975137710571
 20
11.577485084533691
 10
1.8711087703704834
 20
11.600873947143555
 10
1.8711087703704834
 20
11.741207122802734
 10
1.8477199077606201
 20
11.764595985412598
 10
1.8477199077606201
 20
11.904929161071777
 10
1.8711087703704834
 20
11.92831802368164
 10
1.8711087703704834
 20
12.06865119934082
 10
1.8944975137710571
 20
12.092040061950684
 10
1.8944975137710571
 20
12.162206649780273
 10
1.9178863763809204
 20
12.185595512390137
 10
1.9178863763809204
 20
12.208984375
 10
1.9412752389907837
 20
12.232373237609863
 10
1.9412752389907837
 20
12.302539825439453
 10
1.964664101600647
 20
12.325928688049316
 10
1.964664101600647
 20
12.372706413269043
 10
1.9880529642105103
 20
12.396095275878906
 10
1.9880529642105103
 20
12.466261863708496
 10
2.011441946029663
 20
12.48965072631836
 10
2.011441946029663
 20
12.536428451538086
 10
2.0348308086395264
 20
12.55981731414795
 10
2.0348308086395264
 20
12.746928215026855
 10
2.0582196712493896
 20
12.770317077636719
 10
2.0582196712493896
 20
12.934039115905762
 10
2.081608533859253
 20
12.957427978515625
 10
2.081608533859253
 20
13.3550386428833
 10
2.0582196712493896
 20
13.378427505493164
 10
2.0582196712493896
 20
13.471982955932617
 10
2.081608533859253
 20
13.49537181854248
 10
2.081608533859253
 20
13.518760681152344
 10
2.0582196712493896
 20
13.542149543762207
 10
2.0582196712493896
 20
13.84620475769043
 10
2.0348308086395264
 20
13.869593620300293
 10
2.0348308086395264
 20
14.173648834228516
 10
2.011441946029663
 20
14.197037696838379
 10
2.011441946029663
 20
14.571259498596191
 10
1.9880529642105103
 20
14.594648361206055
 10
1.9880529642105103
 20
14.734981536865234
 10
1.964664101600647
 20
14.758370399475098
 10
1.964664101600647
 20
14.828536987304688
 10
1.9412752389907837
 20
14.85192584991455
 10
1.9412752389907837
 20
14.92209243774414
 10
1.9178863763809204
 20
14.945481300354004
 10
1.9178863763809204
 20
14.968870162963867
 10
1.8944975137710571
 20
14.992258071899414
 10
1.8944975137710571
 20
15.015646934509277
 10
1.8711087703704834
 20
15.03903579711914
 10
1.8711087703704834
 20
15.062424659729004
 10
1.8477199077606201
 20
15.085813522338867
 10
1.8477199077606201
 20
15.10920238494873
 10
1.8243310451507568
 20
15.132591247558594
 10
1.8243310451507568
 20
15.155980110168457
 10
1.8009421825408936
 20
15.17936897277832
 10
1.8009421825408936
 20
15.226146697998047
 10
1.6839978694915771
 20
15.343091011047363
 10
1.6606090068817139
 20
15.343091011047363
 10
1.6372201442718506
 20
15.366479873657227
 10
1.5670535564422607
 20
15.366479873657227
 10
1.5436646938323975
 20
15.38986873626709
 10
1.426720380783081
 20
15.38986873626709
  0
LWPOLYLINE
  5
38
330
17
100
AcDbEntity
  8
Outline
100
AcDbPolyline
 90
150
 70
0
 10
9.028099060058594
 20
8.981321334838867
 10
9.00471019744873
 20
8.95793342590332
 10
8.840989112854004
 20
8.95793342590332
 10
8.81760025024414
 20
8.934544563293457
 10
8.74743366241455
 20
8.934544563293457
 10
8.724044799804688
 20
8.911155700683594
 10
8.700655937194824
 20
8.911155700683594
 10
8.677267074584961
 20
8.88776683807373
 10
8.630489349365234
 20
8.88776683807373
 10
8.583711624145508
 20
8.840989112854004
 10
8.583711624145508
 20
8.81760025024414
 10
8.560322761535645
 20
8.794211387634277
 10
8.560322761535645
 20
8.770822525024414
 10
8.536933898925781
 20
8.74743366241455
 10
8.536933898925781
 20
8.700655937194824
 10
8.513545036315918
 20
8.677267074584961
 10
8.513545036315918
 20
7.975600719451904
 10
8.490156173706055
 20
7.952211856842041
 10
8.490156173706055
 20
7.788489818572998
 10
8.466767311096191
 20
7.765100955963135
 10
8.466767311096191
 20
7.484435081481934
 10
8.443378448486328
 20
7.46104621887207
 10
8.443378448486328
 20
7.156991004943848
 10
8.419989585876465
 20
7.133602142333984
 10
8.419989585876465
 20
6.385158538818359
 10
8.443378448486328
 20
6.361769676208496
 10
8.443378448486328
 20
6.151269912719727
 10
8.466767311096191
 20
6.127881050109863
 10
8.466767311096191
 20
5.940770149230957
 10
8.490156173706055
 20
5.917381286621094
 10
8.490156173706055
 20
5.800436973571777
 10
8.513545036315918
 20
5.777048110961914
 10
8.513545036315918
 20
5.613326072692871
 10
8.536933898925781
 20
5.589937210083008
 10
8.536933898925781
 20
5.379437446594238
 10
8.560322761535645
 20
5.356048583984375
 10
8.560322761535645
 20
5.309270858764648
 10
8.536933898925781
 20
5.285881996154785
 10
8.536933898925781
 20
5.168937683105469
 10
8.513545036315918
 20
5.1455488204956055
 10
8.513545036315918
 20
5.098771095275879
 10
8.490156173706055
 20
5.075382232666016
 10
8.490156173706055
 20
5.051993370056152
 10
8.466767311096191
 20
5.028604507446289
 10
8.466767311096191
 20
4.9818267822265625
 10
8.443378448486328
 20
4.958437919616699
 10
8.443378448486328
 20
4.911660194396973
 10
8.419989585876465
 20
4.888271331787109
 10
8.419989585876465
 20
4.4672722816467285
 10
8.443378448486328
 20
4.443883419036865
 10
8.443378448486328
 20
4.397105693817139
 10
8.466767311096191
 20
4.373716831207275
 10
8.466767311096191
 20
4.350327968597412
 10
8.490156173706055
 20
4.326939105987549
 10
8.490156173706055
 20
4.3035502433776855
 10
8.513545036315918
 20
4.280161380767822
 10
8.513545036315918
 20
3.8123838901519775
 10
8.490156173706055
 20
3.7889950275421143
 10
8.490156173706055
 20
3.5551066398620605
 10
8.466767311096191
 20
3.5317177772521973
 10
8.490156173706055
 20
3.508328914642334
 10
8.490156173706055
 20
3.4615511894226074
 10
8.466767311096191
 20
3.438162326812744
 10
8.466767311096191
 20
3.3913846015930176
 10
8.490156173706055
 20
3.3679957389831543
 10
8.490156173706055
 20
3.2978291511535645
 10
8.466767311096191
 20
3.274440288543701
 10
8.490156173706055
 20
3.251051425933838
 10
8.490156173706055
 20
3.2042737007141113
 10
8.466767311096191
 20
3.180884838104248
 10
8.466767311096191
 20
1.7307755947113037
 10
8.490156173706055
 20
1.7073867321014404
 10
8.490156173706055
 20
1.590442419052124
 10
8.513545036315918
 20
1.5670535564422607
 10
8.513545036315918
 20
1.5436646938323975
 10
8.536933898925781
 20
1.5202758312225342
 10
8.653878211975098
 20
1.5202758312225342
 10
8.677267074584961
 20
1.5436646938323975
 10
9.472487449645996
 20
1.5436646938323975
 10
9.49587631225586
 20
1.5670535564422607
 10
9.682987213134766
 20
1.5670535564422607
 10
9.682987213134766
 20
2.5493855476379395
 10
9.659598350524902
 20
2.5727744102478027
 10
9.659598350524902
 20
3.017162799835205
 10
9.636209487915039
 20
3.0405516624450684
 10
9.636209487915039
 20
3.5551066398620605
 10
9.612820625305176
 20
3.578495502471924
 10
9.612820625305176
 20
4.280161380767822
 10
9.636209487915039
 20
4.3035502433776855
 10
9.636209487915039
 20
4.326939105987549
 10
9.682987213134766
 20
4.373716831207275
 10
9.682987213134766
 20
4.514049530029297
 10
9.706376075744629
 20
4.53743839263916
 10
9.706376075744629
 20
4.771327018737793
 10
9.682987213134766
 20
4.794715881347656
 10
9.682987213134766
 20
4.8181047439575195
 10
9.706376075744629
 20
4.841493606567383
 10
9.706376075744629
 20
4.864882469177246
 10
9.682987213134766
 20
4.888271331787109
 10
9.682987213134766
 20
4.935049057006836
 10
9.659598350524902
 20
4.958437919616699
 10
9.659598350524902
 20
4.9818267822265625
 10
9.636209487915039
 20
5.005215644836426
 10
9.636209487915039
 20
5.028604507446289
 10
9.612820625305176
 20
5.051993370056152
 10
9.612820625305176
 20
5.075382232666016
 10
9.589431762695312
 20
5.098771095275879
 10
9.589431762695312
 20
5.168937683105469
 10
9.56604290008545
 20
5.192326545715332
 10
9.56604290008545
 20
5.215715408325195
 10
9.542654037475586
 20
5.239104270935059
 10
9.542654037475586
 20
5.519770622253418
 10
9.56604290008545
 20
5.543159484863281
 10
9.56604290008545
 20
5.613326072692871
 10
9.589431762695312
 20
5.636714935302734
 10
9.589431762695312
 20
5.823825836181641
 10
9.612820625305176
 20
5.847214698791504
 10
9.612820625305176
 20
5.96415901184082
 10
9.636209487915039
 20
5.987547874450684
 10
9.636209487915039
 20
6.221436500549316
 10
9.659598350524902
 20
6.24482536315918
 10
9.659598350524902
 20
7.086824417114258
 10
9.636209487915039
 20
7.110213279724121
 10
9.636209487915039
 20
7.320713043212891
 10
9.612820625305176
 20
7.344101905822754
 10
9.612820625305176
 20
7.46104621887207
 10
9.589431762695312
 20
7.484435081481934
 10
9.589431762695312
 20
7.671545505523682
 10
9.56604290008545
 20
7.694934368133545
 10
9.56604290008545
 20
7.811878681182861
 10
9.542654037475586
 20
7.835267543792725
 10
9.542654037475586
 20
8.022378921508789
 10
9.519265174865723
 20
8.045767784118652
 10
9.519265174865723
 20
8.373211860656738
 10
9.49587631225586
 20
8.396600723266602
 10
9.49587631225586
 20
8.560322761535645
 10
9.472487449645996
 20
8.583711624145508
 10
9.472487449645996
 20
8.653878211975098
 10
9.449098587036133
 20
8.677267074584961
 10
9.449098587036133
 20
8.724044799804688
 10
9.42570972442627
 20
8.74743366241455
 10
9.42570972442627
 20
8.794211387634277
 10
9.402320861816406
 20
8.81760025024414
 10
9.402320861816406
 20
8.840989112854004
 10
9.378931999206543
 20
8.864377975463867
 10
9.378931999206543
 20
8.88776683807373
 10
9.308765411376953
 20
8.95793342590332
 10
9.261987686157227
 20
8.95793342590332
 10
9.238598823547363
 20
8.981321334838867
 10
9.028099060058594
 20
8.981321334838867
  0
LWPOLYLINE
  5
39
330
17
100
AcDbEntity
  8
Outline
100
AcDbPolyline
 90
209
 70
0
 10
11.226652145385742
 20
8.981321334838867
 10
11.109707832336426
 20
8.864377975463867
 10
11.109707832336426
 20
8.840989112854004
 10
11.086318969726562
 20
8.81760025024414
 10
11.086318969726562
 20
8.794211387634277
 10
11.0629301071167
 20
8.770822525024414
 10
11.0629301071167
 20
8.74743366241455
 10
11.039541244506836
 20
8.724044799804688
 10
11.039541244506836
 20
8.700655937194824
 10
11.016152381896973
 20
8.677267074584961
 10
11.016152381896973
 20
8.630489349365234
 10
10.99276351928711
 20
8.607100486755371
 10
10.99276351928711
 20
8.560322761535645
 10
10.969374656677246
 20
8.536933898925781
 10
10.969374656677246
 20
8.443378448486328
 10
10.945985794067383
 20
8.419989585876465
 10
10.945985794067383
 20
8.303045272827148
 10
10.92259693145752
 20
8.279656410217285
 10
10.92259693145752
 20
7.975600719451904
 10
10.899208068847656
 20
7.952211856842041
 10
10.899208068847656
 20
6.057714462280273
 10
10.92259693145752
 20
6.03432559967041
 10
10.92259693145752
 20
6.010936737060547
 10
10.899208068847656
 20
5.987547874450684
 10
10.899208068847656
 20
5.800436973571777
 10
10.92259693145752
 20
5.777048110961914
 10
10.92259693145752
 20
5.472992897033691
 10
10.899208068847656
 20
5.449604034423828
 10
10.899208068847656
 20
5.402826309204102
 10
10.92259693145752
 20
5.379437446594238
 10
10.92259693145752
 20
4.958437919616699
 10
10.899208068847656
 20
4.935049057006836
 10
10.899208068847656
 20
4.163217067718506
 10
10.875819206237793
 20
4.139828205108643
 10
10.875819206237793
 20
3.7889950275421143
 10
10.85243034362793
 20
3.765606164932251
 10
10.85243034362793
 20
3.6252732276916504
 10
10.829041481018066
 20
3.601884365081787
 10
10.829041481018066
 20
3.508328914642334
 10
10.805652618408203
 20
3.4849400520324707
 10
10.805652618408203
 20
3.274440288543701
 10
10.78226375579834
 20
3.251051425933838
 10
10.78226375579834
 20
3.2276625633239746
 10
10.71209716796875
 20
3.1574959754943848
 10
10.71209716796875
 20
3.1341071128845215
 10
10.57176399230957
 20
2.993773937225342
 10
10.548375129699707
 20
2.993773937225342
 10
10.524986267089844
 20
2.9703850746154785
 10
10.50159740447998
 20
2.9703850746154785
 10
10.478208541870117
 20
2.9469962120056152
 10
10.454819679260254
 20
2.9469962120056152
 10
10.43143081665039
 20
2.923607349395752
 10
10.384653091430664
 20
2.923607349395752
 10
10.3612642288208
 20
2.9002184867858887
 10
10.337875366210938
 20
2.9002184867858887
 10
10.314486503601074
 20
2.8768296241760254
 10
10.291097640991211
 20
2.8768296241760254
 10
10.174153327941895
 20
2.759885311126709
 10
10.150764465332031
 20
2.759885311126709
 10
10.103986740112305
 20
2.7131075859069824
 10
10.103986740112305
 20
2.666329860687256
 10
10.080597877502441
 20
2.6429409980773926
 10
10.080597877502441
 20
2.6195521354675293
 10
10.010431289672852
 20
2.5493855476379395
 10
10.010431289672852
 20
2.502607822418213
 10
9.987042427062988
 20
2.4792189598083496
 10
9.987042427062988
 20
2.4090523719787598
 10
9.963653564453125
 20
2.3856635093688965
 10
9.963653564453125
 20
2.362274646759033
 10
9.940264701843262
 20
2.33888578414917
 10
9.940264701843262
 20
1.9178863763809204
 10
9.963653564453125
 20
1.8944975137710571
 10
9.963653564453125
 20
1.8711087703704834
 10
9.987042427062988
 20
1.8477199077606201
 10
9.987042427062988
 20
1.8009421825408936
 10
10.010431289672852
 20
1.7775533199310303
 10
10.010431289672852
 20
1.754164457321167
 10
10.033820152282715
 20
1.7307755947113037
 10
10.033820152282715
 20
1.7073867321014404
 10
10.080597877502441
 20
1.6606090068817139
 10
10.080597877502441
 20
1.6372201442718506
 10
10.103986740112305
 20
1.6138312816619873
 10
10.103986740112305
 20
1.5670535564422607
 10
10.127375602722168
 20
1.5670535564422607
 10
10.174153327941895
 20
1.5202758312225342
 10
10.174153327941895
 20
1.496886968612671
 10
10.197542190551758
 20
1.496886968612671
 10
10.220931053161621
 20
1.4734981060028076
 10
10.244319915771484
 20
1.4734981060028076
 10
10.291097640991211
 20
1.426720380783081
 10
10.337875366210938
 20
1.426720380783081
 10
10.3612642288208
 20
1.4033315181732178
 10
10.408041954040527
 20
1.4033315181732178
 10
10.43143081665039
 20
1.3799426555633545
 10
10.57176399230957
 20
1.3799426555633545
 10
10.595152854919434
 20
1.4033315181732178
 10
10.64193058013916
 20
1.4033315181732178
 10
10.665319442749023
 20
1.426720380783081
 10
10.71209716796875
 20
1.426720380783081
 10
10.758874893188477
 20
1.4734981060028076
 10
10.78226375579834
 20
1.4734981060028076
 10
10.875819206237793
 20
1.5670535564422607
 10
10.899208068847656
 20
1.5670535564422607
 10
10.899208068847656
 20
1.590442419052124
 10
10.99276351928711
 20
1.6839978694915771
 10
10.99276351928711
 20
1.7073867321014404
 10
11.016152381896973
 20
1.7307755947113037
 10
11.016152381896973
 20
1.754164457321167
 10
11.0629301071167
 20
1.8009421825408936
 10
11.086318969726562
 20
1.8009421825408936
 10
11.133096694946289
 20
1.754164457321167
 10
11.133096694946289
 20
1.6606090068817139
 10
11.156485557556152
 20
1.6372201442718506
 10
11.156485557556152
 20
1.4033315181732178
 10
11.179874420166016
 20
1.3799426555633545
 10
11.179874420166016
 20
1.3565537929534912
 10
11.203263282775879
 20
1.333164930343628
 10
11.203263282775879
 20
1.3097760677337646
 10
11.226652145385742
 20
1.2863872051239014
 10
11.226652145385742
 20
1.262998342514038
 10
11.273429870605469
 20
1.2162206172943115
 10
11.296818733215332
 20
1.2162206172943115
 10
11.343596458435059
 20
1.169442892074585
 10
11.413763046264648
 20
1.169442892074585
 10
11.460540771484375
 20
1.1226651668548584
 10
11.483929634094238
 20
1.1226651668548584
 10
11.507318496704102
 20
1.0992764234542847
 10
11.764595985412598
 20
1.0992764234542847
 10
11.787984848022461
 20
1.1226651668548584
 10
11.834762573242188
 20
1.1226651668548584
 10
11.881540298461914
 20
1.169442892074585
 10
11.904929161071777
 20
1.169442892074585
 10
11.951706886291504
 20
1.2162206172943115
 10
11.951706886291504
 20
1.2396094799041748
 10
11.975095748901367
 20
1.262998342514038
 10
11.975095748901367
 20
1.2863872051239014
 10
12.021873474121094
 20
1.333164930343628
 10
12.021873474121094
 20
1.3565537929534912
 10
12.045262336730957
 20
1.3799426555633545
 10
12.045262336730957
 20
1.4033315181732178
 10
12.092040061950684
 20
1.4501092433929443
 10
12.092040061950684
 20
1.4734981060028076
 10
12.115428924560547
 20
1.496886968612671
 10
12.115428924560547
 20
1.5670535564422607
 10
12.13881778717041
 20
1.590442419052124
 10
12.13881778717041
 20
1.6606090068817139
 10
12.185595512390137
 20
1.7073867321014404
 10
12.185595512390137
 20
1.7775533199310303
 10
12.208984375
 20
1.8009421825408936
 10
12.208984375
 20
1.964664101600647
 10
12.232373237609863
 20
1.9880529642105103
 10
12.232373237609863
 20
2.5727744102478027
 10
12.208984375
 20
2.596163272857666
 10
12.208984375
 20
2.759885311126709
 10
12.185595512390137
 20
2.7832741737365723
 10
12.185595512390137
 20
2.830051898956299
 10
12.13881778717041
 20
2.8768296241760254
 10
12.13881778717041
 20
2.923607349395752
 10
12.115428924560547
 20
2.9469962120056152
 10
12.115428924560547
 20
3.0405516624450684
 10
12.06865119934082
 20
3.087329387664795
 10
12.06865119934082
 20
3.110718250274658
 10
12.045262336730957
 20
3.1341071128845215
 10
12.045262336730957
 20
3.1574959754943848
 10
12.021873474121094
 20
3.180884838104248
 10
12.021873474121094
 20
3.2276625633239746
 10
11.99848461151123
 20
3.2276625633239746
 10
11.85815143585205
 20
3.3679957389831543
 10
11.834762573242188
 20
3.3679957389831543
 10
11.811373710632324
 20
3.3913846015930176
 10
11.787984848022461
 20
3.3913846015930176
 10
11.694429397583008
 20
3.4849400520324707
 10
11.671040534973145
 20
3.4849400520324707
 10
11.647651672363281
 20
3.508328914642334
 10
11.624262809753418
 20
3.508328914642334
 10
11.577485084533691
 20
3.5551066398620605
 10
11.554096221923828
 20
3.5551066398620605
 10
11.530707359313965
 20
3.578495502471924
 10
11.530707359313965
 20
3.6252732276916504
 10
11.507318496704102
 20
3.6486620903015137
 10
11.507318496704102
 20
3.7188286781311035
 10
11.483929634094238
 20
3.742217540740967
 10
11.483929634094238
 20
3.765606164932251
 10
11.460540771484375
 20
3.7889950275421143
 10
11.460540771484375
 20
3.999494791030884
 10
11.437151908874512
 20
4.022883892059326
 10
11.437151908874512
 20
4.0462727546691895
 10
11.460540771484375
 20
4.069661617279053
 10
11.460540771484375
 20
5.379437446594238
 10
11.483929634094238
 20
5.402826309204102
 10
11.483929634094238
 20
6.876324653625488
 10
11.507318496704102
 20
6.899713516235352
 10
11.507318496704102
 20
7.952211856842041
 10
11.483929634094238
 20
7.975600719451904
 10
11.483929634094238
 20
8.232878684997559
 10
11.460540771484375
 20
8.256267547607422
 10
11.460540771484375
 20
8.443378448486328
 10
11.437151908874512
 20
8.466767311096191
 10
11.437151908874512
 20
8.630489349365234
 10
11.413763046264648
 20
8.653878211975098
 10
11.413763046264648
 20
8.74743366241455
 10
11.390374183654785
 20
8.770822525024414
 10
11.390374183654785
 20
8.840989112854004
 10
11.366985321044922
 20
8.864377975463867
 10
11.366985321044922
 20
8.88776683807373
 10
11.343596458435059
 20
8.911155700683594
 10
11.343596458435059
 20
8.95793342590332
 10
11.320207595825195
 20
8.981321334838867
 10
11.226652145385742
 20
8.981321334838867
  0
CIRCLE
  5
3A
330
17
100
AcDbEntity
  8
Outline
100
AcDbCircle
 10
9.714885711669922
 20
11.190658569335938
 30
0.0
 40
1.6185680627822876
  0
CIRCLE
  5
3B
330
17
100
AcDbEntity
  8
Outline
100
AcDbCircle
 10
9.630362510681152
 20
14.553717613220215
 30
0.0
 40
0.7059914469718933
  0
LWPOLYLINE
  5
3C
330
17
100
AcDbEntity
  8
Outline
100
AcDbPolyline
 90
220
 70
0
 10
12.980816841125488
 20
15.764090538024902
 10
12.934039115905762
 20
15.717312812805176
 10
12.910650253295898
 20
15.717312812805176
 10
12.887261390686035
 20
15.693923950195312
 10
12.840483665466309
 20
15.693923950195312
 10
12.793705940246582
 20
15.647146224975586
 10
12.793705940246582
 20
15.623757362365723
 10
12.770317077636719
 20
15.60036849975586
 10
12.770317077636719
 20
15.553590774536133
 10
12.746928215026855
 20
15.53020191192627
 10
12.746928215026855
 20
15.506813049316406
 10
12.723539352416992
 20
15.483424186706543
 10
12.723539352416992
 20
15.46003532409668
 10
12.700150489807129
 20
15.436646461486816
 10
12.700150489807129
 20
15.413257598876953
 10
12.676761627197266
 20
15.38986873626709
 10
12.676761627197266
 20
15.343091011047363
 10
12.653372764587402
 20
15.3197021484375
 10
12.653372764587402
 20
15.272924423217773
 10
12.629983901977539
 20
15.24953556060791
 10
12.629983901977539
 20
15.202757835388184
 10
12.606595039367676
 20
15.17936897277832
 10
12.606595039367676
 20
15.085813522338867
 10
12.583206176757812
 20
15.062424659729004
 10
12.583206176757812
 20
14.781759262084961
 10
12.55981731414795
 20
14.758370399475098
 10
12.55981731414795
 20
14.524481773376465
 10
12.536428451538086
 20
14.501092910766602
 10
12.536428451538086
 20
13.588927268981934
 10
12.55981731414795
 20
13.56553840637207
 10
12.55981731414795
 20
13.3550386428833
 10
12.583206176757812
 20
13.331649780273438
 10
12.583206176757812
 20
13.191316604614258
 10
12.606595039367676
 20
13.167927742004395
 10
12.606595039367676
 20
12.980816841125488
 10
12.629983901977539
 20
12.957427978515625
 10
12.629983901977539
 20
12.840483665466309
 10
12.653372764587402
 20
12.817094802856445
 10
12.653372764587402
 20
12.723539352416992
 10
12.676761627197266
 20
12.700150489807129
 10
12.676761627197266
 20
12.606595039367676
 10
12.700150489807129
 20
12.583206176757812
 10
12.700150489807129
 20
12.442873001098633
 10
12.723539352416992
 20
12.41948413848877
 10
12.723539352416992
 20
12.185595512390137
 10
12.746928215026855
 20
12.162206649780273
 10
12.746928215026855
 20
11.577485084533691
 10
12.770317077636719
 20
11.554096221923828
 10
12.770317077636719
 20
11.226652145385742
 10
12.793705940246582
 20
11.203263282775879
 10
12.793705940246582
 20
11.133096694946289
 10
12.817094802856445
 20
11.109707832336426
 10
12.817094802856445
 20
11.016152381896973
 10
12.840483665466309
 20
10.99276351928711
 10
12.840483665466309
 20
10.945985794067383
 10
12.863872528076172
 20
10.92259693145752
 10
12.863872528076172
 20
10.899208068847656
 10
12.887261390686035
 20
10.875819206237793
 10
12.887261390686035
 20
10.85243034362793
 10
12.910650253295898
 20
10.829041481018066
 10
12.934039115905762
 20
10.829041481018066
 10
12.980816841125488
 20
10.78226375579834
 10
12.980816841125488
 20
10.758874893188477
 10
12.957427978515625
 20
10.735486030578613
 10
12.957427978515625
 20
10.524986267089844
 10
12.934039115905762
 20
10.50159740447998
 10
12.934039115905762
 20
10.454819679260254
 10
12.910650253295898
 20
10.43143081665039
 10
12.887261390686035
 20
10.43143081665039
 10
12.863872528076172
 20
10.408041954040527
 10
12.863872528076172
 20
10.384653091430664
 10
12.840483665466309
 20
10.3612642288208
 10
12.840483665466309
 20
10.291097640991211
 10
12.817094802856445
 20
10.267708778381348
 10
12.817094802856445
 20
9.940264701843262
 10
12.793705940246582
 20
9.916875839233398
 10
12.793705940246582
 20
8.88776683807373
 10
12.770317077636719
 20
8.864377975463867
 10
12.793705940246582
 20
8.840989112854004
 10
12.793705940246582
 20
8.443378448486328
 10
12.770317077636719
 20
8.419989585876465
 10
12.770317077636719
 20
6.876324653625488
 10
12.746928215026855
 20
6.852935791015625
 10
12.746928215026855
 20
5.847214698791504
 10
12.723539352416992
 20
5.823825836181641
 10
12.723539352416992
 20
5.800436973571777
 10
12.746928215026855
 20
5.777048110961914
 10
12.746928215026855
 20
5.613326072692871
 10
12.723539352416992
 20
5.589937210083008
 10
12.723539352416992
 20
3.9059393405914307
 10
12.746928215026855
 20
3.8825504779815674
 10
12.746928215026855
 20
3.8123838901519775
 10
12.723539352416992
 20
3.7889950275421143
 10
12.746928215026855
 20
3.765606164932251
 10
12.746928215026855
 20
2.993773937225342
 10
12.770317077636719
 20
2.9703850746154785
 10
12.770317077636719
 20
2.9469962120056152
 10
12.746928215026855
 20
2.923607349395752
 10
12.746928215026855
 20
2.9002184867858887
 10
12.770317077636719
 20
2.8768296241760254
 10
12.770317077636719
 20
2.7131075859069824
 10
12.793705940246582
 20
2.689718723297119
 10
12.793705940246582
 20
2.666329860687256
 10
12.817094802856445
 20
2.6429409980773926
 10
12.863872528076172
 20
2.6429409980773926
 10
12.887261390686035
 20
2.6195521354675293
 10
13.284872055053711
 20
2.6195521354675293
 10
13.308260917663574
 20
2.6429409980773926
 10
13.331649780273438
 20
2.6429409980773926
 10
13.3550386428833
 20
2.666329860687256
 10
13.3550386428833
 20
2.7364964485168457
 10
13.378427505493164
 20
2.759885311126709
 10
13.378427505493164
 20
3.251051425933838
 10
13.401816368103027
 20
3.274440288543701
 10
13.401816368103027
 20
3.672050952911377
 10
13.42520523071289
 20
3.6954398155212402
 10
13.42520523071289
 20
4.233383655548096
 10
13.448594093322754
 20
4.256772518157959
 10
13.448594093322754
 20
4.74793815612793
 10
13.471982955932617
 20
4.771327018737793
 10
13.471982955932617
 20
5.239104270935059
 10
13.49537181854248
 20
5.262493133544922
 10
13.49537181854248
 20
5.847214698791504
 10
13.518760681152344
 20
5.870603561401367
 10
13.518760681152344
 20
7.811878681182861
 10
13.542149543762207
 20
7.835267543792725
 10
13.542149543762207
 20
7.975600719451904
 10
13.518760681152344
 20
7.998989582061768
 10
13.518760681152344
 20
8.045767784118652
 10
13.542149543762207
 20
8.069156646728516
 10
13.542149543762207
 20
8.560322761535645
 10
13.56553840637207
 20
8.583711624145508
 10
13.56553840637207
 20
9.916875839233398
 10
13.542149543762207
 20
9.940264701843262
 10
13.542149543762207
 20
10.220931053161621
 10
13.518760681152344
 20
10.244319915771484
 10
13.518760681152344
 20
10.3612642288208
 10
13.49537181854248
 20
10.384653091430664
 10
13.49537181854248
 20
10.408041954040527
 10
13.471982955932617
 20
10.408041954040527
 10
13.42520523071289
 20
10.454819679260254
 10
13.42520523071289
 20
10.50159740447998
 10
13.401816368103027
 20
10.524986267089844
 10
13.401816368103027
 20
10.71209716796875
 10
13.42520523071289
 20
10.735486030578613
 10
13.42520523071289
 20
10.758874893188477
 10
13.49537181854248
 20
10.829041481018066
 10
13.518760681152344
 20
10.829041481018066
 10
13.518760681152344
 20
10.85243034362793
 10
13.542149543762207
 20
10.875819206237793
 10
13.542149543762207
 20
10.899208068847656
 10
13.56553840637207
 20
10.92259693145752
 10
13.56553840637207
 20
10.945985794067383
 10
13.588927268981934
 20
10.969374656677246
 10
13.588927268981934
 20
11.039541244506836
 10
13.612316131591797
 20
11.0629301071167
 10
13.612316131591797
 20
11.156485557556152
 10
13.63570499420166
 20
11.179874420166016
 10
13.63570499420166
 20
11.296818733215332
 10
13.659093856811523
 20
11.320207595825195
 10
13.659093856811523
 20
11.741207122802734
 10
13.63570499420166
 20
11.764595985412598
 10
13.63570499420166
 20
11.811373710632324
 10
13.659093856811523
 20
11.834762573242188
 10
13.659093856811523
 20
12.162206649780273
 10
13.682482719421387
 20
12.185595512390137
 10
13.682482719421387
 20
12.325928688049316
 10
13.70587158203125
 20
12.34931755065918
 10
13.70587158203125
 20
12.48965072631836
 10
13.729260444641113
 20
12.513039588928223
 10
13.729260444641113
 20
12.606595039367676
 10
13.752649307250977
 20
12.629983901977539
 10
13.752649307250977
 20
12.700150489807129
 10
13.77603816986084
 20
12.723539352416992
 10
13.77603816986084
 20
12.793705940246582
 10
13.799427032470703
 20
12.817094802856445
 10
13.799427032470703
 20
12.863872528076172
 10
13.822815895080566
 20
12.887261390686035
 10
13.822815895080566
 20
12.957427978515625
 10
13.84620475769043
 20
12.980816841125488
 10
13.84620475769043
 20
13.074372291564941
 10
13.869593620300293
 20
13.097761154174805
 10
13.869593620300293
 20
13.167927742004395
 10
13.892982482910156
 20
13.191316604614258
 10
13.892982482910156
 20
13.284872055053711
 10
13.91637134552002
 20
13.308260917663574
 10
13.91637134552002
 20
13.518760681152344
 10
13.939760208129883
 20
13.542149543762207
 10
13.939760208129883
 20
14.150259971618652
 10
13.91637134552002
 20
14.173648834228516
 10
13.91637134552002
 20
14.454315185546875
 10
13.892982482910156
 20
14.477704048156738
 10
13.892982482910156
 20
14.758370399475098
 10
13.869593620300293
 20
14.781759262084961
 10
13.869593620300293
 20
15.015646934509277
 10
13.84620475769043
 20
15.03903579711914
 10
13.84620475769043
 20
15.24953556060791
 10
13.822815895080566
 20
15.272924423217773
 10
13.822815895080566
 20
15.366479873657227
 10
13.799427032470703
 20
15.38986873626709
 10
13.799427032470703
 20
15.46003532409668
 10
13.77603816986084
 20
15.483424186706543
 10
13.77603816986084
 20
15.576979637145996
 10
13.799427032470703
 20
15.60036849975586
 10
13.799427032470703
 20
15.623757362365723
 10
13.77603816986084
 20
15.647146224975586
 10
13.77603816986084
 20
15.67053508758545
 10
13.752649307250977
 20
15.67053508758545
 10
13.70587158203125
 20
15.717312812805176
 10
13.63570499420166
 20
15.717312812805176
 10
13.612316131591797
 20
15.740701675415039
 10
13.56553840637207
 20
15.740701675415039
 10
13.542149543762207
 20
15.717312812805176
 10
13.448594093322754
 20
15.717312812805176
 10
13.42520523071289
 20
15.693923950195312
 10
13.401816368103027
 20
15.717312812805176
 10
13.3550386428833
 20
15.717312812805176
 10
13.331649780273438
 20
15.740701675415039
 10
13.004205703735352
 20
15.740701675415039
 10
12.980816841125488
 20
15.764090538024902
  0
LWPOLYLINE
  5
3D
330
17
100
AcDbEntity
  8
Outline
100
AcDbPolyline
 90
242
 70
0
 10
15.015646934509277
 20
14.430926322937012
 10
14.992258071899414
 20
14.407537460327148
 10
14.945481300354004
 20
14.407537460327148
 10
14.945481300354004
 20
14.384148597717285
 10
14.92209243774414
 20
14.360759735107422
 10
14.92209243774414
 20
14.173648834228516
 10
14.898703575134277
 20
14.150259971618652
 10
14.898703575134277
 20
13.471982955932617
 10
14.875314712524414
 20
13.448594093322754
 10
14.875314712524414
 20
12.770317077636719
 10
14.85192584991455
 20
12.746928215026855
 10
14.85192584991455
 20
12.723539352416992
 10
14.875314712524414
 20
12.700150489807129
 10
14.875314712524414
 20
12.653372764587402
 10
14.85192584991455
 20
12.629983901977539
 10
14.85192584991455
 20
12.583206176757812
 10
14.875314712524414
 20
12.55981731414795
 10
14.875314712524414
 20
12.536428451538086
 10
14.85192584991455
 20
12.513039588928223
 10
14.85192584991455
 20
12.372706413269043
 10
14.875314712524414
 20
12.34931755065918
 10
14.875314712524414
 20
11.390374183654785
 10
14.85192584991455
 20
11.366985321044922
 10
14.85192584991455
 20
11.179874420166016
 10
14.875314712524414
 20
11.156485557556152
 10
14.85192584991455
 20
11.133096694946289
 10
14.85192584991455
 20
10.829041481018066
 10
14.828536987304688
 20
10.805652618408203
 10
14.828536987304688
 20
10.71209716796875
 10
14.85192584991455
 20
10.688708305358887
 10
14.85192584991455
 20
10.43143081665039
 10
14.828536987304688
 20
10.408041954040527
 10
14.828536987304688
 20
9.121654510498047
 10
14.805148124694824
 20
9.098265647888184
 10
14.805148124694824
 20
9.051487922668457
 10
14.828536987304688
 20
9.028099060058594
 10
14.828536987304688
 20
8.630489349365234
 10
14.805148124694824
 20
8.607100486755371
 10
14.805148124694824
 20
8.513545036315918
 10
14.828536987304688
 20
8.490156173706055
 10
14.828536987304688
 20
8.419989585876465
 10
14.805148124694824
 20
8.396600723266602
 10
14.805148124694824
 20
7.811878681182861
 10
14.781759262084961
 20
7.788489818572998
 10
14.805148124694824
 20
7.765100955963135
 10
14.805148124694824
 20
7.718323230743408
 10
14.781759262084961
 20
7.694934368133545
 10
14.781759262084961
 20
7.086824417114258
 10
14.758370399475098
 20
7.0634355545043945
 10
14.758370399475098
 20
6.502102851867676
 10
14.734981536865234
 20
6.4787139892578125
 10
14.734981536865234
 20
6.455325126647949
 10
14.641426086425781
 20
6.361769676208496
 10
14.547870635986328
 20
6.361769676208496
 10
14.524481773376465
 20
6.338380813598633
 10
14.524481773376465
 20
6.3149919509887695
 10
14.454315185546875
 20
6.24482536315918
 10
14.454315185546875
 20
6.221436500549316
 10
14.430926322937012
 20
6.198047637939453
 10
14.430926322937012
 20
6.151269912719727
 10
14.407537460327148
 20
6.127881050109863
 10
14.407537460327148
 20
6.1044921875
 10
14.384148597717285
 20
6.081103324890137
 10
14.384148597717285
 20
6.03432559967041
 10
14.360759735107422
 20
6.010936737060547
 10
14.360759735107422
 20
5.870603561401367
 10
14.337370872497559
 20
5.847214698791504
 10
14.337370872497559
 20
5.589937210083008
 10
14.360759735107422
 20
5.5665483474731445
 10
14.360759735107422
 20
5.496381759643555
 10
14.384148597717285
 20
5.472992897033691
 10
14.384148597717285
 20
5.379437446594238
 10
14.407537460327148
 20
5.356048583984375
 10
14.407537460327148
 20
5.1455488204956055
 10
14.430926322937012
 20
5.122159957885742
 10
14.430926322937012
 20
5.098771095275879
 10
14.407537460327148
 20
5.075382232666016
 10
14.407537460327148
 20
4.958437919616699
 10
14.430926322937012
 20
4.935049057006836
 10
14.430926322937012
 20
4.864882469177246
 10
14.407537460327148
 20
4.841493606567383
 10
14.407537460327148
 20
4.701160430908203
 10
14.384148597717285
 20
4.67777156829834
 10
14.384148597717285
 20
4.514049530029297
 10
14.360759735107422
 20
4.490660667419434
 10
14.360759735107422
 20
4.397105693817139
 10
14.337370872497559
 20
4.373716831207275
 10
14.337370872497559
 20
4.256772518157959
 10
14.313982009887695
 20
4.233383655548096
 10
14.313982009887695
 20
4.116439342498779
 10
14.290593147277832
 20
4.093050479888916
 10
14.290593147277832
 20
4.022883892059326
 10
14.267204284667969
 20
3.999494791030884
 10
14.267204284667969
 20
3.7188286781311035
 10
14.243815422058105
 20
3.6954398155212402
 10
14.243815422058105
 20
2.830051898956299
 10
14.267204284667969
 20
2.8066630363464355
 10
14.267204284667969
 20
2.362274646759033
 10
14.290593147277832
 20
2.33888578414917
 10
14.290593147277832
 20
2.2219417095184326
 10
14.313982009887695
 20
2.1985528469085693
 10
14.313982009887695
 20
2.1517751216888428
 10
14.337370872497559
 20
2.1283862590789795
 10
14.337370872497559
 20
2.0582196712493896
 10
14.360759735107422
 20
2.0348308086395264
 10
14.360759735107422
 20
2.011441946029663
 10
14.384148597717285
 20
1.9880529642105103
 10
14.384148597717285
 20
1.964664101600647
 10
14.430926322937012
 20
1.9178863763809204
 10
14.430926322937012
 20
1.8944975137710571
 10
14.454315185546875
 20
1.8711087703704834
 10
14.454315185546875
 20
1.8477199077606201
 10
14.571259498596191
 20
1.7307755947113037
 10
14.571259498596191
 20
1.7073867321014404
 10
14.711592674255371
 20
1.5670535564422607
 10
15.015646934509277
 20
1.5670535564422607
 10
15.03903579711914
 20
1.590442419052124
 10
15.10920238494873
 20
1.590442419052124
 10
15.132591247558594
 20
1.6138312816619873
 10
15.17936897277832
 20
1.6138312816619873
 10
15.202757835388184
 20
1.6372201442718506
 10
15.226146697998047
 20
1.6372201442718506
 10
15.24953556060791
 20
1.6606090068817139
 10
15.272924423217773
 20
1.6606090068817139
 10
15.436646461486816
 20
1.8243310451507568
 10
15.436646461486816
 20
1.8477199077606201
 10
15.46003532409668
 20
1.8711087703704834
 10
15.46003532409668
 20
1.8944975137710571
 10
15.53020191192627
 20
1.964664101600647
 10
15.53020191192627
 20
1.9880529642105103
 10
15.553590774536133
 20
2.011441946029663
 10
15.53020191192627
 20
2.0348308086395264
 10
15.53020191192627
 20
2.081608533859253
 10
15.553590774536133
 20
2.104997396469116
 10
15.553590774536133
 20
2.1517751216888428
 10
15.576979637145996
 20
2.175163984298706
 10
15.576979637145996
 20
2.2219417095184326
 10
15.60036849975586
 20
2.245330333709717
 10
15.60036849975586
 20
2.362274646759033
 10
15.623757362365723
 20
2.3856635093688965
 10
15.623757362365723
 20
2.432441234588623
 10
15.647146224975586
 20
2.4558300971984863
 10
15.647146224975586
 20
2.525996685028076
 10
15.67053508758545
 20
2.5493855476379395
 10
15.67053508758545
 20
2.8066630363464355
 10
15.693923950195312
 20
2.830051898956299
 10
15.693923950195312
 20
3.251051425933838
 10
15.67053508758545
 20
3.274440288543701
 10
15.67053508758545
 20
3.4615511894226074
 10
15.647146224975586
 20
3.4849400520324707
 10
15.647146224975586
 20
3.7889950275421143
 10
15.623757362365723
 20
3.8123838901519775
 10
15.623757362365723
 20
3.929328203201294
 10
15.60036849975586
 20
3.9527170658111572
 10
15.60036849975586
 20
4.116439342498779
 10
15.576979637145996
 20
4.139828205108643
 10
15.576979637145996
 20
4.233383655548096
 10
15.553590774536133
 20
4.256772518157959
 10
15.553590774536133
 20
4.280161380767822
 10
15.53020191192627
 20
4.3035502433776855
 10
15.53020191192627
 20
4.373716831207275
 10
15.506813049316406
 20
4.397105693817139
 10
15.506813049316406
 20
4.490660667419434
 10
15.483424186706543
 20
4.514049530029297
 10
15.483424186706543
 20
4.53743839263916
 10
15.46003532409668
 20
4.560827255249023
 10
15.46003532409668
 20
4.654382705688477
 10
15.436646461486816
 20
4.67777156829834
 10
15.436646461486816
 20
4.841493606567383
 10
15.413257598876953
 20
4.864882469177246
 10
15.413257598876953
 20
5.098771095275879
 10
15.38986873626709
 20
5.122159957885742
 10
15.38986873626709
 20
5.332659721374512
 10
15.413257598876953
 20
5.356048583984375
 10
15.413257598876953
 20
5.472992897033691
 10
15.436646461486816
 20
5.496381759643555
 10
15.436646461486816
 20
5.519770622253418
 10
15.413257598876953
 20
5.543159484863281
 10
15.413257598876953
 20
5.5665483474731445
 10
15.436646461486816
 20
5.589937210083008
 10
15.436646461486816
 20
5.613326072692871
 10
15.46003532409668
 20
5.636714935302734
 10
15.46003532409668
 20
5.660103797912598
 10
15.436646461486816
 20
5.683492660522461
 10
15.436646461486816
 20
5.706881523132324
 10
15.46003532409668
 20
5.7302703857421875
 10
15.46003532409668
 20
5.753659248352051
 10
15.436646461486816
 20
5.777048110961914
 10
15.436646461486816
 20
5.823825836181641
 10
15.413257598876953
 20
5.847214698791504
 10
15.413257598876953
 20
5.870603561401367
 10
15.38986873626709
 20
5.8939924240112305
 10
15.38986873626709
 20
6.010936737060547
 10
15.366479873657227
 20
6.03432559967041
 10
15.366479873657227
 20
6.057714462280273
 10
15.272924423217773
 20
6.151269912719727
 10
15.272924423217773
 20
6.17465877532959
 10
15.202757835388184
 20
6.24482536315918
 10
15.202757835388184
 20
6.268214225769043
 10
15.17936897277832
 20
6.291603088378906
 10
15.155980110168457
 20
6.291603088378906
 10
15.10920238494873
 20
6.338380813598633
 10
15.132591247558594
 20
6.361769676208496
 10
15.132591247558594
 20
6.408547401428223
 10
15.085813522338867
 20
6.455325126647949
 10
15.085813522338867
 20
6.502102851867676
 10
15.062424659729004
 20
6.525491714477539
 10
15.062424659729004
 20
6.619047164916992
 10
15.085813522338867
 20
6.6424360275268555
 10
15.062424659729004
 20
6.665824890136719
 10
15.062424659729004
 20
6.759380340576172
 10
15.03903579711914
 20
6.782769203186035
 10
15.03903579711914
 20
6.876324653625488
 10
15.062424659729004
 20
6.899713516235352
 10
15.062424659729004
 20
7.484435081481934
 10
15.085813522338867
 20
7.507823467254639
 10
15.085813522338867
 20
7.882045269012451
 10
15.10920238494873
 20
7.9054341316223145
 10
15.10920238494873
 20
8.396600723266602
 10
15.132591247558594
 20
8.419989585876465
 10
15.10920238494873
 20
8.443378448486328
 10
15.10920238494873
 20
8.911155700683594
 10
15.132591247558594
 20
8.934544563293457
 10
15.132591247558594
 20
8.95793342590332
 10
15.10920238494873
 20
8.981321334838867
 10
15.10920238494873
 20
9.14504337310791
 10
15.132591247558594
 20
9.168432235717773
 10
15.132591247558594
 20
10.665319442749023
 10
15.155980110168457
 20
10.688708305358887
 10
15.155980110168457
 20
12.185595512390137
 10
15.17936897277832
 20
12.208984375
 10
15.17936897277832
 20
12.629983901977539
 10
15.155980110168457
 20
12.653372764587402
 10
15.155980110168457
 20
12.700150489807129
 10
15.17936897277832
 20
12.723539352416992
 10
15.17936897277832
 20
12.863872528076172
 10
15.155980110168457
 20
12.887261390686035
 10
15.155980110168457
 20
14.267204284667969
 10
15.132591247558594
 20
14.290593147277832
 10
15.132591247558594
 20
14.360759735107422
 10
15.062424659729004
 20
14.430926322937012
 10
15.015646934509277
 20
14.430926322937012
  0
LWPOLYLINE
  5
3E
330
17
100
AcDbEntity
  8
Outline
100
AcDbPolyline
 90
188
 70
0
 10
16.793201446533203
 20
15.693923950195312
 10
16.793201446533203
 20
15.647146224975586
 10
16.769811630249023
 20
15.623757362365723
 10
16.769811630249023
 20
15.413257598876953
 10
16.746423721313477
 20
15.38986873626709
 10
16.746423721313477
 20
14.992258071899414
 10
16.723033905029297
 20
14.968870162963867
 10
16.723033905029297
 20
14.758370399475098
 10
16.69964599609375
 20
14.734981536865234
 10
16.69964599609375
 20
14.430926322937012
 10
16.67625617980957
 20
14.407537460327148
 10
16.67625617980957
 20
14.197037696838379
 10
16.652868270874023
 20
14.173648834228516
 10
16.652868270874023
 20
13.892982482910156
 10
16.629478454589844
 20
13.869593620300293
 10
16.629478454589844
 20
13.659093856811523
 10
16.606090545654297
 20
13.63570499420166
 10
16.606090545654297
 20
13.3550386428833
 10
16.582700729370117
 20
13.331649780273438
 10
16.582700729370117
 20
13.097761154174805
 10
16.55931282043457
 20
13.074372291564941
 10
16.55931282043457
 20
13.027594566345215
 10
16.53592300415039
 20
13.004205703735352
 10
16.53592300415039
 20
12.957427978515625
 10
16.489145278930664
 20
12.910650253295898
 10
16.489145278930664
 20
12.887261390686035
 10
16.372201919555664
 20
12.770317077636719
 10
16.348812103271484
 20
12.770317077636719
 10
16.325424194335938
 20
12.746928215026855
 10
16.302034378051758
 20
12.746928215026855
 10
16.25525665283203
 20
12.700150489807129
 10
16.25525665283203
 20
12.55981731414795
 10
16.231868743896484
 20
12.536428451538086
 10
16.231868743896484
 20
11.390374183654785
 10
16.208478927612305
 20
11.366985321044922
 10
16.208478927612305
 20
10.408041954040527
 10
16.231868743896484
 20
10.384653091430664
 10
16.208478927612305
 20
10.3612642288208
 10
16.208478927612305
 20
9.940264701843262
 10
16.231868743896484
 20
9.916875839233398
 10
16.231868743896484
 20
9.378931999206543
 10
16.208478927612305
 20
9.35554313659668
 10
16.208478927612305
 20
7.858656406402588
 10
16.185091018676758
 20
7.835267543792725
 10
16.185091018676758
 20
6.4787139892578125
 10
16.161701202392578
 20
6.455325126647949
 10
16.185091018676758
 20
6.431936264038086
 10
16.185091018676758
 20
6.361769676208496
 10
16.161701202392578
 20
6.338380813598633
 10
16.161701202392578
 20
6.127881050109863
 10
16.185091018676758
 20
6.1044921875
 10
16.185091018676758
 20
6.010936737060547
 10
16.161701202392578
 20
5.987547874450684
 10
16.161701202392578
 20
5.917381286621094
 10
16.185091018676758
 20
5.8939924240112305
 10
16.161701202392578
 20
5.870603561401367
 10
16.161701202392578
 20
5.683492660522461
 10
16.185091018676758
 20
5.660103797912598
 10
16.185091018676758
 20
5.356048583984375
 10
16.161701202392578
 20
5.332659721374512
 10
16.161701202392578
 20
5.1455488204956055
 10
16.185091018676758
 20
5.122159957885742
 10
16.185091018676758
 20
5.098771095275879
 10
16.161701202392578
 20
5.075382232666016
 10
16.161701202392578
 20
4.560827255249023
 10
16.13831329345703
 20
4.53743839263916
 10
16.13831329345703
 20
4.514049530029297
 10
16.161701202392578
 20
4.490660667419434
 10
16.161701202392578
 20
4.443883419036865
 10
16.13831329345703
 20
4.420494556427002
 10
16.161701202392578
 20
4.397105693817139
 10
16.161701202392578
 20
4.350327968597412
 10
16.13831329345703
 20
4.326939105987549
 10
16.13831329345703
 20
4.280161380767822
 10
16.161701202392578
 20
4.256772518157959
 10
16.161701202392578
 20
4.069661617279053
 10
16.13831329345703
 20
4.0462727546691895
 10
16.161701202392578
 20
4.022883892059326
 10
16.161701202392578
 20
3.2276625633239746
 10
16.185091018676758
 20
3.2042737007141113
 10
16.185091018676758
 20
2.5727744102478027
 10
16.208478927612305
 20
2.5493855476379395
 10
16.208478927612305
 20
2.0582196712493896
 10
16.185091018676758
 20
2.0348308086395264
 10
16.185091018676758
 20
1.8711087703704834
 10
16.208478927612305
 20
1.8477199077606201
 10
16.208478927612305
 20
1.8009421825408936
 10
16.185091018676758
 20
1.7775533199310303
 10
16.185091018676758
 20
1.7073867321014404
 10
16.208478927612305
 20
1.6839978694915771
 10
16.208478927612305
 20
1.6606090068817139
 10
16.185091018676758
 20
1.6372201442718506
 10
16.208478927612305
 20
1.6138312816619873
 10
16.208478927612305
 20
1.4734981060028076
 10
16.231868743896484
 20
1.4501092433929443
 10
16.231868743896484
 20
1.2396094799041748
 10
16.25525665283203
 20
1.2162206172943115
 10
16.25525665283203
 20
1.0057209730148315
 10
16.27864646911621
 20
0.9823320508003235
 10
16.27864646911621
 20
0.9355543851852417
 10
16.302034378051758
 20
0.9121655225753784
 10
17.003700256347656
 20
0.9121655225753784
 10
17.027090072631836
 20
0.9355543851852417
 10
17.073867797851562
 20
0.9355543851852417
 10
17.073867797851562
 20
1.0291098356246948
 10
17.09725570678711
 20
1.052498698234558
 10
17.09725570678711
 20
1.7073867321014404
 10
17.12064552307129
 20
1.7307755947113037
 10
17.12064552307129
 20
2.011441946029663
 10
17.144033432006836
 20
2.0348308086395264
 10
17.144033432006836
 20
2.1985528469085693
 10
17.167423248291016
 20
2.2219417095184326
 10
17.167423248291016
 20
2.6429409980773926
 10
17.190811157226562
 20
2.666329860687256
 10
17.190811157226562
 20
2.993773937225342
 10
17.214200973510742
 20
3.017162799835205
 10
17.214200973510742
 20
3.2276625633239746
 10
17.23758888244629
 20
3.251051425933838
 10
17.23758888244629
 20
3.3212180137634277
 10
17.214200973510742
 20
3.344606876373291
 10
17.23758888244629
 20
3.3679957389831543
 10
17.23758888244629
 20
4.069661617279053
 10
17.26097869873047
 20
4.093050479888916
 10
17.26097869873047
 20
4.958437919616699
 10
17.284366607666016
 20
4.9818267822265625
 10
17.284366607666016
 20
5.098771095275879
 10
17.26097869873047
 20
5.122159957885742
 10
17.26097869873047
 20
5.519770622253418
 10
17.284366607666016
 20
5.543159484863281
 10
17.284366607666016
 20
6.338380813598633
 10
17.307756423950195
 20
6.361769676208496
 10
17.307756423950195
 20
8.303045272827148
 10
17.331144332885742
 20
8.326434135437012
 10
17.331144332885742
 20
8.466767311096191
 10
17.307756423950195
 20
8.490156173706055
 10
17.331144332885742
 20
8.513545036315918
 10
17.331144332885742
 20
9.472487449645996
 10
17.307756423950195
 20
9.49587631225586
 10
17.307756423950195
 20
9.870098114013672
 10
17.331144332885742
 20
9.893486976623535
 10
17.331144332885742
 20
10.899208068847656
 10
17.354534149169922
 20
10.92259693145752
 10
17.354534149169922
 20
11.016152381896973
 10
17.331144332885742
 20
11.039541244506836
 10
17.331144332885742
 20
11.086318969726562
 10
17.354534149169922
 20
11.109707832336426
 10
17.354534149169922
 20
11.366985321044922
 10
17.331144332885742
 20
11.390374183654785
 10
17.331144332885742
 20
11.437151908874512
 10
17.354534149169922
 20
11.460540771484375
 10
17.354534149169922
 20
11.530707359313965
 10
17.331144332885742
 20
11.554096221923828
 10
17.331144332885742
 20
12.045262336730957
 10
17.307756423950195
 20
12.06865119934082
 10
17.307756423950195
 20
12.232373237609863
 10
17.331144332885742
 20
12.255762100219727
 10
17.331144332885742
 20
12.700150489807129
 10
17.307756423950195
 20
12.723539352416992
 10
17.307756423950195
 20
12.746928215026855
 10
17.23758888244629
 20
12.817094802856445
 10
17.214200973510742
 20
12.817094802856445
 10
17.144033432006836
 20
12.887261390686035
 10
17.144033432006836
 20
12.910650253295898
 10
17.073867797851562
 20
12.980816841125488
 10
17.073867797851562
 20
13.027594566345215
 10
17.050477981567383
 20
13.050983428955078
 10
17.050477981567383
 20
13.284872055053711
 10
17.027090072631836
 20
13.308260917663574
 10
17.027090072631836
 20
13.588927268981934
 10
17.003700256347656
 20
13.612316131591797
 10
17.003700256347656
 20
13.752649307250977
 10
16.98031234741211
 20
13.77603816986084
 10
16.98031234741211
 20
14.103482246398926
 10
16.95692253112793
 20
14.126871109008789
 10
16.95692253112793
 20
14.173648834228516
 10
16.98031234741211
 20
14.197037696838379
 10
16.95692253112793
 20
14.220426559448242
 10
16.95692253112793
 20
14.524481773376465
 10
16.933534622192383
 20
14.547870635986328
 10
16.933534622192383
 20
15.155980110168457
 10
16.910144805908203
 20
15.17936897277832
 10
16.910144805908203
 20
15.436646461486816
 10
16.886756896972656
 20
15.46003532409668
 10
16.886756896972656
 20
15.623757362365723
 10
16.863367080688477
 20
15.647146224975586
 10
16.863367080688477
 20
15.67053508758545
 10
16.83997917175293
 20
15.693923950195312
 10
16.793201446533203
 20
15.693923950195312
  0
LWPOLYLINE
  5
3F
330
17
100
AcDbEntity
  8
Outline
100
AcDbPolyline
 90
153
 70
0
 10
18.968364715576172
 20
15.647146224975586
 10
18.944974899291992
 20
15.623757362365723
 10
18.921586990356445
 20
15.623757362365723
 10
18.898197174072266
 20
15.60036849975586
 10
18.898197174072266
 20
15.553590774536133
 10
18.87480926513672
 20
15.53020191192627
 10
18.87480926513672
 20
15.272924423217773
 10
18.85141944885254
 20
15.24953556060791
 10
18.85141944885254
 20
15.062424659729004
 10
18.828031539916992
 20
15.03903579711914
 10
18.828031539916992
 20
14.618037223815918
 10
18.804641723632812
 20
14.594648361206055
 10
18.804641723632812
 20
14.360759735107422
 10
18.781253814697266
 20
14.337370872497559
 10
18.781253814697266
 20
14.126871109008789
 10
18.757863998413086
 20
14.103482246398926
 10
18.757863998413086
 20
13.892982482910156
 10
18.73447608947754
 20
13.869593620300293
 10
18.73447608947754
 20
13.261483192443848
 10
18.71108627319336
 20
13.238094329833984
 10
18.71108627319336
 20
13.167927742004395
 10
18.687698364257812
 20
13.144538879394531
 10
18.687698364257812
 20
13.121150016784668
 10
18.664308547973633
 20
13.097761154174805
 10
18.664308547973633
 20
13.074372291564941
 10
18.547365188598633
 20
12.957427978515625
 10
18.523975372314453
 20
12.957427978515625
 10
18.500587463378906
 20
12.934039115905762
 10
18.45380973815918
 20
12.934039115905762
 10
18.45380973815918
 20
12.910650253295898
 10
18.430419921875
 20
12.887261390686035
 10
18.430419921875
 20
12.817094802856445
 10
18.407032012939453
 20
12.793705940246582
 10
18.407032012939453
 20
11.554096221923828
 10
18.383642196655273
 20
11.530707359313965
 10
18.383642196655273
 20
11.390374183654785
 10
18.407032012939453
 20
11.366985321044922
 10
18.407032012939453
 20
11.156485557556152
 10
18.383642196655273
 20
11.133096694946289
 10
18.383642196655273
 20
10.291097640991211
 10
18.360254287719727
 20
10.267708778381348
 10
18.360254287719727
 20
10.150764465332031
 10
18.383642196655273
 20
10.127375602722168
 10
18.383642196655273
 20
10.010431289672852
 10
18.360254287719727
 20
9.987042427062988
 10
18.360254287719727
 20
9.893486976623535
 10
18.383642196655273
 20
9.870098114013672
 10
18.383642196655273
 20
9.636209487915039
 10
18.360254287719727
 20
9.612820625305176
 10
18.360254287719727
 20
7.788489818572998
 10
18.336864471435547
 20
7.765100955963135
 10
18.336864471435547
 20
7.2271575927734375
 10
18.3134765625
 20
7.203768730163574
 10
18.3134765625
 20
6.057714462280273
 10
18.336864471435547
 20
6.03432559967041
 10
18.336864471435547
 20
5.7302703857421875
 10
18.3134765625
 20
5.706881523132324
 10
18.3134765625
 20
4.841493606567383
 10
18.336864471435547
 20
4.8181047439575195
 10
18.336864471435547
 20
4.67777156829834
 10
18.3134765625
 20
4.654382705688477
 10
18.3134765625
 20
4.3035502433776855
 10
18.336864471435547
 20
4.280161380767822
 10
18.336864471435547
 20
3.8123838901519775
 10
18.3134765625
 20
3.7889950275421143
 10
18.3134765625
 20
3.601884365081787
 10
18.336864471435547
 20
3.578495502471924
 10
18.336864471435547
 20
2.9703850746154785
 10
18.360254287719727
 20
2.9469962120056152
 10
18.360254287719727
 20
2.0348308086395264
 10
18.383642196655273
 20
2.011441946029663
 10
18.383642196655273
 20
1.7073867321014404
 10
18.407032012939453
 20
1.6839978694915771
 10
18.407032012939453
 20
1.426720380783081
 10
18.430419921875
 20
1.4033315181732178
 10
18.430419921875
 20
1.333164930343628
 10
18.45380973815918
 20
1.3097760677337646
 10
18.523975372314453
 20
1.3097760677337646
 10
18.547365188598633
 20
1.2863872051239014
 10
19.061920166015625
 20
1.2863872051239014
 10
19.085308074951172
 20
1.3097760677337646
 10
19.085308074951172
 20
1.3565537929534912
 10
19.10869789123535
 20
1.3799426555633545
 10
19.10869789123535
 20
1.5436646938323975
 10
19.1320858001709
 20
1.5670535564422607
 10
19.1320858001709
 20
1.8009421825408936
 10
19.155475616455078
 20
1.8243310451507568
 10
19.155475616455078
 20
2.104997396469116
 10
19.178863525390625
 20
2.1283862590789795
 10
19.178863525390625
 20
2.3154969215393066
 10
19.202253341674805
 20
2.33888578414917
 10
19.202253341674805
 20
2.5727744102478027
 10
19.22564125061035
 20
2.596163272857666
 10
19.22564125061035
 20
2.9469962120056152
 10
19.24903106689453
 20
2.9703850746154785
 10
19.24903106689453
 20
3.4615511894226074
 10
19.272418975830078
 20
3.4849400520324707
 10
19.272418975830078
 20
3.859161615371704
 10
19.295808792114258
 20
3.8825504779815674
 10
19.295808792114258
 20
4.186605930328369
 10
19.319196701049805
 20
4.209994792938232
 10
19.319196701049805
 20
4.8181047439575195
 10
19.342586517333984
 20
4.841493606567383
 10
19.342586517333984
 20
5.5665483474731445
 10
19.36597442626953
 20
5.589937210083008
 10
19.36597442626953
 20
6.268214225769043
 10
19.342586517333984
 20
6.291603088378906
 10
19.342586517333984
 20
6.338380813598633
 10
19.36597442626953
 20
6.361769676208496
 10
19.36597442626953
 20
7.835267543792725
 10
19.38936424255371
 20
7.858656406402588
 10
19.38936424255371
 20
9.472487449645996
 10
19.412752151489258
 20
9.49587631225586
 10
19.412752151489258
 20
9.519265174865723
 10
19.38936424255371
 20
9.542654037475586
 10
19.38936424255371
 20
9.589431762695312
 10
19.412752151489258
 20
9.612820625305176
 10
19.412752151489258
 20
9.659598350524902
 10
19.38936424255371
 20
9.682987213134766
 10
19.38936424255371
 20
9.729764938354492
 10
19.412752151489258
 20
9.753153800964355
 10
19.38936424255371
 20
9.776542663574219
 10
19.38936424255371
 20
9.846709251403809
 10
19.412752151489258
 20
9.870098114013672
 10
19.412752151489258
 20
10.829041481018066
 10
19.436141967773438
 20
10.85243034362793
 10
19.436141967773438
 20
12.021873474121094
 10
19.459529876708984
 20
12.045262336730957
 10
19.436141967773438
 20
12.06865119934082
 10
19.436141967773438
 20
12.863872528076172
 10
19.412752151489258
 20
12.887261390686035
 10
19.412752151489258
 20
12.910650253295898
 10
19.38936424255371
 20
12.934039115905762
 10
19.36597442626953
 20
12.934039115905762
 10
19.202253341674805
 20
13.097761154174805
 10
19.202253341674805
 20
13.121150016784668
 10
19.178863525390625
 20
13.144538879394531
 10
19.178863525390625
 20
13.261483192443848
 10
19.155475616455078
 20
13.284872055053711
 10
19.155475616455078
 20
13.612316131591797
 10
19.1320858001709
 20
13.63570499420166
 10
19.1320858001709
 20
14.009926795959473
 10
19.10869789123535
 20
14.033315658569336
 10
19.10869789123535
 20
14.524481773376465
 10
19.085308074951172
 20
14.547870635986328
 10
19.085308074951172
 20
15.015646934509277
 10
19.061920166015625
 20
15.03903579711914
 10
19.061920166015625
 20
15.483424186706543
 10
19.038530349731445
 20
15.506813049316406
 10
19.038530349731445
 20
15.553590774536133
 10
19.0151424407959
 20
15.576979637145996
 10
19.0151424407959
 20
15.60036849975586
 10
18.968364715576172
 20
15.647146224975586
  0
LWPOLYLINE
  5
40
330
17
100
AcDbEntity
  8
Outline
100
AcDbPolyline
 90
289
 70
0
 10
20.699140548706055
 20
15.17936897277832
 10
20.675750732421875
 20
15.155980110168457
 10
20.535417556762695
 20
15.155980110168457
 10
20.51202964782715
 20
15.132591247558594
 10
20.48863983154297
 20
15.132591247558594
 10
20.465251922607422
 20
15.10920238494873
 10
20.418474197387695
 20
15.10920238494873
 10
20.395084381103516
 20
15.085813522338867
 10
20.37169647216797
 20
15.085813522338867
 10
20.254751205444336
 20
14.968870162963867
 10
20.254751205444336
 20
14.945481300354004
 10
20.23136329650879
 20
14.92209243774414
 10
20.23136329650879
 20
14.898703575134277
 10
20.20797348022461
 20
14.875314712524414
 10
20.20797348022461
 20
14.85192584991455
 10
20.184585571289062
 20
14.828536987304688
 10
20.184585571289062
 20
14.781759262084961
 10
20.161195755004883
 20
14.758370399475098
 10
20.161195755004883
 20
14.711592674255371
 10
20.137807846069336
 20
14.688203811645508
 10
20.137807846069336
 20
14.641426086425781
 10
20.114418029785156
 20
14.618037223815918
 10
20.114418029785156
 20
14.571259498596191
 10
20.09103012084961
 20
14.547870635986328
 10
20.09103012084961
 20
14.337370872497559
 10
20.06764030456543
 20
14.313982009887695
 10
20.06764030456543
 20
14.220426559448242
 10
20.044252395629883
 20
14.197037696838379
 10
20.044252395629883
 20
14.080093383789062
 10
20.020862579345703
 20
14.0567045211792
 10
20.020862579345703
 20
13.121150016784668
 10
20.044252395629883
 20
13.097761154174805
 10
20.044252395629883
 20
12.980816841125488
 10
20.06764030456543
 20
12.957427978515625
 10
20.06764030456543
 20
12.770317077636719
 10
20.09103012084961
 20
12.746928215026855
 10
20.09103012084961
 20
12.653372764587402
 10
20.114418029785156
 20
12.629983901977539
 10
20.114418029785156
 20
12.48965072631836
 10
20.137807846069336
 20
12.466261863708496
 10
20.137807846069336
 20
12.372706413269043
 10
20.161195755004883
 20
12.34931755065918
 10
20.161195755004883
 20
12.302539825439453
 10
20.184585571289062
 20
12.27915096282959
 10
20.184585571289062
 20
12.185595512390137
 10
20.20797348022461
 20
12.162206649780273
 10
20.20797348022461
 20
11.99848461151123
 10
20.23136329650879
 20
11.975095748901367
 10
20.23136329650879
 20
11.109707832336426
 10
20.254751205444336
 20
11.086318969726562
 10
20.254751205444336
 20
11.0629301071167
 10
20.23136329650879
 20
11.039541244506836
 10
20.254751205444336
 20
11.016152381896973
 10
20.254751205444336
 20
10.85243034362793
 10
20.278141021728516
 20
10.829041481018066
 10
20.278141021728516
 20
10.688708305358887
 10
20.301528930664062
 20
10.665319442749023
 10
20.301528930664062
 20
10.618541717529297
 10
20.324918746948242
 20
10.595152854919434
 10
20.324918746948242
 20
10.57176399230957
 10
20.34830665588379
 20
10.548375129699707
 10
20.34830665588379
 20
10.524986267089844
 10
20.37169647216797
 20
10.50159740447998
 10
20.37169647216797
 20
10.478208541870117
 10
20.395084381103516
 20
10.454819679260254
 10
20.395084381103516
 20
10.43143081665039
 10
20.418474197387695
 20
10.408041954040527
 10
20.418474197387695
 20
10.384653091430664
 10
20.441862106323242
 20
10.3612642288208
 10
20.441862106323242
 20
10.197542190551758
 10
20.395084381103516
 20
10.150764465332031
 10
20.395084381103516
 20
10.127375602722168
 10
20.37169647216797
 20
10.103986740112305
 10
20.37169647216797
 20
10.080597877502441
 10
20.324918746948242
 20
10.033820152282715
 10
20.324918746948242
 20
9.940264701843262
 10
20.301528930664062
 20
9.916875839233398
 10
20.301528930664062
 20
9.121654510498047
 10
20.324918746948242
 20
9.098265647888184
 10
20.324918746948242
 20
8.840989112854004
 10
20.34830665588379
 20
8.81760025024414
 10
20.34830665588379
 20
8.653878211975098
 10
20.324918746948242
 20
8.630489349365234
 10
20.324918746948242
 20
8.583711624145508
 10
20.34830665588379
 20
8.560322761535645
 10
20.34830665588379
 20
8.536933898925781
 10
20.324918746948242
 20
8.513545036315918
 10
20.324918746948242
 20
8.139323234558105
 10
20.301528930664062
 20
8.115934371948242
 10
20.301528930664062
 20
8.092545509338379
 10
20.324918746948242
 20
8.069156646728516
 10
20.324918746948242
 20
7.624767780303955
 10
20.301528930664062
 20
7.601378917694092
 10
20.324918746948242
 20
7.5779900550842285
 10
20.324918746948242
 20
7.507823467254639
 10
20.301528930664062
 20
7.484435081481934
 10
20.301528930664062
 20
7.437657356262207
 10
20.324918746948242
 20
7.414268493652344
 10
20.301528930664062
 20
7.3908796310424805
 10
20.301528930664062
 20
7.320713043212891
 10
20.324918746948242
 20
7.297324180603027
 10
20.324918746948242
 20
6.923102378845215
 10
20.34830665588379
 20
6.899713516235352
 10
20.324918746948242
 20
6.876324653625488
 10
20.324918746948242
 20
6.431936264038086
 10
20.34830665588379
 20
6.408547401428223
 10
20.34830665588379
 20
6.361769676208496
 10
20.324918746948242
 20
6.338380813598633
 10
20.324918746948242
 20
6.3149919509887695
 10
20.34830665588379
 20
6.291603088378906
 10
20.34830665588379
 20
6.127881050109863
 10
20.324918746948242
 20
6.1044921875
 10
20.324918746948242
 20
5.847214698791504
 10
20.301528930664062
 20
5.823825836181641
 10
20.324918746948242
 20
5.800436973571777
 10
20.324918746948242
 20
5.660103797912598
 10
20.34830665588379
 20
5.636714935302734
 10
20.324918746948242
 20
5.613326072692871
 10
20.324918746948242
 20
5.332659721374512
 10
20.301528930664062
 20
5.309270858764648
 10
20.324918746948242
 20
5.285881996154785
 10
20.324918746948242
 20
4.256772518157959
 10
20.34830665588379
 20
4.233383655548096
 10
20.34830665588379
 20
4.069661617279053
 10
20.324918746948242
 20
4.0462727546691895
 10
20.324918746948242
 20
4.022883892059326
 10
20.34830665588379
 20
3.999494791030884
 10
20.34830665588379
 20
3.4849400520324707
 10
20.37169647216797
 20
3.4615511894226074
 10
20.34830665588379
 20
3.438162326812744
 10
20.34830665588379
 20
3.3679957389831543
 10
20.37169647216797
 20
3.344606876373291
 10
20.37169647216797
 20
3.3212180137634277
 10
20.34830665588379
 20
3.2978291511535645
 10
20.34830665588379
 20
3.274440288543701
 10
20.37169647216797
 20
3.251051425933838
 10
20.37169647216797
 20
2.7364964485168457
 10
20.395084381103516
 20
2.7131075859069824
 10
20.395084381103516
 20
2.689718723297119
 10
20.37169647216797
 20
2.666329860687256
 10
20.37169647216797
 20
2.6429409980773926
 10
20.395084381103516
 20
2.6195521354675293
 10
20.395084381103516
 20
2.362274646759033
 10
20.418474197387695
 20
2.33888578414917
 10
20.418474197387695
 20
2.3154969215393066
 10
20.395084381103516
 20
2.2921080589294434
 10
20.395084381103516
 20
2.26871919631958
 10
20.441862106323242
 20
2.2219417095184326
 10
20.62897300720215
 20
2.2219417095184326
 10
20.652362823486328
 20
2.245330333709717
 10
20.909639358520508
 20
2.245330333709717
 10
20.909639358520508
 20
2.26871919631958
 10
20.933029174804688
 20
2.2921080589294434
 10
20.933029174804688
 20
2.33888578414917
 10
20.956417083740234
 20
2.362274646759033
 10
20.956417083740234
 20
2.502607822418213
 10
20.979806900024414
 20
2.525996685028076
 10
20.979806900024414
 20
2.9703850746154785
 10
21.00319480895996
 20
2.993773937225342
 10
21.00319480895996
 20
3.742217540740967
 10
21.02658462524414
 20
3.765606164932251
 10
21.02658462524414
 20
4.116439342498779
 10
21.049972534179688
 20
4.139828205108643
 10
21.049972534179688
 20
4.186605930328369
 10
21.02658462524414
 20
4.209994792938232
 10
21.02658462524414
 20
4.233383655548096
 10
21.049972534179688
 20
4.256772518157959
 10
21.049972534179688
 20
4.4672722816467285
 10
21.02658462524414
 20
4.490660667419434
 10
21.049972534179688
 20
4.514049530029297
 10
21.049972534179688
 20
4.958437919616699
 10
21.02658462524414
 20
4.9818267822265625
 10
21.02658462524414
 20
5.005215644836426
 10
21.049972534179688
 20
5.028604507446289
 10
21.049972534179688
 20
5.098771095275879
 10
21.02658462524414
 20
5.122159957885742
 10
21.02658462524414
 20
5.285881996154785
 10
21.049972534179688
 20
5.309270858764648
 10
21.049972534179688
 20
5.332659721374512
 10
21.02658462524414
 20
5.356048583984375
 10
21.02658462524414
 20
5.613326072692871
 10
21.00319480895996
 20
5.636714935302734
 10
21.00319480895996
 20
5.800436973571777
 10
21.02658462524414
 20
5.823825836181641
 10
21.02658462524414
 20
6.361769676208496
 10
21.00319480895996
 20
6.385158538818359
 10
21.00319480895996
 20
6.548880577087402
 10
21.02658462524414
 20
6.572269439697266
 10
21.02658462524414
 20
6.595658302307129
 10
21.00319480895996
 20
6.619047164916992
 10
21.00319480895996
 20
6.782769203186035
 10
21.02658462524414
 20
6.806158065795898
 10
21.02658462524414
 20
6.876324653625488
 10
21.00319480895996
 20
6.899713516235352
 10
21.00319480895996
 20
7.040046691894531
 10
21.02658462524414
 20
7.0634355545043945
 10
21.02658462524414
 20
7.648156642913818
 10
21.00319480895996
 20
7.671545505523682
 10
21.00319480895996
 20
8.092545509338379
 10
21.02658462524414
 20
8.115934371948242
 10
21.02658462524414
 20
8.162712097167969
 10
21.00319480895996
 20
8.186100959777832
 10
21.00319480895996
 20
8.232878684997559
 10
21.02658462524414
 20
8.256267547607422
 10
21.02658462524414
 20
9.402320861816406
 10
21.049972534179688
 20
9.42570972442627
 10
21.049972534179688
 20
9.870098114013672
 10
21.02658462524414
 20
9.893486976623535
 10
21.02658462524414
 20
9.987042427062988
 10
20.933029174804688
 20
10.080597877502441
 10
20.933029174804688
 20
10.103986740112305
 10
20.909639358520508
 20
10.127375602722168
 10
20.909639358520508
 20
10.197542190551758
 10
20.88625144958496
 20
10.220931053161621
 10
20.88625144958496
 20
10.291097640991211
 10
20.86286163330078
 20
10.314486503601074
 10
20.86286163330078
 20
10.408041954040527
 10
20.88625144958496
 20
10.43143081665039
 10
20.909639358520508
 20
10.43143081665039
 10
20.956417083740234
 20
10.478208541870117
 10
21.00319480895996
 20
10.478208541870117
 10
21.073362350463867
 20
10.548375129699707
 10
21.073362350463867
 20
10.57176399230957
 10
21.096750259399414
 20
10.595152854919434
 10
21.096750259399414
 20
10.78226375579834
 10
21.120140075683594
 20
10.805652618408203
 10
21.120140075683594
 20
10.92259693145752
 10
21.14352798461914
 20
10.945985794067383
 10
21.14352798461914
 20
11.483929634094238
 10
21.16691780090332
 20
11.507318496704102
 10
21.16691780090332
 20
11.694429397583008
 10
21.190305709838867
 20
11.717818260192871
 10
21.190305709838867
 20
11.881540298461914
 10
21.213695526123047
 20
11.904929161071777
 10
21.213695526123047
 20
11.951706886291504
 10
21.237083435058594
 20
11.975095748901367
 10
21.237083435058594
 20
12.092040061950684
 10
21.260473251342773
 20
12.115428924560547
 10
21.260473251342773
 20
12.208984375
 10
21.28386116027832
 20
12.232373237609863
 10
21.28386116027832
 20
12.27915096282959
 10
21.3072509765625
 20
12.302539825439453
 10
21.3072509765625
 20
12.41948413848877
 10
21.330638885498047
 20
12.442873001098633
 10
21.330638885498047
 20
12.55981731414795
 10
21.354028701782227
 20
12.583206176757812
 10
21.354028701782227
 20
12.676761627197266
 10
21.377416610717773
 20
12.700150489807129
 10
21.377416610717773
 20
12.723539352416992
 10
21.400806427001953
 20
12.746928215026855
 10
21.400806427001953
 20
12.863872528076172
 10
21.4241943359375
 20
12.887261390686035
 10
21.4241943359375
 20
13.050983428955078
 10
21.44758415222168
 20
13.074372291564941
 10
21.44758415222168
 20
13.284872055053711
 10
21.470972061157227
 20
13.308260917663574
 10
21.470972061157227
 20
13.542149543762207
 10
21.494361877441406
 20
13.56553840637207
 10
21.494361877441406
 20
14.126871109008789
 10
21.470972061157227
 20
14.150259971618652
 10
21.470972061157227
 20
14.267204284667969
 10
21.44758415222168
 20
14.290593147277832
 10
21.44758415222168
 20
14.384148597717285
 10
21.4241943359375
 20
14.407537460327148
 10
21.4241943359375
 20
14.454315185546875
 10
21.400806427001953
 20
14.477704048156738
 10
21.400806427001953
 20
14.547870635986328
 10
21.377416610717773
 20
14.571259498596191
 10
21.377416610717773
 20
14.618037223815918
 10
21.354028701782227
 20
14.641426086425781
 10
21.354028701782227
 20
14.688203811645508
 10
21.330638885498047
 20
14.711592674255371
 10
21.330638885498047
 20
14.734981536865234
 10
21.3072509765625
 20
14.758370399475098
 10
21.3072509765625
 20
14.781759262084961
 10
21.28386116027832
 20
14.805148124694824
 10
21.28386116027832
 20
14.85192584991455
 10
21.237083435058594
 20
14.898703575134277
 10
21.237083435058594
 20
14.945481300354004
 10
21.16691780090332
 20
15.015646934509277
 10
21.14352798461914
 20
15.015646934509277
 10
21.120140075683594
 20
15.03903579711914
 10
21.120140075683594
 20
15.062424659729004
 10
21.049972534179688
 20
15.132591247558594
 10
20.979806900024414
 20
15.132591247558594
 10
20.956417083740234
 20
15.155980110168457
 10
20.74591827392578
 20
15.155980110168457
 10
20.7225284576416
 20
15.17936897277832
 10
20.699140548706055
 20
15.17936897277832
  0
ENDSEC
  0
SECTION
  2
OBJECTS
  0
DICTIONARY
  5
A
330
0
100
AcDbDictionary
281
1
  3
ACAD_COLOR
350
B
  3
ACAD_GROUP
350
C
  3
ACAD_LAYOUT
350
D
  3
ACAD_MATERIAL
350
E
  3
ACAD_MLEADERSTYLE
350
F
  3
ACAD_MLINESTYLE
350
10
  3
ACAD_PLOTSETTINGS
350
11
  3
ACAD_PLOTSTYLENAME
350
12
  3
ACAD_SCALELIST
350
14
  3
ACAD_TABLESTYLE
350
15
  3
ACAD_VISUALSTYLE
350
16
  3
EZDXF_META
350
2D
  0
DICTIONARY
  5
B
330
A
100
AcDbDictionary
281
1
  0
DICTIONARY
  5
C
330
A
100
AcDbDictionary
281
1
  0
DICTIONARY
  5
D
330
A
100
AcDbDictionary
281
1
  3
Model
350
1A
  3
Layout1
350
1E
  0
DICTIONARY
  5
E
330
A
100
AcDbDictionary
281
1
  3
ByBlock
350
1F
  3
ByLayer
350
20
  3
Global
350
21
  0
DICTIONARY
  5
F
330
A
100
AcDbDictionary
281
1
  3
Standard
350
2C
  0
DICTIONARY
  5
10
330
A
100
AcDbDictionary
281
1
  3
Standard
350
22
  0
DICTIONARY
  5
11
330
A
100
AcDbDictionary
281
1
  0
ACDBDICTIONARYWDFLT
  5
12
330
A
100
AcDbDictionary
281
1
  3
Normal
350
13
100
AcDbDictionaryWithDefault
340
13
  0
ACDBPLACEHOLDER
  5
13
330
12
  0
DICTIONARY
  5
14
330
A
100
AcDbDictionary
281
1
  0
DICTIONARY
  5
15
330
A
100
AcDbDictionary
281
1
  0
DICTIONARY
  5
16
330
A
100
AcDbDictionary
281
1
  0
LAYOUT
  5
1A
330
D
100
AcDbPlotSettings
  1

  4
A3
  6

 40
7.5
 41
20.0
 42
7.5
 43
20.0
 44
420.0
 45
297.0
 46
0.0
 47
0.0
 48
0.0
 49
0.0
140
0.0
141
0.0
142
1.0
143
1.0
 70
1024
 72
1
 73
0
 74
5
  7

 75
16
 76
0
 77
2
 78
300
147
1.0
148
0.0
149
0.0
100
AcDbLayout
  1
Model
 70
1
 71
0
 10
0.0
 20
0.0
 11
420.0
 21
297.0
 12
0.0
 22
0.0
 32
0.0
 14
1e+20
 24
1e+20
 34
1e+20
 15
-1e+20
 25
-1e+20
 35
-1e+20
146
0.0
 13
0.0
 23
0.0
 33
0.0
 16
1.0
 26
0.0
 36
0.0
 17
0.0
 27
1.0
 37
0.0
 76
1
330
17
  0
LAYOUT
  5
1E
330
D
100
AcDbPlotSettings
  1

  4
A3
  6

 40
7.5
 41
20.0
 42
7.5
 43
20.0
 44
420.0
 45
297.0
 46
0.0
 47
0.0
 48
0.0
 49
0.0
140
0.0
141
0.0
142
1.0
143
1.0
 70
0
 72
1
 73
0
 74
5
  7

 75
16
 76
0
 77
2
 78
300
147
1.0
148
0.0
149
0.0
100
AcDbLayout
  1
Layout1
 70
1
 71
1
 10
0.0
 20
0.0
 11
420.0
 21
297.0
 12
0.0
 22
0.0
 32
0.0
 14
1e+20
 24
1e+20
 34
1e+20
 15
-1e+20
 25
-1e+20
 35
-1e+20
146
0.0
 13
0.0
 23
0.0
 33
0.0
 16
1.0
 26
0.0
 36
0.0
 17
0.0
 27
1.0
 37
0.0
 76
1
330
1B
  0
MATERIAL
  5
1F
102
{ACAD_REACTORS
330
E
102
}
330
E
100
AcDbMaterial
  1
ByBlock
  2

 70
0
 40
1.0
 71
1
 41
1.0
 91
-1023410177
 42
1.0
 72
1
  3

 73
1
 74
1
 75
1
 44
0.5
 73
0
 45
1.0
 46
1.0
 77
1
  4

 78
1
 79
1
170
1
 48
1.0
171
1
  6

172
1
173
1
174
1
140
1.0
141
1.0
175
1
  7

176
1
177
1
178
1
143
1.0
179
1
  8

270
1
271
1
272
1
145
1.0
146
1.0
273
1
  9

274
1
275
1
276
1
 42
1.0
 72
1
  3

 73
1
 74
1
 75
1
 94
63
  0
MATERIAL
  5
20
102
{ACAD_REACTORS
330
E
102
}
330
E
100
AcDbMaterial
  1
ByLayer
  2

 70
0
 40
1.0
 71
1
 41
1.0
 91
-1023410177
 42
1.0
 72
1
  3

 73
1
 74
1
 75
1
 44
0.5
 73
0
 45
1.0
 46
1.0
 77
1
  4

 78
1
 79
1
170
1
 48
1.0
171
1
  6

172
1
173
1
174
1
140
1.0
141
1.0
175
1
  7

176
1
177
1
178
1
143
1.0
179
1
  8

270
1
271
1
272
1
145
1.0
146
1.0
273
1
  9

274
1
275
1
276
1
 42
1.0
 72
1
  3

 73
1
 74
1
 75
1
 94
63
  0
MATERIAL
  5
21
102
{ACAD_REACTORS
330
E
102
}
330
E
100
AcDbMaterial
  1
Global
  2

 70
0
 40
1.0
 71
1
 41
1.0
 91
-1023410177
 42
1.0
 72
1
  3

 73
1
 74
1
 75
1
 44
0.5
 73
0
 45
1.0
 46
1.0
 77
1
  4

 78
1
 79
1
170
1
 48
1.0
171
1
  6

172
1
173
1
174
1
140
1.0
141
1.0
175
1
  7

176
1
177
1
178
1
143
1.0
179
1
  8

270
1
271
1
272
1
145
1.0
146
1.0
273
1
  9

274
1
275
1
276
1
 42
1.0
 72
1
  3

 73
1
 74
1
 75
1
 94
63
  0
MLINESTYLE
  5
22
102
{ACAD_REACTORS
330
10
102
}
330
10
100
AcDbMlineStyle
  2
Standard
 70
0
  3

 62
256
 51
90.0
 52
90.0
 71
2
 49
0.5
 62
256
  6
BYLAYER
 49
-0.5
 62
256
  6
BYLAYER
  0
MLEADERSTYLE
  5
2C
102
{ACAD_REACTORS
330
F
102
}
330
F
100
AcDbMLeaderStyle
179
2
170
2
171
1
172
0
 90
2
 40
0.0
 41
0.0
173
1
 91
-1056964608
 92
-2
290
1
 42
2.0
291
1
 43
8.0
  3
Standard
 44
4.0
300

342
29
174
1
175
1
176
0
178
1
 93
-1056964608
 45
4.0
292
0
297
0
 46
4.0
 94
-1056964608
 47
1.0
 49
1.0
140
1.0
294
1
141
0.0
177
0
142
1.0
295
0
296
0
143
3.75
271
0
272
9
273
9
  0
DICTIONARY
  5
2D
330
A
100
AcDbDictionary
280
1
281
1
  3
CREATED_BY_EZDXF
350
2E
  3
WRITTEN_BY_EZDXF
350
43
  0
DICTIONARYVAR
  5
2E
330
2D
100
DictionaryVariables
280
0
  1
1.4.3 @ 2026-04-08T21:58:58.329774+00:00
  0
DICTIONARYVAR
  5
43
330
2D
100
DictionaryVariables
280
0
  1
1.4.3 @ 2026-04-08T21:58:58.337013+00:00
  0
ENDSEC
  0
EOF
