  0
SECTION
  2
HEADER
  9
$ACADVER
  1
AC1009
  0
ENDSEC
  0
SECTION
  2
TABLES
  0
TABLE
  2
LAYER
  70
2
  0
LAYER
  2
Layer_3
  70
0
  62
3
  6
CONTINUOUS
  0
LAYER
  2
Layer_0
  70
0
  62
7
  6
CONTINUOUS
  0
ENDTAB
  0
ENDSEC
  0
SECTION
  2
ENTITIES
  0
POLYLINE
  5
90
  8
Layer_3
  62
3
  70
1
  66
1
  10
0
  20
0
  30
0
  0
VERTEX
  5
90
  8
Layer_3
  10
65.834229
  20
833.96591
  0
VERTEX
  5
91
  8
Layer_3
  10
624.63422
  20
833.96591
  0
VERTEX
  5
92
  8
Layer_3
  10
624.63422
  20
469.93054
  0
VERTEX
  5
93
  8
Layer_3
  10
65.834229
  20
469.93054
  0
SEQEND
  0
POLYLINE
  5
95
  8
Layer_0
  62
7
  70
1
  66
1
  10
0
  20
0
  30
0
  0
VERTEX
  5
95
  8
Layer_0
  10
317.1647
  20
820.7608
  0
VERTEX
  5
96
  8
Layer_0
  10
307.20633
  20
820.44408
  0
VERTEX
  5
97
  8
Layer_0
  10
301.75317
  20
819.49897
  0
VERTEX
  5
98
  8
Layer_0
  10
297.36072
  20
818.33846
  0
VERTEX
  5
99
  8
Layer_0
  10
276.75894
  20
817.93537
  0
VERTEX
  5
9a
  8
Layer_0
  10
221.14682
  20
817.92343
  0
VERTEX
  5
9b
  8
Layer_0
  10
195.53232
  20
817.57265
  0
VERTEX
  5
9c
  8
Layer_0
  10
188.43839
  20
816.95992
  0
VERTEX
  5
9d
  8
Layer_0
  10
182.84439
  20
815.16613
  0
VERTEX
  5
9e
  8
Layer_0
  10
179.0813
  20
812.17361
  0
VERTEX
  5
9f
  8
Layer_0
  10
177.26569
  20
809.14185
  0
VERTEX
  5
a0
  8
Layer_0
  10
176.37027
  20
804.35728
  0
VERTEX
  5
a1
  8
Layer_0
  10
176.50653
  20
743.11794
  0
VERTEX
  5
a2
  8
Layer_0
  10
177.00247
  20
739.4106
  0
VERTEX
  5
a3
  8
Layer_0
  10
179.18219
  20
736.68365
  0
VERTEX
  5
a4
  8
Layer_0
  10
186.97513
  20
732.38707
  0
VERTEX
  5
a5
  8
Layer_0
  10
195.17796
  20
730.22832
  0
VERTEX
  5
a6
  8
Layer_0
  10
205.1532
  20
729.96489
  0
VERTEX
  5
a7
  8
Layer_0
  10
210.66405
  20
730.58264
  0
VERTEX
  5
a8
  8
Layer_0
  10
215.4268
  20
731.49854
  0
VERTEX
  5
a9
  8
Layer_0
  10
239.7583
  20
730.612
  0
VERTEX
  5
aa
  8
Layer_0
  10
252.8643
  20
730.9304
  0
VERTEX
  5
ab
  8
Layer_0
  10
257.10291
  20
731.31158
  0
VERTEX
  5
ac
  8
Layer_0
  10
259.89758
  20
730.32747
  0
VERTEX
  5
ad
  8
Layer_0
  10
263.039
  20
728.64563
  0
VERTEX
  5
ae
  8
Layer_0
  10
267.73489
  20
728.31529
  0
VERTEX
  5
af
  8
Layer_0
  10
323.96167
  20
729.00429
  0
VERTEX
  5
b0
  8
Layer_0
  10
370.83185
  20
729.25417
  0
VERTEX
  5
b1
  8
Layer_0
  10
376.81213
  20
729.67438
  0
VERTEX
  5
b2
  8
Layer_0
  10
378.44559
  20
730.96352
  0
VERTEX
  5
b3
  8
Layer_0
  10
381.38763
  20
731.52298
  0
VERTEX
  5
b4
  8
Layer_0
  10
399.4845
  20
730.84167
  0
VERTEX
  5
b5
  8
Layer_0
  10
415.71802
  20
731.14679
  0
VERTEX
  5
b6
  8
Layer_0
  10
423.14447
  20
731.37538
  0
VERTEX
  5
b7
  8
Layer_0
  10
428.53546
  20
729.12735
  0
VERTEX
  5
b8
  8
Layer_0
  10
435.92175
  20
728.3241
  0
VERTEX
  5
b9
  8
Layer_0
  10
445.1962
  20
729.18755
  0
VERTEX
  5
ba
  8
Layer_0
  10
451.62543
  20
731.00513
  0
VERTEX
  5
bb
  8
Layer_0
  10
454.61627
  20
732.99742
  0
VERTEX
  5
bc
  8
Layer_0
  10
458.8681
  20
738.02487
  0
VERTEX
  5
bd
  8
Layer_0
  10
459.69113
  20
741.23749
  0
VERTEX
  5
be
  8
Layer_0
  10
459.95706
  20
746.2195
  0
VERTEX
  5
bf
  8
Layer_0
  10
459.61453
  20
801.53559
  0
VERTEX
  5
c0
  8
Layer_0
  10
458.83398
  20
807.00131
  0
VERTEX
  5
c1
  8
Layer_0
  10
456.76309
  20
810.66596
  0
VERTEX
  5
c2
  8
Layer_0
  10
453.57327
  20
813.48888
  0
VERTEX
  5
c3
  8
Layer_0
  10
449.27054
  20
815.63846
  0
VERTEX
  5
c4
  8
Layer_0
  10
442.50555
  20
816.35803
  0
VERTEX
  5
c5
  8
Layer_0
  10
400.02219
  20
817.19958
  0
VERTEX
  5
c6
  8
Layer_0
  10
344.42062
  20
817.81174
  0
VERTEX
  5
c7
  8
Layer_0
  10
338.26785
  20
818.32466
  0
VERTEX
  5
c8
  8
Layer_0
  10
331.8829
  20
820.1375
  0
VERTEX
  5
c9
  8
Layer_0
  10
317.57861
  20
820.72202
  0
SEQEND
  0
POLYLINE
  5
cb
  8
Layer_0
  62
7
  70
1
  66
1
  10
0
  20
0
  30
0
  0
VERTEX
  5
cb
  8
Layer_0
  10
117.58595
  20
825.99075
  0
VERTEX
  5
cc
  8
Layer_0
  10
106.38449
  20
825.66722
  0
VERTEX
  5
cd
  8
Layer_0
  10
100.06721
  20
823.68513
  0
VERTEX
  5
ce
  8
Layer_0
  10
95.234039
  20
820.0231
  0
VERTEX
  5
cf
  8
Layer_0
  10
91.295799
  20
815.33796
  0
VERTEX
  5
d0
  8
Layer_0
  10
88.826492
  20
808.03901
  0
VERTEX
  5
d1
  8
Layer_0
  10
88.056938
  20
804.00378
  0
VERTEX
  5
d2
  8
Layer_0
  10
86.388153
  20
800.58041
  0
VERTEX
  5
d3
  8
Layer_0
  10
84.899788
  20
752.66949
  0
VERTEX
  5
d4
  8
Layer_0
  10
85.544632
  20
739.50473
  0
VERTEX
  5
d5
  8
Layer_0
  10
86.887146
  20
735.30356
  0
VERTEX
  5
d6
  8
Layer_0
  10
87.423706
  20
727.20363
  0
VERTEX
  5
d7
  8
Layer_0
  10
87.657753
  20
710.41214
  0
VERTEX
  5
d8
  8
Layer_0
  10
88.993668
  20
707.80595
  0
VERTEX
  5
d9
  8
Layer_0
  10
92.006409
  20
705.84624
  0
VERTEX
  5
da
  8
Layer_0
  10
97.488419
  20
704.98477
  0
VERTEX
  5
db
  8
Layer_0
  10
100.98019
  20
705.71136
  0
VERTEX
  5
dc
  8
Layer_0
  10
104.00337
  20
707.03154
  0
VERTEX
  5
dd
  8
Layer_0
  10
111.25478
  20
706.65178
  0
VERTEX
  5
de
  8
Layer_0
  10
115.97813
  20
706.7114
  0
VERTEX
  5
df
  8
Layer_0
  10
121.94616
  20
703.92926
  0
VERTEX
  5
e0
  8
Layer_0
  10
129.78741
  20
702.85347
  0
VERTEX
  5
e1
  8
Layer_0
  10
132.29622
  20
704.12109
  0
VERTEX
  5
e2
  8
Layer_0
  10
133.39388
  20
707.38657
  0
VERTEX
  5
e3
  8
Layer_0
  10
133.66882
  20
734.17242
  0
VERTEX
  5
e4
  8
Layer_0
  10
134.90207
  20
740.67593
  0
VERTEX
  5
e5
  8
Layer_0
  10
134.93738
  20
778.75532
  0
VERTEX
  5
e6
  8
Layer_0
  10
134.17213
  20
784.61917
  0
VERTEX
  5
e7
  8
Layer_0
  10
135.30499
  20
786.07298
  0
VERTEX
  5
e8
  8
Layer_0
  10
139.42607
  20
786.65277
  0
VERTEX
  5
e9
  8
Layer_0
  10
156.87755
  20
786.64279
  0
VERTEX
  5
ea
  8
Layer_0
  10
159.42712
  20
788.00517
  0
VERTEX
  5
eb
  8
Layer_0
  10
160.32327
  20
790.69865
  0
VERTEX
  5
ec
  8
Layer_0
  10
158.70901
  20
795.07845
  0
VERTEX
  5
ed
  8
Layer_0
  10
155.60281
  20
800.07362
  0
VERTEX
  5
ee
  8
Layer_0
  10
152.70209
  20
805.12685
  0
VERTEX
  5
ef
  8
Layer_0
  10
150.59204
  20
808.55243
  0
VERTEX
  5
f0
  8
Layer_0
  10
148.69519
  20
812.81186
  0
VERTEX
  5
f1
  8
Layer_0
  10
145.91531
  20
814.96109
  0
VERTEX
  5
f2
  8
Layer_0
  10
143.1801
  20
816.93145
  0
VERTEX
  5
f3
  8
Layer_0
  10
141.00316
  20
822.39089
  0
VERTEX
  5
f4
  8
Layer_0
  10
138.37782
  20
824.71747
  0
VERTEX
  5
f5
  8
Layer_0
  10
132.36618
  20
825.73599
  0
VERTEX
  5
f6
  8
Layer_0
  10
118.00543
  20
825.97392
  0
SEQEND
  0
POLYLINE
  5
f8
  8
Layer_0
  62
7
  70
1
  66
1
  10
0
  20
0
  30
0
  0
VERTEX
  5
f8
  8
Layer_0
  10
142.22598
  20
531.61926
  0
VERTEX
  5
f9
  8
Layer_0
  10
131.90979
  20
531.14212
  0
VERTEX
  5
fa
  8
Layer_0
  10
127.28492
  20
530.39169
  0
VERTEX
  5
fb
  8
Layer_0
  10
119.42817
  20
531.48352
  0
VERTEX
  5
fc
  8
Layer_0
  10
108.91718
  20
530.6958
  0
VERTEX
  5
fd
  8
Layer_0
  10
105.28128
  20
529.03439
  0
VERTEX
  5
fe
  8
Layer_0
  10
104.03984
  20
526.74451
  0
VERTEX
  5
ff
  8
Layer_0
  10
103.03901
  20
502.57312
  0
VERTEX
  5
100
  8
Layer_0
  10
101.80681
  20
500.99051
  0
VERTEX
  5
101
  8
Layer_0
  10
88.319336
  20
500.4595
  0
VERTEX
  5
102
  8
Layer_0
  10
80.314926
  20
499.82779
  0
VERTEX
  5
103
  8
Layer_0
  10
78.263199
  20
498.05826
  0
VERTEX
  5
104
  8
Layer_0
  10
77.940567
  20
495.19568
  0
VERTEX
  5
105
  8
Layer_0
  10
79.439758
  20
492.87579
  0
VERTEX
  5
106
  8
Layer_0
  10
82.809479
  20
492.09668
  0
VERTEX
  5
107
  8
Layer_0
  10
97.690582
  20
491.98096
  0
VERTEX
  5
108
  8
Layer_0
  10
142.99815
  20
491.97485
  0
VERTEX
  5
109
  8
Layer_0
  10
151.07675
  20
491.81058
  0
VERTEX
  5
10a
  8
Layer_0
  10
164.69925
  20
492.117
  0
VERTEX
  5
10b
  8
Layer_0
  10
198.72789
  20
492.13519
  0
VERTEX
  5
10c
  8
Layer_0
  10
223.34662
  20
491.63214
  0
VERTEX
  5
10d
  8
Layer_0
  10
289.20703
  20
491.79935
  0
VERTEX
  5
10e
  8
Layer_0
  10
290.69772
  20
493.14914
  0
VERTEX
  5
10f
  8
Layer_0
  10
291.5683
  20
496.32321
  0
VERTEX
  5
110
  8
Layer_0
  10
290.76572
  20
499.11224
  0
VERTEX
  5
111
  8
Layer_0
  10
287.87183
  20
502.00516
  0
VERTEX
  5
112
  8
Layer_0
  10
286.68134
  20
514.57037
  0
VERTEX
  5
113
  8
Layer_0
  10
284.9111
  20
523.90744
  0
VERTEX
  5
114
  8
Layer_0
  10
282.87573
  20
525.83694
  0
VERTEX
  5
115
  8
Layer_0
  10
278.71793
  20
526.55066
  0
VERTEX
  5
116
  8
Layer_0
  10
275.31363
  20
525.47031
  0
VERTEX
  5
117
  8
Layer_0
  10
273.50723
  20
523.17889
  0
VERTEX
  5
118
  8
Layer_0
  10
272.14896
  20
517.80301
  0
VERTEX
  5
119
  8
Layer_0
  10
271.17609
  20
518.27829
  0
VERTEX
  5
11a
  8
Layer_0
  10
269.56546
  20
523.91907
  0
VERTEX
  5
11b
  8
Layer_0
  10
266.87827
  20
526.06274
  0
VERTEX
  5
11c
  8
Layer_0
  10
262.703
  20
526.54956
  0
VERTEX
  5
11d
  8
Layer_0
  10
257.30551
  20
526.39694
  0
VERTEX
  5
11e
  8
Layer_0
  10
250.58035
  20
527.04242
  0
VERTEX
  5
11f
  8
Layer_0
  10
244.51648
  20
526.78616
  0
VERTEX
  5
120
  8
Layer_0
  10
238.34604
  20
526.9165
  0
VERTEX
  5
121
  8
Layer_0
  10
232.21382
  20
526.76678
  0
VERTEX
  5
122
  8
Layer_0
  10
223.11029
  20
527.43005
  0
VERTEX
  5
123
  8
Layer_0
  10
218.25479
  20
529.4902
  0
VERTEX
  5
124
  8
Layer_0
  10
209.57365
  20
529.72415
  0
VERTEX
  5
125
  8
Layer_0
  10
204.74533
  20
529.53842
  0
VERTEX
  5
126
  8
Layer_0
  10
198.20108
  20
530.93774
  0
VERTEX
  5
127
  8
Layer_0
  10
192.06326
  20
530.55948
  0
VERTEX
  5
128
  8
Layer_0
  10
187.49278
  20
529.69122
  0
VERTEX
  5
129
  8
Layer_0
  10
179.62068
  20
530.79062
  0
VERTEX
  5
12a
  8
Layer_0
  10
173.14833
  20
530.18707
  0
VERTEX
  5
12b
  8
Layer_0
  10
168.48857
  20
529.80627
  0
VERTEX
  5
12c
  8
Layer_0
  10
160.53973
  20
530.79446
  0
VERTEX
  5
12d
  8
Layer_0
  10
149.44928
  20
530.37878
  0
VERTEX
  5
12e
  8
Layer_0
  10
142.84824
  20
531.5849
  0
SEQEND
  0
POLYLINE
  5
130
  8
Layer_0
  62
7
  70
1
  66
1
  10
0
  20
0
  30
0
  0
VERTEX
  5
130
  8
Layer_0
  10
118.16702
  20
609.21478
  0
VERTEX
  5
131
  8
Layer_0
  10
112.66589
  20
609.32654
  0
VERTEX
  5
132
  8
Layer_0
  10
104.89751
  20
607.74045
  0
VERTEX
  5
133
  8
Layer_0
  10
102.80141
  20
605.81152
  0
VERTEX
  5
134
  8
Layer_0
  10
101.69896
  20
601.70901
  0
VERTEX
  5
135
  8
Layer_0
  10
101.06195
  20
594.99637
  0
VERTEX
  5
136
  8
Layer_0
  10
97.393188
  20
588.28677
  0
VERTEX
  5
137
  8
Layer_0
  10
94.993462
  20
571.86526
  0
VERTEX
  5
138
  8
Layer_0
  10
93.286469
  20
554.83728
  0
VERTEX
  5
139
  8
Layer_0
  10
91.671921
  20
553.71701
  0
VERTEX
  5
13a
  8
Layer_0
  10
82.514267
  20
552.62323
  0
VERTEX
  5
13b
  8
Layer_0
  10
80.725777
  20
551.30347
  0
VERTEX
  5
13c
  8
Layer_0
  10
80.375305
  20
549.20325
  0
VERTEX
  5
13d
  8
Layer_0
  10
82.182594
  20
546.12799
  0
VERTEX
  5
13e
  8
Layer_0
  10
84.653519
  20
544.80295
  0
VERTEX
  5
13f
  8
Layer_0
  10
98.210121
  20
545.159
  0
VERTEX
  5
140
  8
Layer_0
  10
105.51008
  20
545.72339
  0
VERTEX
  5
141
  8
Layer_0
  10
126.05464
  20
545.35587
  0
VERTEX
  5
142
  8
Layer_0
  10
171.81023
  20
546.08893
  0
VERTEX
  5
143
  8
Layer_0
  10
196.96454
  20
546.24701
  0
VERTEX
  5
144
  8
Layer_0
  10
215.57994
  20
546.37091
  0
VERTEX
  5
145
  8
Layer_0
  10
256.11243
  20
547.53082
  0
VERTEX
  5
146
  8
Layer_0
  10
300.17004
  20
546.8718
  0
VERTEX
  5
147
  8
Layer_0
  10
320.75568
  20
546.50986
  0
VERTEX
  5
148
  8
Layer_0
  10
331.88388
  20
546.25858
  0
VERTEX
  5
149
  8
Layer_0
  10
335.0351
  20
547.8956
  0
VERTEX
  5
14a
  8
Layer_0
  10
336.27908
  20
550.48157
  0
VERTEX
  5
14b
  8
Layer_0
  10
335.55045
  20
553.28378
  0
VERTEX
  5
14c
  8
Layer_0
  10
333.47949
  20
555.01862
  0
VERTEX
  5
14d
  8
Layer_0
  10
329.50775
  20
555.27548
  0
VERTEX
  5
14e
  8
Layer_0
  10
325.28339
  20
555.47559
  0
VERTEX
  5
14f
  8
Layer_0
  10
321.65109
  20
557.71164
  0
VERTEX
  5
150
  8
Layer_0
  10
319.94009
  20
560.85675
  0
VERTEX
  5
151
  8
Layer_0
  10
319.32541
  20
570.06934
  0
VERTEX
  5
152
  8
Layer_0
  10
317.91586
  20
577.87994
  0
VERTEX
  5
153
  8
Layer_0
  10
317.00327
  20
582.02655
  0
VERTEX
  5
154
  8
Layer_0
  10
314.42484
  20
586.57587
  0
VERTEX
  5
155
  8
Layer_0
  10
312.32889
  20
600.5639
  0
VERTEX
  5
156
  8
Layer_0
  10
310.32086
  20
602.54193
  0
VERTEX
  5
157
  8
Layer_0
  10
307.49261
  20
602.68109
  0
VERTEX
  5
158
  8
Layer_0
  10
305.14246
  20
601.01086
  0
VERTEX
  5
159
  8
Layer_0
  10
303.97189
  20
596.97647
  0
VERTEX
  5
15a
  8
Layer_0
  10
302.53711
  20
586.57468
  0
VERTEX
  5
15b
  8
Layer_0
  10
299.77905
  20
580.66989
  0
VERTEX
  5
15c
  8
Layer_0
  10
298.67804
  20
572.16406
  0
VERTEX
  5
15d
  8
Layer_0
  10
297.56451
  20
566.89838
  0
VERTEX
  5
15e
  8
Layer_0
  10
297.01965
  20
557.78653
  0
VERTEX
  5
15f
  8
Layer_0
  10
296.504
  20
557.36725
  0
VERTEX
  5
160
  8
Layer_0
  10
295.86145
  20
560.15848
  0
VERTEX
  5
161
  8
Layer_0
  10
294.85977
  20
570.56342
  0
VERTEX
  5
162
  8
Layer_0
  10
292.30969
  20
581.78812
  0
VERTEX
  5
163
  8
Layer_0
  10
289.98105
  20
586.61578
  0
VERTEX
  5
164
  8
Layer_0
  10
288.61261
  20
600.1554
  0
VERTEX
  5
165
  8
Layer_0
  10
286.8389
  20
602.51755
  0
VERTEX
  5
166
  8
Layer_0
  10
284.08362
  20
603.66663
  0
VERTEX
  5
167
  8
Layer_0
  10
280.64777
  20
602.99164
  0
VERTEX
  5
168
  8
Layer_0
  10
278.76816
  20
600.92102
  0
VERTEX
  5
169
  8
Layer_0
  10
278.02106
  20
591.11328
  0
VERTEX
  5
16a
  8
Layer_0
  10
277.33582
  20
585.67557
  0
VERTEX
  5
16b
  8
Layer_0
  10
275.54541
  20
583.45587
  0
VERTEX
  5
16c
  8
Layer_0
  10
273.69275
  20
583.29941
  0
VERTEX
  5
16d
  8
Layer_0
  10
272.09167
  20
585.42322
  0
VERTEX
  5
16e
  8
Layer_0
  10
270.95853
  20
599.55212
  0
VERTEX
  5
16f
  8
Layer_0
  10
269.38412
  20
602.60846
  0
VERTEX
  5
170
  8
Layer_0
  10
266.33124
  20
604.1955
  0
VERTEX
  5
171
  8
Layer_0
  10
262.82248
  20
603.88773
  0
VERTEX
  5
172
  8
Layer_0
  10
260.62259
  20
601.96802
  0
VERTEX
  5
173
  8
Layer_0
  10
259.58105
  20
597.22662
  0
VERTEX
  5
174
  8
Layer_0
  10
258.91327
  20
586.70013
  0
VERTEX
  5
175
  8
Layer_0
  10
257.38315
  20
584.48346
  0
VERTEX
  5
176
  8
Layer_0
  10
255.5923
  20
584.55185
  0
VERTEX
  5
177
  8
Layer_0
  10
254.49251
  20
586.97202
  0
VERTEX
  5
178
  8
Layer_0
  10
254.68816
  20
598.77786
  0
VERTEX
  5
179
  8
Layer_0
  10
253.3118
  20
602.03195
  0
VERTEX
  5
17a
  8
Layer_0
  10
250.27335
  20
603.78583
  0
VERTEX
  5
17b
  8
Layer_0
  10
246.02446
  20
603.80371
  0
VERTEX
  5
17c
  8
Layer_0
  10
243.65675
  20
602.24075
  0
VERTEX
  5
17d
  8
Layer_0
  10
241.99907
  20
597.0983
  0
VERTEX
  5
17e
  8
Layer_0
  10
240.38445
  20
587.40198
  0
VERTEX
  5
17f
  8
Layer_0
  10
236.68132
  20
580.44077
  0
VERTEX
  5
180
  8
Layer_0
  10
235.53989
  20
577.5654
  0
VERTEX
  5
181
  8
Layer_0
  10
232.28743
  20
585.52847
  0
VERTEX
  5
182
  8
Layer_0
  10
231.77826
  20
598.56226
  0
VERTEX
  5
183
  8
Layer_0
  10
230.1447
  20
601.66663
  0
VERTEX
  5
184
  8
Layer_0
  10
227.13437
  20
603.56055
  0
VERTEX
  5
185
  8
Layer_0
  10
222.25426
  20
603.99832
  0
VERTEX
  5
186
  8
Layer_0
  10
219.03696
  20
602.63809
  0
VERTEX
  5
187
  8
Layer_0
  10
217.47635
  20
600.19373
  0
VERTEX
  5
188
  8
Layer_0
  10
216.73952
  20
586.57184
  0
VERTEX
  5
189
  8
Layer_0
  10
215.11459
  20
583.69559
  0
VERTEX
  5
18a
  8
Layer_0
  10
213.27641
  20
580.86749
  0
VERTEX
  5
18b
  8
Layer_0
  10
212.29068
  20
573.56226
  0
VERTEX
  5
18c
  8
Layer_0
  10
211.50256
  20
557.00305
  0
VERTEX
  5
18d
  8
Layer_0
  10
210.60944
  20
556.2085
  0
VERTEX
  5
18e
  8
Layer_0
  10
209.47615
  20
557.18735
  0
VERTEX
  5
18f
  8
Layer_0
  10
208.59659
  20
579.28909
  0
VERTEX
  5
190
  8
Layer_0
  10
206.6116
  20
584.92123
  0
VERTEX
  5
191
  8
Layer_0
  10
205.74817
  20
599.82401
  0
VERTEX
  5
192
  8
Layer_0
  10
204.31155
  20
601.77859
  0
VERTEX
  5
193
  8
Layer_0
  10
198.89616
  20
603.70251
  0
VERTEX
  5
194
  8
Layer_0
  10
194.01294
  20
603.38339
  0
VERTEX
  5
195
  8
Layer_0
  10
191.68094
  20
601.7402
  0
VERTEX
  5
196
  8
Layer_0
  10
190.77771
  20
598.28357
  0
VERTEX
  5
197
  8
Layer_0
  10
189.81067
  20
585.97803
  0
VERTEX
  5
198
  8
Layer_0
  10
186.45197
  20
580.74469
  0
VERTEX
  5
199
  8
Layer_0
  10
185.5183
  20
576.09909
  0
VERTEX
  5
19a
  8
Layer_0
  10
184.46199
  20
587.42667
  0
VERTEX
  5
19b
  8
Layer_0
  10
181.35577
  20
593.30078
  0
VERTEX
  5
19c
  8
Layer_0
  10
181.55023
  20
600.99899
  0
VERTEX
  5
19d
  8
Layer_0
  10
179.59056
  20
606.18298
  0
VERTEX
  5
19e
  8
Layer_0
  10
177.24191
  20
607.75494
  0
VERTEX
  5
19f
  8
Layer_0
  10
171.16087
  20
608.49194
  0
VERTEX
  5
1a0
  8
Layer_0
  10
166.571
  20
607.2601
  0
VERTEX
  5
1a1
  8
Layer_0
  10
165.25742
  20
604.93472
  0
VERTEX
  5
1a2
  8
Layer_0
  10
164.52649
  20
594.61203
  0
VERTEX
  5
1a3
  8
Layer_0
  10
160.47823
  20
589.81757
  0
VERTEX
  5
1a4
  8
Layer_0
  10
157.59377
  20
564.56204
  0
VERTEX
  5
1a5
  8
Layer_0
  10
157.16127
  20
556.01352
  0
VERTEX
  5
1a6
  8
Layer_0
  10
156.41319
  20
555.19681
  0
VERTEX
  5
1a7
  8
Layer_0
  10
156.05861
  20
558.54279
  0
VERTEX
  5
1a8
  8
Layer_0
  10
155.50954
  20
572.86768
  0
VERTEX
  5
1a9
  8
Layer_0
  10
154.00668
  20
586.96887
  0
VERTEX
  5
1aa
  8
Layer_0
  10
151.92328
  20
591.80237
  0
VERTEX
  5
1ab
  8
Layer_0
  10
151.96748
  20
601.60382
  0
VERTEX
  5
1ac
  8
Layer_0
  10
150.48082
  20
604.8656
  0
VERTEX
  5
1ad
  8
Layer_0
  10
146.95868
  20
607.21783
  0
VERTEX
  5
1ae
  8
Layer_0
  10
140.21942
  20
607.96536
  0
VERTEX
  5
1af
  8
Layer_0
  10
134.76122
  20
607.3136
  0
VERTEX
  5
1b0
  8
Layer_0
  10
132.49507
  20
605.48059
  0
VERTEX
  5
1b1
  8
Layer_0
  10
131.23944
  20
601.48532
  0
VERTEX
  5
1b2
  8
Layer_0
  10
130.38284
  20
592.89899
  0
VERTEX
  5
1b3
  8
Layer_0
  10
126.9656
  20
586.44476
  0
VERTEX
  5
1b4
  8
Layer_0
  10
126.06531
  20
585.22443
  0
VERTEX
  5
1b5
  8
Layer_0
  10
123.90667
  20
590.84271
  0
VERTEX
  5
1b6
  8
Layer_0
  10
123.89664
  20
603.21219
  0
VERTEX
  5
1b7
  8
Layer_0
  10
122.29049
  20
606.40686
  0
VERTEX
  5
1b8
  8
Layer_0
  10
118.94025
  20
608.94366
  0
SEQEND
  0
POLYLINE
  5
1ba
  8
Layer_0
  62
7
  70
1
  66
1
  10
0
  20
0
  30
0
  0
VERTEX
  5
1ba
  8
Layer_0
  10
108.00558
  20
694.5585
  0
VERTEX
  5
1bb
  8
Layer_0
  10
101.63901
  20
694.53128
  0
VERTEX
  5
1bc
  8
Layer_0
  10
99.015732
  20
693.16501
  0
VERTEX
  5
1bd
  8
Layer_0
  10
97.583595
  20
690.66666
  0
VERTEX
  5
1be
  8
Layer_0
  10
96.356018
  20
677.69832
  0
VERTEX
  5
1bf
  8
Layer_0
  10
93.693649
  20
671.02037
  0
VERTEX
  5
1c0
  8
Layer_0
  10
92.246887
  20
652.39304
  0
VERTEX
  5
1c1
  8
Layer_0
  10
92.32309
  20
637.28018
  0
VERTEX
  5
1c2
  8
Layer_0
  10
90.776817
  20
636.70367
  0
VERTEX
  5
1c3
  8
Layer_0
  10
72.126129
  20
636.60135
  0
VERTEX
  5
1c4
  8
Layer_0
  10
68.02858
  20
635.89276
  0
VERTEX
  5
1c5
  8
Layer_0
  10
66.898224
  20
634.16455
  0
VERTEX
  5
1c6
  8
Layer_0
  10
67.342117
  20
631.32129
  0
VERTEX
  5
1c7
  8
Layer_0
  10
69.794334
  20
628.75604
  0
VERTEX
  5
1c8
  8
Layer_0
  10
73.184387
  20
627.66721
  0
VERTEX
  5
1c9
  8
Layer_0
  10
89.929977
  20
627.14984
  0
VERTEX
  5
1ca
  8
Layer_0
  10
99.874634
  20
627.65271
  0
VERTEX
  5
1cb
  8
Layer_0
  10
152.3134
  20
627.42136
  0
VERTEX
  5
1cc
  8
Layer_0
  10
172.28001
  20
627.25137
  0
VERTEX
  5
1cd
  8
Layer_0
  10
203.49231
  20
627.91846
  0
VERTEX
  5
1ce
  8
Layer_0
  10
220.84244
  20
627.98312
  0
VERTEX
  5
1cf
  8
Layer_0
  10
247.31737
  20
628.19064
  0
VERTEX
  5
1d0
  8
Layer_0
  10
254.1373
  20
628.57538
  0
VERTEX
  5
1d1
  8
Layer_0
  10
265.34741
  20
628.28265
  0
VERTEX
  5
1d2
  8
Layer_0
  10
281.88821
  20
628.86584
  0
VERTEX
  5
1d3
  8
Layer_0
  10
299.94226
  20
628.48489
  0
VERTEX
  5
1d4
  8
Layer_0
  10
316.51651
  20
629.25894
  0
VERTEX
  5
1d5
  8
Layer_0
  10
327.10483
  20
628.99091
  0
VERTEX
  5
1d6
  8
Layer_0
  10
351.37213
  20
629.97174
  0
VERTEX
  5
1d7
  8
Layer_0
  10
368.10376
  20
629.48355
  0
VERTEX
  5
1d8
  8
Layer_0
  10
370.76053
  20
630.61325
  0
VERTEX
  5
1d9
  8
Layer_0
  10
372.06616
  20
633.12418
  0
VERTEX
  5
1da
  8
Layer_0
  10
371.8822
  20
636.73145
  0
VERTEX
  5
1db
  8
Layer_0
  10
370.56799
  20
638.55804
  0
VERTEX
  5
1dc
  8
Layer_0
  10
367.16476
  20
639.67041
  0
VERTEX
  5
1dd
  8
Layer_0
  10
361.02615
  20
640.30109
  0
VERTEX
  5
1de
  8
Layer_0
  10
359.60944
  20
641.64746
  0
VERTEX
  5
1df
  8
Layer_0
  10
358.44495
  20
656.2933
  0
VERTEX
  5
1e0
  8
Layer_0
  10
356.8277
  20
662.75569
  0
VERTEX
  5
1e1
  8
Layer_0
  10
355.88544
  20
671.35464
  0
VERTEX
  5
1e2
  8
Layer_0
  10
352.35443
  20
680.37015
  0
VERTEX
  5
1e3
  8
Layer_0
  10
350.79388
  20
687.41432
  0
VERTEX
  5
1e4
  8
Layer_0
  10
349.7189
  20
692.11676
  0
VERTEX
  5
1e5
  8
Layer_0
  10
347.56201
  20
693.90636
  0
VERTEX
  5
1e6
  8
Layer_0
  10
345.36102
  20
693.771
  0
VERTEX
  5
1e7
  8
Layer_0
  10
343.33286
  20
691.77238
  0
VERTEX
  5
1e8
  8
Layer_0
  10
341.00284
  20
681.17311
  0
VERTEX
  5
1e9
  8
Layer_0
  10
338.99243
  20
675.56068
  0
VERTEX
  5
1ea
  8
Layer_0
  10
337.05548
  20
671.87909
  0
VERTEX
  5
1eb
  8
Layer_0
  10
335.84848
  20
661.42868
  0
VERTEX
  5
1ec
  8
Layer_0
  10
334.15689
  20
654.84917
  0
VERTEX
  5
1ed
  8
Layer_0
  10
333.45215
  20
640.73224
  0
VERTEX
  5
1ee
  8
Layer_0
  10
331.86047
  20
639.66202
  0
VERTEX
  5
1ef
  8
Layer_0
  10
327.31873
  20
639.69281
  0
VERTEX
  5
1f0
  8
Layer_0
  10
325.98282
  20
641.00043
  0
VERTEX
  5
1f1
  8
Layer_0
  10
325.02115
  20
646.4753
  0
VERTEX
  5
1f2
  8
Layer_0
  10
324.38898
  20
655.73682
  0
VERTEX
  5
1f3
  8
Layer_0
  10
322.82153
  20
662.15686
  0
VERTEX
  5
1f4
  8
Layer_0
  10
321.74915
  20
671.37651
  0
VERTEX
  5
1f5
  8
Layer_0
  10
318.52014
  20
679.83783
  0
VERTEX
  5
1f6
  8
Layer_0
  10
316.92279
  20
690.14543
  0
VERTEX
  5
1f7
  8
Layer_0
  10
314.99921
  20
692.33849
  0
VERTEX
  5
1f8
  8
Layer_0
  10
312.19989
  20
692.93326
  0
VERTEX
  5
1f9
  8
Layer_0
  10
310.17624
  20
691.93768
  0
VERTEX
  5
1fa
  8
Layer_0
  10
308.96548
  20
689.36053
  0
VERTEX
  5
1fb
  8
Layer_0
  10
307.59094
  20
681.54137
  0
VERTEX
  5
1fc
  8
Layer_0
  10
303.88925
  20
673.40236
  0
VERTEX
  5
1fd
  8
Layer_0
  10
302.59872
  20
669.36815
  0
VERTEX
  5
1fe
  8
Layer_0
  10
301.40878
  20
660.19888
  0
VERTEX
  5
1ff
  8
Layer_0
  10
299.59818
  20
655.12915
  0
VERTEX
  5
200
  8
Layer_0
  10
299.06479
  20
641.62643
  0
VERTEX
  5
201
  8
Layer_0
  10
297.82825
  20
639.71747
  0
VERTEX
  5
202
  8
Layer_0
  10
296.1955
  20
639.69135
  0
VERTEX
  5
203
  8
Layer_0
  10
294.88144
  20
642.20587
  0
VERTEX
  5
204
  8
Layer_0
  10
294.67126
  20
648.98705
  0
VERTEX
  5
205
  8
Layer_0
  10
293.78302
  20
655.06281
  0
VERTEX
  5
206
  8
Layer_0
  10
291.78802
  20
660.79965
  0
VERTEX
  5
207
  8
Layer_0
  10
290.66104
  20
671.2774
  0
VERTEX
  5
208
  8
Layer_0
  10
287.3205
  20
680.20322
  0
VERTEX
  5
209
  8
Layer_0
  10
285.91956
  20
688.71552
  0
VERTEX
  5
20a
  8
Layer_0
  10
284.38708
  20
691.22885
  0
VERTEX
  5
20b
  8
Layer_0
  10
281.70569
  20
692.32591
  0
VERTEX
  5
20c
  8
Layer_0
  10
278.94882
  20
691.58156
  0
VERTEX
  5
20d
  8
Layer_0
  10
277.20935
  20
689.25511
  0
VERTEX
  5
20e
  8
Layer_0
  10
275.27969
  20
679.05963
  0
VERTEX
  5
20f
  8
Layer_0
  10
271.8064
  20
670.83569
  0
VERTEX
  5
210
  8
Layer_0
  10
270.75671
  20
659.78423
  0
VERTEX
  5
211
  8
Layer_0
  10
268.0834
  20
653.75456
  0
VERTEX
  5
212
  8
Layer_0
  10
267.07904
  20
654.21057
  0
VERTEX
  5
213
  8
Layer_0
  10
265.33508
  20
659.211
  0
VERTEX
  5
214
  8
Layer_0
  10
263.98465
  20
670.87935
  0
VERTEX
  5
215
  8
Layer_0
  10
261.27911
  20
678.15997
  0
VERTEX
  5
216
  8
Layer_0
  10
259.93994
  20
688.54918
  0
VERTEX
  5
217
  8
Layer_0
  10
257.91299
  20
691.45084
  0
VERTEX
  5
218
  8
Layer_0
  10
255.17513
  20
692.47034
  0
VERTEX
  5
219
  8
Layer_0
  10
252.42776
  20
691.73096
  0
VERTEX
  5
21a
  8
Layer_0
  10
250.60954
  20
689.49341
  0
VERTEX
  5
21b
  8
Layer_0
  10
248.28012
  20
677.52657
  0
VERTEX
  5
21c
  8
Layer_0
  10
244.99962
  20
669.94753
  0
VERTEX
  5
21d
  8
Layer_0
  10
243.79173
  20
659.5141
  0
VERTEX
  5
21e
  8
Layer_0
  10
241.6521
  20
653.95973
  0
VERTEX
  5
21f
  8
Layer_0
  10
240.20161
  20
641.29758
  0
VERTEX
  5
220
  8
Layer_0
  10
239.40613
  20
644.69244
  0
VERTEX
  5
221
  8
Layer_0
  10
238.22681
  20
653.17566
  0
VERTEX
  5
222
  8
Layer_0
  10
235.31039
  20
660.22757
  0
VERTEX
  5
223
  8
Layer_0
  10
234.24577
  20
670.03067
  0
VERTEX
  5
224
  8
Layer_0
  10
231.11432
  20
677.77849
  0
VERTEX
  5
225
  8
Layer_0
  10
229.17384
  20
689.93956
  0
VERTEX
  5
226
  8
Layer_0
  10
226.8044
  20
693.28429
  0
VERTEX
  5
227
  8
Layer_0
  10
224.10786
  20
694.38773
  0
VERTEX
  5
228
  8
Layer_0
  10
220.64716
  20
693.71968
  0
VERTEX
  5
229
  8
Layer_0
  10
218.71979
  20
691.63052
  0
VERTEX
  5
22a
  8
Layer_0
  10
217.75842
  20
685.59972
  0
VERTEX
  5
22b
  8
Layer_0
  10
216.79874
  20
675.7196
  0
VERTEX
  5
22c
  8
Layer_0
  10
214.55826
  20
670.15904
  0
VERTEX
  5
22d
  8
Layer_0
  10
213.77309
  20
658.35451
  0
VERTEX
  5
22e
  8
Layer_0
  10
212.47507
  20
653.96371
  0
VERTEX
  5
22f
  8
Layer_0
  10
212.16304
  20
639.84094
  0
VERTEX
  5
230
  8
Layer_0
  10
210.93314
  20
639.07037
  0
VERTEX
  5
231
  8
Layer_0
  10
209.69569
  20
640.39639
  0
VERTEX
  5
232
  8
Layer_0
  10
208.73564
  20
653.23581
  0
VERTEX
  5
233
  8
Layer_0
  10
207.25745
  20
661.07297
  0
VERTEX
  5
234
  8
Layer_0
  10
206.3
  20
669.63672
  0
VERTEX
  5
235
  8
Layer_0
  10
203.71436
  20
676.9281
  0
VERTEX
  5
236
  8
Layer_0
  10
202.87944
  20
687.42123
  0
VERTEX
  5
237
  8
Layer_0
  10
201.01767
  20
690.44368
  0
VERTEX
  5
238
  8
Layer_0
  10
197.88651
  20
691.88028
  0
VERTEX
  5
239
  8
Layer_0
  10
193.6566
  20
691.6485
  0
VERTEX
  5
23a
  8
Layer_0
  10
191.42697
  20
689.92276
  0
VERTEX
  5
23b
  8
Layer_0
  10
190.3446
  20
685.29414
  0
VERTEX
  5
23c
  8
Layer_0
  10
188.99272
  20
676.14021
  0
VERTEX
  5
23d
  8
Layer_0
  10
186.40466
  20
670.83119
  0
VERTEX
  5
23e
  8
Layer_0
  10
185.24062
  20
660.39067
  0
VERTEX
  5
23f
  8
Layer_0
  10
181.95511
  20
655.08502
  0
VERTEX
  5
240
  8
Layer_0
  10
181.21185
  20
655.33557
  0
VERTEX
  5
241
  8
Layer_0
  10
179.85396
  20
670.96243
  0
VERTEX
  5
242
  8
Layer_0
  10
178.28311
  20
674.49187
  0
VERTEX
  5
243
  8
Layer_0
  10
177.88707
  20
688.16898
  0
VERTEX
  5
244
  8
Layer_0
  10
176.17596
  20
691.2816
  0
VERTEX
  5
245
  8
Layer_0
  10
173.70328
  20
692.97456
  0
VERTEX
  5
246
  8
Layer_0
  10
169.46124
  20
693.32619
  0
VERTEX
  5
247
  8
Layer_0
  10
166.75053
  20
692.24863
  0
VERTEX
  5
248
  8
Layer_0
  10
164.95361
  20
689.23566
  0
VERTEX
  5
249
  8
Layer_0
  10
163.48434
  20
676.98091
  0
VERTEX
  5
24a
  8
Layer_0
  10
159.86554
  20
671.65768
  0
VERTEX
  5
24b
  8
Layer_0
  10
157.772
  20
660.86667
  0
VERTEX
  5
24c
  8
Layer_0
  10
155.33441
  20
656.07657
  0
VERTEX
  5
24d
  8
Layer_0
  10
153.22862
  20
639.97723
  0
VERTEX
  5
24e
  8
Layer_0
  10
152.51987
  20
640.25836
  0
VERTEX
  5
24f
  8
Layer_0
  10
151.2879
  20
645.50656
  0
VERTEX
  5
250
  8
Layer_0
  10
150.19783
  20
654.67638
  0
VERTEX
  5
251
  8
Layer_0
  10
148.58145
  20
664.36331
  0
VERTEX
  5
252
  8
Layer_0
  10
147.52985
  20
670.35466
  0
VERTEX
  5
253
  8
Layer_0
  10
145.72342
  20
675.57916
  0
VERTEX
  5
254
  8
Layer_0
  10
144.85419
  20
687.96175
  0
VERTEX
  5
255
  8
Layer_0
  10
142.71152
  20
690.7944
  0
VERTEX
  5
256
  8
Layer_0
  10
138.4236
  20
693.06166
  0
VERTEX
  5
257
  8
Layer_0
  10
132.89781
  20
693.198
  0
VERTEX
  5
258
  8
Layer_0
  10
130.34015
  20
691.81642
  0
VERTEX
  5
259
  8
Layer_0
  10
128.78651
  20
688.62723
  0
VERTEX
  5
25a
  8
Layer_0
  10
127.61761
  20
675.76711
  0
VERTEX
  5
25b
  8
Layer_0
  10
125.32052
  20
671.53998
  0
VERTEX
  5
25c
  8
Layer_0
  10
124.37163
  20
658.59113
  0
VERTEX
  5
25d
  8
Layer_0
  10
123.28754
  20
651.97508
  0
VERTEX
  5
25e
  8
Layer_0
  10
123.3012
  20
640.21503
  0
VERTEX
  5
25f
  8
Layer_0
  10
122.2972
  20
638.84311
  0
VERTEX
  5
260
  8
Layer_0
  10
121.06464
  20
639.78928
  0
VERTEX
  5
261
  8
Layer_0
  10
120.64198
  20
643.98123
  0
VERTEX
  5
262
  8
Layer_0
  10
119.1565
  20
670.5517
  0
VERTEX
  5
263
  8
Layer_0
  10
116.71758
  20
674.9503
  0
VERTEX
  5
264
  8
Layer_0
  10
115.53707
  20
688.50809
  0
VERTEX
  5
265
  8
Layer_0
  10
113.79307
  20
691.60355
  0
VERTEX
  5
266
  8
Layer_0
  10
110.31189
  20
693.91153
  0
VERTEX
  5
267
  8
Layer_0
  10
108.60229
  20
694.44366
  0
SEQEND
  0
POLYLINE
  5
269
  8
Layer_0
  62
7
  70
1
  66
1
  10
0
  20
0
  30
0
  0
VERTEX
  5
269
  8
Layer_0
  10
342.6207
  20
516.37442
  0
VERTEX
  5
26a
  8
Layer_0
  10
329.15234
  20
516.06363
  0
VERTEX
  5
26b
  8
Layer_0
  10
322.34052
  20
516.03366
  0
VERTEX
  5
26c
  8
Layer_0
  10
317.75507
  20
514.57278
  0
VERTEX
  5
26d
  8
Layer_0
  10
315.95239
  20
512.27222
  0
VERTEX
  5
26e
  8
Layer_0
  10
313.91425
  20
501.52225
  0
VERTEX
  5
26f
  8
Layer_0
  10
314.5343
  20
493.50964
  0
VERTEX
  5
270
  8
Layer_0
  10
315.93521
  20
491.00851
  0
VERTEX
  5
271
  8
Layer_0
  10
318.55191
  20
489.8819
  0
VERTEX
  5
272
  8
Layer_0
  10
362.84729
  20
489.17636
  0
VERTEX
  5
273
  8
Layer_0
  10
370.8916
  20
488.60037
  0
VERTEX
  5
274
  8
Layer_0
  10
390.78479
  20
487.89099
  0
VERTEX
  5
275
  8
Layer_0
  10
398.74658
  20
487.13055
  0
VERTEX
  5
276
  8
Layer_0
  10
401.45233
  20
488.21075
  0
VERTEX
  5
277
  8
Layer_0
  10
403.03937
  20
490.53683
  0
VERTEX
  5
278
  8
Layer_0
  10
404.3493
  20
498.38593
  0
VERTEX
  5
279
  8
Layer_0
  10
403.5242
  20
503.11133
  0
VERTEX
  5
27a
  8
Layer_0
  10
399.84863
  20
511.84918
  0
VERTEX
  5
27b
  8
Layer_0
  10
397.00137
  20
513.82202
  0
VERTEX
  5
27c
  8
Layer_0
  10
393.41364
  20
514.10834
  0
VERTEX
  5
27d
  8
Layer_0
  10
388.59457
  20
513.78253
  0
VERTEX
  5
27e
  8
Layer_0
  10
382.31055
  20
515.49896
  0
VERTEX
  5
27f
  8
Layer_0
  10
375.31326
  20
514.55951
  0
VERTEX
  5
280
  8
Layer_0
  10
368.74731
  20
515.81488
  0
VERTEX
  5
281
  8
Layer_0
  10
359.67981
  20
515.69635
  0
VERTEX
  5
282
  8
Layer_0
  10
353.62271
  20
516.4664
  0
VERTEX
  5
283
  8
Layer_0
  10
345.67456
  20
515.91608
  0
VERTEX
  5
284
  8
Layer_0
  10
343.23605
  20
516.30118
  0
SEQEND
  0
POLYLINE
  5
286
  8
Layer_0
  62
7
  70
1
  66
1
  10
0
  20
0
  30
0
  0
VERTEX
  5
286
  8
Layer_0
  10
478.31815
  20
814.24179
  42
0.15514617
  0
VERTEX
  5
287
  8
Layer_0
  10
476.90381
  20
815.0296
  42
0.17218764
  0
VERTEX
  5
288
  8
Layer_0
  10
471.81927
  20
813.89755
  42
0.17957648
  0
VERTEX
  5
289
  8
Layer_0
  10
465.55502
  20
806.21715
  42
0.26639353
  0
VERTEX
  5
28a
  8
Layer_0
  10
468.43167
  20
792.18359
  0
VERTEX
  5
28b
  8
Layer_0
  10
469.53876
  20
790.69435
  0
VERTEX
  5
28c
  8
Layer_0
  10
469.86902
  20
790.17967
  42
-0.12249703
  0
VERTEX
  5
28d
  8
Layer_0
  10
471.63278
  20
783.09645
  0
VERTEX
  5
28e
  8
Layer_0
  10
471.79105
  20
781.86119
  42
-0.021234693
  0
VERTEX
  5
28f
  8
Layer_0
  10
472.58914
  20
766.91069
  42
-0.0047748513
  0
VERTEX
  5
290
  8
Layer_0
  10
472.5752
  20
735.03593
  0
VERTEX
  5
291
  8
Layer_0
  10
472.37317
  20
727.53955
  0
VERTEX
  5
292
  8
Layer_0
  10
472.34555
  20
723.16496
  0
VERTEX
  5
293
  8
Layer_0
  10
472.14478
  20
713.79248
  0
VERTEX
  5
294
  8
Layer_0
  10
472.11365
  20
703.79285
  0
VERTEX
  5
295
  8
Layer_0
  10
471.91357
  20
693.79512
  0
VERTEX
  5
296
  8
Layer_0
  10
471.88156
  20
685.04553
  0
VERTEX
  5
297
  8
Layer_0
  10
471.68857
  20
676.92322
  0
VERTEX
  5
298
  8
Layer_0
  10
471.65085
  20
671.92397
  42
-0.016430898
  0
VERTEX
  5
299
  8
Layer_0
  10
470.91016
  20
660.85576
  0
VERTEX
  5
29a
  8
Layer_0
  10
470.89911
  20
659.61298
  42
-0.11985237
  0
VERTEX
  5
29b
  8
Layer_0
  10
469.84521
  20
653.59698
  42
-0.037100773
  0
VERTEX
  5
29c
  8
Layer_0
  10
466.74979
  20
649.91473
  0
VERTEX
  5
29d
  8
Layer_0
  10
466.41129
  20
649.41757
  42
0.029030108
  0
VERTEX
  5
29e
  8
Layer_0
  10
465.82205
  20
648.34601
  42
0.15022857
  0
VERTEX
  5
29f
  8
Layer_0
  10
464.09125
  20
642.34171
  42
0.06715251
  0
VERTEX
  5
2a0
  8
Layer_0
  10
464.57141
  20
634.32623
  42
0.070065762
  0
VERTEX
  5
2a1
  8
Layer_0
  10
467.25302
  20
629.16016
  42
0.22945037
  0
VERTEX
  5
2a2
  8
Layer_0
  10
474.77676
  20
623.50574
  42
0.25168758
  0
VERTEX
  5
2a3
  8
Layer_0
  10
478.46481
  20
624.45032
  42
0.29606183
  0
VERTEX
  5
2a4
  8
Layer_0
  10
478.10699
  20
630.47971
  42
0.028256958
  0
VERTEX
  5
2a5
  8
Layer_0
  10
475.21497
  20
633.6759
  0
VERTEX
  5
2a6
  8
Layer_0
  10
474.84451
  20
634.15259
  42
-0.19733819
  0
VERTEX
  5
2a7
  8
Layer_0
  10
473.37497
  20
637.93387
  42
-0.19750703
  0
VERTEX
  5
2a8
  8
Layer_0
  10
475.01993
  20
641.64182
  0
VERTEX
  5
2a9
  8
Layer_0
  10
475.83127
  20
642.57422
  42
-0.16814987
  0
VERTEX
  5
2aa
  8
Layer_0
  10
480.70883
  20
645.7959
  42
-0.35944713
  0
VERTEX
  5
2ab
  8
Layer_0
  10
486.61865
  20
641.91254
  42
-0.15083997
  0
VERTEX
  5
2ac
  8
Layer_0
  10
486.94617
  20
634.14346
  0
VERTEX
  5
2ad
  8
Layer_0
  10
486.8978
  20
633.54282
  42
0.17028421
  0
VERTEX
  5
2ae
  8
Layer_0
  10
488.44171
  20
627.96606
  42
0.31923996
  0
VERTEX
  5
2af
  8
Layer_0
  10
493.17807
  20
627.37488
  42
0.25609173
  0
VERTEX
  5
2b0
  8
Layer_0
  10
497.24905
  20
635.02438
  42
0.10806787
  0
VERTEX
  5
2b1
  8
Layer_0
  10
496.34537
  20
645.43513
  42
0.059331817
  0
VERTEX
  5
2b2
  8
Layer_0
  10
492.21814
  20
652.01527
  0
VERTEX
  5
2b3
  8
Layer_0
  10
491.77261
  20
652.43826
  42
-0.30812578
  0
VERTEX
  5
2b4
  8
Layer_0
  10
490.34741
  20
656.76834
  0
VERTEX
  5
2b5
  8
Layer_0
  10
490.39975
  20
657.35361
  42
0.030463725
  0
VERTEX
  5
2b6
  8
Layer_0
  10
489.06958
  20
666.20479
  0
VERTEX
  5
2b7
  8
Layer_0
  10
489.02335
  20
666.53954
  42
-0.020717793
  0
VERTEX
  5
2b8
  8
Layer_0
  10
488.89618
  20
669.84277
  42
-0.0075119775
  0
VERTEX
  5
2b9
  8
Layer_0
  10
489.12579
  20
695.46432
  42
-0.0054711899
  0
VERTEX
  5
2ba
  8
Layer_0
  10
489.14999
  20
722.33897
  0
VERTEX
  5
2bb
  8
Layer_0
  10
489.33371
  20
729.8364
  42
0.00371968
  0
VERTEX
  5
2bc
  8
Layer_0
  10
489.3757
  20
763.20139
  0
VERTEX
  5
2bd
  8
Layer_0
  10
489.55188
  20
768.19698
  0
VERTEX
  5
2be
  8
Layer_0
  10
489.61444
  20
771.94511
  42
-0.064895978
  0
VERTEX
  5
2bf
  8
Layer_0
  10
490.76849
  20
782.40817
  42
-0.010235899
  0
VERTEX
  5
2c0
  8
Layer_0
  10
491.97501
  20
785.79661
  0
VERTEX
  5
2c1
  8
Layer_0
  10
492.44226
  20
787.54408
  0
VERTEX
  5
2c2
  8
Layer_0
  10
492.72937
  20
788.73055
  42
-0.044083049
  0
VERTEX
  5
2c3
  8
Layer_0
  10
495.8129
  20
797.49889
  0
VERTEX
  5
2c4
  8
Layer_0
  10
495.97705
  20
798.0203
  42
0.16849309
  0
VERTEX
  5
2c5
  8
Layer_0
  10
495.30197
  20
807.93156
  42
0.18242766
  0
VERTEX
  5
2c6
  8
Layer_0
  10
490.94351
  20
811.84737
  42
0.38826974
  0
VERTEX
  5
2c7
  8
Layer_0
  10
486.06659
  20
809.79527
  42
0.13716523
  0
VERTEX
  5
2c8
  8
Layer_0
  10
486.3013
  20
803.79419
  0
VERTEX
  5
2c9
  8
Layer_0
  10
486.42093
  20
803.202
  42
-0.19849678
  0
VERTEX
  5
2ca
  8
Layer_0
  10
486.17416
  20
799.52144
  42
-0.19851998
  0
VERTEX
  5
2cb
  8
Layer_0
  10
483.38773
  20
797.10423
  42
-0.31715869
  0
VERTEX
  5
2cc
  8
Layer_0
  10
476.92603
  20
798.82559
  42
-0.20732685
  0
VERTEX
  5
2cd
  8
Layer_0
  10
476.47385
  20
804.61111
  42
-0.068178429
  0
VERTEX
  5
2ce
  8
Layer_0
  10
478.51154
  20
808.95283
  0
VERTEX
  5
2cf
  8
Layer_0
  10
478.73907
  20
809.50403
  42
0.29211291
  0
SEQEND
  0
POLYLINE
  5
2d1
  8
Layer_0
  62
7
  70
1
  66
1
  10
0
  20
0
  30
0
  0
VERTEX
  5
2d1
  8
Layer_0
  10
518.42517
  20
801.74416
  42
0.097044535
  0
VERTEX
  5
2d2
  8
Layer_0
  10
517.45972
  20
802.29507
  42
0.23449514
  0
VERTEX
  5
2d3
  8
Layer_0
  10
512.02173
  20
800.79217
  42
0.17752245
  0
VERTEX
  5
2d4
  8
Layer_0
  10
507.54922
  20
795.17429
  42
0.19096041
  0
VERTEX
  5
2d5
  8
Layer_0
  10
509.67441
  20
781.7422
  0
VERTEX
  5
2d6
  8
Layer_0
  10
509.91348
  20
781.2004
  42
-0.079321591
  0
VERTEX
  5
2d7
  8
Layer_0
  10
512.08496
  20
766.59224
  0
VERTEX
  5
2d8
  8
Layer_0
  10
512.12714
  20
764.09306
  0
VERTEX
  5
2d9
  8
Layer_0
  10
512.30072
  20
757.84584
  42
-0.0059745548
  0
VERTEX
  5
2da
  8
Layer_0
  10
512.28125
  20
724.09671
  0
VERTEX
  5
2db
  8
Layer_0
  10
512.1488
  20
718.4733
  0
VERTEX
  5
2dc
  8
Layer_0
  10
511.97009
  20
694.72806
  42
0.010266605
  0
VERTEX
  5
2dd
  8
Layer_0
  10
511.80948
  20
678.48328
  0
VERTEX
  5
2de
  8
Layer_0
  10
511.55737
  20
671.61671
  0
VERTEX
  5
2df
  8
Layer_0
  10
510.94736
  20
661.03008
  42
-0.20240815
  0
VERTEX
  5
2e0
  8
Layer_0
  10
508.47662
  20
655.03603
  0
VERTEX
  5
2e1
  8
Layer_0
  10
508.12503
  20
654.53876
  42
0.23671594
  0
VERTEX
  5
2e2
  8
Layer_0
  10
505.94986
  20
642.40927
  42
0.24205829
  0
VERTEX
  5
2e3
  8
Layer_0
  10
514.3429
  20
632.6713
  42
0.35938314
  0
VERTEX
  5
2e4
  8
Layer_0
  10
518.87195
  20
634.3501
  42
0.23021422
  0
VERTEX
  5
2e5
  8
Layer_0
  10
518.15173
  20
639.99258
  0
VERTEX
  5
2e6
  8
Layer_0
  10
516.84808
  20
641.9635
  0
VERTEX
  5
2e7
  8
Layer_0
  10
516.55017
  20
642.46964
  42
-0.20761965
  0
VERTEX
  5
2e8
  8
Layer_0
  10
515.73822
  20
646.1098
  42
-0.20748209
  0
VERTEX
  5
2e9
  8
Layer_0
  10
517.85687
  20
649.17958
  42
-0.19881977
  0
VERTEX
  5
2ea
  8
Layer_0
  10
520.84222
  20
650.06087
  42
-0.1991249
  0
VERTEX
  5
2eb
  8
Layer_0
  10
523.56653
  20
648.55617
  42
-0.16331928
  0
VERTEX
  5
2ec
  8
Layer_0
  10
524.67609
  20
643.96381
  0
VERTEX
  5
2ed
  8
Layer_0
  10
524.80066
  20
640.85034
  42
0.22086984
  0
VERTEX
  5
2ee
  8
Layer_0
  10
526.66931
  20
635.98877
  42
0.3694791
  0
VERTEX
  5
2ef
  8
Layer_0
  10
532.01666
  20
636.45697
  42
0.19606905
  0
VERTEX
  5
2f0
  8
Layer_0
  10
534.28937
  20
642.53888
  42
0.10802212
  0
VERTEX
  5
2f1
  8
Layer_0
  10
533.02118
  20
652.8327
  42
0.077060441
  0
VERTEX
  5
2f2
  8
Layer_0
  10
529.41553
  20
657.6692
  0
VERTEX
  5
2f3
  8
Layer_0
  10
529.1109
  20
658.15187
  42
-0.16254922
  0
VERTEX
  5
2f4
  8
Layer_0
  10
528.5849
  20
662.70026
  0
VERTEX
  5
2f5
  8
Layer_0
  10
528.59637
  20
663.94164
  0
VERTEX
  5
2f6
  8
Layer_0
  10
528.20154
  20
669.7124
  42
-0.009329802
  0
VERTEX
  5
2f7
  8
Layer_0
  10
528.40033
  20
695.33217
  42
-0.0096538092
  0
VERTEX
  5
2f8
  8
Layer_0
  10
528.42896
  20
712.20616
  0
VERTEX
  5
2f9
  8
Layer_0
  10
528.60583
  20
716.57483
  42
0.0059542257
  0
VERTEX
  5
2fa
  8
Layer_0
  10
528.63538
  20
730.94888
  0
VERTEX
  5
2fb
  8
Layer_0
  10
528.84436
  20
739.07016
  0
VERTEX
  5
2fc
  8
Layer_0
  10
528.87109
  20
744.6947
  0
VERTEX
  5
2fd
  8
Layer_0
  10
529.07513
  20
752.81641
  0
VERTEX
  5
2fe
  8
Layer_0
  10
529.10266
  20
757.81586
  0
VERTEX
  5
2ff
  8
Layer_0
  10
529.30396
  20
764.06105
  42
-0.030106467
  0
VERTEX
  5
300
  8
Layer_0
  10
529.94501
  20
773.99224
  0
VERTEX
  5
301
  8
Layer_0
  10
531.12054
  20
777.99093
  0
VERTEX
  5
302
  8
Layer_0
  10
531.9248
  20
781.53285
  0
VERTEX
  5
303
  8
Layer_0
  10
533.84332
  20
787.17829
  0
VERTEX
  5
304
  8
Layer_0
  10
534.01398
  20
787.76501
  42
0.23047207
  0
VERTEX
  5
305
  8
Layer_0
  10
532.21094
  20
798.58307
  42
0.31702838
  0
VERTEX
  5
306
  8
Layer_0
  10
527.6488
  20
800.2439
  42
0.31520682
  0
VERTEX
  5
307
  8
Layer_0
  10
524.99274
  20
795.49897
  0
VERTEX
  5
308
  8
Layer_0
  10
525.09619
  20
791.15331
  0
VERTEX
  5
309
  8
Layer_0
  10
525.04309
  20
790.55436
  42
-0.40555965
  0
VERTEX
  5
30a
  8
Layer_0
  10
520.93616
  20
787.22328
  42
-0.20050031
  0
VERTEX
  5
30b
  8
Layer_0
  10
518.09833
  20
788.57114
  42
-0.20049617
  0
VERTEX
  5
30c
  8
Layer_0
  10
517.06708
  20
791.53876
  42
-0.14854507
  0
VERTEX
  5
30d
  8
Layer_0
  10
518.58795
  20
796.65865
  0
VERTEX
  5
30e
  8
Layer_0
  10
518.85083
  20
797.19091
  42
0.35569362
  0
SEQEND
  0
POLYLINE
  5
310
  8
Layer_0
  62
7
  70
1
  66
1
  10
0
  20
0
  30
0
  0
VERTEX
  5
310
  8
Layer_0
  10
554.31201
  20
791.59099
  42
0.075600511
  0
VERTEX
  5
311
  8
Layer_0
  10
553.27136
  20
792.0685
  42
0.28527593
  0
VERTEX
  5
312
  8
Layer_0
  10
545.81958
  20
789.2115
  42
0.19832768
  0
VERTEX
  5
313
  8
Layer_0
  10
542.92865
  20
781.41693
  42
0.19429556
  0
VERTEX
  5
314
  8
Layer_0
  10
545.10132
  20
773.29066
  0
VERTEX
  5
315
  8
Layer_0
  10
545.3877
  20
772.75883
  42
-0.081119522
  0
VERTEX
  5
316
  8
Layer_0
  10
547.86053
  20
764.33398
  0
VERTEX
  5
317
  8
Layer_0
  10
548.01447
  20
763.87436
  42
-0.084802292
  0
VERTEX
  5
318
  8
Layer_0
  10
548.38739
  20
759.21805
  0
VERTEX
  5
319
  8
Layer_0
  10
548.60431
  20
750.47191
  42
-0.0053649961
  0
VERTEX
  5
31a
  8
Layer_0
  10
548.5921
  20
717.34753
  0
VERTEX
  5
31b
  8
Layer_0
  10
548.40173
  20
711.72729
  0
VERTEX
  5
31c
  8
Layer_0
  10
548.35297
  20
706.72826
  0
VERTEX
  5
31d
  8
Layer_0
  10
548.17633
  20
700.48119
  0
VERTEX
  5
31e
  8
Layer_0
  10
548.13495
  20
693.60687
  0
VERTEX
  5
31f
  8
Layer_0
  10
547.93713
  20
686.1102
  0
VERTEX
  5
320
  8
Layer_0
  10
547.90149
  20
681.7359
  0
VERTEX
  5
321
  8
Layer_0
  10
547.71881
  20
676.11487
  0
VERTEX
  5
322
  8
Layer_0
  10
547.68738
  20
674.24069
  42
-0.0275254
  0
VERTEX
  5
323
  8
Layer_0
  10
547.10657
  20
664.92133
  42
-0.10162885
  0
VERTEX
  5
324
  8
Layer_0
  10
544.28796
  20
658.21597
  0
VERTEX
  5
325
  8
Layer_0
  10
544.02753
  20
657.68488
  42
0.22198075
  0
VERTEX
  5
326
  8
Layer_0
  10
545.80444
  20
644.83492
  42
0.27358673
  0
VERTEX
  5
327
  8
Layer_0
  10
553.45355
  20
640.72208
  42
0.39620863
  0
VERTEX
  5
328
  8
Layer_0
  10
556.72174
  20
644.05327
  42
0.16922836
  0
VERTEX
  5
329
  8
Layer_0
  10
554.95422
  20
648.99078
  0
VERTEX
  5
32a
  8
Layer_0
  10
554.64984
  20
649.51321
  42
-0.34398537
  0
VERTEX
  5
32b
  8
Layer_0
  10
554.55316
  20
653.0287
  42
-0.30250814
  0
VERTEX
  5
32c
  8
Layer_0
  10
556.31793
  20
653.3085
  42
-0.2740072
  0
VERTEX
  5
32d
  8
Layer_0
  10
557.99744
  20
649.96231
  42
-0.025122398
  0
VERTEX
  5
32e
  8
Layer_0
  10
558.02838
  20
648.09462
  0
VERTEX
  5
32f
  8
Layer_0
  10
558.05975
  20
647.47681
  42
0.19412094
  0
VERTEX
  5
330
  8
Layer_0
  10
559.08636
  20
644.47025
  42
0.19331186
  0
VERTEX
  5
331
  8
Layer_0
  10
561.92212
  20
643.03488
  42
0.30520707
  0
VERTEX
  5
332
  8
Layer_0
  10
566.46606
  20
646.16545
  42
0.32291242
  0
VERTEX
  5
333
  8
Layer_0
  10
563.97034
  20
661.62706
  0
VERTEX
  5
334
  8
Layer_0
  10
563.66364
  20
662.07782
  42
-0.16416881
  0
VERTEX
  5
335
  8
Layer_0
  10
562.92322
  20
666.51225
  0
VERTEX
  5
336
  8
Layer_0
  10
563.03491
  20
669.00829
  0
VERTEX
  5
337
  8
Layer_0
  10
563.0813
  20
671.50661
  0
VERTEX
  5
338
  8
Layer_0
  10
563.0813
  20
690.88161
  0
VERTEX
  5
339
  8
Layer_0
  10
563.31097
  20
702.75267
  42
-0.0046487225
  0
VERTEX
  5
33a
  8
Layer_0
  10
563.54059
  20
715.87355
  0
VERTEX
  5
33b
  8
Layer_0
  10
563.54059
  20
726.2424
  42
-0.0035515618
  0
VERTEX
  5
33c
  8
Layer_0
  10
563.76477
  20
734.9873
  0
VERTEX
  5
33d
  8
Layer_0
  10
563.77185
  20
737.48715
  0
VERTEX
  5
33e
  8
Layer_0
  10
563.9989
  20
747.48294
  0
VERTEX
  5
33f
  8
Layer_0
  10
564.00159
  20
749.35789
  42
-0.02313187
  0
VERTEX
  5
340
  8
Layer_0
  10
564.6886
  20
763.06108
  42
-0.054496629
  0
VERTEX
  5
341
  8
Layer_0
  10
566.71155
  20
769.29778
  0
VERTEX
  5
342
  8
Layer_0
  10
567.51495
  20
772.86034
  0
VERTEX
  5
343
  8
Layer_0
  10
569.3172
  20
777.8936
  0
VERTEX
  5
344
  8
Layer_0
  10
569.45404
  20
778.48049
  42
0.24009992
  0
VERTEX
  5
345
  8
Layer_0
  10
567.02515
  20
788.7025
  42
0.39415213
  0
VERTEX
  5
346
  8
Layer_0
  10
561.79462
  20
789.33514
  42
0.24759277
  0
VERTEX
  5
347
  8
Layer_0
  10
559.94531
  20
784.55052
  0
VERTEX
  5
348
  8
Layer_0
  10
560.02747
  20
781.44822
  42
-0.21627851
  0
VERTEX
  5
349
  8
Layer_0
  10
559.18201
  20
778.79624
  42
-0.2161873
  0
VERTEX
  5
34a
  8
Layer_0
  10
556.62415
  20
777.69817
  42
-0.3920261
  0
VERTEX
  5
34b
  8
Layer_0
  10
553.08264
  20
781.5201
  42
-0.13355793
  0
VERTEX
  5
34c
  8
Layer_0
  10
554.78961
  20
786.47538
  0
VERTEX
  5
34d
  8
Layer_0
  10
555.03601
  20
787.01579
  42
0.31723881
  0
VERTEX
  5
34e
  8
Layer_0
  10
554.69275
  20
791.27115
  0
SEQEND
  0
POLYLINE
  5
350
  8
Layer_0
  62
7
  70
1
  66
1
  10
0
  20
0
  30
0
  0
VERTEX
  5
350
  8
Layer_0
  10
590.75311
  20
792.5984
  0
VERTEX
  5
351
  8
Layer_0
  10
590.24823
  20
792.80907
  42
0.25928172
  0
VERTEX
  5
352
  8
Layer_0
  10
582.32294
  20
789.73648
  42
0.34143024
  0
VERTEX
  5
353
  8
Layer_0
  10
581.26306
  20
775.26462
  0
VERTEX
  5
354
  8
Layer_0
  10
581.52954
  20
774.73976
  42
-0.14214188
  0
VERTEX
  5
355
  8
Layer_0
  10
583.80359
  20
764.43484
  0
VERTEX
  5
356
  8
Layer_0
  10
583.9082
  20
761.93759
  42
-0.0098671709
  0
VERTEX
  5
357
  8
Layer_0
  10
583.98175
  20
758.18953
  42
-0.0078276774
  0
VERTEX
  5
358
  8
Layer_0
  10
583.9588
  20
737.56519
  0
VERTEX
  5
359
  8
Layer_0
  10
583.76208
  20
731.94598
  0
VERTEX
  5
35a
  8
Layer_0
  10
583.73871
  20
729.44655
  0
VERTEX
  5
35b
  8
Layer_0
  10
583.539
  20
722.57553
  0
VERTEX
  5
35c
  8
Layer_0
  10
583.50507
  20
718.20123
  0
VERTEX
  5
35d
  8
Layer_0
  10
583.2962
  20
710.70558
  0
VERTEX
  5
35e
  8
Layer_0
  10
583.06934
  20
701.96071
  0
VERTEX
  5
35f
  8
Layer_0
  10
581.9223
  20
665.11879
  42
-0.18708622
  0
VERTEX
  5
360
  8
Layer_0
  10
580.08752
  20
659.66968
  0
VERTEX
  5
361
  8
Layer_0
  10
579.82355
  20
659.13055
  42
0.13475191
  0
VERTEX
  5
362
  8
Layer_0
  10
578.14447
  20
652.19521
  42
0.16651242
  0
VERTEX
  5
363
  8
Layer_0
  10
582.54517
  20
643.96811
  42
0.23171007
  0
VERTEX
  5
364
  8
Layer_0
  10
589.24872
  20
642.44144
  42
0.35008578
  0
VERTEX
  5
365
  8
Layer_0
  10
591.11456
  20
646.22325
  42
0.097587329
  0
VERTEX
  5
366
  8
Layer_0
  10
588.48492
  20
651.57547
  0
VERTEX
  5
367
  8
Layer_0
  10
588.21198
  20
652.11044
  42
-0.21217888
  0
VERTEX
  5
368
  8
Layer_0
  10
588.00751
  20
653.83815
  42
-0.21539158
  0
VERTEX
  5
369
  8
Layer_0
  10
589.16882
  20
655.12932
  42
-0.35098551
  0
VERTEX
  5
36a
  8
Layer_0
  10
591.89685
  20
654.15382
  42
-0.11231769
  0
VERTEX
  5
36b
  8
Layer_0
  10
592.79272
  20
648.82582
  0
VERTEX
  5
36c
  8
Layer_0
  10
592.86639
  20
648.23689
  42
0.20917098
  0
VERTEX
  5
36d
  8
Layer_0
  10
594.38672
  20
645.23946
  42
0.20819265
  0
VERTEX
  5
36e
  8
Layer_0
  10
597.62292
  20
644.32565
  42
0.28874588
  0
VERTEX
  5
36f
  8
Layer_0
  10
602.17627
  20
649.89304
  42
0.28972546
  0
VERTEX
  5
370
  8
Layer_0
  10
597.82507
  20
663.11713
  0
VERTEX
  5
371
  8
Layer_0
  10
597.34125
  20
663.45743
  42
-0.40067114
  0
VERTEX
  5
372
  8
Layer_0
  10
595.57074
  20
668.21216
  0
VERTEX
  5
373
  8
Layer_0
  10
595.68542
  20
668.81836
  42
0.037893264
  0
VERTEX
  5
374
  8
Layer_0
  10
597.14532
  20
690.56752
  0
VERTEX
  5
375
  8
Layer_0
  10
597.22607
  20
692.44051
  0
VERTEX
  5
376
  8
Layer_0
  10
597.38593
  20
698.686
  0
VERTEX
  5
377
  8
Layer_0
  10
597.44336
  20
699.9342
  42
0.0034738549
  0
VERTEX
  5
378
  8
Layer_0
  10
597.61481
  20
709.92729
  0
VERTEX
  5
379
  8
Layer_0
  10
598.04529
  20
719.28299
  0
VERTEX
  5
37a
  8
Layer_0
  10
598.66516
  20
731.75125
  42
0.00591188
  0
VERTEX
  5
37b
  8
Layer_0
  10
598.68359
  20
738.62517
  0
VERTEX
  5
37c
  8
Layer_0
  10
598.70459
  20
739.87447
  0
VERTEX
  5
37d
  8
Layer_0
  10
598.89496
  20
744.86813
  0
VERTEX
  5
37e
  8
Layer_0
  10
598.93787
  20
752.36536
  0
VERTEX
  5
37f
  8
Layer_0
  10
598.99524
  20
753.61061
  0
VERTEX
  5
380
  8
Layer_0
  10
599.26971
  20
757.34055
  0
VERTEX
  5
381
  8
Layer_0
  10
599.54645
  20
762.95052
  42
0.0080526693
  0
VERTEX
  5
382
  8
Layer_0
  10
599.62634
  20
767.94154
  0
VERTEX
  5
383
  8
Layer_0
  10
599.72406
  20
768.50616
  42
-0.14151261
  0
VERTEX
  5
384
  8
Layer_0
  10
601.73669
  20
771.93381
  0
VERTEX
  5
385
  8
Layer_0
  10
602.45532
  20
772.91468
  0
VERTEX
  5
386
  8
Layer_0
  10
602.78778
  20
773.41943
  42
0.17396089
  0
VERTEX
  5
387
  8
Layer_0
  10
605.72559
  20
783.63657
  42
0.24547452
  0
VERTEX
  5
388
  8
Layer_0
  10
602.08936
  20
790.13145
  42
0.3301635
  0
VERTEX
  5
389
  8
Layer_0
  10
596.85236
  20
788.5378
  42
0.18701666
  0
VERTEX
  5
38a
  8
Layer_0
  10
596.04565
  20
784.59886
  0
VERTEX
  5
38b
  8
Layer_0
  10
596.05969
  20
783.98032
  42
-0.2085405
  0
VERTEX
  5
38c
  8
Layer_0
  10
594.55835
  20
778.98057
  42
-0.34514469
  0
VERTEX
  5
38d
  8
Layer_0
  10
591.13361
  20
779.09703
  42
-0.2029058
  0
VERTEX
  5
38e
  8
Layer_0
  10
589.35059
  20
781.61166
  42
-0.20280043
  0
VERTEX
  5
38f
  8
Layer_0
  10
589.92462
  20
784.64053
  0
VERTEX
  5
390
  8
Layer_0
  10
591.20972
  20
786.6488
  0
VERTEX
  5
391
  8
Layer_0
  10
591.50049
  20
787.15466
  42
0.28131498
  0
VERTEX
  5
392
  8
Layer_0
  10
591.46259
  20
792.02831
  42
0.098094721
  0
SEQEND
  0
ENDSEC
  0
EOF
