  0
SECTION
  2
HEADER
  9
$ACADVER
  1
AC1024
  9
$ACADMAINTVER
 70
6
  9
$DWGCODEPAGE
  3
ANSI_1252
  9
$LASTSAVEDBY
  1
ezdxf
  9
$INSBASE
 10
0.0
 20
0.0
 30
0.0
  9
$EXTMIN
 10
1e+20
 20
1e+20
 30
1e+20
  9
$EXTMAX
 10
-1e+20
 20
-1e+20
 30
-1e+20
  9
$LIMMIN
 10
0.0
 20
0.0
  9
$LIMMAX
 10
420.0
 20
297.0
  9
$ORTHOMODE
 70
0
  9
$REGENMODE
 70
1
  9
$FILLMODE
 70
1
  9
$QTEXTMODE
 70
0
  9
$MIRRTEXT
 70
1
  9
$LTSCALE
 40
1.0
  9
$ATTMODE
 70
1
  9
$TEXTSIZE
 40
2.5
  9
$TRACEWID
 40
1.0
  9
$TEXTSTYLE
  7
Standard
  9
$CLAYER
  8
0
  9
$CELTYPE
  6
ByLayer
  9
$CECOLOR
 62
256
  9
$CELTSCALE
 40
1.0
  9
$DISPSILH
 70
0
  9
$DIMSCALE
 40
1.0
  9
$DIMASZ
 40
2.5
  9
$DIMEXO
 40
0.625
  9
$DIMDLI
 40
3.75
  9
$DIMRND
 40
0.0
  9
$DIMDLE
 40
0.0
  9
$DIMEXE
 40
1.25
  9
$DIMTP
 40
0.0
  9
$DIMTM
 40
0.0
  9
$DIMTXT
 40
2.5
  9
$DIMCEN
 40
2.5
  9
$DIMTSZ
 40
0.0
  9
$DIMTOL
 70
0
  9
$DIMLIM
 70
0
  9
$DIMTIH
 70
0
  9
$DIMTOH
 70
0
  9
$DIMSE1
 70
0
  9
$DIMSE2
 70
0
  9
$DIMTAD
 70
1
  9
$DIMZIN
 70
8
  9
$DIMBLK
  1

  9
$DIMASO
 70
1
  9
$DIMSHO
 70
1
  9
$DIMPOST
  1

  9
$DIMAPOST
  1

  9
$DIMALT
 70
0
  9
$DIMALTD
 70
3
  9
$DIMALTF
 40
0.03937007874
  9
$DIMLFAC
 40
1.0
  9
$DIMTOFL
 70
1
  9
$DIMTVP
 40
0.0
  9
$DIMTIX
 70
0
  9
$DIMSOXD
 70
0
  9
$DIMSAH
 70
0
  9
$DIMBLK1
  1

  9
$DIMBLK2
  1

  9
$DIMSTYLE
  2
ISO-25
  9
$DIMCLRD
 70
0
  9
$DIMCLRE
 70
0
  9
$DIMCLRT
 70
0
  9
$DIMTFAC
 40
1.0
  9
$DIMGAP
 40
0.625
  9
$DIMJUST
 70
0
  9
$DIMSD1
 70
0
  9
$DIMSD2
 70
0
  9
$DIMTOLJ
 70
0
  9
$DIMTZIN
 70
8
  9
$DIMALTZ
 70
0
  9
$DIMALTTZ
 70
0
  9
$DIMUPT
 70
0
  9
$DIMDEC
 70
2
  9
$DIMTDEC
 70
2
  9
$DIMALTU
 70
2
  9
$DIMALTTD
 70
3
  9
$DIMTXSTY
  7
Standard
  9
$DIMAUNIT
 70
0
  9
$DIMADEC
 70
0
  9
$DIMALTRND
 40
0.0
  9
$DIMAZIN
 70
0
  9
$DIMDSEP
 70
44
  9
$DIMATFIT
 70
3
  9
$DIMFRAC
 70
0
  9
$DIMLDRBLK
  1

  9
$DIMLUNIT
 70
2
  9
$DIMLWD
 70
-2
  9
$DIMLWE
 70
-2
  9
$DIMTMOVE
 70
0
  9
$DIMFXL
 40
1.0
  9
$DIMFXLON
 70
0
  9
$DIMJOGANG
 40
0.785398163397
  9
$DIMTFILL
 70
0
  9
$DIMTFILLCLR
 70
0
  9
$DIMARCSYM
 70
0
  9
$DIMLTYPE
  6

  9
$DIMLTEX1
  6

  9
$DIMLTEX2
  6

  9
$DIMTXTDIRECTION
 70
0
  9
$LUNITS
 70
2
  9
$LUPREC
 70
4
  9
$SKETCHINC
 40
1.0
  9
$FILLETRAD
 40
10.0
  9
$AUNITS
 70
0
  9
$AUPREC
 70
2
  9
$MENU
  1
.
  9
$ELEVATION
 40
0.0
  9
$PELEVATION
 40
0.0
  9
$THICKNESS
 40
0.0
  9
$LIMCHECK
 70
0
  9
$CHAMFERA
 40
0.0
  9
$CHAMFERB
 40
0.0
  9
$CHAMFERC
 40
0.0
  9
$CHAMFERD
 40
0.0
  9
$SKPOLY
 70
0
  9
$TDCREATE
 40
2461139.5941319442
  9
$TDUCREATE
 40
2458532.153996898
  9
$TDUPDATE
 40
2461139.5941319442
  9
$TDUUPDATE
 40
2458532.1544311
  9
$TDINDWG
 40
0.0
  9
$TDUSRTIMER
 40
0.0
  9
$USRTIMER
 70
1
  9
$ANGBASE
 50
0.0
  9
$ANGDIR
 70
0
  9
$PDMODE
 70
0
  9
$PDSIZE
 40
0.0
  9
$PLINEWID
 40
0.0
  9
$SPLFRAME
 70
0
  9
$SPLINETYPE
 70
6
  9
$SPLINESEGS
 70
8
  9
$HANDSEED
  5
39
  9
$SURFTAB1
 70
6
  9
$SURFTAB2
 70
6
  9
$SURFTYPE
 70
6
  9
$SURFU
 70
6
  9
$SURFV
 70
6
  9
$UCSBASE
  2

  9
$UCSNAME
  2

  9
$UCSORG
 10
0.0
 20
0.0
 30
0.0
  9
$UCSXDIR
 10
1.0
 20
0.0
 30
0.0
  9
$UCSYDIR
 10
0.0
 20
1.0
 30
0.0
  9
$UCSORTHOREF
  2

  9
$UCSORTHOVIEW
 70
0
  9
$UCSORGTOP
 10
0.0
 20
0.0
 30
0.0
  9
$UCSORGBOTTOM
 10
0.0
 20
0.0
 30
0.0
  9
$UCSORGLEFT
 10
0.0
 20
0.0
 30
0.0
  9
$UCSORGRIGHT
 10
0.0
 20
0.0
 30
0.0
  9
$UCSORGFRONT
 10
0.0
 20
0.0
 30
0.0
  9
$UCSORGBACK
 10
0.0
 20
0.0
 30
0.0
  9
$PUCSBASE
  2

  9
$PUCSNAME
  2

  9
$PUCSORG
 10
0.0
 20
0.0
 30
0.0
  9
$PUCSXDIR
 10
1.0
 20
0.0
 30
0.0
  9
$PUCSYDIR
 10
0.0
 20
1.0
 30
0.0
  9
$PUCSORTHOREF
  2

  9
$PUCSORTHOVIEW
 70
0
  9
$PUCSORGTOP
 10
0.0
 20
0.0
 30
0.0
  9
$PUCSORGBOTTOM
 10
0.0
 20
0.0
 30
0.0
  9
$PUCSORGLEFT
 10
0.0
 20
0.0
 30
0.0
  9
$PUCSORGRIGHT
 10
0.0
 20
0.0
 30
0.0
  9
$PUCSORGFRONT
 10
0.0
 20
0.0
 30
0.0
  9
$PUCSORGBACK
 10
0.0
 20
0.0
 30
0.0
  9
$USERI1
 70
0
  9
$USERI2
 70
0
  9
$USERI3
 70
0
  9
$USERI4
 70
0
  9
$USERI5
 70
0
  9
$USERR1
 40
0.0
  9
$USERR2
 40
0.0
  9
$USERR3
 40
0.0
  9
$USERR4
 40
0.0
  9
$USERR5
 40
0.0
  9
$WORLDVIEW
 70
1
  9
$SHADEDGE
 70
3
  9
$SHADEDIF
 70
70
  9
$TILEMODE
 70
1
  9
$MAXACTVP
 70
64
  9
$PINSBASE
 10
0.0
 20
0.0
 30
0.0
  9
$PLIMCHECK
 70
0
  9
$PEXTMIN
 10
1e+20
 20
1e+20
 30
1e+20
  9
$PEXTMAX
 10
-1e+20
 20
-1e+20
 30
-1e+20
  9
$PLIMMIN
 10
0.0
 20
0.0
  9
$PLIMMAX
 10
420.0
 20
297.0
  9
$UNITMODE
 70
0
  9
$VISRETAIN
 70
1
  9
$PLINEGEN
 70
0
  9
$PSLTSCALE
 70
1
  9
$TREEDEPTH
 70
3020
  9
$CMLSTYLE
  2
Standard
  9
$CMLJUST
 70
0
  9
$CMLSCALE
 40
20.0
  9
$PROXYGRAPHICS
 70
1
  9
$MEASUREMENT
 70
1
  9
$CELWEIGHT
370
-1
  9
$ENDCAPS
280
0
  9
$JOINSTYLE
280
0
  9
$LWDISPLAY
290
0
  9
$INSUNITS
 70
6
  9
$HYPERLINKBASE
  1

  9
$STYLESHEET
  1

  9
$XEDIT
290
1
  9
$CEPSNTYPE
380
0
  9
$PSTYLEMODE
290
1
  9
$FINGERPRINTGUID
  2
{A71AFDC9-BD2C-46BD-8FB4-8FBFB9970DBF}
  9
$VERSIONGUID
  2
{C166C5A4-C73A-4057-B971-2A2A4E8ADC66}
  9
$EXTNAMES
290
1
  9
$PSVPSCALE
 40
0.0
  9
$OLESTARTUP
290
0
  9
$SORTENTS
280
127
  9
$INDEXCTL
280
0
  9
$HIDETEXT
280
1
  9
$XCLIPFRAME
280
1
  9
$HALOGAP
280
0
  9
$OBSCOLOR
 70
257
  9
$OBSLTYPE
280
0
  9
$INTERSECTIONDISPLAY
280
0
  9
$INTERSECTIONCOLOR
 70
257
  9
$DIMASSOC
280
2
  9
$PROJECTNAME
  1

  9
$CAMERADISPLAY
290
0
  9
$LENSLENGTH
 40
50.0
  9
$CAMERAHEIGHT
 40
0.0
  9
$STEPSPERSEC
 40
24.0
  9
$STEPSIZE
 40
100.0
  9
$3DDWFPREC
 40
2.0
  9
$PSOLWIDTH
 40
0.005
  9
$PSOLHEIGHT
 40
0.08
  9
$LOFTANG1
 40
1.570796326795
  9
$LOFTANG2
 40
1.570796326795
  9
$LOFTMAG1
 40
0.0
  9
$LOFTMAG2
 40
0.0
  9
$LOFTPARAM
 70
7
  9
$LOFTNORMALS
280
1
  9
$LATITUDE
 40
37.795
  9
$LONGITUDE
 40
-122.394
  9
$NORTHDIRECTION
 40
0.0
  9
$TIMEZONE
 70
-8000
  9
$LIGHTGLYPHDISPLAY
280
1
  9
$TILEMODELIGHTSYNCH
280
1
  9
$CMATERIAL
347
20
  9
$SOLIDHIST
280
0
  9
$SHOWHIST
280
1
  9
$DWFFRAME
280
2
  9
$DGNFRAME
280
2
  9
$REALWORLDSCALE
290
1
  9
$INTERFERECOLOR
 62
256
  9
$CSHADOW
280
0
  9
$SHADOWPLANELOCATION
 40
0.0
  0
ENDSEC
  0
SECTION
  2
CLASSES
  0
CLASS
  1
ACDBDICTIONARYWDFLT
  2
AcDbDictionaryWithDefault
  3
ObjectDBX Classes
 90
0
 91
0
280
0
281
0
  0
CLASS
  1
SUN
  2
AcDbSun
  3
SCENEOE
 90
1153
 91
0
280
0
281
0
  0
CLASS
  1
VISUALSTYLE
  2
AcDbVisualStyle
  3
ObjectDBX Classes
 90
4095
 91
0
280
0
281
0
  0
CLASS
  1
MATERIAL
  2
AcDbMaterial
  3
ObjectDBX Classes
 90
1153
 91
0
280
0
281
0
  0
CLASS
  1
SCALE
  2
AcDbScale
  3
ObjectDBX Classes
 90
1153
 91
0
280
0
281
0
  0
CLASS
  1
TABLESTYLE
  2
AcDbTableStyle
  3
ObjectDBX Classes
 90
4095
 91
0
280
0
281
0
  0
CLASS
  1
MLEADERSTYLE
  2
AcDbMLeaderStyle
  3
ACDB_MLEADERSTYLE_CLASS
 90
4095
 91
0
280
0
281
0
  0
CLASS
  1
DICTIONARYVAR
  2
AcDbDictionaryVar
  3
ObjectDBX Classes
 90
0
 91
0
280
0
281
0
  0
CLASS
  1
CELLSTYLEMAP
  2
AcDbCellStyleMap
  3
ObjectDBX Classes
 90
1152
 91
0
280
0
281
0
  0
CLASS
  1
MENTALRAYRENDERSETTINGS
  2
AcDbMentalRayRenderSettings
  3
SCENEOE
 90
1024
 91
0
280
0
281
0
  0
CLASS
  1
ACDBDETAILVIEWSTYLE
  2
AcDbDetailViewStyle
  3
ObjectDBX Classes
 90
1025
 91
0
280
0
281
0
  0
CLASS
  1
ACDBSECTIONVIEWSTYLE
  2
AcDbSectionViewStyle
  3
ObjectDBX Classes
 90
1025
 91
0
280
0
281
0
  0
CLASS
  1
RASTERVARIABLES
  2
AcDbRasterVariables
  3
ISM
 90
0
 91
0
280
0
281
0
  0
CLASS
  1
ACDBPLACEHOLDER
  2
AcDbPlaceHolder
  3
ObjectDBX Classes
 90
0
 91
0
280
0
281
0
  0
CLASS
  1
LAYOUT
  2
AcDbLayout
  3
ObjectDBX Classes
 90
0
 91
0
280
0
281
0
  0
ENDSEC
  0
SECTION
  2
TABLES
  0
TABLE
  2
VPORT
  5
8
330
0
100
AcDbSymbolTable
 70
1
  0
VPORT
  5
23
330
8
100
AcDbSymbolTableRecord
100
AcDbViewportTableRecord
  2
*Active
 70
0
 10
0.0
 20
0.0
 11
1.0
 21
1.0
 12
0.0
 22
0.0
 13
0.0
 23
0.0
 14
0.5
 24
0.5
 15
0.5
 25
0.5
 16
0.0
 26
0.0
 36
1.0
 17
0.0
 27
0.0
 37
0.0
 40
1000.0
 41
1.34
 42
50.0
 43
0.0
 44
0.0
 50
0.0
 51
0.0
 71
0
 72
1000
 73
1
 74
3
 75
0
 76
0
 77
0
 78
0
281
0
 65
0
146
0.0
  0
ENDTAB
  0
TABLE
  2
LTYPE
  5
2
330
0
100
AcDbSymbolTable
 70
3
  0
LTYPE
  5
24
330
2
100
AcDbSymbolTableRecord
100
AcDbLinetypeTableRecord
  2
ByBlock
 70
0
  3

 72
65
 73
0
 40
0.0
  0
LTYPE
  5
25
330
2
100
AcDbSymbolTableRecord
100
AcDbLinetypeTableRecord
  2
ByLayer
 70
0
  3

 72
65
 73
0
 40
0.0
  0
LTYPE
  5
26
330
2
100
AcDbSymbolTableRecord
100
AcDbLinetypeTableRecord
  2
Continuous
 70
0
  3

 72
65
 73
0
 40
0.0
  0
ENDTAB
  0
TABLE
  2
LAYER
  5
1
330
0
100
AcDbSymbolTable
 70
4
  0
LAYER
  5
27
330
1
100
AcDbSymbolTableRecord
100
AcDbLayerTableRecord
  2
0
 70
0
 62
7
  6
Continuous
370
-3
390
13
347
21
  0
LAYER
  5
28
330
1
100
AcDbSymbolTableRecord
100
AcDbLayerTableRecord
  2
Defpoints
 70
0
 62
7
  6
Continuous
290
0
370
-3
390
13
347
21
  0
LAYER
  5
2F
330
1
100
AcDbSymbolTableRecord
100
AcDbLayerTableRecord
  2
Outline
 70
0
 62
7
  6
Continuous
370
-3
390
13
347
21
  0
LAYER
  5
30
330
1
100
AcDbSymbolTableRecord
100
AcDbLayerTableRecord
  2
BoundaryBox
 70
0
 62
3
  6
Continuous
370
-3
390
13
347
21
  0
ENDTAB
  0
TABLE
  2
STYLE
  5
5
330
0
100
AcDbSymbolTable
 70
1
  0
STYLE
  5
29
330
5
100
AcDbSymbolTableRecord
100
AcDbTextStyleTableRecord
  2
Standard
 70
0
 40
0.0
 41
1.0
 50
0.0
 71
0
 42
2.5
  3
txt
  4

  0
ENDTAB
  0
TABLE
  2
VIEW
  5
7
330
0
100
AcDbSymbolTable
 70
0
  0
ENDTAB
  0
TABLE
  2
UCS
  5
6
330
0
100
AcDbSymbolTable
 70
0
  0
ENDTAB
  0
TABLE
  2
APPID
  5
3
330
0
100
AcDbSymbolTable
 70
3
  0
APPID
  5
2A
330
3
100
AcDbSymbolTableRecord
100
AcDbRegAppTableRecord
  2
ACAD
 70
0
  0
APPID
  5
36
330
3
100
AcDbSymbolTableRecord
100
AcDbRegAppTableRecord
  2
HATCHBACKGROUNDCOLOR
 70
0
  0
APPID
  5
37
330
3
100
AcDbSymbolTableRecord
100
AcDbRegAppTableRecord
  2
EZDXF
 70
0
  0
ENDTAB
  0
TABLE
  2
DIMSTYLE
  5
4
330
0
100
AcDbSymbolTable
 70
1
100
AcDbDimStyleTable
  0
DIMSTYLE
105
2B
330
4
100
AcDbSymbolTableRecord
100
AcDbDimStyleTableRecord
  2
Standard
 70
0
 40
1.0
 41
2.5
 42
0.625
 43
3.75
 44
1.25
 45
0.0
 46
0.0
 47
0.0
 48
0.0
 49
2.5
140
2.5
141
2.5
142
0.0
143
0.03937007874
144
1.0
145
0.0
146
1.0
147
0.625
148
0.0
 69
0
 70
0
 71
0
 72
0
 73
0
 74
0
 75
0
 76
0
 77
1
 78
8
 79
3
170
0
171
3
172
1
173
0
174
0
175
0
176
0
177
0
178
0
179
2
271
2
272
2
273
2
274
3
275
0
276
0
277
2
278
44
279
0
280
0
281
0
282
0
283
0
284
8
285
0
286
0
288
0
289
3
290
0
371
-2
372
-2
  0
ENDTAB
  0
TABLE
  2
BLOCK_RECORD
  5
9
330
0
100
AcDbSymbolTable
 70
2
  0
BLOCK_RECORD
  5
17
330
9
100
AcDbSymbolTableRecord
100
AcDbBlockTableRecord
  2
*Model_Space
340
1A
 70
0
280
1
281
0
  0
BLOCK_RECORD
  5
1B
330
9
100
AcDbSymbolTableRecord
100
AcDbBlockTableRecord
  2
*Paper_Space
340
1E
 70
0
280
1
281
0
  0
ENDTAB
  0
ENDSEC
  0
SECTION
  2
BLOCKS
  0
BLOCK
  5
18
330
17
100
AcDbEntity
  8
0
100
AcDbBlockBegin
  2
*Model_Space
 70
0
 10
0.0
 20
0.0
 30
0.0
  3
*Model_Space
  1

  0
ENDBLK
  5
19
330
17
100
AcDbEntity
  8
0
100
AcDbBlockEnd
  0
BLOCK
  5
1C
330
1B
100
AcDbEntity
  8
0
100
AcDbBlockBegin
  2
*Paper_Space
 70
0
 10
0.0
 20
0.0
 30
0.0
  3
*Paper_Space
  1

  0
ENDBLK
  5
1D
330
1B
100
AcDbEntity
  8
0
100
AcDbBlockEnd
  0
ENDSEC
  0
SECTION
  2
ENTITIES
  0
LWPOLYLINE
  5
31
330
17
100
AcDbEntity
  8
BoundaryBox
100
AcDbPolyline
 90
5
 70
1
 10
0.0
 20
16.59801483154297
 10
21.790796279907227
 20
16.59801483154297
 10
21.790796279907227
 20
0.0
 10
0.0
 20
0.0
 10
0.0
 20
16.59801483154297
  0
LWPOLYLINE
  5
32
330
17
100
AcDbEntity
  8
Outline
100
AcDbPolyline
 90
5
 70
0
 10
1.3219713346969402
 20
1.0934134154506134
 10
19.302889895195303
 20
1.0934134154506134
 10
19.302889895195303
 20
8.472312073405574
 10
1.3219713346969402
 20
8.472312073405574
 10
1.3219713346969402
 20
1.0934134154506134
  0
LWPOLYLINE
  5
33
330
17
100
AcDbEntity
  8
Outline
100
AcDbPolyline
 90
351
 70
0
 10
1.7561039924621582
 20
11.084226608276367
 10
1.7372212409973145
 20
11.065343856811523
 10
1.7183383703231812
 20
11.065343856811523
 10
1.7183383703231812
 20
11.04646110534668
 10
1.6994554996490479
 20
11.027578353881836
 10
1.6994554996490479
 20
11.008695602416992
 10
1.6805726289749146
 20
10.989811897277832
 10
1.6805726289749146
 20
10.952046394348145
 10
1.6616898775100708
 20
10.9331636428833
 10
1.6616898775100708
 20
10.838749885559082
 10
1.6805726289749146
 20
10.819867134094238
 10
1.6805726289749146
 20
10.53662395477295
 10
1.6994554996490479
 20
10.517741203308105
 10
1.6994554996490479
 20
10.423327445983887
 10
1.7183383703231812
 20
10.404444694519043
 10
1.7183383703231812
 20
10.366678237915039
 10
1.9071667194366455
 20
10.177849769592285
 10
1.9071667194366455
 20
10.158967018127441
 10
1.944932460784912
 20
10.121201515197754
 10
1.944932460784912
 20
10.10231876373291
 10
1.9826980829238892
 20
10.064553260803223
 10
1.9826980829238892
 20
10.045670509338379
 10
2.0959951877593994
 20
9.932373046875
 10
2.114877939224243
 20
9.932373046875
 10
2.133760690689087
 20
9.913490295410156
 10
2.1526436805725098
 20
9.913490295410156
 10
2.1715264320373535
 20
9.894607543945312
 10
2.1904094219207764
 20
9.894607543945312
 10
2.20929217338562
 20
9.875724792480469
 10
2.2470579147338867
 20
9.875724792480469
 10
2.2659406661987305
 20
9.856842041015625
 10
2.303706407546997
 20
9.856842041015625
 10
2.322589159011841
 20
9.837959289550781
 10
2.379237651824951
 20
9.837959289550781
 10
2.398120641708374
 20
9.819076538085938
 10
2.4547691345214844
 20
9.819076538085938
 10
2.473651885986328
 20
9.800193786621094
 10
2.643597364425659
 20
9.800193786621094
 10
2.662480354309082
 20
9.78131103515625
 10
2.92684006690979
 20
9.78131103515625
 10
2.945722818374634
 20
9.800193786621094
 10
3.549973726272583
 20
9.800193786621094
 10
3.5688564777374268
 20
9.78131103515625
 10
3.8709819316864014
 20
9.78131103515625
 10
3.889864921569824
 20
9.76242733001709
 10
4.022044658660889
 20
9.76242733001709
 10
4.040927410125732
 20
9.743544578552246
 10
4.229755878448486
 20
9.743544578552246
 10
4.24863862991333
 20
9.724661827087402
 10
4.47523307800293
 20
9.724661827087402
 10
4.494115829467773
 20
9.743544578552246
 10
5.494905948638916
 20
9.743544578552246
 10
5.513789176940918
 20
9.724661827087402
 10
6.004742622375488
 20
9.724661827087402
 10
6.02362585067749
 20
9.705779075622559
 10
6.7034077644348145
 20
9.705779075622559
 10
6.722290515899658
 20
9.686896324157715
 10
7.005533218383789
 20
9.686896324157715
 10
7.024415969848633
 20
9.668013572692871
 10
8.516160011291504
 20
9.668013572692871
 10
8.535042762756348
 20
9.649130821228027
 10
8.704988479614258
 20
9.649130821228027
 10
8.723871231079102
 20
9.630248069763184
 10
8.856051445007324
 20
9.630248069763184
 10
8.874934196472168
 20
9.649130821228027
 10
8.969348907470703
 20
9.649130821228027
 10
8.988231658935547
 20
9.630248069763184
 10
9.233708381652832
 20
9.630248069763184
 10
9.252591133117676
 20
9.61136531829834
 10
9.78131103515625
 20
9.61136531829834
 10
9.800193786621094
 20
9.592482566833496
 10
10.140084266662598
 20
9.592482566833496
 10
10.158967018127441
 20
9.573599815368652
 10
10.310029983520508
 20
9.573599815368652
 10
10.328912734985352
 20
9.592482566833496
 10
10.517741203308105
 20
9.592482566833496
 10
10.53662395477295
 20
9.573599815368652
 10
10.895398139953613
 20
9.573599815368652
 10
10.914280891418457
 20
9.592482566833496
 10
11.53741455078125
 20
9.592482566833496
 10
11.556297302246094
 20
9.573599815368652
 10
11.952836990356445
 20
9.573599815368652
 10
11.971719741821289
 20
9.554716110229492
 10
12.594853401184082
 20
9.554716110229492
 10
12.613736152648926
 20
9.573599815368652
 10
13.010275840759277
 20
9.573599815368652
 10
13.029158592224121
 20
9.592482566833496
 10
13.274636268615723
 20
9.592482566833496
 10
13.293519020080566
 20
9.61136531829834
 10
14.29430866241455
 20
9.61136531829834
 10
14.313192367553711
 20
9.630248069763184
 10
14.539786338806152
 20
9.630248069763184
 10
14.558669090270996
 20
9.61136531829834
 10
14.653082847595215
 20
9.61136531829834
 10
14.671965599060059
 20
9.592482566833496
 10
14.709732055664062
 20
9.592482566833496
 10
14.728614807128906
 20
9.573599815368652
 10
14.804145812988281
 20
9.573599815368652
 10
14.823028564453125
 20
9.554716110229492
 10
15.030739784240723
 20
9.554716110229492
 10
15.049622535705566
 20
9.535833358764648
 10
15.540576934814453
 20
9.535833358764648
 10
15.559459686279297
 20
9.516950607299805
 10
15.634990692138672
 20
9.516950607299805
 10
15.653873443603516
 20
9.498067855834961
 10
15.804936408996582
 20
9.498067855834961
 10
15.823819160461426
 20
9.479185104370117
 10
16.144826889038086
 20
9.479185104370117
 10
16.16370964050293
 20
9.460302352905273
 10
16.29589080810547
 20
9.460302352905273
 10
16.314773559570312
 20
9.44141960144043
 10
16.673547744750977
 20
9.44141960144043
 10
16.69243049621582
 20
9.422536849975586
 10
16.99455451965332
 20
9.422536849975586
 10
17.013437271118164
 20
9.403654098510742
 10
17.164501190185547
 20
9.403654098510742
 10
17.18338394165039
 20
9.384771347045898
 10
17.258914947509766
 20
9.384771347045898
 10
17.27779769897461
 20
9.365888595581055
 10
17.82539939880371
 20
9.365888595581055
 10
17.882047653198242
 20
9.309239387512207
 10
17.95758056640625
 20
9.309239387512207
 10
17.976463317871094
 20
9.290356636047363
 10
18.146408081054688
 20
9.290356636047363
 10
18.16529083251953
 20
9.27147388458252
 10
18.3541202545166
 20
9.27147388458252
 10
18.373003005981445
 20
9.252591133117676
 10
18.524065017700195
 20
9.252591133117676
 10
18.54294776916504
 20
9.233708381652832
 10
18.73177719116211
 20
9.233708381652832
 10
18.750659942626953
 20
9.214825630187988
 10
19.015018463134766
 20
9.214825630187988
 10
19.03390121459961
 20
9.195942878723145
 10
19.052783966064453
 20
9.195942878723145
 10
19.071666717529297
 20
9.1770601272583
 10
19.184965133666992
 20
9.1770601272583
 10
19.203847885131836
 20
9.158177375793457
 10
19.354909896850586
 20
9.158177375793457
 10
19.37379264831543
 20
9.139293670654297
 10
19.392675399780273
 20
9.139293670654297
 10
19.411558151245117
 20
9.120410919189453
 10
19.65703582763672
 20
9.120410919189453
 10
19.675918579101562
 20
9.10152816772461
 10
19.751449584960938
 20
9.10152816772461
 10
19.77033233642578
 20
9.082645416259766
 10
19.80809783935547
 20
9.082645416259766
 10
19.826980590820312
 20
9.063762664794922
 10
19.86474609375
 20
9.063762664794922
 10
19.883628845214844
 20
9.044879913330078
 10
20.072458267211914
 20
9.044879913330078
 10
20.091341018676758
 20
9.025997161865234
 10
20.1102237701416
 20
9.025997161865234
 10
20.129106521606445
 20
9.00711441040039
 10
20.20463752746582
 20
9.00711441040039
 10
20.223520278930664
 20
8.988231658935547
 10
20.317934036254883
 20
8.988231658935547
 10
20.336816787719727
 20
9.00711441040039
 10
20.35569953918457
 20
9.00711441040039
 10
20.374584197998047
 20
9.025997161865234
 10
20.374584197998047
 20
9.044879913330078
 10
20.39346694946289
 20
9.063762664794922
 10
20.39346694946289
 20
9.139293670654297
 10
20.374584197998047
 20
9.158177375793457
 10
20.374584197998047
 20
9.195942878723145
 10
20.39346694946289
 20
9.214825630187988
 10
20.39346694946289
 20
9.290356636047363
 10
20.374584197998047
 20
9.309239387512207
 10
20.39346694946289
 20
9.32812213897705
 10
20.39346694946289
 20
9.422536849975586
 10
20.374584197998047
 20
9.44141960144043
 10
20.374584197998047
 20
9.592482566833496
 10
20.39346694946289
 20
9.61136531829834
 10
20.39346694946289
 20
9.668013572692871
 10
20.374584197998047
 20
9.686896324157715
 10
20.374584197998047
 20
9.724661827087402
 10
20.35569953918457
 20
9.743544578552246
 10
20.35569953918457
 20
9.76242733001709
 10
20.29905128479004
 20
9.819076538085938
 10
20.29905128479004
 20
9.837959289550781
 10
20.317934036254883
 20
9.856842041015625
 10
20.336816787719727
 20
9.856842041015625
 10
20.35569953918457
 20
9.875724792480469
 10
20.374584197998047
 20
9.875724792480469
 10
20.374584197998047
 20
9.894607543945312
 10
20.39346694946289
 20
9.913490295410156
 10
20.39346694946289
 20
10.385560989379883
 10
20.412349700927734
 20
10.404444694519043
 10
20.412349700927734
 20
10.479975700378418
 10
20.39346694946289
 20
10.498858451843262
 10
20.39346694946289
 20
10.61215591430664
 10
20.374584197998047
 20
10.631038665771484
 10
20.374584197998047
 20
10.668804168701172
 10
20.223520278930664
 20
10.668804168701172
 10
20.20463752746582
 20
10.649921417236328
 10
20.091341018676758
 20
10.649921417236328
 10
20.072458267211914
 20
10.631038665771484
 10
19.92139434814453
 20
10.631038665771484
 10
19.902511596679688
 20
10.61215591430664
 10
19.80809783935547
 20
10.61215591430664
 10
19.789215087890625
 20
10.631038665771484
 10
19.298261642456055
 20
10.631038665771484
 10
19.27937889099121
 20
10.61215591430664
 10
18.769542694091797
 20
10.61215591430664
 10
18.750659942626953
 20
10.59327220916748
 10
18.618478775024414
 20
10.59327220916748
 10
18.59959602355957
 20
10.574389457702637
 10
18.561830520629883
 20
10.574389457702637
 10
18.54294776916504
 20
10.59327220916748
 10
18.297470092773438
 20
10.59327220916748
 10
18.278587341308594
 20
10.574389457702637
 10
18.20305633544922
 20
10.574389457702637
 10
18.184173583984375
 20
10.555506706237793
 10
18.033111572265625
 20
10.555506706237793
 10
18.01422882080078
 20
10.53662395477295
 10
17.8631649017334
 20
10.53662395477295
 10
17.844282150268555
 20
10.517741203308105
 10
17.579923629760742
 20
10.517741203308105
 10
17.5610408782959
 20
10.498858451843262
 10
17.18338394165039
 20
10.498858451843262
 10
17.164501190185547
 20
10.479975700378418
 10
16.99455451965332
 20
10.479975700378418
 10
16.975671768188477
 20
10.461092948913574
 10
16.824609756469727
 20
10.461092948913574
 10
16.805727005004883
 20
10.44221019744873
 10
16.314773559570312
 20
10.44221019744873
 10
16.29589080810547
 20
10.423327445983887
 10
16.182592391967773
 20
10.423327445983887
 10
16.16370964050293
 20
10.404444694519043
 10
16.050413131713867
 20
10.404444694519043
 10
16.031530380249023
 20
10.385560989379883
 10
15.786053657531738
 20
10.385560989379883
 10
15.767170906066895
 20
10.404444694519043
 10
15.313982009887695
 20
10.404444694519043
 10
15.295099258422852
 20
10.423327445983887
 10
15.087388038635254
 20
10.423327445983887
 10
15.06850528717041
 20
10.44221019744873
 10
14.823028564453125
 20
10.44221019744873
 10
14.804145812988281
 20
10.461092948913574
 10
14.615317344665527
 20
10.461092948913574
 10
14.596434593200684
 20
10.479975700378418
 10
14.464254379272461
 20
10.479975700378418
 10
14.445371627807617
 20
10.498858451843262
 10
14.256543159484863
 20
10.498858451843262
 10
14.23766040802002
 20
10.517741203308105
 10
14.029949188232422
 20
10.517741203308105
 10
14.011066436767578
 20
10.53662395477295
 10
13.80335521697998
 20
10.53662395477295
 10
13.784472465515137
 20
10.555506706237793
 10
13.614526748657227
 20
10.555506706237793
 10
13.595643997192383
 20
10.574389457702637
 10
13.425698280334473
 20
10.574389457702637
 10
13.406815528869629
 20
10.59327220916748
 10
13.274636268615723
 20
10.59327220916748
 10
13.255752563476562
 20
10.61215591430664
 10
12.991393089294434
 20
10.61215591430664
 10
12.97251033782959
 20
10.631038665771484
 10
12.519322395324707
 20
10.631038665771484
 10
12.500439643859863
 20
10.649921417236328
 10
12.31161117553711
 20
10.649921417236328
 10
12.292728424072266
 20
10.668804168701172
 10
12.160548210144043
 20
10.668804168701172
 10
12.1416654586792
 20
10.649921417236328
 10
12.085017204284668
 20
10.649921417236328
 10
12.066134452819824
 20
10.668804168701172
 10
11.556297302246094
 20
10.668804168701172
 10
11.53741455078125
 20
10.649921417236328
 10
11.461883544921875
 20
10.649921417236328
 10
11.443000793457031
 20
10.668804168701172
 10
11.424118041992188
 20
10.649921417236328
 10
10.782100677490234
 20
10.649921417236328
 10
10.76321792602539
 20
10.631038665771484
 10
10.574389457702637
 20
10.631038665771484
 10
10.555506706237793
 20
10.61215591430664
 10
10.479975700378418
 20
10.61215591430664
 10
10.461092948913574
 20
10.59327220916748
 10
10.253381729125977
 20
10.59327220916748
 10
10.234498977661133
 20
10.574389457702637
 10
10.026787757873535
 20
10.574389457702637
 10
10.007905006408691
 20
10.59327220916748
 10
9.894607543945312
 20
10.59327220916748
 10
9.875724792480469
 20
10.61215591430664
 10
9.837959289550781
 20
10.61215591430664
 10
9.819076538085938
 20
10.631038665771484
 10
9.743544578552246
 20
10.631038665771484
 10
9.724661827087402
 20
10.649921417236328
 10
9.592482566833496
 20
10.649921417236328
 10
9.573599815368652
 20
10.668804168701172
 10
9.554716110229492
 20
10.649921417236328
 10
9.214825630187988
 20
10.649921417236328
 10
9.195942878723145
 20
10.668804168701172
 10
8.9315824508667
 20
10.668804168701172
 10
8.912699699401855
 20
10.687686920166016
 10
8.686105728149414
 20
10.687686920166016
 10
8.66722297668457
 20
10.70656967163086
 10
8.34621524810791
 20
10.70656967163086
 10
8.32733154296875
 20
10.725452423095703
 10
7.704198360443115
 20
10.725452423095703
 10
7.6853156089782715
 20
10.744335174560547
 10
7.45872163772583
 20
10.744335174560547
 10
7.439838409423828
 20
10.76321792602539
 10
7.269893169403076
 20
10.76321792602539
 10
7.251009941101074
 20
10.782100677490234
 10
7.099947452545166
 20
10.782100677490234
 10
7.081064701080322
 20
10.800984382629395
 10
6.816704750061035
 20
10.800984382629395
 10
6.797821998596191
 20
10.819867134094238
 10
6.4390482902526855
 20
10.819867134094238
 10
6.420165061950684
 20
10.838749885559082
 10
6.155805587768555
 20
10.838749885559082
 10
6.136922836303711
 20
10.857632637023926
 10
6.042508602142334
 20
10.857632637023926
 10
6.02362585067749
 20
10.87651538848877
 10
5.872562885284424
 20
10.87651538848877
 10
5.85368013381958
 20
10.895398139953613
 10
5.608203411102295
 20
10.895398139953613
 10
5.589320182800293
 20
10.914280891418457
 10
4.739592552185059
 20
10.914280891418457
 10
4.720709800720215
 20
10.895398139953613
 10
4.267521381378174
 20
10.895398139953613
 10
4.24863862991333
 20
10.914280891418457
 10
4.097576141357422
 20
10.914280891418457
 10
4.078693389892578
 20
10.9331636428833
 10
3.984278917312622
 20
10.9331636428833
 10
3.9653961658477783
 20
10.952046394348145
 10
3.889864921569824
 20
10.952046394348145
 10
3.8709819316864014
 20
10.970929145812988
 10
3.7954506874084473
 20
10.970929145812988
 10
3.7765676975250244
 20
10.989811897277832
 10
3.6632707118988037
 20
10.989811897277832
 10
3.64438796043396
 20
11.008695602416992
 10
3.3044967651367188
 20
11.008695602416992
 10
3.285614013671875
 20
10.989811897277832
 10
3.002371311187744
 20
10.989811897277832
 10
2.9834885597229004
 20
10.970929145812988
 10
2.7002460956573486
 20
10.970929145812988
 10
2.681363105773926
 20
10.989811897277832
 10
2.5491833686828613
 20
10.989811897277832
 10
2.5303003787994385
 20
11.008695602416992
 10
2.398120641708374
 20
11.008695602416992
 10
2.379237651824951
 20
11.027578353881836
 10
2.303706407546997
 20
11.027578353881836
 10
2.284823417663574
 20
11.008695602416992
 10
2.228174924850464
 20
11.008695602416992
 10
2.20929217338562
 20
11.027578353881836
 10
2.058229446411133
 20
11.027578353881836
 10
2.039346694946289
 20
11.04646110534668
 10
1.9260495901107788
 20
11.04646110534668
 10
1.9071667194366455
 20
11.065343856811523
 10
1.8505182266235352
 20
11.065343856811523
 10
1.8316353559494019
 20
11.084226608276367
 10
1.7561039924621582
 20
11.084226608276367
  0
LWPOLYLINE
  5
34
330
17
100
AcDbEntity
  8
Outline
100
AcDbPolyline
 90
276
 70
0
 10
6.7034077644348145
 20
12.896979331970215
 10
6.684525012969971
 20
12.878096580505371
 10
6.476813793182373
 20
12.878096580505371
 10
6.457931041717529
 20
12.859213829040527
 10
6.420165061950684
 20
12.859213829040527
 10
6.363516807556152
 20
12.80256462097168
 10
6.363516807556152
 20
12.783681869506836
 10
6.344634056091309
 20
12.764799118041992
 10
6.344634056091309
 20
12.727033615112305
 10
6.325751304626465
 20
12.708150863647461
 10
6.325751304626465
 20
12.31161117553711
 10
6.306868076324463
 20
12.292728424072266
 10
6.306868076324463
 20
11.896188735961914
 10
6.325751304626465
 20
11.87730598449707
 10
6.325751304626465
 20
11.782891273498535
 10
6.344634056091309
 20
11.764008522033691
 10
6.344634056091309
 20
11.726243019104004
 10
6.363516807556152
 20
11.70736026763916
 10
6.363516807556152
 20
11.688477516174316
 10
6.40128231048584
 20
11.650712013244629
 10
6.457931041717529
 20
11.650712013244629
 10
6.476813793182373
 20
11.631829261779785
 10
6.760056495666504
 20
11.631829261779785
 10
6.778939247131348
 20
11.612945556640625
 10
6.967767715454102
 20
11.612945556640625
 10
6.986650466918945
 20
11.594062805175781
 10
7.307658672332764
 20
11.594062805175781
 10
7.326541423797607
 20
11.575180053710938
 10
7.553135395050049
 20
11.575180053710938
 10
7.572018623352051
 20
11.594062805175781
 10
7.798612594604492
 20
11.594062805175781
 10
7.817495346069336
 20
11.575180053710938
 10
8.478394508361816
 20
11.575180053710938
 10
8.49727725982666
 20
11.594062805175781
 10
8.648340225219727
 20
11.594062805175781
 10
8.66722297668457
 20
11.612945556640625
 10
9.139293670654297
 20
11.612945556640625
 10
9.158177375793457
 20
11.631829261779785
 10
9.535833358764648
 20
11.631829261779785
 10
9.554716110229492
 20
11.612945556640625
 10
10.857632637023926
 20
11.612945556640625
 10
10.87651538848877
 20
11.594062805175781
 10
10.989811897277832
 20
11.594062805175781
 10
11.008695602416992
 20
11.612945556640625
 10
11.065343856811523
 20
11.612945556640625
 10
11.084226608276367
 20
11.594062805175781
 10
11.140874862670898
 20
11.594062805175781
 10
11.159757614135742
 20
11.612945556640625
 10
11.19752311706543
 20
11.612945556640625
 10
11.21640682220459
 20
11.594062805175781
 10
12.236079216003418
 20
11.594062805175781
 10
12.254962921142578
 20
11.575180053710938
 10
12.349376678466797
 20
11.575180053710938
 10
12.36825942993164
 20
11.594062805175781
 10
12.387142181396484
 20
11.594062805175781
 10
12.406024932861328
 20
11.575180053710938
 10
12.613736152648926
 20
11.575180053710938
 10
12.63261890411377
 20
11.556297302246094
 10
12.65150260925293
 20
11.575180053710938
 10
12.764799118041992
 20
11.575180053710938
 10
12.783681869506836
 20
11.556297302246094
 10
12.859213829040527
 20
11.556297302246094
 10
12.878096580505371
 20
11.575180053710938
 10
12.896979331970215
 20
11.575180053710938
 10
12.915862083435059
 20
11.556297302246094
 10
12.991393089294434
 20
11.556297302246094
 10
13.010275840759277
 20
11.575180053710938
 10
13.123573303222656
 20
11.575180053710938
 10
13.1424560546875
 20
11.556297302246094
 10
13.161338806152344
 20
11.556297302246094
 10
13.180221557617188
 20
11.575180053710938
 10
13.255752563476562
 20
11.575180053710938
 10
13.274636268615723
 20
11.556297302246094
 10
13.350167274475098
 20
11.556297302246094
 10
13.369050025939941
 20
11.575180053710938
 10
13.444581031799316
 20
11.575180053710938
 10
13.46346378326416
 20
11.556297302246094
 10
13.538995742797852
 20
11.556297302246094
 10
13.557878494262695
 20
11.575180053710938
 10
13.576761245727539
 20
11.556297302246094
 10
13.954418182373047
 20
11.556297302246094
 10
13.97330093383789
 20
11.53741455078125
 10
14.011066436767578
 20
11.53741455078125
 10
14.029949188232422
 20
11.556297302246094
 10
14.256543159484863
 20
11.556297302246094
 10
14.275425910949707
 20
11.575180053710938
 10
14.29430866241455
 20
11.575180053710938
 10
14.313192367553711
 20
11.594062805175781
 10
14.615317344665527
 20
11.594062805175781
 10
14.634200096130371
 20
11.575180053710938
 10
14.785263061523438
 20
11.575180053710938
 10
14.804145812988281
 20
11.556297302246094
 10
14.955208778381348
 20
11.556297302246094
 10
14.974091529846191
 20
11.53741455078125
 10
15.011857032775879
 20
11.53741455078125
 10
15.030739784240723
 20
11.518531799316406
 10
15.540576934814453
 20
11.518531799316406
 10
15.559459686279297
 20
11.53741455078125
 10
16.29589080810547
 20
11.53741455078125
 10
16.314773559570312
 20
11.518531799316406
 10
17.202266693115234
 20
11.518531799316406
 10
17.221149444580078
 20
11.499649047851562
 10
17.240032196044922
 20
11.499649047851562
 10
17.258914947509766
 20
11.518531799316406
 10
17.372211456298828
 20
11.518531799316406
 10
17.391094207763672
 20
11.499649047851562
 10
17.579923629760742
 20
11.499649047851562
 10
17.598806381225586
 20
11.518531799316406
 10
17.730985641479492
 20
11.518531799316406
 10
17.749868392944336
 20
11.499649047851562
 10
18.184173583984375
 20
11.499649047851562
 10
18.20305633544922
 20
11.518531799316406
 10
18.39188575744629
 20
11.518531799316406
 10
18.410768508911133
 20
11.53741455078125
 10
18.6562442779541
 20
11.53741455078125
 10
18.675127029418945
 20
11.556297302246094
 10
19.128314971923828
 20
11.556297302246094
 10
19.147199630737305
 20
11.53741455078125
 10
19.3171443939209
 20
11.53741455078125
 10
19.336027145385742
 20
11.518531799316406
 10
19.751449584960938
 20
11.518531799316406
 10
19.77033233642578
 20
11.499649047851562
 10
20.280168533325195
 20
11.499649047851562
 10
20.29905128479004
 20
11.518531799316406
 10
20.317934036254883
 20
11.518531799316406
 10
20.317934036254883
 20
11.53741455078125
 10
20.336816787719727
 20
11.556297302246094
 10
20.336816787719727
 20
11.575180053710938
 10
20.35569953918457
 20
11.594062805175781
 10
20.35569953918457
 20
11.990602493286133
 10
20.336816787719727
 20
11.990602493286133
 10
20.317934036254883
 20
12.009485244750977
 10
20.223520278930664
 20
12.009485244750977
 10
20.20463752746582
 20
12.02836799621582
 10
20.166872024536133
 20
12.02836799621582
 10
20.14798927307129
 20
12.009485244750977
 10
19.92139434814453
 20
12.009485244750977
 10
19.902511596679688
 20
12.02836799621582
 10
19.751449584960938
 20
12.02836799621582
 10
19.732566833496094
 20
12.009485244750977
 10
19.61927032470703
 20
12.009485244750977
 10
19.581504821777344
 20
12.04725170135498
 10
19.600387573242188
 20
12.066134452819824
 10
19.65703582763672
 20
12.066134452819824
 10
19.675918579101562
 20
12.085017204284668
 10
19.694801330566406
 20
12.085017204284668
 10
19.71368408203125
 20
12.103899955749512
 10
19.71368408203125
 20
12.160548210144043
 10
19.751449584960938
 20
12.19831371307373
 10
20.05357551574707
 20
12.19831371307373
 10
20.072458267211914
 20
12.217196464538574
 10
20.20463752746582
 20
12.217196464538574
 10
20.223520278930664
 20
12.236079216003418
 10
20.26128578186035
 20
12.236079216003418
 10
20.280168533325195
 20
12.254962921142578
 10
20.29905128479004
 20
12.254962921142578
 10
20.336816787719727
 20
12.292728424072266
 10
20.336816787719727
 20
12.387142181396484
 10
20.35569953918457
 20
12.406024932861328
 10
20.35569953918457
 20
12.613736152648926
 10
20.29905128479004
 20
12.670385360717773
 10
20.129106521606445
 20
12.670385360717773
 10
20.1102237701416
 20
12.65150260925293
 10
19.845863342285156
 20
12.65150260925293
 10
19.826980590820312
 20
12.63261890411377
 10
19.732566833496094
 20
12.63261890411377
 10
19.71368408203125
 20
12.613736152648926
 10
19.61927032470703
 20
12.613736152648926
 10
19.600387573242188
 20
12.594853401184082
 10
19.392675399780273
 20
12.594853401184082
 10
19.37379264831543
 20
12.575970649719238
 10
18.977252960205078
 20
12.575970649719238
 10
18.958370208740234
 20
12.557087898254395
 10
18.845073699951172
 20
12.557087898254395
 10
18.826190948486328
 20
12.575970649719238
 10
18.807308197021484
 20
12.575970649719238
 10
18.769542694091797
 20
12.613736152648926
 10
18.769542694091797
 20
12.63261890411377
 10
18.69400978088379
 20
12.708150863647461
 10
18.6562442779541
 20
12.708150863647461
 10
18.637361526489258
 20
12.727033615112305
 10
18.618478775024414
 20
12.727033615112305
 10
18.59959602355957
 20
12.745916366577148
 10
18.16529083251953
 20
12.745916366577148
 10
18.146408081054688
 20
12.764799118041992
 10
18.033111572265625
 20
12.764799118041992
 10
18.01422882080078
 20
12.745916366577148
 10
17.976463317871094
 20
12.745916366577148
 10
17.95758056640625
 20
12.764799118041992
 10
17.730985641479492
 20
12.764799118041992
 10
17.71210289001465
 20
12.745916366577148
 10
17.67433738708496
 20
12.745916366577148
 10
17.655454635620117
 20
12.727033615112305
 10
17.636571884155273
 20
12.727033615112305
 10
17.61768913269043
 20
12.745916366577148
 10
17.579923629760742
 20
12.745916366577148
 10
17.5610408782959
 20
12.764799118041992
 10
17.372211456298828
 20
12.764799118041992
 10
17.353328704833984
 20
12.745916366577148
 10
17.258914947509766
 20
12.745916366577148
 10
17.240032196044922
 20
12.764799118041992
 10
17.013437271118164
 20
12.764799118041992
 10
16.99455451965332
 20
12.745916366577148
 10
16.956789016723633
 20
12.745916366577148
 10
16.93790626525879
 20
12.764799118041992
 10
16.767961502075195
 20
12.764799118041992
 10
16.74907875061035
 20
12.783681869506836
 10
16.711313247680664
 20
12.783681869506836
 10
16.69243049621582
 20
12.764799118041992
 10
16.40918731689453
 20
12.764799118041992
 10
16.390304565429688
 20
12.783681869506836
 10
16.3525390625
 20
12.783681869506836
 10
16.333656311035156
 20
12.764799118041992
 10
16.277008056640625
 20
12.764799118041992
 10
16.25812530517578
 20
12.783681869506836
 10
16.125944137573242
 20
12.783681869506836
 10
16.1070613861084
 20
12.80256462097168
 10
16.031530380249023
 20
12.80256462097168
 10
16.01264762878418
 20
12.783681869506836
 10
15.691638946533203
 20
12.783681869506836
 10
15.67275619506836
 20
12.764799118041992
 10
14.709732055664062
 20
12.764799118041992
 10
14.690848350524902
 20
12.783681869506836
 10
14.671965599060059
 20
12.783681869506836
 10
14.653082847595215
 20
12.764799118041992
 10
14.483137130737305
 20
12.764799118041992
 10
14.464254379272461
 20
12.783681869506836
 10
14.181012153625488
 20
12.783681869506836
 10
14.162129402160645
 20
12.80256462097168
 10
13.520112991333008
 20
12.80256462097168
 10
13.501230239868164
 20
12.821447372436523
 10
12.708150863647461
 20
12.821447372436523
 10
12.689268112182617
 20
12.80256462097168
 10
12.557087898254395
 20
12.80256462097168
 10
12.53820514678955
 20
12.821447372436523
 10
12.519322395324707
 20
12.821447372436523
 10
12.500439643859863
 20
12.840330123901367
 10
12.406024932861328
 20
12.840330123901367
 10
12.387142181396484
 20
12.859213829040527
 10
12.02836799621582
 20
12.859213829040527
 10
12.009485244750977
 20
12.878096580505371
 10
11.915071487426758
 20
12.878096580505371
 10
11.896188735961914
 20
12.859213829040527
 10
11.178640365600586
 20
12.859213829040527
 10
11.159757614135742
 20
12.840330123901367
 10
11.04646110534668
 20
12.840330123901367
 10
11.027578353881836
 20
12.859213829040527
 10
10.989811897277832
 20
12.859213829040527
 10
10.970929145812988
 20
12.840330123901367
 10
10.914280891418457
 20
12.840330123901367
 10
10.895398139953613
 20
12.859213829040527
 10
10.61215591430664
 20
12.859213829040527
 10
10.59327220916748
 20
12.840330123901367
 10
10.10231876373291
 20
12.840330123901367
 10
10.083436012268066
 20
12.821447372436523
 10
10.064553260803223
 20
12.821447372436523
 10
10.045670509338379
 20
12.840330123901367
 10
9.913490295410156
 20
12.840330123901367
 10
9.894607543945312
 20
12.821447372436523
 10
9.535833358764648
 20
12.821447372436523
 10
9.516950607299805
 20
12.840330123901367
 10
9.365888595581055
 20
12.840330123901367
 10
9.347004890441895
 20
12.821447372436523
 10
9.290356636047363
 20
12.821447372436523
 10
9.27147388458252
 20
12.840330123901367
 10
9.214825630187988
 20
12.840330123901367
 10
9.195942878723145
 20
12.821447372436523
 10
8.874934196472168
 20
12.821447372436523
 10
8.856051445007324
 20
12.840330123901367
 10
8.044089317321777
 20
12.840330123901367
 10
8.025206565856934
 20
12.859213829040527
 10
7.7608466148376465
 20
12.859213829040527
 10
7.741963863372803
 20
12.878096580505371
 10
6.967767715454102
 20
12.878096580505371
 10
6.948884963989258
 20
12.896979331970215
 10
6.7034077644348145
 20
12.896979331970215
  0
LWPOLYLINE
  5
35
330
17
100
AcDbEntity
  8
Outline
100
AcDbPolyline
 90
198
 70
0
 10
11.291937828063965
 20
14.464254379272461
 10
11.273055076599121
 20
14.445371627807617
 10
11.19752311706543
 20
14.445371627807617
 10
11.178640365600586
 20
14.426488876342773
 10
11.140874862670898
 20
14.426488876342773
 10
11.121992111206055
 20
14.40760612487793
 10
11.084226608276367
 20
14.40760612487793
 10
11.04646110534668
 20
14.369840621948242
 10
11.027578353881836
 20
14.369840621948242
 10
10.9331636428833
 20
14.275425910949707
 10
10.914280891418457
 20
14.275425910949707
 10
10.914280891418457
 20
14.256543159484863
 10
10.895398139953613
 20
14.23766040802002
 10
10.895398139953613
 20
14.048831939697266
 10
10.914280891418457
 20
14.029949188232422
 10
10.914280891418457
 20
13.97330093383789
 10
10.952046394348145
 20
13.935535430908203
 10
10.952046394348145
 20
13.91665267944336
 10
10.970929145812988
 20
13.91665267944336
 10
11.04646110534668
 20
13.841120719909668
 10
11.065343856811523
 20
13.841120719909668
 10
11.121992111206055
 20
13.784472465515137
 10
11.140874862670898
 20
13.784472465515137
 10
11.159757614135742
 20
13.765589714050293
 10
11.178640365600586
 20
13.765589714050293
 10
11.21640682220459
 20
13.727824211120605
 10
11.235289573669434
 20
13.727824211120605
 10
11.273055076599121
 20
13.690058708190918
 10
11.291937828063965
 20
13.690058708190918
 10
11.329703330993652
 20
13.652292251586914
 10
11.348586082458496
 20
13.652292251586914
 10
11.36746883392334
 20
13.63340950012207
 10
11.386351585388184
 20
13.63340950012207
 10
11.424118041992188
 20
13.595643997192383
 10
11.443000793457031
 20
13.595643997192383
 10
11.461883544921875
 20
13.576761245727539
 10
11.480766296386719
 20
13.576761245727539
 10
11.499649047851562
 20
13.557878494262695
 10
11.53741455078125
 20
13.557878494262695
 10
11.556297302246094
 20
13.538995742797852
 10
11.688477516174316
 20
13.538995742797852
 10
11.70736026763916
 20
13.520112991333008
 10
11.820656776428223
 20
13.520112991333008
 10
11.839540481567383
 20
13.501230239868164
 10
11.990602493286133
 20
13.501230239868164
 10
12.009485244750977
 20
13.48234748840332
 10
12.254962921142578
 20
13.48234748840332
 10
12.273845672607422
 20
13.46346378326416
 10
13.406815528869629
 20
13.46346378326416
 10
13.425698280334473
 20
13.444581031799316
 10
13.935535430908203
 20
13.444581031799316
 10
13.954418182373047
 20
13.425698280334473
 10
14.313192367553711
 20
13.425698280334473
 10
14.332075119018555
 20
13.406815528869629
 10
14.74749755859375
 20
13.406815528869629
 10
14.766380310058594
 20
13.425698280334473
 10
14.974091529846191
 20
13.425698280334473
 10
14.992974281311035
 20
13.406815528869629
 10
16.69243049621582
 20
13.406815528869629
 10
16.711313247680664
 20
13.387932777404785
 10
16.74907875061035
 20
13.387932777404785
 10
16.767961502075195
 20
13.406815528869629
 10
17.12673568725586
 20
13.406815528869629
 10
17.145618438720703
 20
13.425698280334473
 10
17.164501190185547
 20
13.406815528869629
 10
17.296680450439453
 20
13.406815528869629
 10
17.315563201904297
 20
13.387932777404785
 10
17.636571884155273
 20
13.387932777404785
 10
17.655454635620117
 20
13.369050025939941
 10
18.580713272094727
 20
13.369050025939941
 10
18.59959602355957
 20
13.387932777404785
 10
18.996135711669922
 20
13.387932777404785
 10
19.015018463134766
 20
13.406815528869629
 10
19.052783966064453
 20
13.406815528869629
 10
19.071666717529297
 20
13.425698280334473
 10
19.203847885131836
 20
13.425698280334473
 10
19.22273063659668
 20
13.406815528869629
 10
19.3171443939209
 20
13.406815528869629
 10
19.336027145385742
 20
13.387932777404785
 10
19.52485466003418
 20
13.387932777404785
 10
19.581504821777344
 20
13.331284523010254
 10
19.600387573242188
 20
13.331284523010254
 10
19.61927032470703
 20
13.31240177154541
 10
19.675918579101562
 20
13.31240177154541
 10
19.694801330566406
 20
13.293519020080566
 10
19.751449584960938
 20
13.293519020080566
 10
19.77033233642578
 20
13.274636268615723
 10
19.826980590820312
 20
13.274636268615723
 10
19.845863342285156
 20
13.255752563476562
 10
19.99692726135254
 20
13.255752563476562
 10
20.015810012817383
 20
13.274636268615723
 10
20.034692764282227
 20
13.274636268615723
 10
20.072458267211914
 20
13.31240177154541
 10
20.091341018676758
 20
13.31240177154541
 10
20.129106521606445
 20
13.350167274475098
 10
20.129106521606445
 20
13.425698280334473
 10
20.14798927307129
 20
13.444581031799316
 10
20.14798927307129
 20
13.557878494262695
 10
20.166872024536133
 20
13.576761245727539
 10
20.166872024536133
 20
13.614526748657227
 10
20.14798927307129
 20
13.63340950012207
 10
20.14798927307129
 20
13.727824211120605
 10
20.129106521606445
 20
13.74670696258545
 10
20.129106521606445
 20
13.784472465515137
 10
20.1102237701416
 20
13.80335521697998
 10
20.1102237701416
 20
13.992183685302734
 10
20.091341018676758
 20
14.011066436767578
 10
20.091341018676758
 20
14.048831939697266
 10
20.072458267211914
 20
14.06771469116211
 10
20.072458267211914
 20
14.086597442626953
 10
20.034692764282227
 20
14.124363899230957
 10
20.015810012817383
 20
14.124363899230957
 10
19.978044509887695
 20
14.162129402160645
 10
19.95916175842285
 20
14.162129402160645
 10
19.902511596679688
 20
14.218777656555176
 10
19.902511596679688
 20
14.313192367553711
 10
19.92139434814453
 20
14.332075119018555
 10
19.92139434814453
 20
14.369840621948242
 10
19.86474609375
 20
14.426488876342773
 10
19.80809783935547
 20
14.426488876342773
 10
19.789215087890625
 20
14.445371627807617
 10
19.694801330566406
 20
14.445371627807617
 10
19.675918579101562
 20
14.426488876342773
 10
19.65703582763672
 20
14.426488876342773
 10
19.61927032470703
 20
14.388723373413086
 10
19.581504821777344
 20
14.388723373413086
 10
19.5626220703125
 20
14.40760612487793
 10
19.449323654174805
 20
14.40760612487793
 10
19.43044090270996
 20
14.388723373413086
 10
19.411558151245117
 20
14.388723373413086
 10
19.392675399780273
 20
14.369840621948242
 10
19.37379264831543
 20
14.369840621948242
 10
19.354909896850586
 20
14.350957870483398
 10
19.3171443939209
 20
14.350957870483398
 10
19.298261642456055
 20
14.332075119018555
 10
18.750659942626953
 20
14.332075119018555
 10
18.73177719116211
 20
14.350957870483398
 10
18.712892532348633
 20
14.350957870483398
 10
18.69400978088379
 20
14.369840621948242
 10
18.637361526489258
 20
14.369840621948242
 10
18.618478775024414
 20
14.388723373413086
 10
18.467416763305664
 20
14.388723373413086
 10
18.44853401184082
 20
14.369840621948242
 10
18.184173583984375
 20
14.369840621948242
 10
18.16529083251953
 20
14.350957870483398
 10
17.749868392944336
 20
14.350957870483398
 10
17.730985641479492
 20
14.332075119018555
 10
17.18338394165039
 20
14.332075119018555
 10
17.164501190185547
 20
14.350957870483398
 10
16.9001407623291
 20
14.350957870483398
 10
16.881258010864258
 20
14.332075119018555
 10
16.59801483154297
 20
14.332075119018555
 10
16.579132080078125
 20
14.313192367553711
 10
16.541366577148438
 20
14.313192367553711
 10
16.522483825683594
 20
14.29430866241455
 10
16.484718322753906
 20
14.29430866241455
 10
16.465835571289062
 20
14.275425910949707
 10
16.371421813964844
 20
14.275425910949707
 10
16.314773559570312
 20
14.218777656555176
 10
16.22035789489746
 20
14.218777656555176
 10
16.201475143432617
 20
14.23766040802002
 10
16.144826889038086
 20
14.23766040802002
 10
16.125944137573242
 20
14.256543159484863
 10
16.088178634643555
 20
14.256543159484863
 10
16.06929588317871
 20
14.275425910949707
 10
16.031530380249023
 20
14.275425910949707
 10
16.01264762878418
 20
14.29430866241455
 10
15.955999374389648
 20
14.29430866241455
 10
15.937115669250488
 20
14.313192367553711
 10
15.786053657531738
 20
14.313192367553711
 10
15.767170906066895
 20
14.332075119018555
 10
15.446162223815918
 20
14.332075119018555
 10
15.427279472351074
 20
14.350957870483398
 10
15.313982009887695
 20
14.350957870483398
 10
15.295099258422852
 20
14.332075119018555
 10
15.181802749633789
 20
14.332075119018555
 10
15.162919998168945
 20
14.350957870483398
 10
14.992974281311035
 20
14.350957870483398
 10
14.974091529846191
 20
14.332075119018555
 10
14.860794067382812
 20
14.332075119018555
 10
14.841911315917969
 20
14.350957870483398
 10
14.332075119018555
 20
14.350957870483398
 10
14.313192367553711
 20
14.332075119018555
 10
14.124363899230957
 20
14.332075119018555
 10
14.105481147766113
 20
14.350957870483398
 10
13.822237968444824
 20
14.350957870483398
 10
13.80335521697998
 20
14.369840621948242
 10
13.46346378326416
 20
14.369840621948242
 10
13.444581031799316
 20
14.388723373413086
 10
12.915862083435059
 20
14.388723373413086
 10
12.896979331970215
 20
14.40760612487793
 10
12.557087898254395
 20
14.40760612487793
 10
12.53820514678955
 20
14.426488876342773
 10
11.801774024963379
 20
14.426488876342773
 10
11.782891273498535
 20
14.445371627807617
 10
11.688477516174316
 20
14.445371627807617
 10
11.669594764709473
 20
14.464254379272461
 10
11.291937828063965
 20
14.464254379272461
  0
ENDSEC
  0
SECTION
  2
OBJECTS
  0
DICTIONARY
  5
A
330
0
100
AcDbDictionary
281
1
  3
ACAD_COLOR
350
B
  3
ACAD_GROUP
350
C
  3
ACAD_LAYOUT
350
D
  3
ACAD_MATERIAL
350
E
  3
ACAD_MLEADERSTYLE
350
F
  3
ACAD_MLINESTYLE
350
10
  3
ACAD_PLOTSETTINGS
350
11
  3
ACAD_PLOTSTYLENAME
350
12
  3
ACAD_SCALELIST
350
14
  3
ACAD_TABLESTYLE
350
15
  3
ACAD_VISUALSTYLE
350
16
  3
EZDXF_META
350
2D
  0
DICTIONARY
  5
B
330
A
100
AcDbDictionary
281
1
  0
DICTIONARY
  5
C
330
A
100
AcDbDictionary
281
1
  0
DICTIONARY
  5
D
330
A
100
AcDbDictionary
281
1
  3
Model
350
1A
  3
Layout1
350
1E
  0
DICTIONARY
  5
E
330
A
100
AcDbDictionary
281
1
  3
ByBlock
350
1F
  3
ByLayer
350
20
  3
Global
350
21
  0
DICTIONARY
  5
F
330
A
100
AcDbDictionary
281
1
  3
Standard
350
2C
  0
DICTIONARY
  5
10
330
A
100
AcDbDictionary
281
1
  3
Standard
350
22
  0
DICTIONARY
  5
11
330
A
100
AcDbDictionary
281
1
  0
ACDBDICTIONARYWDFLT
  5
12
330
A
100
AcDbDictionary
281
1
  3
Normal
350
13
100
AcDbDictionaryWithDefault
340
13
  0
ACDBPLACEHOLDER
  5
13
330
12
  0
DICTIONARY
  5
14
330
A
100
AcDbDictionary
281
1
  0
DICTIONARY
  5
15
330
A
100
AcDbDictionary
281
1
  0
DICTIONARY
  5
16
330
A
100
AcDbDictionary
281
1
  0
LAYOUT
  5
1A
330
D
100
AcDbPlotSettings
  1

  4
A3
  6

 40
7.5
 41
20.0
 42
7.5
 43
20.0
 44
420.0
 45
297.0
 46
0.0
 47
0.0
 48
0.0
 49
0.0
140
0.0
141
0.0
142
1.0
143
1.0
 70
1024
 72
1
 73
0
 74
5
  7

 75
16
 76
0
 77
2
 78
300
147
1.0
148
0.0
149
0.0
100
AcDbLayout
  1
Model
 70
1
 71
0
 10
0.0
 20
0.0
 11
420.0
 21
297.0
 12
0.0
 22
0.0
 32
0.0
 14
1e+20
 24
1e+20
 34
1e+20
 15
-1e+20
 25
-1e+20
 35
-1e+20
146
0.0
 13
0.0
 23
0.0
 33
0.0
 16
1.0
 26
0.0
 36
0.0
 17
0.0
 27
1.0
 37
0.0
 76
1
330
17
  0
LAYOUT
  5
1E
330
D
100
AcDbPlotSettings
  1

  4
A3
  6

 40
7.5
 41
20.0
 42
7.5
 43
20.0
 44
420.0
 45
297.0
 46
0.0
 47
0.0
 48
0.0
 49
0.0
140
0.0
141
0.0
142
1.0
143
1.0
 70
0
 72
1
 73
0
 74
5
  7

 75
16
 76
0
 77
2
 78
300
147
1.0
148
0.0
149
0.0
100
AcDbLayout
  1
Layout1
 70
1
 71
1
 10
0.0
 20
0.0
 11
420.0
 21
297.0
 12
0.0
 22
0.0
 32
0.0
 14
1e+20
 24
1e+20
 34
1e+20
 15
-1e+20
 25
-1e+20
 35
-1e+20
146
0.0
 13
0.0
 23
0.0
 33
0.0
 16
1.0
 26
0.0
 36
0.0
 17
0.0
 27
1.0
 37
0.0
 76
1
330
1B
  0
MATERIAL
  5
1F
102
{ACAD_REACTORS
330
E
102
}
330
E
100
AcDbMaterial
  1
ByBlock
  2

 70
0
 40
1.0
 71
1
 41
1.0
 91
-1023410177
 42
1.0
 72
1
  3

 73
1
 74
1
 75
1
 44
0.5
 73
0
 45
1.0
 46
1.0
 77
1
  4

 78
1
 79
1
170
1
 48
1.0
171
1
  6

172
1
173
1
174
1
140
1.0
141
1.0
175
1
  7

176
1
177
1
178
1
143
1.0
179
1
  8

270
1
271
1
272
1
145
1.0
146
1.0
273
1
  9

274
1
275
1
276
1
 42
1.0
 72
1
  3

 73
1
 74
1
 75
1
 94
63
  0
MATERIAL
  5
20
102
{ACAD_REACTORS
330
E
102
}
330
E
100
AcDbMaterial
  1
ByLayer
  2

 70
0
 40
1.0
 71
1
 41
1.0
 91
-1023410177
 42
1.0
 72
1
  3

 73
1
 74
1
 75
1
 44
0.5
 73
0
 45
1.0
 46
1.0
 77
1
  4

 78
1
 79
1
170
1
 48
1.0
171
1
  6

172
1
173
1
174
1
140
1.0
141
1.0
175
1
  7

176
1
177
1
178
1
143
1.0
179
1
  8

270
1
271
1
272
1
145
1.0
146
1.0
273
1
  9

274
1
275
1
276
1
 42
1.0
 72
1
  3

 73
1
 74
1
 75
1
 94
63
  0
MATERIAL
  5
21
102
{ACAD_REACTORS
330
E
102
}
330
E
100
AcDbMaterial
  1
Global
  2

 70
0
 40
1.0
 71
1
 41
1.0
 91
-1023410177
 42
1.0
 72
1
  3

 73
1
 74
1
 75
1
 44
0.5
 73
0
 45
1.0
 46
1.0
 77
1
  4

 78
1
 79
1
170
1
 48
1.0
171
1
  6

172
1
173
1
174
1
140
1.0
141
1.0
175
1
  7

176
1
177
1
178
1
143
1.0
179
1
  8

270
1
271
1
272
1
145
1.0
146
1.0
273
1
  9

274
1
275
1
276
1
 42
1.0
 72
1
  3

 73
1
 74
1
 75
1
 94
63
  0
MLINESTYLE
  5
22
102
{ACAD_REACTORS
330
10
102
}
330
10
100
AcDbMlineStyle
  2
Standard
 70
0
  3

 62
256
 51
90.0
 52
90.0
 71
2
 49
0.5
 62
256
  6
BYLAYER
 49
-0.5
 62
256
  6
BYLAYER
  0
MLEADERSTYLE
  5
2C
102
{ACAD_REACTORS
330
F
102
}
330
F
100
AcDbMLeaderStyle
179
2
170
2
171
1
172
0
 90
2
 40
0.0
 41
0.0
173
1
 91
-1056964608
 92
-2
290
1
 42
2.0
291
1
 43
8.0
  3
Standard
 44
4.0
300

342
29
174
1
175
1
176
0
178
1
 93
-1056964608
 45
4.0
292
0
297
0
 46
4.0
 94
-1056964608
 47
1.0
 49
1.0
140
1.0
294
1
141
0.0
177
0
142
1.0
295
0
296
0
143
3.75
271
0
272
9
273
9
  0
DICTIONARY
  5
2D
330
A
100
AcDbDictionary
280
1
281
1
  3
CREATED_BY_EZDXF
350
2E
  3
WRITTEN_BY_EZDXF
350
38
  0
DICTIONARYVAR
  5
2E
330
2D
100
DictionaryVariables
280
0
  1
1.4.3 @ 2026-04-08T20:15:33.642783+00:00
  0
DICTIONARYVAR
  5
38
330
2D
100
DictionaryVariables
280
0
  1
1.4.3 @ 2026-04-08T20:15:33.647723+00:00
  0
ENDSEC
  0
EOF
