  0
SECTION
  2
HEADER
  9
$ACADVER
  1
AC1024
  9
$ACADMAINTVER
 70
6
  9
$DWGCODEPAGE
  3
ANSI_1252
  9
$LASTSAVEDBY
  1
ezdxf
  9
$INSBASE
 10
0.0
 20
0.0
 30
0.0
  9
$EXTMIN
 10
1e+20
 20
1e+20
 30
1e+20
  9
$EXTMAX
 10
-1e+20
 20
-1e+20
 30
-1e+20
  9
$LIMMIN
 10
0.0
 20
0.0
  9
$LIMMAX
 10
420.0
 20
297.0
  9
$ORTHOMODE
 70
0
  9
$REGENMODE
 70
1
  9
$FILLMODE
 70
1
  9
$QTEXTMODE
 70
0
  9
$MIRRTEXT
 70
1
  9
$LTSCALE
 40
1.0
  9
$ATTMODE
 70
1
  9
$TEXTSIZE
 40
2.5
  9
$TRACEWID
 40
1.0
  9
$TEXTSTYLE
  7
Standard
  9
$CLAYER
  8
0
  9
$CELTYPE
  6
ByLayer
  9
$CECOLOR
 62
256
  9
$CELTSCALE
 40
1.0
  9
$DISPSILH
 70
0
  9
$DIMSCALE
 40
1.0
  9
$DIMASZ
 40
2.5
  9
$DIMEXO
 40
0.625
  9
$DIMDLI
 40
3.75
  9
$DIMRND
 40
0.0
  9
$DIMDLE
 40
0.0
  9
$DIMEXE
 40
1.25
  9
$DIMTP
 40
0.0
  9
$DIMTM
 40
0.0
  9
$DIMTXT
 40
2.5
  9
$DIMCEN
 40
2.5
  9
$DIMTSZ
 40
0.0
  9
$DIMTOL
 70
0
  9
$DIMLIM
 70
0
  9
$DIMTIH
 70
0
  9
$DIMTOH
 70
0
  9
$DIMSE1
 70
0
  9
$DIMSE2
 70
0
  9
$DIMTAD
 70
1
  9
$DIMZIN
 70
8
  9
$DIMBLK
  1

  9
$DIMASO
 70
1
  9
$DIMSHO
 70
1
  9
$DIMPOST
  1

  9
$DIMAPOST
  1

  9
$DIMALT
 70
0
  9
$DIMALTD
 70
3
  9
$DIMALTF
 40
0.03937007874
  9
$DIMLFAC
 40
1.0
  9
$DIMTOFL
 70
1
  9
$DIMTVP
 40
0.0
  9
$DIMTIX
 70
0
  9
$DIMSOXD
 70
0
  9
$DIMSAH
 70
0
  9
$DIMBLK1
  1

  9
$DIMBLK2
  1

  9
$DIMSTYLE
  2
ISO-25
  9
$DIMCLRD
 70
0
  9
$DIMCLRE
 70
0
  9
$DIMCLRT
 70
0
  9
$DIMTFAC
 40
1.0
  9
$DIMGAP
 40
0.625
  9
$DIMJUST
 70
0
  9
$DIMSD1
 70
0
  9
$DIMSD2
 70
0
  9
$DIMTOLJ
 70
0
  9
$DIMTZIN
 70
8
  9
$DIMALTZ
 70
0
  9
$DIMALTTZ
 70
0
  9
$DIMUPT
 70
0
  9
$DIMDEC
 70
2
  9
$DIMTDEC
 70
2
  9
$DIMALTU
 70
2
  9
$DIMALTTD
 70
3
  9
$DIMTXSTY
  7
Standard
  9
$DIMAUNIT
 70
0
  9
$DIMADEC
 70
0
  9
$DIMALTRND
 40
0.0
  9
$DIMAZIN
 70
0
  9
$DIMDSEP
 70
44
  9
$DIMATFIT
 70
3
  9
$DIMFRAC
 70
0
  9
$DIMLDRBLK
  1

  9
$DIMLUNIT
 70
2
  9
$DIMLWD
 70
-2
  9
$DIMLWE
 70
-2
  9
$DIMTMOVE
 70
0
  9
$DIMFXL
 40
1.0
  9
$DIMFXLON
 70
0
  9
$DIMJOGANG
 40
0.785398163397
  9
$DIMTFILL
 70
0
  9
$DIMTFILLCLR
 70
0
  9
$DIMARCSYM
 70
0
  9
$DIMLTYPE
  6

  9
$DIMLTEX1
  6

  9
$DIMLTEX2
  6

  9
$DIMTXTDIRECTION
 70
0
  9
$LUNITS
 70
2
  9
$LUPREC
 70
4
  9
$SKETCHINC
 40
1.0
  9
$FILLETRAD
 40
10.0
  9
$AUNITS
 70
0
  9
$AUPREC
 70
2
  9
$MENU
  1
.
  9
$ELEVATION
 40
0.0
  9
$PELEVATION
 40
0.0
  9
$THICKNESS
 40
0.0
  9
$LIMCHECK
 70
0
  9
$CHAMFERA
 40
0.0
  9
$CHAMFERB
 40
0.0
  9
$CHAMFERC
 40
0.0
  9
$CHAMFERD
 40
0.0
  9
$SKPOLY
 70
0
  9
$TDCREATE
 40
2460906.928425926
  9
$TDUCREATE
 40
2458532.153996898
  9
$TDUPDATE
 40
2460906.928425926
  9
$TDUUPDATE
 40
2458532.1544311
  9
$TDINDWG
 40
0.0
  9
$TDUSRTIMER
 40
0.0
  9
$USRTIMER
 70
1
  9
$ANGBASE
 50
0.0
  9
$ANGDIR
 70
0
  9
$PDMODE
 70
0
  9
$PDSIZE
 40
0.0
  9
$PLINEWID
 40
0.0
  9
$SPLFRAME
 70
0
  9
$SPLINETYPE
 70
6
  9
$SPLINESEGS
 70
8
  9
$HANDSEED
  5
46
  9
$SURFTAB1
 70
6
  9
$SURFTAB2
 70
6
  9
$SURFTYPE
 70
6
  9
$SURFU
 70
6
  9
$SURFV
 70
6
  9
$UCSBASE
  2

  9
$UCSNAME
  2

  9
$UCSORG
 10
0.0
 20
0.0
 30
0.0
  9
$UCSXDIR
 10
1.0
 20
0.0
 30
0.0
  9
$UCSYDIR
 10
0.0
 20
1.0
 30
0.0
  9
$UCSORTHOREF
  2

  9
$UCSORTHOVIEW
 70
0
  9
$UCSORGTOP
 10
0.0
 20
0.0
 30
0.0
  9
$UCSORGBOTTOM
 10
0.0
 20
0.0
 30
0.0
  9
$UCSORGLEFT
 10
0.0
 20
0.0
 30
0.0
  9
$UCSORGRIGHT
 10
0.0
 20
0.0
 30
0.0
  9
$UCSORGFRONT
 10
0.0
 20
0.0
 30
0.0
  9
$UCSORGBACK
 10
0.0
 20
0.0
 30
0.0
  9
$PUCSBASE
  2

  9
$PUCSNAME
  2

  9
$PUCSORG
 10
0.0
 20
0.0
 30
0.0
  9
$PUCSXDIR
 10
1.0
 20
0.0
 30
0.0
  9
$PUCSYDIR
 10
0.0
 20
1.0
 30
0.0
  9
$PUCSORTHOREF
  2

  9
$PUCSORTHOVIEW
 70
0
  9
$PUCSORGTOP
 10
0.0
 20
0.0
 30
0.0
  9
$PUCSORGBOTTOM
 10
0.0
 20
0.0
 30
0.0
  9
$PUCSORGLEFT
 10
0.0
 20
0.0
 30
0.0
  9
$PUCSORGRIGHT
 10
0.0
 20
0.0
 30
0.0
  9
$PUCSORGFRONT
 10
0.0
 20
0.0
 30
0.0
  9
$PUCSORGBACK
 10
0.0
 20
0.0
 30
0.0
  9
$USERI1
 70
0
  9
$USERI2
 70
0
  9
$USERI3
 70
0
  9
$USERI4
 70
0
  9
$USERI5
 70
0
  9
$USERR1
 40
0.0
  9
$USERR2
 40
0.0
  9
$USERR3
 40
0.0
  9
$USERR4
 40
0.0
  9
$USERR5
 40
0.0
  9
$WORLDVIEW
 70
1
  9
$SHADEDGE
 70
3
  9
$SHADEDIF
 70
70
  9
$TILEMODE
 70
1
  9
$MAXACTVP
 70
64
  9
$PINSBASE
 10
0.0
 20
0.0
 30
0.0
  9
$PLIMCHECK
 70
0
  9
$PEXTMIN
 10
1e+20
 20
1e+20
 30
1e+20
  9
$PEXTMAX
 10
-1e+20
 20
-1e+20
 30
-1e+20
  9
$PLIMMIN
 10
0.0
 20
0.0
  9
$PLIMMAX
 10
420.0
 20
297.0
  9
$UNITMODE
 70
0
  9
$VISRETAIN
 70
1
  9
$PLINEGEN
 70
0
  9
$PSLTSCALE
 70
1
  9
$TREEDEPTH
 70
3020
  9
$CMLSTYLE
  2
Standard
  9
$CMLJUST
 70
0
  9
$CMLSCALE
 40
20.0
  9
$PROXYGRAPHICS
 70
1
  9
$MEASUREMENT
 70
1
  9
$CELWEIGHT
370
-1
  9
$ENDCAPS
280
0
  9
$JOINSTYLE
280
0
  9
$LWDISPLAY
290
0
  9
$INSUNITS
 70
1
  9
$HYPERLINKBASE
  1

  9
$STYLESHEET
  1

  9
$XEDIT
290
1
  9
$CEPSNTYPE
380
0
  9
$PSTYLEMODE
290
1
  9
$FINGERPRINTGUID
  2
{E3DEC333-40E9-49B8-876A-7EAF55F7D9CB}
  9
$VERSIONGUID
  2
{31C700BB-45BC-4D97-B71A-4E24903B34B8}
  9
$EXTNAMES
290
1
  9
$PSVPSCALE
 40
0.0
  9
$OLESTARTUP
290
0
  9
$SORTENTS
280
127
  9
$INDEXCTL
280
0
  9
$HIDETEXT
280
1
  9
$XCLIPFRAME
280
1
  9
$HALOGAP
280
0
  9
$OBSCOLOR
 70
257
  9
$OBSLTYPE
280
0
  9
$INTERSECTIONDISPLAY
280
0
  9
$INTERSECTIONCOLOR
 70
257
  9
$DIMASSOC
280
2
  9
$PROJECTNAME
  1

  9
$CAMERADISPLAY
290
0
  9
$LENSLENGTH
 40
50.0
  9
$CAMERAHEIGHT
 40
0.0
  9
$STEPSPERSEC
 40
24.0
  9
$STEPSIZE
 40
100.0
  9
$3DDWFPREC
 40
2.0
  9
$PSOLWIDTH
 40
0.005
  9
$PSOLHEIGHT
 40
0.08
  9
$LOFTANG1
 40
1.570796326795
  9
$LOFTANG2
 40
1.570796326795
  9
$LOFTMAG1
 40
0.0
  9
$LOFTMAG2
 40
0.0
  9
$LOFTPARAM
 70
7
  9
$LOFTNORMALS
280
1
  9
$LATITUDE
 40
37.795
  9
$LONGITUDE
 40
-122.394
  9
$NORTHDIRECTION
 40
0.0
  9
$TIMEZONE
 70
-8000
  9
$LIGHTGLYPHDISPLAY
280
1
  9
$TILEMODELIGHTSYNCH
280
1
  9
$CMATERIAL
347
20
  9
$SOLIDHIST
280
0
  9
$SHOWHIST
280
1
  9
$DWFFRAME
280
2
  9
$DGNFRAME
280
2
  9
$REALWORLDSCALE
290
1
  9
$INTERFERECOLOR
 62
256
  9
$CSHADOW
280
0
  9
$SHADOWPLANELOCATION
 40
0.0
  0
ENDSEC
  0
SECTION
  2
CLASSES
  0
CLASS
  1
ACDBDICTIONARYWDFLT
  2
AcDbDictionaryWithDefault
  3
ObjectDBX Classes
 90
0
 91
0
280
0
281
0
  0
CLASS
  1
SUN
  2
AcDbSun
  3
SCENEOE
 90
1153
 91
0
280
0
281
0
  0
CLASS
  1
VISUALSTYLE
  2
AcDbVisualStyle
  3
ObjectDBX Classes
 90
4095
 91
0
280
0
281
0
  0
CLASS
  1
MATERIAL
  2
AcDbMaterial
  3
ObjectDBX Classes
 90
1153
 91
0
280
0
281
0
  0
CLASS
  1
SCALE
  2
AcDbScale
  3
ObjectDBX Classes
 90
1153
 91
0
280
0
281
0
  0
CLASS
  1
TABLESTYLE
  2
AcDbTableStyle
  3
ObjectDBX Classes
 90
4095
 91
0
280
0
281
0
  0
CLASS
  1
MLEADERSTYLE
  2
AcDbMLeaderStyle
  3
ACDB_MLEADERSTYLE_CLASS
 90
4095
 91
0
280
0
281
0
  0
CLASS
  1
DICTIONARYVAR
  2
AcDbDictionaryVar
  3
ObjectDBX Classes
 90
0
 91
0
280
0
281
0
  0
CLASS
  1
CELLSTYLEMAP
  2
AcDbCellStyleMap
  3
ObjectDBX Classes
 90
1152
 91
0
280
0
281
0
  0
CLASS
  1
MENTALRAYRENDERSETTINGS
  2
AcDbMentalRayRenderSettings
  3
SCENEOE
 90
1024
 91
0
280
0
281
0
  0
CLASS
  1
ACDBDETAILVIEWSTYLE
  2
AcDbDetailViewStyle
  3
ObjectDBX Classes
 90
1025
 91
0
280
0
281
0
  0
CLASS
  1
ACDBSECTIONVIEWSTYLE
  2
AcDbSectionViewStyle
  3
ObjectDBX Classes
 90
1025
 91
0
280
0
281
0
  0
CLASS
  1
RASTERVARIABLES
  2
AcDbRasterVariables
  3
ISM
 90
0
 91
0
280
0
281
0
  0
CLASS
  1
ACDBPLACEHOLDER
  2
AcDbPlaceHolder
  3
ObjectDBX Classes
 90
0
 91
0
280
0
281
0
  0
CLASS
  1
LAYOUT
  2
AcDbLayout
  3
ObjectDBX Classes
 90
0
 91
0
280
0
281
0
  0
ENDSEC
  0
SECTION
  2
TABLES
  0
TABLE
  2
VPORT
  5
8
330
0
100
AcDbSymbolTable
 70
1
  0
VPORT
  5
23
330
8
100
AcDbSymbolTableRecord
100
AcDbViewportTableRecord
  2
*Active
 70
0
 10
0.0
 20
0.0
 11
1.0
 21
1.0
 12
0.0
 22
0.0
 13
0.0
 23
0.0
 14
0.5
 24
0.5
 15
0.5
 25
0.5
 16
0.0
 26
0.0
 36
1.0
 17
0.0
 27
0.0
 37
0.0
 40
1000.0
 41
1.34
 42
50.0
 43
0.0
 44
0.0
 50
0.0
 51
0.0
 71
0
 72
1000
 73
1
 74
3
 75
0
 76
0
 77
0
 78
0
281
0
 65
0
146
0.0
  0
ENDTAB
  0
TABLE
  2
LTYPE
  5
2
330
0
100
AcDbSymbolTable
 70
3
  0
LTYPE
  5
24
330
2
100
AcDbSymbolTableRecord
100
AcDbLinetypeTableRecord
  2
ByBlock
 70
0
  3

 72
65
 73
0
 40
0.0
  0
LTYPE
  5
25
330
2
100
AcDbSymbolTableRecord
100
AcDbLinetypeTableRecord
  2
ByLayer
 70
0
  3

 72
65
 73
0
 40
0.0
  0
LTYPE
  5
26
330
2
100
AcDbSymbolTableRecord
100
AcDbLinetypeTableRecord
  2
Continuous
 70
0
  3

 72
65
 73
0
 40
0.0
  0
ENDTAB
  0
TABLE
  2
LAYER
  5
1
330
0
100
AcDbSymbolTable
 70
2
  0
LAYER
  5
27
330
1
100
AcDbSymbolTableRecord
100
AcDbLayerTableRecord
  2
0
 70
0
 62
7
  6
Continuous
370
-3
390
13
347
21
  0
LAYER
  5
28
330
1
100
AcDbSymbolTableRecord
100
AcDbLayerTableRecord
  2
Defpoints
 70
0
 62
7
  6
Continuous
290
0
370
-3
390
13
347
21
  0
ENDTAB
  0
TABLE
  2
STYLE
  5
5
330
0
100
AcDbSymbolTable
 70
1
  0
STYLE
  5
29
330
5
100
AcDbSymbolTableRecord
100
AcDbTextStyleTableRecord
  2
Standard
 70
0
 40
0.0
 41
1.0
 50
0.0
 71
0
 42
2.5
  3
txt
  4

  0
ENDTAB
  0
TABLE
  2
VIEW
  5
7
330
0
100
AcDbSymbolTable
 70
0
  0
ENDTAB
  0
TABLE
  2
UCS
  5
6
330
0
100
AcDbSymbolTable
 70
0
  0
ENDTAB
  0
TABLE
  2
APPID
  5
3
330
0
100
AcDbSymbolTable
 70
3
  0
APPID
  5
2A
330
3
100
AcDbSymbolTableRecord
100
AcDbRegAppTableRecord
  2
ACAD
 70
0
  0
APPID
  5
43
330
3
100
AcDbSymbolTableRecord
100
AcDbRegAppTableRecord
  2
HATCHBACKGROUNDCOLOR
 70
0
  0
APPID
  5
44
330
3
100
AcDbSymbolTableRecord
100
AcDbRegAppTableRecord
  2
EZDXF
 70
0
  0
ENDTAB
  0
TABLE
  2
DIMSTYLE
  5
4
330
0
100
AcDbSymbolTable
 70
1
100
AcDbDimStyleTable
  0
DIMSTYLE
105
2B
330
4
100
AcDbSymbolTableRecord
100
AcDbDimStyleTableRecord
  2
Standard
 70
0
 40
1.0
 41
2.5
 42
0.625
 43
3.75
 44
1.25
 45
0.0
 46
0.0
 47
0.0
 48
0.0
 49
2.5
140
2.5
141
2.5
142
0.0
143
0.03937007874
144
1.0
145
0.0
146
1.0
147
0.625
148
0.0
 69
0
 70
0
 71
0
 72
0
 73
0
 74
0
 75
0
 76
0
 77
1
 78
8
 79
3
170
0
171
3
172
1
173
0
174
0
175
0
176
0
177
0
178
0
179
2
271
2
272
2
273
2
274
3
275
0
276
0
277
2
278
44
279
0
280
0
281
0
282
0
283
0
284
8
285
0
286
0
288
0
289
3
290
0
371
-2
372
-2
  0
ENDTAB
  0
TABLE
  2
BLOCK_RECORD
  5
9
330
0
100
AcDbSymbolTable
 70
2
  0
BLOCK_RECORD
  5
17
330
9
100
AcDbSymbolTableRecord
100
AcDbBlockTableRecord
  2
*Model_Space
340
1A
 70
0
280
1
281
0
  0
BLOCK_RECORD
  5
1B
330
9
100
AcDbSymbolTableRecord
100
AcDbBlockTableRecord
  2
*Paper_Space
340
1E
 70
0
280
1
281
0
  0
ENDTAB
  0
ENDSEC
  0
SECTION
  2
BLOCKS
  0
BLOCK
  5
18
330
17
100
AcDbEntity
  8
0
100
AcDbBlockBegin
  2
*Model_Space
 70
0
 10
0.0
 20
0.0
 30
0.0
  3
*Model_Space
  1

  0
ENDBLK
  5
19
330
17
100
AcDbEntity
  8
0
100
AcDbBlockEnd
  0
BLOCK
  5
1C
330
1B
100
AcDbEntity
  8
0
100
AcDbBlockBegin
  2
*Paper_Space
 70
0
 10
0.0
 20
0.0
 30
0.0
  3
*Paper_Space
  1

  0
ENDBLK
  5
1D
330
1B
100
AcDbEntity
  8
0
100
AcDbBlockEnd
  0
ENDSEC
  0
SECTION
  2
ENTITIES
  0
LWPOLYLINE
  5
2F
330
17
100
AcDbEntity
  8
0
100
AcDbPolyline
 90
5
 70
0
 10
0.0
 20
0.0
 10
18.625
 20
0.0
 10
18.625
 20
19.25
 10
0.0
 20
19.25
 10
0.0
 20
0.0
  0
LWPOLYLINE
  5
30
330
17
100
AcDbEntity
  8
0
100
AcDbPolyline
 90
16
 70
0
 10
1.8997998366013071
 20
0.8736560457516331
 10
1.1213071895424829
 20
1.274697712418301
 10
1.0977165032679732
 20
1.4634232026143783
 10
0.9089910130718941
 20
1.7229207516339882
 10
0.8618096405228748
 20
2.147553104575164
 10
0.8854003267973845
 20
2.3598692810457527
 10
1.2156699346405233
 20
2.949636437908498
 10
1.5931209150326797
 20
3.138361928104575
 10
2.064934640522875
 20
3.1855433006535945
 10
2.6311111111111103
 20
3.020408496732027
 10
3.102924836601307
 20
2.2655065359477122
 10
3.0793341503267975
 20
1.7701021241830075
 10
2.8906086601307184
 20
1.604967320261438
 10
2.7726552287581683
 20
1.274697712418301
 10
2.112116013071894
 20
0.8736560457516331
 10
1.8997998366013071
 20
0.8736560457516331
  0
LWPOLYLINE
  5
31
330
17
100
AcDbEntity
  8
0
100
AcDbPolyline
 90
17
 70
0
 10
4.547365196078433
 20
0.9457866115196083
 10
3.9575980392156875
 20
1.2760562193627454
 10
3.6981004901960777
 20
1.700688572303923
 10
3.6273284313725487
 20
2.1960929840686276
 10
3.7688725490196084
 20
2.644316023284313
 10
3.981188725490197
 20
2.8566321997549036
 10
4.3114583333333325
 20
3.0925390625
 10
4.806862745098039
 20
3.163311121323529
 10
5.1607230392156875
 20
2.9274042585784326
 10
5.420220588235294
 20
2.8802228860294132
 10
5.514583333333334
 20
2.6207253370098034
 10
5.750490196078431
 20
2.4555905330882357
 10
5.774080882352942
 20
1.8186420036764712
 10
5.490992647058825
 20
1.3232375919117647
 10
4.995588235294118
 20
0.9929679840686276
 10
4.594546568627452
 20
0.9457866115196083
 10
4.547365196078433
 20
0.9457866115196083
  0
LWPOLYLINE
  5
32
330
17
100
AcDbEntity
  8
0
100
AcDbPolyline
 90
13
 70
0
 10
1.7078768382352933
 20
3.6938500816993463
 10
1.1417003676470578
 20
4.047710375816993
 10
0.9293841911764709
 20
4.448752042483659
 10
0.9293841911764709
 20
4.779021650326796
 10
1.0237469362745095
 20
5.109291258169935
 10
1.3776072303921563
 20
5.55751429738562
 10
1.9673743872549014
 20
5.72264910130719
 10
2.6750949754901967
 20
5.510332924836601
 10
3.0289552696078417
 20
4.849793709150327
 10
3.0289552696078417
 20
4.495933415032678
 10
2.793048406862745
 20
4.071301062091503
 10
2.2268719362745095
 20
3.6938500816993463
 10
1.7078768382352933
 20
3.6938500816993463
  0
LWPOLYLINE
  5
33
330
17
100
AcDbEntity
  8
0
100
AcDbPolyline
 90
14
 70
0
 10
4.543851809954751
 20
3.681333898944196
 10
4.1428101432880835
 20
3.8464687028657636
 10
3.7889498491704368
 20
4.294691742081451
 10
3.7417684766214174
 20
4.908049585218706
 10
4.1428101432880835
 20
5.497816742081451
 10
4.425898378582201
 20
5.686542232277528
 10
4.803349358974358
 20
5.733723604826547
 10
5.511069947209653
 20
5.427044683257922
 10
5.81774886877828
 20
4.978821644042235
 10
5.81774886877828
 20
4.530598604826547
 10
5.487479260935143
 20
3.9172407616892926
 10
5.086437594268475
 20
3.681333898944196
 10
4.732577300150829
 20
3.681333898944196
 10
4.543851809954751
 20
3.681333898944196
  0
LWPOLYLINE
  5
34
330
17
100
AcDbEntity
  8
0
100
AcDbPolyline
 90
14
 70
0
 10
1.8689479638009043
 20
6.216584653092006
 10
1.4679062971342365
 20
6.3345380844645565
 10
1.2319994343891398
 20
6.523263574660634
 10
0.9960925716440396
 20
6.829942496229261
 10
0.901729826546001
 20
7.301756221719458
 10
1.1848180618401205
 20
7.962295437405732
 10
1.9161293363499237
 20
8.29256504524887
 10
2.482305806938159
 20
8.08024886877828
 10
2.8597567873303156
 20
7.6792072021116144
 10
2.9541195324283542
 20
7.089440045248869
 10
2.765394042232275
 20
6.617626319758674
 10
2.3407616892910994
 20
6.310947398190047
 10
1.892538650075414
 20
6.216584653092006
 10
1.8689479638009043
 20
6.216584653092006
  0
LWPOLYLINE
  5
35
330
17
100
AcDbEntity
  8
0
100
AcDbPolyline
 90
14
 70
0
 10
4.549373114630466
 20
6.1617203996983445
 10
3.8652432126696823
 20
6.58635275263952
 10
3.6529270361990918
 20
7.176119909502265
 10
3.7944711538461515
 20
7.883840497737561
 10
4.219103506787327
 20
8.308472850678736
 10
4.502191742081447
 20
8.379244909502265
 10
5.20991233031674
 20
8.308472850678736
 10
5.469409879336347
 20
8.119747360482659
 10
5.894042232277524
 20
7.742296380090501
 10
5.964814291101053
 20
7.128938536953246
 10
5.634544683257918
 20
6.58635275263952
 10
5.139140271493211
 20
6.1617203996983445
 10
4.667326546003014
 20
6.1617203996983445
 10
4.549373114630466
 20
6.1617203996983445
  0
LWPOLYLINE
  5
36
330
17
100
AcDbEntity
  8
0
100
AcDbPolyline
 90
17
 70
0
 10
1.7772349877450981
 20
8.691623774509806
 10
1.2346492034313723
 20
8.927530637254904
 10
0.8807889093137256
 20
9.47011642156863
 10
0.8807889093137256
 20
10.107064950980394
 10
1.0223330269607835
 20
10.413743872549022
 10
1.3290119485294127
 20
10.720422794117649
 10
1.7300536151960788
 20
10.885557598039219
 10
2.201867340686274
 20
10.885557598039219
 10
2.6029090073529417
 20
10.69683210784314
 10
2.8859972426470577
 20
10.413743872549022
 10
3.051132046568627
 20
9.965520833333334
 10
3.051132046568627
 20
9.588069852941178
 10
2.862406556372548
 20
9.139846813725493
 10
2.4377742034313723
 20
8.809577205882356
 10
2.107504595588235
 20
8.833167892156865
 10
1.8244163602941175
 20
8.691623774509806
 10
1.7772349877450981
 20
8.691623774509806
  0
LWPOLYLINE
  5
37
330
17
100
AcDbEntity
  8
0
100
AcDbPolyline
 90
16
 70
0
 10
4.787128267973857
 20
8.862381535947712
 10
4.36249591503268
 20
9.003925653594772
 10
4.079407679738564
 20
9.263423202614378
 10
3.890682189542485
 20
9.711646241830065
 10
3.890682189542485
 20
9.971143790849673
 10
4.032226307189545
 20
10.419366830065359
 10
4.386086601307191
 20
10.749636437908496
 10
4.810718954248367
 20
10.891180555555556
 10
5.494848856209151
 20
10.678864379084967
 10
5.754346405228759
 20
10.39577614379085
 10
5.872299836601307
 20
10.089097222222222
 10
5.872299836601307
 20
9.688055555555556
 10
5.754346405228759
 20
9.334195261437909
 10
5.400486111111112
 20
9.003925653594772
 10
4.999444444444446
 20
8.862381535947712
 10
4.787128267973857
 20
8.862381535947712
  0
LWPOLYLINE
  5
38
330
17
100
AcDbEntity
  8
0
100
AcDbPolyline
 90
17
 70
0
 10
1.9738442095588224
 20
11.34438189338235
 10
1.5492118566176467
 20
11.415153952205879
 10
1.266123621323529
 20
11.603879442401958
 10
1.053807444852942
 20
11.886967677696076
 10
0.8886726409313725
 20
12.4295534620098
 10
0.9830353860294112
 20
12.972139246323525
 10
1.2897143075980386
 20
13.373180912990193
 10
1.8558907781862741
 20
13.60908777573529
 10
2.256932444852942
 20
13.58549708946078
 10
2.5636113664215676
 20
13.443952971813722
 10
2.917471660539216
 20
13.066501991421564
 10
3.129787837009803
 20
12.61827895220588
 10
3.082606464460784
 20
12.099283854166664
 10
2.870290287990197
 20
11.698242187499996
 10
2.6343834252450966
 20
11.50951669730392
 10
2.0446162683823514
 20
11.34438189338235
 10
1.9738442095588224
 20
11.34438189338235
  0
LWPOLYLINE
  5
39
330
17
100
AcDbEntity
  8
0
100
AcDbPolyline
 90
16
 70
0
 10
4.73442810457516
 20
11.40024509803921
 10
4.356977124183004
 20
11.518198529411759
 10
4.097479575163396
 20
11.754105392156859
 10
3.885163398692809
 20
12.131556372549014
 10
3.8615727124182992
 20
12.532598039215681
 10
3.9795261437908476
 20
12.886458333333326
 10
4.262614379084965
 20
13.240318627450975
 10
4.805200163398689
 20
13.405453431372543
 10
5.253423202614377
 20
13.334681372549014
 10
5.536511437908494
 20
13.145955882352936
 10
5.843190359477122
 20
12.60337009803921
 10
5.843190359477122
 20
12.249509803921562
 10
5.630874183006533
 20
11.754105392156859
 10
5.324195261437906
 20
11.518198529411759
 10
4.9231535947712395
 20
11.40024509803921
 10
4.73442810457516
 20
11.40024509803921
  0
LWPOLYLINE
  5
3A
330
17
100
AcDbEntity
  8
0
100
AcDbPolyline
 90
21
 70
0
 10
2.9645986519607828
 20
14.390398284313727
 10
2.2568780637254875
 20
14.461170343137256
 10
1.5727481617647046
 20
14.909393382352944
 10
0.9829810049019585
 20
15.687886029411766
 10
0.8650275735294102
 20
16.324834558823532
 10
0.9593903186274488
 20
17.244871323529416
 10
1.5255667892156843
 20
18.164908088235293
 10
1.6671109068627432
 20
18.117726715686274
 10
1.8794270833333329
 20
18.33004289215686
 10
2.823054534313723
 20
18.565949754901965
 10
3.483593749999997
 20
18.518768382352945
 10
4.3092677696078425
 20
18.141317401960784
 10
4.49799325980392
 20
17.834638480392158
 10
4.686718749999997
 20
17.71668504901961
 10
4.993397671568626
 20
17.15050857843137
 10
5.040579044117646
 20
16.867420343137255
 10
4.946216299019607
 20
15.687886029411766
 10
4.710309436274507
 20
15.286844362745098
 10
3.884635416666665
 20
14.508351715686276
 10
3.200505514705881
 20
14.390398284313727
 10
2.9645986519607828
 20
14.390398284313727
  0
LWPOLYLINE
  5
3B
330
17
100
AcDbEntity
  8
0
100
AcDbPolyline
 90
20
 70
0
 10
7.075016124871001
 20
14.857108488132099
 10
6.343704850361198
 20
15.093015350877195
 10
5.942663183694532
 20
15.494057017543863
 10
5.730347007223943
 20
15.91868937048504
 10
5.659574948400414
 20
16.484865841073276
 10
5.801119066047472
 20
17.09822368421053
 10
6.037025928792571
 20
17.499265350877195
 10
6.296523477812179
 20
17.735172213622295
 10
7.004244066047472
 20
17.9946697626419
 10
7.570420536635708
 20
17.923897703818373
 10
8.089415634674925
 20
17.711581527347786
 10
8.41968524251806
 20
17.381311919504647
 10
8.49045730134159
 20
17.09822368421053
 10
8.67918279153767
 20
16.93308888028896
 10
8.749954850361199
 20
16.437684468524257
 10
8.70277347781218
 20
15.96587074303406
 10
8.325322497420022
 20
15.328922213622295
 10
7.9242808307533545
 20
15.022243292053666
 10
7.145788183694532
 20
14.857108488132099
 10
7.075016124871001
 20
14.857108488132099
  0
LWPOLYLINE
  5
3C
330
17
100
AcDbEntity
  8
0
100
AcDbPolyline
 90
11
 70
0
 10
7.98577818627451
 20
12.277904411764709
 10
7.726280637254902
 20
12.372267156862748
 10
7.490373774509804
 20
12.702536764705883
 10
7.561145833333335
 20
13.19794117647059
 10
7.938596813725491
 20
13.4574387254902
 10
8.457591911764707
 20
13.292303921568628
 10
8.669908088235294
 20
12.914852941176473
 10
8.575545343137255
 20
12.584583333333335
 10
8.363229166666667
 20
12.372267156862748
 10
8.05655024509804
 20
12.277904411764709
 10
7.98577818627451
 20
12.277904411764709
  0
LWPOLYLINE
  5
3D
330
17
100
AcDbEntity
  8
0
100
AcDbPolyline
 90
10
 70
0
 10
7.897652505446624
 20
10.526202342047931
 10
7.520201525054466
 20
10.809290577342049
 10
7.4730201525054465
 20
11.233922930283224
 10
7.590973583877997
 20
11.493420479302833
 10
7.921243191721134
 20
11.682145969498912
 10
8.34587554466231
 20
11.587783224400873
 10
8.652554466230937
 20
11.257513616557736
 10
8.48741966230937
 20
10.73851851851852
 10
8.13355936819172
 20
10.526202342047931
 10
7.897652505446624
 20
10.526202342047931
  0
LWPOLYLINE
  5
3E
330
17
100
AcDbEntity
  8
0
100
AcDbPolyline
 90
22
 70
0
 10
7.113374183006538
 20
5.593031045751635
 10
6.995420751633988
 20
5.828937908496733
 10
7.019011437908498
 20
6.631021241830067
 10
7.2313276143790866
 20
7.008472222222223
 10
7.160555555555558
 20
7.810555555555557
 10
7.278508986928106
 20
8.188006535947714
 10
7.0426021241830075
 20
8.49468545751634
 10
7.066192810457519
 20
9.485494281045753
 10
7.160555555555558
 20
9.556266339869282
 10
7.254918300653596
 20
9.461903594771243
 10
7.254918300653596
 20
8.73059232026144
 10
7.396462418300656
 20
8.51827614379085
 10
8.410861928104577
 20
8.282369281045753
 10
9.071401143790851
 20
7.786964869281047
 10
9.047810457516341
 20
7.621830065359478
 10
8.528815359477125
 20
6.984881535947713
 10
8.151364379084969
 20
6.819746732026146
 10
7.538006535947714
 20
6.772565359477125
 10
7.278508986928106
 20
6.583839869281047
 10
7.254918300653596
 20
5.828937908496733
 10
7.136964869281048
 20
5.616621732026146
 10
7.113374183006538
 20
5.593031045751635
  0
LWPOLYLINE
  5
3F
330
17
100
AcDbEntity
  8
0
100
AcDbPolyline
 90
24
 70
0
 10
7.000686274509805
 20
0.9721014492753612
 10
6.929914215686276
 20
1.1608269394714403
 10
6.953504901960786
 20
2.0336823316283015
 10
7.142230392156863
 20
2.2931798806479113
 10
7.024276960784315
 20
2.930128410059676
 10
7.189411764705884
 20
3.401942135549871
 10
7.165821078431373
 20
3.59066762574595
 10
7.000686274509805
 20
3.7558024296675177
 10
7.000686274509805
 20
4.840973998294969
 10
7.118639705882353
 20
4.958927429667518
 10
7.260183823529413
 20
4.864564684569479
 10
7.213002450980394
 20
4.180434782608695
 10
7.3073651960784325
 20
3.8265744884910466
 10
7.519681372549021
 20
3.7086210571184983
 10
8.392536764705884
 20
3.5670769394714403
 10
8.722806372549021
 20
3.213216645353792
 10
8.958713235294118
 20
3.118853900255753
 10
9.029485294117649
 20
2.835765664961637
 10
8.274583333333334
 20
2.1516357630008516
 10
7.283774509803923
 20
2.010091645353792
 10
7.165821078431373
 20
1.8213661551577145
 10
7.142230392156863
 20
1.0664641943734008
 10
7.071458333333334
 20
0.9721014492753612
 10
7.000686274509805
 20
0.9721014492753612
  0
LWPOLYLINE
  5
40
330
17
100
AcDbEntity
  8
0
100
AcDbPolyline
 90
19
 70
0
 10
10.27257080610022
 20
0.770204248366011
 10
10.154617374727671
 20
0.9589297385620892
 10
10.154617374727671
 20
5.488341503267971
 10
10.27257080610022
 20
5.653476307189539
 10
10.650021786492378
 20
5.653476307189539
 10
10.744384531590416
 20
5.5591135620915
 10
10.838747276688455
 20
4.49753267973856
 10
11.782374727668845
 20
4.40316993464052
 10
12.136235021786494
 20
4.285216503267971
 10
12.58445806100218
 20
3.8605841503267957
 10
12.749592864923748
 20
3.247226307189541
 10
12.560867374727671
 20
2.515915032679736
 10
12.67882080610022
 20
2.044101307189541
 10
12.490095315904142
 20
1.902557189542481
 10
12.089053649237474
 20
2.11487336601307
 10
10.815156590413945
 20
1.9261478758169908
 10
10.767975217864926
 20
0.9589297385620892
 10
10.602840413943355
 20
0.770204248366011
 10
10.27257080610022
 20
0.770204248366011
  0
LWPOLYLINE
  5
41
330
17
100
AcDbEntity
  8
0
100
AcDbPolyline
 90
22
 70
0
 10
13.691360294117649
 20
0.7495016339869283
 10
13.479044117647062
 20
0.9854084967320258
 10
13.408272058823533
 20
4.641964869281044
 10
13.408272058823533
 20
5.538410947712419
 10
13.59699754901961
 20
5.656364379084967
 10
14.021629901960788
 20
5.585592320261438
 10
14.163174019607846
 20
4.547602124183006
 10
15.03602941176471
 20
4.453239379084967
 10
15.555024509803923
 20
4.26451388888889
 10
15.908884803921572
 20
3.8870629084967314
 10
16.09761029411765
 20
3.2972957516339862
 10
16.07401960784314
 20
2.967026143790849
 10
15.814522058823533
 20
2.424440359477125
 10
15.908884803921572
 20
2.0705800653594766
 10
15.743750000000004
 20
1.9998080065359476
 10
15.460661764705884
 20
2.1413521241830056
 10
15.130392156862749
 20
2.0233986928104573
 10
14.210355392156865
 20
1.9290359477124186
 10
14.139583333333336
 20
1.83467320261438
 10
14.139583333333336
 20
0.9382271241830065
 10
13.974448529411768
 20
0.7495016339869283
 10
13.691360294117649
 20
0.7495016339869283
  0
LWPOLYLINE
  5
42
330
17
100
AcDbEntity
  8
0
100
AcDbPolyline
 90
48
 70
0
 10
12.81365847934918
 20
6.591806946182732
 10
12.624932989153102
 20
6.6389883187317515
 10
12.436207498957025
 20
6.922076554025869
 10
12.223891322486436
 20
6.992848612849398
 10
10.784859459741337
 20
6.969257926574889
 10
10.4545898518982
 20
6.7569417501043
 10
10.218682989153102
 20
6.7805324363788095
 10
10.029957498957023
 20
6.945667240300379
 10
10.147910930329573
 20
10.036047142261163
 10
9.864822695035455
 20
10.38990743637881
 10
9.841232008760946
 20
11.309944201084692
 10
10.053548185231532
 20
11.68739518147685
 10
10.053548185231532
 20
14.636230965790574
 10
9.864822695035455
 20
15.4147236128494
 10
9.888413381309965
 20
16.216806946182732
 10
10.053548185231532
 20
16.47630449520234
 10
9.982776126408003
 20
17.5850667501043
 10
10.242273675427612
 20
17.89174567167293
 10
10.407408479349181
 20
17.89174567167293
 10
10.666906028368789
 20
17.726610867751358
 10
12.459798185231534
 20
17.726610867751358
 10
12.695705047976631
 20
17.89174567167293
 10
12.76647710680016
 20
18.41074076971214
 10
12.860839851898199
 20
18.528694201084694
 10
13.04956534209428
 20
18.481512828535674
 10
13.073156028368789
 20
17.93892704422195
 10
13.285472204839376
 20
17.750201554025868
 10
15.078364361702121
 20
17.773792240300377
 10
15.267089851898199
 20
17.89174567167293
 10
15.620950146015847
 20
17.89174567167293
 10
15.951219753858982
 20
17.63224812265332
 10
15.974810440133496
 20
17.231206455986655
 10
15.904038381309963
 20
15.4147236128494
 10
15.809675636211924
 20
15.10804469128077
 10
15.786084949937415
 20
11.64021380892783
 10
15.880447695035453
 20
10.625814299123908
 10
15.691722204839376
 20
10.224772632457242
 10
15.691722204839376
 20
8.384699103045477
 10
15.951219753858982
 20
8.07802018147685
 10
15.951219753858982
 20
7.110802044221948
 10
15.620950146015847
 20
6.7097603775552805
 10
15.267089851898199
 20
6.73335106382979
 10
14.936820244055063
 20
6.969257926574889
 10
13.615741812682515
 20
6.992848612849398
 10
13.356244263662905
 20
6.922076554025869
 10
13.238290832290357
 20
6.6389883187317515
 10
12.97879328327075
 20
6.591806946182732
 10
12.81365847934918
 20
6.591806946182732
  0
ENDSEC
  0
SECTION
  2
OBJECTS
  0
DICTIONARY
  5
A
330
0
100
AcDbDictionary
281
1
  3
ACAD_COLOR
350
B
  3
ACAD_GROUP
350
C
  3
ACAD_LAYOUT
350
D
  3
ACAD_MATERIAL
350
E
  3
ACAD_MLEADERSTYLE
350
F
  3
ACAD_MLINESTYLE
350
10
  3
ACAD_PLOTSETTINGS
350
11
  3
ACAD_PLOTSTYLENAME
350
12
  3
ACAD_SCALELIST
350
14
  3
ACAD_TABLESTYLE
350
15
  3
ACAD_VISUALSTYLE
350
16
  3
EZDXF_META
350
2D
  0
DICTIONARY
  5
B
330
A
100
AcDbDictionary
281
1
  0
DICTIONARY
  5
C
330
A
100
AcDbDictionary
281
1
  0
DICTIONARY
  5
D
330
A
100
AcDbDictionary
281
1
  3
Model
350
1A
  3
Layout1
350
1E
  0
DICTIONARY
  5
E
330
A
100
AcDbDictionary
281
1
  3
ByBlock
350
1F
  3
ByLayer
350
20
  3
Global
350
21
  0
DICTIONARY
  5
F
330
A
100
AcDbDictionary
281
1
  3
Standard
350
2C
  0
DICTIONARY
  5
10
330
A
100
AcDbDictionary
281
1
  3
Standard
350
22
  0
DICTIONARY
  5
11
330
A
100
AcDbDictionary
281
1
  0
ACDBDICTIONARYWDFLT
  5
12
330
A
100
AcDbDictionary
281
1
  3
Normal
350
13
100
AcDbDictionaryWithDefault
340
13
  0
ACDBPLACEHOLDER
  5
13
330
12
  0
DICTIONARY
  5
14
330
A
100
AcDbDictionary
281
1
  0
DICTIONARY
  5
15
330
A
100
AcDbDictionary
281
1
  0
DICTIONARY
  5
16
330
A
100
AcDbDictionary
281
1
  0
LAYOUT
  5
1A
330
D
100
AcDbPlotSettings
  1

  4
A3
  6

 40
7.5
 41
20.0
 42
7.5
 43
20.0
 44
420.0
 45
297.0
 46
0.0
 47
0.0
 48
0.0
 49
0.0
140
0.0
141
0.0
142
1.0
143
1.0
 70
1024
 72
1
 73
0
 74
5
  7

 75
16
 76
0
 77
2
 78
300
147
1.0
148
0.0
149
0.0
100
AcDbLayout
  1
Model
 70
1
 71
0
 10
0.0
 20
0.0
 11
420.0
 21
297.0
 12
0.0
 22
0.0
 32
0.0
 14
1e+20
 24
1e+20
 34
1e+20
 15
-1e+20
 25
-1e+20
 35
-1e+20
146
0.0
 13
0.0
 23
0.0
 33
0.0
 16
1.0
 26
0.0
 36
0.0
 17
0.0
 27
1.0
 37
0.0
 76
1
330
17
  0
LAYOUT
  5
1E
330
D
100
AcDbPlotSettings
  1

  4
A3
  6

 40
7.5
 41
20.0
 42
7.5
 43
20.0
 44
420.0
 45
297.0
 46
0.0
 47
0.0
 48
0.0
 49
0.0
140
0.0
141
0.0
142
1.0
143
1.0
 70
0
 72
1
 73
0
 74
5
  7

 75
16
 76
0
 77
2
 78
300
147
1.0
148
0.0
149
0.0
100
AcDbLayout
  1
Layout1
 70
1
 71
1
 10
0.0
 20
0.0
 11
420.0
 21
297.0
 12
0.0
 22
0.0
 32
0.0
 14
1e+20
 24
1e+20
 34
1e+20
 15
-1e+20
 25
-1e+20
 35
-1e+20
146
0.0
 13
0.0
 23
0.0
 33
0.0
 16
1.0
 26
0.0
 36
0.0
 17
0.0
 27
1.0
 37
0.0
 76
1
330
1B
  0
MATERIAL
  5
1F
102
{ACAD_REACTORS
330
E
102
}
330
E
100
AcDbMaterial
  1
ByBlock
  2

 70
0
 40
1.0
 71
1
 41
1.0
 91
-1023410177
 42
1.0
 72
1
  3

 73
1
 74
1
 75
1
 44
0.5
 73
0
 45
1.0
 46
1.0
 77
1
  4

 78
1
 79
1
170
1
 48
1.0
171
1
  6

172
1
173
1
174
1
140
1.0
141
1.0
175
1
  7

176
1
177
1
178
1
143
1.0
179
1
  8

270
1
271
1
272
1
145
1.0
146
1.0
273
1
  9

274
1
275
1
276
1
 42
1.0
 72
1
  3

 73
1
 74
1
 75
1
 94
63
  0
MATERIAL
  5
20
102
{ACAD_REACTORS
330
E
102
}
330
E
100
AcDbMaterial
  1
ByLayer
  2

 70
0
 40
1.0
 71
1
 41
1.0
 91
-1023410177
 42
1.0
 72
1
  3

 73
1
 74
1
 75
1
 44
0.5
 73
0
 45
1.0
 46
1.0
 77
1
  4

 78
1
 79
1
170
1
 48
1.0
171
1
  6

172
1
173
1
174
1
140
1.0
141
1.0
175
1
  7

176
1
177
1
178
1
143
1.0
179
1
  8

270
1
271
1
272
1
145
1.0
146
1.0
273
1
  9

274
1
275
1
276
1
 42
1.0
 72
1
  3

 73
1
 74
1
 75
1
 94
63
  0
MATERIAL
  5
21
102
{ACAD_REACTORS
330
E
102
}
330
E
100
AcDbMaterial
  1
Global
  2

 70
0
 40
1.0
 71
1
 41
1.0
 91
-1023410177
 42
1.0
 72
1
  3

 73
1
 74
1
 75
1
 44
0.5
 73
0
 45
1.0
 46
1.0
 77
1
  4

 78
1
 79
1
170
1
 48
1.0
171
1
  6

172
1
173
1
174
1
140
1.0
141
1.0
175
1
  7

176
1
177
1
178
1
143
1.0
179
1
  8

270
1
271
1
272
1
145
1.0
146
1.0
273
1
  9

274
1
275
1
276
1
 42
1.0
 72
1
  3

 73
1
 74
1
 75
1
 94
63
  0
MLINESTYLE
  5
22
102
{ACAD_REACTORS
330
10
102
}
330
10
100
AcDbMlineStyle
  2
Standard
 70
0
  3

 62
256
 51
90.0
 52
90.0
 71
2
 49
0.5
 62
256
  6
BYLAYER
 49
-0.5
 62
256
  6
BYLAYER
  0
MLEADERSTYLE
  5
2C
102
{ACAD_REACTORS
330
F
102
}
330
F
100
AcDbMLeaderStyle
179
2
170
2
171
1
172
0
 90
2
 40
0.0
 41
0.0
173
1
 91
-1056964608
 92
-2
290
1
 42
2.0
291
1
 43
8.0
  3
Standard
 44
4.0
300

342
29
174
1
175
1
176
0
178
1
 93
-1056964608
 45
4.0
292
0
297
0
 46
4.0
 94
-1056964608
 47
1.0
 49
1.0
140
1.0
294
1
141
0.0
177
0
142
1.0
295
0
296
0
143
3.75
271
0
272
9
273
9
  0
DICTIONARY
  5
2D
330
A
100
AcDbDictionary
280
1
281
1
  3
CREATED_BY_EZDXF
350
2E
  3
WRITTEN_BY_EZDXF
350
45
  0
DICTIONARYVAR
  5
2E
330
2D
100
DictionaryVariables
280
0
  1
1.4.2 @ 2025-08-19T04:16:56.770975+00:00
  0
DICTIONARYVAR
  5
45
330
2D
100
DictionaryVariables
280
0
  1
1.4.2 @ 2025-08-19T04:16:56.776902+00:00
  0
ENDSEC
  0
EOF
