  0
SECTION
  2
HEADER
  9
$ACADVER
  1
AC1024
  9
$ACADMAINTVER
 70
6
  9
$DWGCODEPAGE
  3
ANSI_1252
  9
$LASTSAVEDBY
  1
ezdxf
  9
$INSBASE
 10
0.0
 20
0.0
 30
0.0
  9
$EXTMIN
 10
1e+20
 20
1e+20
 30
1e+20
  9
$EXTMAX
 10
-1e+20
 20
-1e+20
 30
-1e+20
  9
$LIMMIN
 10
0.0
 20
0.0
  9
$LIMMAX
 10
420.0
 20
297.0
  9
$ORTHOMODE
 70
0
  9
$REGENMODE
 70
1
  9
$FILLMODE
 70
1
  9
$QTEXTMODE
 70
0
  9
$MIRRTEXT
 70
1
  9
$LTSCALE
 40
1.0
  9
$ATTMODE
 70
1
  9
$TEXTSIZE
 40
2.5
  9
$TRACEWID
 40
1.0
  9
$TEXTSTYLE
  7
Standard
  9
$CLAYER
  8
0
  9
$CELTYPE
  6
ByLayer
  9
$CECOLOR
 62
256
  9
$CELTSCALE
 40
1.0
  9
$DISPSILH
 70
0
  9
$DIMSCALE
 40
1.0
  9
$DIMASZ
 40
2.5
  9
$DIMEXO
 40
0.625
  9
$DIMDLI
 40
3.75
  9
$DIMRND
 40
0.0
  9
$DIMDLE
 40
0.0
  9
$DIMEXE
 40
1.25
  9
$DIMTP
 40
0.0
  9
$DIMTM
 40
0.0
  9
$DIMTXT
 40
2.5
  9
$DIMCEN
 40
2.5
  9
$DIMTSZ
 40
0.0
  9
$DIMTOL
 70
0
  9
$DIMLIM
 70
0
  9
$DIMTIH
 70
0
  9
$DIMTOH
 70
0
  9
$DIMSE1
 70
0
  9
$DIMSE2
 70
0
  9
$DIMTAD
 70
1
  9
$DIMZIN
 70
8
  9
$DIMBLK
  1

  9
$DIMASO
 70
1
  9
$DIMSHO
 70
1
  9
$DIMPOST
  1

  9
$DIMAPOST
  1

  9
$DIMALT
 70
0
  9
$DIMALTD
 70
3
  9
$DIMALTF
 40
0.03937007874
  9
$DIMLFAC
 40
1.0
  9
$DIMTOFL
 70
1
  9
$DIMTVP
 40
0.0
  9
$DIMTIX
 70
0
  9
$DIMSOXD
 70
0
  9
$DIMSAH
 70
0
  9
$DIMBLK1
  1

  9
$DIMBLK2
  1

  9
$DIMSTYLE
  2
ISO-25
  9
$DIMCLRD
 70
0
  9
$DIMCLRE
 70
0
  9
$DIMCLRT
 70
0
  9
$DIMTFAC
 40
1.0
  9
$DIMGAP
 40
0.625
  9
$DIMJUST
 70
0
  9
$DIMSD1
 70
0
  9
$DIMSD2
 70
0
  9
$DIMTOLJ
 70
0
  9
$DIMTZIN
 70
8
  9
$DIMALTZ
 70
0
  9
$DIMALTTZ
 70
0
  9
$DIMUPT
 70
0
  9
$DIMDEC
 70
2
  9
$DIMTDEC
 70
2
  9
$DIMALTU
 70
2
  9
$DIMALTTD
 70
3
  9
$DIMTXSTY
  7
Standard
  9
$DIMAUNIT
 70
0
  9
$DIMADEC
 70
0
  9
$DIMALTRND
 40
0.0
  9
$DIMAZIN
 70
0
  9
$DIMDSEP
 70
44
  9
$DIMATFIT
 70
3
  9
$DIMFRAC
 70
0
  9
$DIMLDRBLK
  1

  9
$DIMLUNIT
 70
2
  9
$DIMLWD
 70
-2
  9
$DIMLWE
 70
-2
  9
$DIMTMOVE
 70
0
  9
$DIMFXL
 40
1.0
  9
$DIMFXLON
 70
0
  9
$DIMJOGANG
 40
0.785398163397
  9
$DIMTFILL
 70
0
  9
$DIMTFILLCLR
 70
0
  9
$DIMARCSYM
 70
0
  9
$DIMLTYPE
  6

  9
$DIMLTEX1
  6

  9
$DIMLTEX2
  6

  9
$DIMTXTDIRECTION
 70
0
  9
$LUNITS
 70
2
  9
$LUPREC
 70
4
  9
$SKETCHINC
 40
1.0
  9
$FILLETRAD
 40
10.0
  9
$AUNITS
 70
0
  9
$AUPREC
 70
2
  9
$MENU
  1
.
  9
$ELEVATION
 40
0.0
  9
$PELEVATION
 40
0.0
  9
$THICKNESS
 40
0.0
  9
$LIMCHECK
 70
0
  9
$CHAMFERA
 40
0.0
  9
$CHAMFERB
 40
0.0
  9
$CHAMFERC
 40
0.0
  9
$CHAMFERD
 40
0.0
  9
$SKPOLY
 70
0
  9
$TDCREATE
 40
2460906.9438425926
  9
$TDUCREATE
 40
2458532.153996898
  9
$TDUPDATE
 40
2460906.9438425926
  9
$TDUUPDATE
 40
2458532.1544311
  9
$TDINDWG
 40
0.0
  9
$TDUSRTIMER
 40
0.0
  9
$USRTIMER
 70
1
  9
$ANGBASE
 50
0.0
  9
$ANGDIR
 70
0
  9
$PDMODE
 70
0
  9
$PDSIZE
 40
0.0
  9
$PLINEWID
 40
0.0
  9
$SPLFRAME
 70
0
  9
$SPLINETYPE
 70
6
  9
$SPLINESEGS
 70
8
  9
$HANDSEED
  5
46
  9
$SURFTAB1
 70
6
  9
$SURFTAB2
 70
6
  9
$SURFTYPE
 70
6
  9
$SURFU
 70
6
  9
$SURFV
 70
6
  9
$UCSBASE
  2

  9
$UCSNAME
  2

  9
$UCSORG
 10
0.0
 20
0.0
 30
0.0
  9
$UCSXDIR
 10
1.0
 20
0.0
 30
0.0
  9
$UCSYDIR
 10
0.0
 20
1.0
 30
0.0
  9
$UCSORTHOREF
  2

  9
$UCSORTHOVIEW
 70
0
  9
$UCSORGTOP
 10
0.0
 20
0.0
 30
0.0
  9
$UCSORGBOTTOM
 10
0.0
 20
0.0
 30
0.0
  9
$UCSORGLEFT
 10
0.0
 20
0.0
 30
0.0
  9
$UCSORGRIGHT
 10
0.0
 20
0.0
 30
0.0
  9
$UCSORGFRONT
 10
0.0
 20
0.0
 30
0.0
  9
$UCSORGBACK
 10
0.0
 20
0.0
 30
0.0
  9
$PUCSBASE
  2

  9
$PUCSNAME
  2

  9
$PUCSORG
 10
0.0
 20
0.0
 30
0.0
  9
$PUCSXDIR
 10
1.0
 20
0.0
 30
0.0
  9
$PUCSYDIR
 10
0.0
 20
1.0
 30
0.0
  9
$PUCSORTHOREF
  2

  9
$PUCSORTHOVIEW
 70
0
  9
$PUCSORGTOP
 10
0.0
 20
0.0
 30
0.0
  9
$PUCSORGBOTTOM
 10
0.0
 20
0.0
 30
0.0
  9
$PUCSORGLEFT
 10
0.0
 20
0.0
 30
0.0
  9
$PUCSORGRIGHT
 10
0.0
 20
0.0
 30
0.0
  9
$PUCSORGFRONT
 10
0.0
 20
0.0
 30
0.0
  9
$PUCSORGBACK
 10
0.0
 20
0.0
 30
0.0
  9
$USERI1
 70
0
  9
$USERI2
 70
0
  9
$USERI3
 70
0
  9
$USERI4
 70
0
  9
$USERI5
 70
0
  9
$USERR1
 40
0.0
  9
$USERR2
 40
0.0
  9
$USERR3
 40
0.0
  9
$USERR4
 40
0.0
  9
$USERR5
 40
0.0
  9
$WORLDVIEW
 70
1
  9
$SHADEDGE
 70
3
  9
$SHADEDIF
 70
70
  9
$TILEMODE
 70
1
  9
$MAXACTVP
 70
64
  9
$PINSBASE
 10
0.0
 20
0.0
 30
0.0
  9
$PLIMCHECK
 70
0
  9
$PEXTMIN
 10
1e+20
 20
1e+20
 30
1e+20
  9
$PEXTMAX
 10
-1e+20
 20
-1e+20
 30
-1e+20
  9
$PLIMMIN
 10
0.0
 20
0.0
  9
$PLIMMAX
 10
420.0
 20
297.0
  9
$UNITMODE
 70
0
  9
$VISRETAIN
 70
1
  9
$PLINEGEN
 70
0
  9
$PSLTSCALE
 70
1
  9
$TREEDEPTH
 70
3020
  9
$CMLSTYLE
  2
Standard
  9
$CMLJUST
 70
0
  9
$CMLSCALE
 40
20.0
  9
$PROXYGRAPHICS
 70
1
  9
$MEASUREMENT
 70
1
  9
$CELWEIGHT
370
-1
  9
$ENDCAPS
280
0
  9
$JOINSTYLE
280
0
  9
$LWDISPLAY
290
0
  9
$INSUNITS
 70
1
  9
$HYPERLINKBASE
  1

  9
$STYLESHEET
  1

  9
$XEDIT
290
1
  9
$CEPSNTYPE
380
0
  9
$PSTYLEMODE
290
1
  9
$FINGERPRINTGUID
  2
{DCCB5B84-CA80-4F7C-AC86-98117F3BCF1B}
  9
$VERSIONGUID
  2
{8850F480-6090-48F4-9849-4C7A797A5AE7}
  9
$EXTNAMES
290
1
  9
$PSVPSCALE
 40
0.0
  9
$OLESTARTUP
290
0
  9
$SORTENTS
280
127
  9
$INDEXCTL
280
0
  9
$HIDETEXT
280
1
  9
$XCLIPFRAME
280
1
  9
$HALOGAP
280
0
  9
$OBSCOLOR
 70
257
  9
$OBSLTYPE
280
0
  9
$INTERSECTIONDISPLAY
280
0
  9
$INTERSECTIONCOLOR
 70
257
  9
$DIMASSOC
280
2
  9
$PROJECTNAME
  1

  9
$CAMERADISPLAY
290
0
  9
$LENSLENGTH
 40
50.0
  9
$CAMERAHEIGHT
 40
0.0
  9
$STEPSPERSEC
 40
24.0
  9
$STEPSIZE
 40
100.0
  9
$3DDWFPREC
 40
2.0
  9
$PSOLWIDTH
 40
0.005
  9
$PSOLHEIGHT
 40
0.08
  9
$LOFTANG1
 40
1.570796326795
  9
$LOFTANG2
 40
1.570796326795
  9
$LOFTMAG1
 40
0.0
  9
$LOFTMAG2
 40
0.0
  9
$LOFTPARAM
 70
7
  9
$LOFTNORMALS
280
1
  9
$LATITUDE
 40
37.795
  9
$LONGITUDE
 40
-122.394
  9
$NORTHDIRECTION
 40
0.0
  9
$TIMEZONE
 70
-8000
  9
$LIGHTGLYPHDISPLAY
280
1
  9
$TILEMODELIGHTSYNCH
280
1
  9
$CMATERIAL
347
20
  9
$SOLIDHIST
280
0
  9
$SHOWHIST
280
1
  9
$DWFFRAME
280
2
  9
$DGNFRAME
280
2
  9
$REALWORLDSCALE
290
1
  9
$INTERFERECOLOR
 62
256
  9
$CSHADOW
280
0
  9
$SHADOWPLANELOCATION
 40
0.0
  0
ENDSEC
  0
SECTION
  2
CLASSES
  0
CLASS
  1
ACDBDICTIONARYWDFLT
  2
AcDbDictionaryWithDefault
  3
ObjectDBX Classes
 90
0
 91
0
280
0
281
0
  0
CLASS
  1
SUN
  2
AcDbSun
  3
SCENEOE
 90
1153
 91
0
280
0
281
0
  0
CLASS
  1
VISUALSTYLE
  2
AcDbVisualStyle
  3
ObjectDBX Classes
 90
4095
 91
0
280
0
281
0
  0
CLASS
  1
MATERIAL
  2
AcDbMaterial
  3
ObjectDBX Classes
 90
1153
 91
0
280
0
281
0
  0
CLASS
  1
SCALE
  2
AcDbScale
  3
ObjectDBX Classes
 90
1153
 91
0
280
0
281
0
  0
CLASS
  1
TABLESTYLE
  2
AcDbTableStyle
  3
ObjectDBX Classes
 90
4095
 91
0
280
0
281
0
  0
CLASS
  1
MLEADERSTYLE
  2
AcDbMLeaderStyle
  3
ACDB_MLEADERSTYLE_CLASS
 90
4095
 91
0
280
0
281
0
  0
CLASS
  1
DICTIONARYVAR
  2
AcDbDictionaryVar
  3
ObjectDBX Classes
 90
0
 91
0
280
0
281
0
  0
CLASS
  1
CELLSTYLEMAP
  2
AcDbCellStyleMap
  3
ObjectDBX Classes
 90
1152
 91
0
280
0
281
0
  0
CLASS
  1
MENTALRAYRENDERSETTINGS
  2
AcDbMentalRayRenderSettings
  3
SCENEOE
 90
1024
 91
0
280
0
281
0
  0
CLASS
  1
ACDBDETAILVIEWSTYLE
  2
AcDbDetailViewStyle
  3
ObjectDBX Classes
 90
1025
 91
0
280
0
281
0
  0
CLASS
  1
ACDBSECTIONVIEWSTYLE
  2
AcDbSectionViewStyle
  3
ObjectDBX Classes
 90
1025
 91
0
280
0
281
0
  0
CLASS
  1
RASTERVARIABLES
  2
AcDbRasterVariables
  3
ISM
 90
0
 91
0
280
0
281
0
  0
CLASS
  1
ACDBPLACEHOLDER
  2
AcDbPlaceHolder
  3
ObjectDBX Classes
 90
0
 91
0
280
0
281
0
  0
CLASS
  1
LAYOUT
  2
AcDbLayout
  3
ObjectDBX Classes
 90
0
 91
0
280
0
281
0
  0
ENDSEC
  0
SECTION
  2
TABLES
  0
TABLE
  2
VPORT
  5
8
330
0
100
AcDbSymbolTable
 70
1
  0
VPORT
  5
23
330
8
100
AcDbSymbolTableRecord
100
AcDbViewportTableRecord
  2
*Active
 70
0
 10
0.0
 20
0.0
 11
1.0
 21
1.0
 12
0.0
 22
0.0
 13
0.0
 23
0.0
 14
0.5
 24
0.5
 15
0.5
 25
0.5
 16
0.0
 26
0.0
 36
1.0
 17
0.0
 27
0.0
 37
0.0
 40
1000.0
 41
1.34
 42
50.0
 43
0.0
 44
0.0
 50
0.0
 51
0.0
 71
0
 72
1000
 73
1
 74
3
 75
0
 76
0
 77
0
 78
0
281
0
 65
0
146
0.0
  0
ENDTAB
  0
TABLE
  2
LTYPE
  5
2
330
0
100
AcDbSymbolTable
 70
3
  0
LTYPE
  5
24
330
2
100
AcDbSymbolTableRecord
100
AcDbLinetypeTableRecord
  2
ByBlock
 70
0
  3

 72
65
 73
0
 40
0.0
  0
LTYPE
  5
25
330
2
100
AcDbSymbolTableRecord
100
AcDbLinetypeTableRecord
  2
ByLayer
 70
0
  3

 72
65
 73
0
 40
0.0
  0
LTYPE
  5
26
330
2
100
AcDbSymbolTableRecord
100
AcDbLinetypeTableRecord
  2
Continuous
 70
0
  3

 72
65
 73
0
 40
0.0
  0
ENDTAB
  0
TABLE
  2
LAYER
  5
1
330
0
100
AcDbSymbolTable
 70
2
  0
LAYER
  5
27
330
1
100
AcDbSymbolTableRecord
100
AcDbLayerTableRecord
  2
0
 70
0
 62
7
  6
Continuous
370
-3
390
13
347
21
  0
LAYER
  5
28
330
1
100
AcDbSymbolTableRecord
100
AcDbLayerTableRecord
  2
Defpoints
 70
0
 62
7
  6
Continuous
290
0
370
-3
390
13
347
21
  0
ENDTAB
  0
TABLE
  2
STYLE
  5
5
330
0
100
AcDbSymbolTable
 70
1
  0
STYLE
  5
29
330
5
100
AcDbSymbolTableRecord
100
AcDbTextStyleTableRecord
  2
Standard
 70
0
 40
0.0
 41
1.0
 50
0.0
 71
0
 42
2.5
  3
txt
  4

  0
ENDTAB
  0
TABLE
  2
VIEW
  5
7
330
0
100
AcDbSymbolTable
 70
0
  0
ENDTAB
  0
TABLE
  2
UCS
  5
6
330
0
100
AcDbSymbolTable
 70
0
  0
ENDTAB
  0
TABLE
  2
APPID
  5
3
330
0
100
AcDbSymbolTable
 70
3
  0
APPID
  5
2A
330
3
100
AcDbSymbolTableRecord
100
AcDbRegAppTableRecord
  2
ACAD
 70
0
  0
APPID
  5
43
330
3
100
AcDbSymbolTableRecord
100
AcDbRegAppTableRecord
  2
HATCHBACKGROUNDCOLOR
 70
0
  0
APPID
  5
44
330
3
100
AcDbSymbolTableRecord
100
AcDbRegAppTableRecord
  2
EZDXF
 70
0
  0
ENDTAB
  0
TABLE
  2
DIMSTYLE
  5
4
330
0
100
AcDbSymbolTable
 70
1
100
AcDbDimStyleTable
  0
DIMSTYLE
105
2B
330
4
100
AcDbSymbolTableRecord
100
AcDbDimStyleTableRecord
  2
Standard
 70
0
 40
1.0
 41
2.5
 42
0.625
 43
3.75
 44
1.25
 45
0.0
 46
0.0
 47
0.0
 48
0.0
 49
2.5
140
2.5
141
2.5
142
0.0
143
0.03937007874
144
1.0
145
0.0
146
1.0
147
0.625
148
0.0
 69
0
 70
0
 71
0
 72
0
 73
0
 74
0
 75
0
 76
0
 77
1
 78
8
 79
3
170
0
171
3
172
1
173
0
174
0
175
0
176
0
177
0
178
0
179
2
271
2
272
2
273
2
274
3
275
0
276
0
277
2
278
44
279
0
280
0
281
0
282
0
283
0
284
8
285
0
286
0
288
0
289
3
290
0
371
-2
372
-2
  0
ENDTAB
  0
TABLE
  2
BLOCK_RECORD
  5
9
330
0
100
AcDbSymbolTable
 70
2
  0
BLOCK_RECORD
  5
17
330
9
100
AcDbSymbolTableRecord
100
AcDbBlockTableRecord
  2
*Model_Space
340
1A
 70
0
280
1
281
0
  0
BLOCK_RECORD
  5
1B
330
9
100
AcDbSymbolTableRecord
100
AcDbBlockTableRecord
  2
*Paper_Space
340
1E
 70
0
280
1
281
0
  0
ENDTAB
  0
ENDSEC
  0
SECTION
  2
BLOCKS
  0
BLOCK
  5
18
330
17
100
AcDbEntity
  8
0
100
AcDbBlockBegin
  2
*Model_Space
 70
0
 10
0.0
 20
0.0
 30
0.0
  3
*Model_Space
  1

  0
ENDBLK
  5
19
330
17
100
AcDbEntity
  8
0
100
AcDbBlockEnd
  0
BLOCK
  5
1C
330
1B
100
AcDbEntity
  8
0
100
AcDbBlockBegin
  2
*Paper_Space
 70
0
 10
0.0
 20
0.0
 30
0.0
  3
*Paper_Space
  1

  0
ENDBLK
  5
1D
330
1B
100
AcDbEntity
  8
0
100
AcDbBlockEnd
  0
ENDSEC
  0
SECTION
  2
ENTITIES
  0
LWPOLYLINE
  5
2F
330
17
100
AcDbEntity
  8
0
100
AcDbPolyline
 90
5
 70
0
 10
0.0
 20
0.0
 10
18.625
 20
0.0
 10
18.625
 20
19.25
 10
0.0
 20
19.25
 10
0.0
 20
0.0
  0
LWPOLYLINE
  5
30
330
17
100
AcDbEntity
  8
0
100
AcDbPolyline
 90
20
 70
0
 10
1.1041306567419795
 20
0.7660233186219614
 10
0.8010956129372229
 20
0.8825752585468676
 10
0.6379228970423547
 20
1.0690583624267171
 10
0.5913021210723919
 20
1.4420245701864154
 10
0.7777852249522414
 20
1.7450596139911738
 10
1.127441044726961
 20
1.8849219419010588
 10
2.3162708319610026
 20
1.954853105856003
 10
2.5726850997957964
 20
2.211267373690797
 10
2.7358578156906646
 20
10.649627824254
 10
2.9456513075554973
 20
10.649627824254
 10
3.01558247151044
 20
10.113488900599432
 10
2.9922720835254584
 20
1.9781634938409844
 10
3.132134411435345
 20
1.8849219419010588
 10
4.507447302549238
 20
1.8616115539160791
 10
4.787171958369013
 20
1.6285076740662667
 10
4.857103122323956
 20
1.32547263026151
 10
4.717240794414069
 20
0.9758168104867924
 10
4.3209641986693885
 20
0.8126440945919233
 10
1.127441044726961
 20
0.7893337066069419
 10
1.1041306567419795
 20
0.7660233186219614
  0
LWPOLYLINE
  5
31
330
17
100
AcDbEntity
  8
0
100
AcDbPolyline
 90
21
 70
0
 10
4.900844806007511
 20
3.3057916145181494
 10
4.807603254067585
 20
3.492274718397999
 10
4.807603254067585
 20
8.037800375469338
 10
4.737672090112641
 20
8.876974342928662
 10
4.551188986232791
 20
9.063457446808513
 10
3.6187734668335416
 20
9.133388610763454
 10
3.315738423028786
 20
9.436423654568213
 10
3.3390488110137673
 20
9.646217146433042
 10
3.5721526908635797
 20
9.879321026282856
 10
4.481257822277847
 20
9.925941802252819
 10
6.182916145181476
 20
9.879321026282856
 10
6.4626408010012515
 20
9.599596370463079
 10
6.43933041301627
 20
9.343182102628287
 10
6.2528473091364205
 20
9.156698998748436
 10
5.367052565707134
 20
9.110078222778476
 10
5.203879849812266
 20
9.203319774718398
 10
5.0873279098873585
 20
9.133388610763454
 10
5.0873279098873585
 20
3.748688986232793
 10
5.064017521902377
 20
3.4223435544430556
 10
4.970775969962453
 20
3.3057916145181494
 10
4.900844806007511
 20
3.3057916145181494
  0
LWPOLYLINE
  5
32
330
17
100
AcDbEntity
  8
0
100
AcDbPolyline
 90
21
 70
0
 10
6.518817271589485
 20
1.9639971839799744
 10
5.190125156445555
 20
2.0805491239048814
 10
5.026952440550687
 20
2.220411451814768
 10
5.0036420525657075
 20
2.476825719649562
 10
5.120193992490613
 20
2.686619211514393
 10
5.329987484355444
 20
2.779860763454317
 10
6.0992302878598235
 20
2.779860763454317
 10
6.355644555694617
 20
2.6633088235294116
 10
6.472196495619524
 20
2.733239987484354
 10
6.495506883604504
 20
8.001387672090111
 10
6.58874843554443
 20
8.53752659574468
 10
6.751921151439298
 20
8.444285043804754
 10
6.681989987484355
 20
4.201794430538173
 10
6.751921151439298
 20
3.0828958072590735
 10
6.821852315394242
 20
2.8731023153942425
 10
6.961714643304129
 20
2.779860763454317
 10
7.777578222778471
 20
2.7099295994993744
 10
8.10392365456821
 20
2.5467568836045062
 10
8.150544430538172
 20
2.1737906758448053
 10
7.847509386733416
 20
1.9639971839799744
 10
6.518817271589485
 20
1.9639971839799744
  0
LWPOLYLINE
  5
33
330
17
100
AcDbEntity
  8
0
100
AcDbPolyline
 90
21
 70
0
 10
8.472734668335418
 20
3.34968085106383
 10
8.402803504380476
 20
3.4429224030037546
 10
8.402803504380476
 20
8.128310387984982
 10
8.332872340425531
 20
8.897553191489362
 10
8.169699624530663
 20
9.084036295369213
 10
7.237284105131414
 20
9.130657071339174
 10
7.027490613266583
 20
9.2238986232791
 10
6.9109386733416756
 20
9.41038172715895
 10
6.957559449311638
 20
9.643485607008762
 10
7.120732165206508
 20
9.783347934918648
 10
7.3771464330413
 20
9.829968710888611
 10
9.801426783479348
 20
9.783347934918648
 10
10.057841051314142
 20
9.503623279098875
 10
10.03453066332916
 20
9.340450563204005
 10
9.82473717146433
 20
9.153967459324155
 10
8.869011264080099
 20
9.130657071339174
 10
8.70583854818523
 20
9.2238986232791
 10
8.589286608260325
 20
9.153967459324155
 10
8.612596996245307
 20
3.5361639549436794
 10
8.542665832290362
 20
3.34968085106383
 10
8.472734668335418
 20
3.34968085106383
  0
LWPOLYLINE
  5
34
330
17
100
AcDbEntity
  8
0
100
AcDbPolyline
 90
21
 70
0
 10
11.288817271589483
 20
0.867337296620776
 10
10.869230287859821
 20
1.077130788485607
 10
10.682747183979973
 20
1.4034762202753441
 10
10.869230287859821
 20
2.1027878598247813
 10
10.939161451814766
 20
3.454790362953692
 10
10.84591989987484
 20
7.604039424280351
 10
10.589505632040048
 20
8.559765331664583
 10
10.566195244055066
 20
9.002662703379226
 10
10.752678347934918
 20
9.282387359199
 10
10.985782227784728
 20
9.398939299123906
 10
11.498610763454316
 20
9.282387359199
 10
11.708404255319145
 20
8.979352315394244
 10
11.708404255319145
 20
8.466523779724657
 10
11.545231539424279
 20
7.930384856070089
 10
11.615162703379223
 20
4.0142396745932425
 10
11.708404255319145
 20
2.5456852315394247
 10
11.988128911138922
 20
1.5899593241551946
 10
11.988128911138922
 20
1.286924280350438
 10
11.755025031289108
 20
0.9838892365456822
 10
11.545231539424279
 20
0.867337296620776
 10
11.288817271589483
 20
0.867337296620776
  0
LWPOLYLINE
  5
35
330
17
100
AcDbEntity
  8
0
100
AcDbPolyline
 90
18
 70
0
 10
12.918288853714206
 20
1.0542880806890969
 10
12.61525380990945
 20
1.1941504085989836
 10
12.498701869984544
 20
1.5438062283737022
 10
12.522012257969525
 20
2.429600971802989
 10
12.755116137819336
 20
3.1289126113524253
 10
12.638564197894432
 20
7.721059044393727
 10
12.661874585879414
 20
9.003130383567694
 10
12.848357689759261
 20
9.1196823234926
 10
13.104771957594053
 20
9.049751159537657
 10
13.174703121548998
 20
8.93319921961275
 10
13.244634285503942
 20
7.604507104468822
 10
13.22132389751896
 20
3.3620164912022377
 10
13.291255061473905
 20
2.9191191194875943
 10
13.5476693293087
 20
2.336359419863064
 10
13.640910881248626
 20
1.637047780313627
 10
13.5476693293087
 20
1.2640815725539278
 10
13.151392733564016
 20
1.0542880806890969
 10
12.918288853714206
 20
1.0542880806890969
  0
LWPOLYLINE
  5
36
330
17
100
AcDbEntity
  8
0
100
AcDbPolyline
 90
9
 70
0
 10
14.385948060075098
 20
6.42703222778473
 10
14.176154568210265
 20
6.520273779724656
 10
14.129533792240302
 20
8.781381414267836
 10
14.26939612015019
 20
8.897933354192741
 10
14.665672715894871
 20
8.87462296620776
 10
14.782224655819778
 20
8.68813986232791
 10
14.8754662077597
 20
6.543584167709637
 10
14.735603879849815
 20
6.42703222778473
 10
14.385948060075098
 20
6.42703222778473
  0
LWPOLYLINE
  5
37
330
17
100
AcDbEntity
  8
0
100
AcDbPolyline
 90
10
 70
0
 10
14.441488318731746
 20
4.665190515922682
 10
14.185074050896954
 20
4.851673619802532
 10
14.185074050896954
 20
5.574295647336949
 10
14.324936378806843
 20
5.714157975246837
 10
14.581350646641635
 20
5.737468363231819
 10
14.81445452649145
 20
5.644226811291893
 10
14.861075302461408
 20
5.434433319427062
 10
14.861075302461408
 20
4.8283632318175504
 10
14.627971422611598
 20
4.665190515922682
 10
14.441488318731746
 20
4.665190515922682
  0
LWPOLYLINE
  5
38
330
17
100
AcDbEntity
  8
0
100
AcDbPolyline
 90
9
 70
0
 10
14.449723873591992
 20
2.8692576658322917
 10
14.286551157697122
 20
2.985809605757199
 10
14.309861545682104
 20
3.8016731852315413
 10
14.449723873591992
 20
3.894914737171467
 10
14.706138141426784
 20
3.894914737171467
 10
14.892621245306636
 20
3.7550524092615785
 10
14.892621245306636
 20
3.00911999374218
 10
14.752758917396747
 20
2.8692576658322917
 10
14.449723873591992
 20
2.8692576658322917
  0
LWPOLYLINE
  5
39
330
17
100
AcDbEntity
  8
0
100
AcDbPolyline
 90
13
 70
0
 10
15.77854609929078
 20
2.6959365874009165
 10
15.592062995410929
 20
2.8124885273258227
 10
15.545442219440966
 20
3.0689027951606156
 10
15.498821443471003
 20
7.358014184397161
 10
15.405579891531078
 20
7.91746349603671
 10
15.405579891531078
 20
8.47691280767626
 10
15.545442219440966
 20
8.570154359616184
 10
15.895098039215684
 20
8.570154359616184
 10
16.03496036712557
 20
8.430292031706298
 10
15.965029203170628
 20
7.427945348352106
 10
16.058270755110556
 20
2.835798915310804
 10
15.82516687526074
 20
2.6959365874009165
 10
15.77854609929078
 20
2.6959365874009165
  0
LWPOLYLINE
  5
3A
330
17
100
AcDbEntity
  8
0
100
AcDbPolyline
 90
21
 70
0
 10
17.009865456821032
 20
0.625142365456816
 10
16.61358886107635
 20
0.8116254693366673
 10
16.473726533166463
 20
1.3244540050062532
 10
16.683520025031296
 20
2.6764565081351646
 10
16.683520025031296
 20
9.529710575719644
 10
16.636899249061333
 20
13.07288954943679
 10
16.473726533166463
 20
13.329303817271585
 10
16.4271057571965
 20
13.678959637046303
 10
16.45041614518148
 20
17.851519086357943
 10
16.543657697121407
 20
18.038002190237794
 10
16.893313516896125
 20
18.1545541301627
 10
17.52269399249062
 20
18.13124374217772
 10
17.73248748435545
 20
17.921450250312887
 10
17.73248748435545
 20
13.609028473091358
 10
17.5460043804756
 20
13.142820713391734
 10
17.452762828535676
 20
11.13812734668335
 10
17.452762828535676
 20
2.6764565081351646
 10
17.73248748435545
 20
1.0214189612014966
 10
17.5460043804756
 20
0.7416943053817231
 10
17.242969336670846
 20
0.625142365456816
 10
17.009865456821032
 20
0.625142365456816
  0
LWPOLYLINE
  5
3B
330
17
100
AcDbEntity
  8
0
100
AcDbPolyline
 90
20
 70
0
 10
15.415672715894864
 20
10.536173176997561
 10
15.252499999999994
 20
10.90913938475726
 10
15.11263767209011
 20
10.955760160727223
 10
14.78629224030037
 20
10.72265628087741
 10
14.646429912390484
 20
10.955760160727223
 10
14.669740300375466
 20
11.258795204531978
 10
14.926154568210258
 20
11.818244516171529
 10
14.926154568210258
 20
17.22625452868717
 10
14.716361076345429
 20
18.29853237599631
 10
14.832913016270332
 20
18.62487780778605
 10
15.205879224030031
 20
18.788050523680916
 10
15.532224655819771
 20
18.718119359725968
 10
15.788638923654563
 20
18.275221988011324
 10
15.788638923654563
 20
17.995497332191555
 10
15.485603879849808
 20
17.249564916672156
 10
15.485603879849808
 20
11.84155490415651
 10
15.835259699624526
 20
11.188864040577036
 10
15.858570087609507
 20
10.955760160727223
 10
15.532224655819771
 20
10.536173176997561
 10
15.415672715894864
 20
10.536173176997561
  0
LWPOLYLINE
  5
3C
330
17
100
AcDbEntity
  8
0
100
AcDbPolyline
 90
21
 70
0
 10
13.700265957446808
 20
10.522331038798498
 10
13.35061013767209
 20
10.965228410513141
 10
13.047575093867335
 20
10.732124530663327
 10
12.861091989987486
 20
10.918607634543179
 10
12.884402377972465
 20
11.291573842302878
 10
13.094195869837298
 20
11.687850438047558
 10
13.140816645807261
 20
12.037506257822276
 10
13.164127033792242
 20
17.259033166458075
 10
12.95433354192741
 20
18.261379849812265
 10
13.047575093867335
 20
18.587725281602005
 10
13.327299749687109
 20
18.774208385481852
 10
13.700265957446808
 20
18.72758760951189
 10
14.003301001251566
 20
18.33131101376721
 10
14.003301001251566
 20
18.004965581977473
 10
13.770197121401752
 20
17.492137046307885
 10
13.700265957446808
 20
16.909377346683357
 10
13.700265957446808
 20
11.71116082603254
 10
14.026611389236548
 20
11.221642678347933
 10
14.04992177722153
 20
10.94191802252816
 10
13.72357634543179
 20
10.522331038798498
 10
13.700265957446808
 20
10.522331038798498
  0
LWPOLYLINE
  5
3D
330
17
100
AcDbEntity
  8
0
100
AcDbPolyline
 90
22
 70
0
 10
12.006831902973955
 20
10.581781691399964
 10
11.7037968591692
 20
10.931437511174682
 10
11.400761815364444
 20
10.768264795279816
 10
11.260899487454557
 20
11.07129983908457
 10
11.54062414327433
 20
11.817232254603969
 10
11.587244919244293
 20
12.23681923833363
 10
11.610555307229275
 20
16.78234489540497
 10
11.400761815364444
 20
17.55158769890935
 10
11.400761815364444
 20
17.947864294654035
 10
11.633865695214256
 20
18.27420972644377
 10
11.820348799094106
 20
18.344140890398716
 10
12.123383842898862
 20
18.27420972644377
 10
12.426418886703617
 20
17.87793313069909
 10
12.426418886703617
 20
17.644829250849277
 10
12.146694230883844
 20
16.968827999284823
 10
12.10007345491388
 20
13.402338637582695
 10
12.10007345491388
 20
11.700680314679065
 10
12.356487722748675
 20
11.281093330949403
 10
12.379798110733654
 20
10.978058287144645
 10
12.28655655879373
 20
10.768264795279816
 10
12.030142290958937
 20
10.581781691399964
 10
12.006831902973955
 20
10.581781691399964
  0
LWPOLYLINE
  5
3E
330
17
100
AcDbEntity
  8
0
100
AcDbPolyline
 90
21
 70
0
 10
10.403155506883605
 20
10.65602158948686
 10
10.170051627033793
 20
11.00567740926158
 10
9.867016583229036
 20
10.795883917396749
 10
9.773775031289112
 20
10.795883917396749
 10
9.633912703379224
 20
11.00567740926158
 10
9.913637359198999
 20
12.031334480600753
 10
9.890326971214018
 20
16.78665362953692
 10
9.633912703379224
 20
17.69575876095119
 10
9.633912703379224
 20
17.998793804755948
 10
10.006878911138925
 20
18.371760012515647
 10
10.263293178973717
 20
18.371760012515647
 10
10.659569774718399
 20
17.952173028785985
 10
10.659569774718399
 20
17.71906914893617
 10
10.403155506883605
 20
16.973136733416773
 10
10.403155506883605
 20
14.105959011264083
 10
10.449776282853568
 20
11.751609824780978
 10
10.752811326658323
 20
11.308712453066335
 10
10.776121714643304
 20
11.05229818523154
 10
10.70619055068836
 20
10.865815081351691
 10
10.449776282853568
 20
10.65602158948686
 10
10.403155506883605
 20
10.65602158948686
  0
LWPOLYLINE
  5
3F
330
17
100
AcDbEntity
  8
0
100
AcDbPolyline
 90
20
 70
0
 10
8.741807028522494
 20
10.714860681114548
 10
8.625255088597589
 20
11.064516500889265
 10
8.43877198471774
 20
11.064516500889265
 10
8.275599268822871
 20
10.854723009024436
 10
8.112426552928001
 20
11.064516500889265
 10
8.112426552928001
 20
11.274309992754098
 10
8.345530432777814
 20
11.833759304393649
 10
8.345530432777814
 20
15.353627890125814
 10
8.205668104867927
 20
15.983008365720305
 10
8.182357716882946
 20
17.031975825044462
 10
8.345530432777814
 20
17.265079704894273
 10
8.532013536657663
 20
17.335010868849217
 10
8.858358968447401
 20
17.265079704894273
 10
8.998221296357288
 20
17.055286213029444
 10
8.881669356432383
 20
15.237075950200907
 10
8.881669356432383
 20
11.69389697648376
 10
9.068152460312232
 20
11.274309992754098
 10
9.068152460312232
 20
10.994585336934325
 10
8.858358968447401
 20
10.714860681114548
 10
8.741807028522494
 20
10.714860681114548
  0
LWPOLYLINE
  5
40
330
17
100
AcDbEntity
  8
0
100
AcDbPolyline
 90
22
 70
0
 10
7.264493861374339
 20
10.712223016866327
 10
7.147941921449432
 20
11.015258060671082
 10
7.008079593539545
 20
11.061878836641045
 10
6.751665325704751
 20
10.828774956791232
 10
6.588492609809883
 20
11.085189224626026
 10
6.6118029977948645
 20
11.318293104475838
 10
6.8215964896596955
 20
11.714569700220519
 10
6.8215964896596955
 20
13.789194230883847
 10
6.798286101674714
 20
15.32767983789261
 10
6.635113385779846
 20
15.863818761547176
 10
6.565182221824902
 20
17.006027772811258
 10
6.635113385779846
 20
17.169200488706124
 10
6.844906877644677
 20
17.309062816616013
 10
7.28780424935932
 20
17.215821264676087
 10
7.427666577269207
 20
16.86616544490137
 10
7.404356189284226
 20
15.793887597592235
 10
7.28780424935932
 20
15.304369449907629
 10
7.334425025329283
 20
11.877742416115387
 10
7.567528905179094
 20
11.271672328505876
 10
7.567528905179094
 20
10.9919476726861
 10
7.311114637344302
 20
10.712223016866327
 10
7.264493861374339
 20
10.712223016866327
  0
LWPOLYLINE
  5
41
330
17
100
AcDbEntity
  8
0
100
AcDbPolyline
 90
21
 70
0
 10
4.8851548811013785
 20
11.090206508135168
 10
4.791913329161455
 20
11.836138923654568
 10
4.815223717146436
 20
13.864142678347934
 10
4.442257509386735
 20
14.19048811013767
 10
4.442257509386735
 20
14.307040050062577
 10
4.582119837296624
 20
15.076282853566957
 10
4.488878285356698
 20
16.19518147684606
 10
4.535499061326661
 20
17.244148936170212
 10
4.72198216520651
 20
17.92015018773467
 10
5.001706821026286
 20
18.083322903629536
 10
5.421293804755948
 20
18.06001251564455
 10
5.584466520650816
 20
17.92015018773467
 10
5.701018460575721
 20
17.500563204005005
 10
5.747639236545684
 20
16.66138923654568
 10
5.537845744680853
 20
15.379317897371715
 10
5.607776908635797
 20
14.14386733416771
 10
5.258121088861078
 20
13.934073842302878
 10
5.164879536921154
 20
13.770901126408008
 10
5.141569148936172
 20
12.232415519399249
 10
4.978396433041304
 20
11.090206508135168
 10
4.8851548811013785
 20
11.090206508135168
  0
LWPOLYLINE
  5
42
330
17
100
AcDbEntity
  8
0
100
AcDbPolyline
 90
26
 70
0
 10
2.7074436795995
 20
13.22849812265332
 10
2.3111670838548193
 20
13.321739674593243
 10
2.241235919899875
 20
13.881188986232793
 10
2.287856695869838
 20
15.046708385481853
 10
1.3787515644555697
 20
16.515262828535672
 10
1.238889236545682
 20
17.02809136420526
 10
1.238889236545682
 20
17.56423028785983
 10
1.4253723404255325
 20
17.937196495619528
 10
1.658476220275345
 20
17.890575719649565
 10
1.705096996245306
 20
16.981470588235297
 10
1.8449593241551945
 20
16.608504380475598
 10
2.357787859824782
 20
15.629468085106385
 10
2.5908917396745927
 20
15.489605757196497
 10
2.8006852315394255
 20
15.676088861076348
 10
3.2668929912390503
 20
16.63181476846058
 10
3.360134543178974
 20
16.958160200250315
 10
3.3135137672090114
 20
17.750713391739676
 10
3.4766864831038795
 20
17.98381727158949
 10
3.663169586983731
 20
17.890575719649565
 10
3.8030319148936176
 20
17.61085106382979
 10
3.826342302878599
 20
16.86491864831039
 10
3.499996871088861
 20
16.049055068836047
 10
2.870616395494368
 20
15.070018773466835
 10
2.917237171464331
 20
13.787947434292867
 10
2.777374843554444
 20
13.22849812265332
 10
2.7074436795995
 20
13.22849812265332
  0
ENDSEC
  0
SECTION
  2
OBJECTS
  0
DICTIONARY
  5
A
330
0
100
AcDbDictionary
281
1
  3
ACAD_COLOR
350
B
  3
ACAD_GROUP
350
C
  3
ACAD_LAYOUT
350
D
  3
ACAD_MATERIAL
350
E
  3
ACAD_MLEADERSTYLE
350
F
  3
ACAD_MLINESTYLE
350
10
  3
ACAD_PLOTSETTINGS
350
11
  3
ACAD_PLOTSTYLENAME
350
12
  3
ACAD_SCALELIST
350
14
  3
ACAD_TABLESTYLE
350
15
  3
ACAD_VISUALSTYLE
350
16
  3
EZDXF_META
350
2D
  0
DICTIONARY
  5
B
330
A
100
AcDbDictionary
281
1
  0
DICTIONARY
  5
C
330
A
100
AcDbDictionary
281
1
  0
DICTIONARY
  5
D
330
A
100
AcDbDictionary
281
1
  3
Model
350
1A
  3
Layout1
350
1E
  0
DICTIONARY
  5
E
330
A
100
AcDbDictionary
281
1
  3
ByBlock
350
1F
  3
ByLayer
350
20
  3
Global
350
21
  0
DICTIONARY
  5
F
330
A
100
AcDbDictionary
281
1
  3
Standard
350
2C
  0
DICTIONARY
  5
10
330
A
100
AcDbDictionary
281
1
  3
Standard
350
22
  0
DICTIONARY
  5
11
330
A
100
AcDbDictionary
281
1
  0
ACDBDICTIONARYWDFLT
  5
12
330
A
100
AcDbDictionary
281
1
  3
Normal
350
13
100
AcDbDictionaryWithDefault
340
13
  0
ACDBPLACEHOLDER
  5
13
330
12
  0
DICTIONARY
  5
14
330
A
100
AcDbDictionary
281
1
  0
DICTIONARY
  5
15
330
A
100
AcDbDictionary
281
1
  0
DICTIONARY
  5
16
330
A
100
AcDbDictionary
281
1
  0
LAYOUT
  5
1A
330
D
100
AcDbPlotSettings
  1

  4
A3
  6

 40
7.5
 41
20.0
 42
7.5
 43
20.0
 44
420.0
 45
297.0
 46
0.0
 47
0.0
 48
0.0
 49
0.0
140
0.0
141
0.0
142
1.0
143
1.0
 70
1024
 72
1
 73
0
 74
5
  7

 75
16
 76
0
 77
2
 78
300
147
1.0
148
0.0
149
0.0
100
AcDbLayout
  1
Model
 70
1
 71
0
 10
0.0
 20
0.0
 11
420.0
 21
297.0
 12
0.0
 22
0.0
 32
0.0
 14
1e+20
 24
1e+20
 34
1e+20
 15
-1e+20
 25
-1e+20
 35
-1e+20
146
0.0
 13
0.0
 23
0.0
 33
0.0
 16
1.0
 26
0.0
 36
0.0
 17
0.0
 27
1.0
 37
0.0
 76
1
330
17
  0
LAYOUT
  5
1E
330
D
100
AcDbPlotSettings
  1

  4
A3
  6

 40
7.5
 41
20.0
 42
7.5
 43
20.0
 44
420.0
 45
297.0
 46
0.0
 47
0.0
 48
0.0
 49
0.0
140
0.0
141
0.0
142
1.0
143
1.0
 70
0
 72
1
 73
0
 74
5
  7

 75
16
 76
0
 77
2
 78
300
147
1.0
148
0.0
149
0.0
100
AcDbLayout
  1
Layout1
 70
1
 71
1
 10
0.0
 20
0.0
 11
420.0
 21
297.0
 12
0.0
 22
0.0
 32
0.0
 14
1e+20
 24
1e+20
 34
1e+20
 15
-1e+20
 25
-1e+20
 35
-1e+20
146
0.0
 13
0.0
 23
0.0
 33
0.0
 16
1.0
 26
0.0
 36
0.0
 17
0.0
 27
1.0
 37
0.0
 76
1
330
1B
  0
MATERIAL
  5
1F
102
{ACAD_REACTORS
330
E
102
}
330
E
100
AcDbMaterial
  1
ByBlock
  2

 70
0
 40
1.0
 71
1
 41
1.0
 91
-1023410177
 42
1.0
 72
1
  3

 73
1
 74
1
 75
1
 44
0.5
 73
0
 45
1.0
 46
1.0
 77
1
  4

 78
1
 79
1
170
1
 48
1.0
171
1
  6

172
1
173
1
174
1
140
1.0
141
1.0
175
1
  7

176
1
177
1
178
1
143
1.0
179
1
  8

270
1
271
1
272
1
145
1.0
146
1.0
273
1
  9

274
1
275
1
276
1
 42
1.0
 72
1
  3

 73
1
 74
1
 75
1
 94
63
  0
MATERIAL
  5
20
102
{ACAD_REACTORS
330
E
102
}
330
E
100
AcDbMaterial
  1
ByLayer
  2

 70
0
 40
1.0
 71
1
 41
1.0
 91
-1023410177
 42
1.0
 72
1
  3

 73
1
 74
1
 75
1
 44
0.5
 73
0
 45
1.0
 46
1.0
 77
1
  4

 78
1
 79
1
170
1
 48
1.0
171
1
  6

172
1
173
1
174
1
140
1.0
141
1.0
175
1
  7

176
1
177
1
178
1
143
1.0
179
1
  8

270
1
271
1
272
1
145
1.0
146
1.0
273
1
  9

274
1
275
1
276
1
 42
1.0
 72
1
  3

 73
1
 74
1
 75
1
 94
63
  0
MATERIAL
  5
21
102
{ACAD_REACTORS
330
E
102
}
330
E
100
AcDbMaterial
  1
Global
  2

 70
0
 40
1.0
 71
1
 41
1.0
 91
-1023410177
 42
1.0
 72
1
  3

 73
1
 74
1
 75
1
 44
0.5
 73
0
 45
1.0
 46
1.0
 77
1
  4

 78
1
 79
1
170
1
 48
1.0
171
1
  6

172
1
173
1
174
1
140
1.0
141
1.0
175
1
  7

176
1
177
1
178
1
143
1.0
179
1
  8

270
1
271
1
272
1
145
1.0
146
1.0
273
1
  9

274
1
275
1
276
1
 42
1.0
 72
1
  3

 73
1
 74
1
 75
1
 94
63
  0
MLINESTYLE
  5
22
102
{ACAD_REACTORS
330
10
102
}
330
10
100
AcDbMlineStyle
  2
Standard
 70
0
  3

 62
256
 51
90.0
 52
90.0
 71
2
 49
0.5
 62
256
  6
BYLAYER
 49
-0.5
 62
256
  6
BYLAYER
  0
MLEADERSTYLE
  5
2C
102
{ACAD_REACTORS
330
F
102
}
330
F
100
AcDbMLeaderStyle
179
2
170
2
171
1
172
0
 90
2
 40
0.0
 41
0.0
173
1
 91
-1056964608
 92
-2
290
1
 42
2.0
291
1
 43
8.0
  3
Standard
 44
4.0
300

342
29
174
1
175
1
176
0
178
1
 93
-1056964608
 45
4.0
292
0
297
0
 46
4.0
 94
-1056964608
 47
1.0
 49
1.0
140
1.0
294
1
141
0.0
177
0
142
1.0
295
0
296
0
143
3.75
271
0
272
9
273
9
  0
DICTIONARY
  5
2D
330
A
100
AcDbDictionary
280
1
281
1
  3
CREATED_BY_EZDXF
350
2E
  3
WRITTEN_BY_EZDXF
350
45
  0
DICTIONARYVAR
  5
2E
330
2D
100
DictionaryVariables
280
0
  1
1.4.2 @ 2025-08-19T04:39:08.831270+00:00
  0
DICTIONARYVAR
  5
45
330
2D
100
DictionaryVariables
280
0
  1
1.4.2 @ 2025-08-19T04:39:08.835095+00:00
  0
ENDSEC
  0
EOF
