  0
SECTION
  2
HEADER
  9
$ACADVER
  1
AC1024
  9
$ACADMAINTVER
 70
6
  9
$DWGCODEPAGE
  3
ANSI_1252
  9
$LASTSAVEDBY
  1
ezdxf
  9
$INSBASE
 10
0.0
 20
0.0
 30
0.0
  9
$EXTMIN
 10
1e+20
 20
1e+20
 30
1e+20
  9
$EXTMAX
 10
-1e+20
 20
-1e+20
 30
-1e+20
  9
$LIMMIN
 10
0.0
 20
0.0
  9
$LIMMAX
 10
420.0
 20
297.0
  9
$ORTHOMODE
 70
0
  9
$REGENMODE
 70
1
  9
$FILLMODE
 70
1
  9
$QTEXTMODE
 70
0
  9
$MIRRTEXT
 70
1
  9
$LTSCALE
 40
1.0
  9
$ATTMODE
 70
1
  9
$TEXTSIZE
 40
2.5
  9
$TRACEWID
 40
1.0
  9
$TEXTSTYLE
  7
Standard
  9
$CLAYER
  8
0
  9
$CELTYPE
  6
ByLayer
  9
$CECOLOR
 62
256
  9
$CELTSCALE
 40
1.0
  9
$DISPSILH
 70
0
  9
$DIMSCALE
 40
1.0
  9
$DIMASZ
 40
2.5
  9
$DIMEXO
 40
0.625
  9
$DIMDLI
 40
3.75
  9
$DIMRND
 40
0.0
  9
$DIMDLE
 40
0.0
  9
$DIMEXE
 40
1.25
  9
$DIMTP
 40
0.0
  9
$DIMTM
 40
0.0
  9
$DIMTXT
 40
2.5
  9
$DIMCEN
 40
2.5
  9
$DIMTSZ
 40
0.0
  9
$DIMTOL
 70
0
  9
$DIMLIM
 70
0
  9
$DIMTIH
 70
0
  9
$DIMTOH
 70
0
  9
$DIMSE1
 70
0
  9
$DIMSE2
 70
0
  9
$DIMTAD
 70
1
  9
$DIMZIN
 70
8
  9
$DIMBLK
  1

  9
$DIMASO
 70
1
  9
$DIMSHO
 70
1
  9
$DIMPOST
  1

  9
$DIMAPOST
  1

  9
$DIMALT
 70
0
  9
$DIMALTD
 70
3
  9
$DIMALTF
 40
0.03937007874
  9
$DIMLFAC
 40
1.0
  9
$DIMTOFL
 70
1
  9
$DIMTVP
 40
0.0
  9
$DIMTIX
 70
0
  9
$DIMSOXD
 70
0
  9
$DIMSAH
 70
0
  9
$DIMBLK1
  1

  9
$DIMBLK2
  1

  9
$DIMSTYLE
  2
ISO-25
  9
$DIMCLRD
 70
0
  9
$DIMCLRE
 70
0
  9
$DIMCLRT
 70
0
  9
$DIMTFAC
 40
1.0
  9
$DIMGAP
 40
0.625
  9
$DIMJUST
 70
0
  9
$DIMSD1
 70
0
  9
$DIMSD2
 70
0
  9
$DIMTOLJ
 70
0
  9
$DIMTZIN
 70
8
  9
$DIMALTZ
 70
0
  9
$DIMALTTZ
 70
0
  9
$DIMUPT
 70
0
  9
$DIMDEC
 70
2
  9
$DIMTDEC
 70
2
  9
$DIMALTU
 70
2
  9
$DIMALTTD
 70
3
  9
$DIMTXSTY
  7
Standard
  9
$DIMAUNIT
 70
0
  9
$DIMADEC
 70
0
  9
$DIMALTRND
 40
0.0
  9
$DIMAZIN
 70
0
  9
$DIMDSEP
 70
44
  9
$DIMATFIT
 70
3
  9
$DIMFRAC
 70
0
  9
$DIMLDRBLK
  1

  9
$DIMLUNIT
 70
2
  9
$DIMLWD
 70
-2
  9
$DIMLWE
 70
-2
  9
$DIMTMOVE
 70
0
  9
$DIMFXL
 40
1.0
  9
$DIMFXLON
 70
0
  9
$DIMJOGANG
 40
0.785398163397
  9
$DIMTFILL
 70
0
  9
$DIMTFILLCLR
 70
0
  9
$DIMARCSYM
 70
0
  9
$DIMLTYPE
  6

  9
$DIMLTEX1
  6

  9
$DIMLTEX2
  6

  9
$DIMTXTDIRECTION
 70
0
  9
$LUNITS
 70
2
  9
$LUPREC
 70
4
  9
$SKETCHINC
 40
1.0
  9
$FILLETRAD
 40
10.0
  9
$AUNITS
 70
0
  9
$AUPREC
 70
2
  9
$MENU
  1
.
  9
$ELEVATION
 40
0.0
  9
$PELEVATION
 40
0.0
  9
$THICKNESS
 40
0.0
  9
$LIMCHECK
 70
0
  9
$CHAMFERA
 40
0.0
  9
$CHAMFERB
 40
0.0
  9
$CHAMFERC
 40
0.0
  9
$CHAMFERD
 40
0.0
  9
$SKPOLY
 70
0
  9
$TDCREATE
 40
2460906.807002315
  9
$TDUCREATE
 40
2458532.153996898
  9
$TDUPDATE
 40
2460906.807002315
  9
$TDUUPDATE
 40
2458532.1544311
  9
$TDINDWG
 40
0.0
  9
$TDUSRTIMER
 40
0.0
  9
$USRTIMER
 70
1
  9
$ANGBASE
 50
0.0
  9
$ANGDIR
 70
0
  9
$PDMODE
 70
0
  9
$PDSIZE
 40
0.0
  9
$PLINEWID
 40
0.0
  9
$SPLFRAME
 70
0
  9
$SPLINETYPE
 70
6
  9
$SPLINESEGS
 70
8
  9
$HANDSEED
  5
44
  9
$SURFTAB1
 70
6
  9
$SURFTAB2
 70
6
  9
$SURFTYPE
 70
6
  9
$SURFU
 70
6
  9
$SURFV
 70
6
  9
$UCSBASE
  2

  9
$UCSNAME
  2

  9
$UCSORG
 10
0.0
 20
0.0
 30
0.0
  9
$UCSXDIR
 10
1.0
 20
0.0
 30
0.0
  9
$UCSYDIR
 10
0.0
 20
1.0
 30
0.0
  9
$UCSORTHOREF
  2

  9
$UCSORTHOVIEW
 70
0
  9
$UCSORGTOP
 10
0.0
 20
0.0
 30
0.0
  9
$UCSORGBOTTOM
 10
0.0
 20
0.0
 30
0.0
  9
$UCSORGLEFT
 10
0.0
 20
0.0
 30
0.0
  9
$UCSORGRIGHT
 10
0.0
 20
0.0
 30
0.0
  9
$UCSORGFRONT
 10
0.0
 20
0.0
 30
0.0
  9
$UCSORGBACK
 10
0.0
 20
0.0
 30
0.0
  9
$PUCSBASE
  2

  9
$PUCSNAME
  2

  9
$PUCSORG
 10
0.0
 20
0.0
 30
0.0
  9
$PUCSXDIR
 10
1.0
 20
0.0
 30
0.0
  9
$PUCSYDIR
 10
0.0
 20
1.0
 30
0.0
  9
$PUCSORTHOREF
  2

  9
$PUCSORTHOVIEW
 70
0
  9
$PUCSORGTOP
 10
0.0
 20
0.0
 30
0.0
  9
$PUCSORGBOTTOM
 10
0.0
 20
0.0
 30
0.0
  9
$PUCSORGLEFT
 10
0.0
 20
0.0
 30
0.0
  9
$PUCSORGRIGHT
 10
0.0
 20
0.0
 30
0.0
  9
$PUCSORGFRONT
 10
0.0
 20
0.0
 30
0.0
  9
$PUCSORGBACK
 10
0.0
 20
0.0
 30
0.0
  9
$USERI1
 70
0
  9
$USERI2
 70
0
  9
$USERI3
 70
0
  9
$USERI4
 70
0
  9
$USERI5
 70
0
  9
$USERR1
 40
0.0
  9
$USERR2
 40
0.0
  9
$USERR3
 40
0.0
  9
$USERR4
 40
0.0
  9
$USERR5
 40
0.0
  9
$WORLDVIEW
 70
1
  9
$SHADEDGE
 70
3
  9
$SHADEDIF
 70
70
  9
$TILEMODE
 70
1
  9
$MAXACTVP
 70
64
  9
$PINSBASE
 10
0.0
 20
0.0
 30
0.0
  9
$PLIMCHECK
 70
0
  9
$PEXTMIN
 10
1e+20
 20
1e+20
 30
1e+20
  9
$PEXTMAX
 10
-1e+20
 20
-1e+20
 30
-1e+20
  9
$PLIMMIN
 10
0.0
 20
0.0
  9
$PLIMMAX
 10
420.0
 20
297.0
  9
$UNITMODE
 70
0
  9
$VISRETAIN
 70
1
  9
$PLINEGEN
 70
0
  9
$PSLTSCALE
 70
1
  9
$TREEDEPTH
 70
3020
  9
$CMLSTYLE
  2
Standard
  9
$CMLJUST
 70
0
  9
$CMLSCALE
 40
20.0
  9
$PROXYGRAPHICS
 70
1
  9
$MEASUREMENT
 70
1
  9
$CELWEIGHT
370
-1
  9
$ENDCAPS
280
0
  9
$JOINSTYLE
280
0
  9
$LWDISPLAY
290
0
  9
$INSUNITS
 70
1
  9
$HYPERLINKBASE
  1

  9
$STYLESHEET
  1

  9
$XEDIT
290
1
  9
$CEPSNTYPE
380
0
  9
$PSTYLEMODE
290
1
  9
$FINGERPRINTGUID
  2
{1F6762BD-A424-4D54-A431-ABFD83478EE2}
  9
$VERSIONGUID
  2
{FC6999D2-483E-428B-8401-51C11EE1D465}
  9
$EXTNAMES
290
1
  9
$PSVPSCALE
 40
0.0
  9
$OLESTARTUP
290
0
  9
$SORTENTS
280
127
  9
$INDEXCTL
280
0
  9
$HIDETEXT
280
1
  9
$XCLIPFRAME
280
1
  9
$HALOGAP
280
0
  9
$OBSCOLOR
 70
257
  9
$OBSLTYPE
280
0
  9
$INTERSECTIONDISPLAY
280
0
  9
$INTERSECTIONCOLOR
 70
257
  9
$DIMASSOC
280
2
  9
$PROJECTNAME
  1

  9
$CAMERADISPLAY
290
0
  9
$LENSLENGTH
 40
50.0
  9
$CAMERAHEIGHT
 40
0.0
  9
$STEPSPERSEC
 40
24.0
  9
$STEPSIZE
 40
100.0
  9
$3DDWFPREC
 40
2.0
  9
$PSOLWIDTH
 40
0.005
  9
$PSOLHEIGHT
 40
0.08
  9
$LOFTANG1
 40
1.570796326795
  9
$LOFTANG2
 40
1.570796326795
  9
$LOFTMAG1
 40
0.0
  9
$LOFTMAG2
 40
0.0
  9
$LOFTPARAM
 70
7
  9
$LOFTNORMALS
280
1
  9
$LATITUDE
 40
37.795
  9
$LONGITUDE
 40
-122.394
  9
$NORTHDIRECTION
 40
0.0
  9
$TIMEZONE
 70
-8000
  9
$LIGHTGLYPHDISPLAY
280
1
  9
$TILEMODELIGHTSYNCH
280
1
  9
$CMATERIAL
347
20
  9
$SOLIDHIST
280
0
  9
$SHOWHIST
280
1
  9
$DWFFRAME
280
2
  9
$DGNFRAME
280
2
  9
$REALWORLDSCALE
290
1
  9
$INTERFERECOLOR
 62
256
  9
$CSHADOW
280
0
  9
$SHADOWPLANELOCATION
 40
0.0
  0
ENDSEC
  0
SECTION
  2
CLASSES
  0
CLASS
  1
ACDBDICTIONARYWDFLT
  2
AcDbDictionaryWithDefault
  3
ObjectDBX Classes
 90
0
 91
0
280
0
281
0
  0
CLASS
  1
SUN
  2
AcDbSun
  3
SCENEOE
 90
1153
 91
0
280
0
281
0
  0
CLASS
  1
VISUALSTYLE
  2
AcDbVisualStyle
  3
ObjectDBX Classes
 90
4095
 91
0
280
0
281
0
  0
CLASS
  1
MATERIAL
  2
AcDbMaterial
  3
ObjectDBX Classes
 90
1153
 91
0
280
0
281
0
  0
CLASS
  1
SCALE
  2
AcDbScale
  3
ObjectDBX Classes
 90
1153
 91
0
280
0
281
0
  0
CLASS
  1
TABLESTYLE
  2
AcDbTableStyle
  3
ObjectDBX Classes
 90
4095
 91
0
280
0
281
0
  0
CLASS
  1
MLEADERSTYLE
  2
AcDbMLeaderStyle
  3
ACDB_MLEADERSTYLE_CLASS
 90
4095
 91
0
280
0
281
0
  0
CLASS
  1
DICTIONARYVAR
  2
AcDbDictionaryVar
  3
ObjectDBX Classes
 90
0
 91
0
280
0
281
0
  0
CLASS
  1
CELLSTYLEMAP
  2
AcDbCellStyleMap
  3
ObjectDBX Classes
 90
1152
 91
0
280
0
281
0
  0
CLASS
  1
MENTALRAYRENDERSETTINGS
  2
AcDbMentalRayRenderSettings
  3
SCENEOE
 90
1024
 91
0
280
0
281
0
  0
CLASS
  1
ACDBDETAILVIEWSTYLE
  2
AcDbDetailViewStyle
  3
ObjectDBX Classes
 90
1025
 91
0
280
0
281
0
  0
CLASS
  1
ACDBSECTIONVIEWSTYLE
  2
AcDbSectionViewStyle
  3
ObjectDBX Classes
 90
1025
 91
0
280
0
281
0
  0
CLASS
  1
RASTERVARIABLES
  2
AcDbRasterVariables
  3
ISM
 90
0
 91
0
280
0
281
0
  0
CLASS
  1
LAYOUT
  2
AcDbLayout
  3
ObjectDBX Classes
 90
0
 91
0
280
0
281
0
  0
CLASS
  1
ACDBPLACEHOLDER
  2
AcDbPlaceHolder
  3
ObjectDBX Classes
 90
0
 91
0
280
0
281
0
  0
ENDSEC
  0
SECTION
  2
TABLES
  0
TABLE
  2
VPORT
  5
8
330
0
100
AcDbSymbolTable
 70
1
  0
VPORT
  5
23
330
8
100
AcDbSymbolTableRecord
100
AcDbViewportTableRecord
  2
*Active
 70
0
 10
0.0
 20
0.0
 11
1.0
 21
1.0
 12
0.0
 22
0.0
 13
0.0
 23
0.0
 14
0.5
 24
0.5
 15
0.5
 25
0.5
 16
0.0
 26
0.0
 36
1.0
 17
0.0
 27
0.0
 37
0.0
 40
1000.0
 41
1.34
 42
50.0
 43
0.0
 44
0.0
 50
0.0
 51
0.0
 71
0
 72
1000
 73
1
 74
3
 75
0
 76
0
 77
0
 78
0
281
0
 65
0
146
0.0
  0
ENDTAB
  0
TABLE
  2
LTYPE
  5
2
330
0
100
AcDbSymbolTable
 70
3
  0
LTYPE
  5
24
330
2
100
AcDbSymbolTableRecord
100
AcDbLinetypeTableRecord
  2
ByBlock
 70
0
  3

 72
65
 73
0
 40
0.0
  0
LTYPE
  5
25
330
2
100
AcDbSymbolTableRecord
100
AcDbLinetypeTableRecord
  2
ByLayer
 70
0
  3

 72
65
 73
0
 40
0.0
  0
LTYPE
  5
26
330
2
100
AcDbSymbolTableRecord
100
AcDbLinetypeTableRecord
  2
Continuous
 70
0
  3

 72
65
 73
0
 40
0.0
  0
ENDTAB
  0
TABLE
  2
LAYER
  5
1
330
0
100
AcDbSymbolTable
 70
2
  0
LAYER
  5
27
330
1
100
AcDbSymbolTableRecord
100
AcDbLayerTableRecord
  2
0
 70
0
 62
7
  6
Continuous
370
-3
390
13
347
21
  0
LAYER
  5
28
330
1
100
AcDbSymbolTableRecord
100
AcDbLayerTableRecord
  2
Defpoints
 70
0
 62
7
  6
Continuous
290
0
370
-3
390
13
347
21
  0
ENDTAB
  0
TABLE
  2
STYLE
  5
5
330
0
100
AcDbSymbolTable
 70
1
  0
STYLE
  5
29
330
5
100
AcDbSymbolTableRecord
100
AcDbTextStyleTableRecord
  2
Standard
 70
0
 40
0.0
 41
1.0
 50
0.0
 71
0
 42
2.5
  3
txt
  4

  0
ENDTAB
  0
TABLE
  2
VIEW
  5
7
330
0
100
AcDbSymbolTable
 70
0
  0
ENDTAB
  0
TABLE
  2
UCS
  5
6
330
0
100
AcDbSymbolTable
 70
0
  0
ENDTAB
  0
TABLE
  2
APPID
  5
3
330
0
100
AcDbSymbolTable
 70
3
  0
APPID
  5
2A
330
3
100
AcDbSymbolTableRecord
100
AcDbRegAppTableRecord
  2
ACAD
 70
0
  0
APPID
  5
41
330
3
100
AcDbSymbolTableRecord
100
AcDbRegAppTableRecord
  2
HATCHBACKGROUNDCOLOR
 70
0
  0
APPID
  5
42
330
3
100
AcDbSymbolTableRecord
100
AcDbRegAppTableRecord
  2
EZDXF
 70
0
  0
ENDTAB
  0
TABLE
  2
DIMSTYLE
  5
4
330
0
100
AcDbSymbolTable
 70
1
100
AcDbDimStyleTable
  0
DIMSTYLE
105
2B
330
4
100
AcDbSymbolTableRecord
100
AcDbDimStyleTableRecord
  2
Standard
 70
0
 40
1.0
 41
2.5
 42
0.625
 43
3.75
 44
1.25
 45
0.0
 46
0.0
 47
0.0
 48
0.0
 49
2.5
140
2.5
141
2.5
142
0.0
143
0.03937007874
144
1.0
145
0.0
146
1.0
147
0.625
148
0.0
 69
0
 70
0
 71
0
 72
0
 73
0
 74
0
 75
0
 76
0
 77
1
 78
8
 79
3
170
0
171
3
172
1
173
0
174
0
175
0
176
0
177
0
178
0
179
2
271
2
272
2
273
2
274
3
275
0
276
0
277
2
278
44
279
0
280
0
281
0
282
0
283
0
284
8
285
0
286
0
288
0
289
3
290
0
371
-2
372
-2
  0
ENDTAB
  0
TABLE
  2
BLOCK_RECORD
  5
9
330
0
100
AcDbSymbolTable
 70
2
  0
BLOCK_RECORD
  5
17
330
9
100
AcDbSymbolTableRecord
100
AcDbBlockTableRecord
  2
*Model_Space
340
1A
 70
0
280
1
281
0
  0
BLOCK_RECORD
  5
1B
330
9
100
AcDbSymbolTableRecord
100
AcDbBlockTableRecord
  2
*Paper_Space
340
1E
 70
0
280
1
281
0
  0
ENDTAB
  0
ENDSEC
  0
SECTION
  2
BLOCKS
  0
BLOCK
  5
18
330
17
100
AcDbEntity
  8
0
100
AcDbBlockBegin
  2
*Model_Space
 70
0
 10
0.0
 20
0.0
 30
0.0
  3
*Model_Space
  1

  0
ENDBLK
  5
19
330
17
100
AcDbEntity
  8
0
100
AcDbBlockEnd
  0
BLOCK
  5
1C
330
1B
100
AcDbEntity
  8
0
100
AcDbBlockBegin
  2
*Paper_Space
 70
0
 10
0.0
 20
0.0
 30
0.0
  3
*Paper_Space
  1

  0
ENDBLK
  5
1D
330
1B
100
AcDbEntity
  8
0
100
AcDbBlockEnd
  0
ENDSEC
  0
SECTION
  2
ENTITIES
  0
LWPOLYLINE
  5
2F
330
17
100
AcDbEntity
  8
0
100
AcDbPolyline
 90
5
 70
0
 10
0.0
 20
0.0
 10
18.625
 20
0.0
 10
18.625
 20
19.25
 10
0.0
 20
19.25
 10
0.0
 20
0.0
  0
LWPOLYLINE
  5
30
330
17
100
AcDbEntity
  8
0
100
AcDbPolyline
 90
17
 70
0
 10
2.1449507705479434
 20
0.4730329623287677
 10
1.5955786244292227
 20
0.560932505707763
 10
1.1121311358447485
 20
0.8246311358447489
 10
0.8484325057077626
 20
0.8246311358447489
 10
0.6726334189497702
 20
1.0224051084474883
 10
0.8704073915525115
 20
2.033249857305938
 10
0.7605329623287673
 20
3.044094606164384
 10
0.8923822773972603
 20
3.2418685787671233
 10
1.1560809075342462
 20
3.30779323630137
 10
2.782222460045661
 20
3.1979188070776257
 10
3.17777040525114
 20
2.8243457477168956
 10
3.661217893835616
 20
2.0552247431506867
 10
3.661217893835616
 20
1.7036265696347037
 10
3.3096197203196347
 20
1.066354880136986
 10
2.8261722317351587
 20
0.6268571632420095
 10
2.4086494006849293
 20
0.4730329623287677
 10
2.1449507705479434
 20
0.4730329623287677
  0
LWPOLYLINE
  5
31
330
17
100
AcDbEntity
  8
0
100
AcDbPolyline
 90
11
 70
0
 10
3.474805936073058
 20
3.7605365296803654
 10
0.8158447488584475
 20
3.8704109589041096
 10
0.6620205479452057
 20
4.0022602739726025
 10
0.6400456621004569
 20
4.222009132420091
 10
0.881769406392694
 20
4.5076826484018255
 10
4.1560273972602735
 20
4.463732876712328
 10
4.331826484018266
 20
4.287933789954337
 10
4.287876712328768
 20
3.8923858447488584
 10
4.112077625570776
 20
3.7825114155251143
 10
3.5627054794520534
 20
3.7605365296803654
 10
3.474805936073058
 20
3.7605365296803654
  0
LWPOLYLINE
  5
32
330
17
100
AcDbEntity
  8
0
100
AcDbPolyline
 90
11
 70
0
 10
0.8414497716894971
 20
5.144514840182647
 10
0.731575342465753
 20
5.298339041095889
 10
0.731575342465753
 20
5.86968607305936
 10
0.8853995433789947
 20
6.001535388127853
 10
4.22558219178082
 20
6.023510273972602
 10
4.665079908675798
 20
6.023510273972602
 10
4.731004566210045
 20
5.957585616438355
 10
4.752979452054793
 20
5.298339041095889
 10
4.687054794520547
 20
5.188464611872145
 10
0.97329908675799
 20
5.144514840182647
 10
0.8414497716894971
 20
5.144514840182647
  0
LWPOLYLINE
  5
33
330
17
100
AcDbEntity
  8
0
100
AcDbPolyline
 90
31
 70
0
 10
1.5600894216133936
 20
6.752623668188738
 10
1.0986168188736682
 20
6.818548325722984
 10
0.8349181887366814
 20
7.038297184170473
 10
1.1645414764079147
 20
18.684986681887366
 10
1.2963907914764077
 20
18.77288622526636
 10
2.0874866818873663
 20
18.750911339421613
 10
2.197361111111112
 20
18.553137366818873
 10
2.131436453576864
 20
10.883902207001523
 10
2.24131088280061
 20
10.817977549467276
 10
4.90027207001522
 20
10.839952435312025
 10
5.163970700152207
 20
10.774027777777778
 10
5.559518645357686
 20
10.510329147640793
 10
5.405694444444444
 20
9.938982115677323
 10
5.1419958143074584
 20
9.455534627092847
 10
4.702498097412482
 20
9.081961567732117
 10
4.219050608828006
 20
9.01603691019787
 10
3.5158542617960418
 20
9.103936453576866
 10
3.0324067732115676
 20
8.84023782343988
 10
2.98845700152207
 20
8.268890791476409
 10
3.2741305175038047
 20
7.631619101978693
 10
3.230180745814307
 20
7.433845129375953
 10
2.98845700152207
 20
7.433845129375953
 10
2.9445072298325723
 20
7.565694444444446
 10
2.592909056316591
 20
7.851367960426181
 10
2.5489592846270934
 20
8.005192161339423
 10
2.2632857686453587
 20
8.224941019786911
 10
2.153411339421613
 20
8.159016362252665
 10
2.0655117960426175
 20
7.126196727549468
 10
1.8897127092846269
 20
6.840523211567733
 10
1.5820643074581433
 20
6.774598554033487
 10
1.5600894216133936
 20
6.752623668188738
  0
LWPOLYLINE
  5
34
330
17
100
AcDbEntity
  8
0
100
AcDbPolyline
 90
22
 70
0
 10
4.184128614916287
 20
11.538173515981738
 10
3.9863546423135476
 20
11.801872146118724
 10
3.480932267884323
 20
12.08754566210046
 10
3.2611834094368346
 20
12.395194063926942
 10
3.107359208523591
 20
12.834691780821922
 10
3.12933409436834
 20
13.318139269406396
 10
3.2831582952815834
 20
13.713687214611875
 10
3.5029071537290717
 20
13.955410958904112
 10
3.9863546423135476
 20
14.241084474885847
 10
3.9863546423135476
 20
15.669452054794524
 10
4.074254185692543
 20
16.284748858447493
 10
4.2500532724505335
 20
16.17487442922375
 10
4.337952815829529
 20
14.19713470319635
 10
4.931274733637747
 20
13.911461187214615
 10
5.172998477929984
 20
13.62578767123288
 10
5.304847792998477
 20
13.25221461187215
 10
5.304847792998477
 20
12.790742009132424
 10
5.194973363774733
 20
12.395194063926942
 10
4.909299847792998
 20
12.065570776255711
 10
4.425852359208524
 20
11.823847031963473
 10
4.228078386605785
 20
11.538173515981738
 10
4.184128614916287
 20
11.538173515981738
  0
LWPOLYLINE
  5
35
330
17
100
AcDbEntity
  8
0
100
AcDbPolyline
 90
21
 70
0
 10
6.1617351598173515
 20
18.542879566210047
 10
6.359509132420091
 20
18.27918093607306
 10
6.864931506849316
 20
17.993507420091326
 10
7.106655251141553
 20
17.663884132420094
 10
7.238504566210046
 20
17.246361301369866
 10
7.216529680365297
 20
16.762913812785392
 10
7.062705479452053
 20
16.367365867579913
 10
6.842956621004565
 20
16.125642123287676
 10
6.359509132420091
 20
15.861943493150688
 10
6.337534246575342
 20
13.928153538812788
 10
6.227659817351598
 20
13.796304223744295
 10
6.095810502283105
 20
13.928153538812788
 10
6.029885844748859
 20
15.83996860730594
 10
5.238789954337899
 20
16.345390981735164
 10
5.041015981735161
 20
16.850813356164387
 10
5.06299086757991
 20
17.444135273972606
 10
5.172865296803653
 20
17.72980878995434
 10
5.392614155251143
 20
17.993507420091326
 10
5.9200114155251145
 20
18.257206050228312
 10
6.117785388127854
 20
18.542879566210047
 10
6.1617351598173515
 20
18.542879566210047
  0
LWPOLYLINE
  5
36
330
17
100
AcDbEntity
  8
0
100
AcDbPolyline
 90
23
 70
0
 10
10.309811643835618
 20
14.75481735159817
 10
10.155987442922374
 20
14.908641552511412
 10
9.980188356164383
 20
15.545913242009131
 10
9.84833904109589
 20
15.721712328767122
 10
8.244172374429224
 20
16.227134703196345
 10
7.980473744292238
 20
16.51280821917808
 10
8.002448630136987
 20
16.754531963470317
 10
8.200222602739727
 20
16.930331050228308
 10
9.804389269406393
 20
17.41377853881278
 10
10.265861872146118
 20
18.44659817351598
 10
11.21078196347032
 20
18.204874429223743
 10
11.298681506849315
 20
18.095
 10
11.38658105022831
 20
17.43575342465753
 10
12.199651826484018
 20
17.369828767123284
 10
12.331501141552511
 20
17.23797945205479
 10
12.35347602739726
 20
16.205159817351596
 10
12.265576484018265
 20
16.051335616438354
 10
12.221626712328767
 20
15.414063926940639
 10
11.452505707762556
 20
15.37011415525114
 10
11.342631278538812
 20
15.304189497716894
 10
11.21078196347032
 20
14.93061643835616
 10
10.749309360730594
 20
14.75481735159817
 10
10.309811643835618
 20
14.75481735159817
  0
LWPOLYLINE
  5
37
330
17
100
AcDbEntity
  8
0
100
AcDbPolyline
 90
18
 70
0
 10
6.751512221326884
 20
11.129272092398601
 10
6.180165189363414
 20
11.261121407467094
 10
6.114240531829168
 20
11.568769809293578
 10
6.202140075208163
 20
11.678644238517322
 10
6.619662906258391
 20
11.722594010206821
 10
6.751512221326884
 20
11.832468439430565
 10
6.707562449637386
 20
13.26083601933924
 10
6.839411764705879
 20
13.392685334407734
 10
7.300884367445606
 20
13.326760676873487
 10
7.344834139135104
 20
12.689488987375771
 10
7.740382084340583
 20
12.447765243083534
 10
7.806306741874829
 20
12.315915928015038
 10
7.630507655116839
 20
11.788518667741068
 10
7.916181171098573
 20
11.612719580983075
 10
7.938156056943322
 20
11.370995836690838
 10
7.828281627719578
 20
11.217171635777596
 10
7.4107587966693504
 20
11.129272092398601
 10
6.751512221326884
 20
11.129272092398601
  0
LWPOLYLINE
  5
38
330
17
100
AcDbEntity
  8
0
100
AcDbPolyline
 90
20
 70
0
 10
8.602892934390768
 20
11.411416726748378
 10
8.427093847632777
 20
11.56524092766162
 10
8.339194304253782
 20
12.773859649122809
 10
8.20734498918529
 20
12.861759192501804
 10
7.877721701514058
 20
12.883734078346553
 10
7.745872386445565
 20
13.059533165104543
 10
7.789822158135062
 20
13.257307137707283
 10
7.943646359048304
 20
13.367181566931027
 10
8.536968276856522
 20
13.433106224465273
 10
9.35003905311223
 20
13.389156452775776
 10
9.54781302571497
 20
13.257307137707283
 10
9.569787911559718
 20
13.147432708483539
 10
9.569787911559718
 20
12.971633621725548
 10
9.372013938956979
 20
12.839784306657055
 10
9.54781302571497
 20
12.290412160538331
 10
9.393988824801728
 20
12.092638187935592
 10
8.954491107906751
 20
11.9607888728671
 10
8.932516222062002
 20
11.521291155972122
 10
8.77869202114876
 20
11.411416726748378
 10
8.602892934390768
 20
11.411416726748378
  0
LWPOLYLINE
  5
39
330
17
100
AcDbEntity
  8
0
100
AcDbPolyline
 90
19
 70
0
 10
10.255013318112637
 20
11.092162607813293
 10
9.59576674277017
 20
11.180062151192288
 10
9.376017884322682
 20
11.355861237950279
 10
9.376017884322682
 20
11.575610096397767
 10
9.463917427701677
 20
11.685484525621515
 10
9.991314687975649
 20
11.817333840690008
 10
10.035264459665147
 20
13.179776763064435
 10
10.167113774733641
 20
13.311626078132928
 10
10.606611491628618
 20
13.245701420598682
 10
10.628586377473367
 20
12.586454845256217
 10
11.002159436834097
 20
12.410655758498226
 10
11.090058980213092
 20
12.256831557584984
 10
11.068084094368343
 20
11.993132927447995
 10
10.892285007610353
 20
11.729434297311013
 10
11.177958523592087
 20
11.553635210553018
 10
11.155983637747338
 20
11.267961694571284
 10
10.980184550989348
 20
11.13611237950279
 10
10.56266171993912
 20
11.092162607813293
 10
10.255013318112637
 20
11.092162607813293
  0
LWPOLYLINE
  5
3A
330
17
100
AcDbEntity
  8
0
100
AcDbPolyline
 90
19
 70
0
 10
11.76129693049214
 20
11.116794140030446
 10
11.519573186199903
 20
11.292593226788437
 10
11.541548072044652
 20
12.720960806697114
 10
11.409698756976159
 20
12.830835235920858
 10
11.058100583460176
 20
12.852810121765607
 10
10.948226154236432
 20
12.940709665144603
 10
11.036125697615427
 20
13.270332952815835
 10
11.629447615423647
 20
13.35823249619483
 10
12.552392820903098
 20
13.292307838660584
 10
12.750166793505839
 20
13.116508751902593
 10
12.72819190766109
 20
12.852810121765607
 10
12.5084430492136
 20
12.742935692541863
 10
12.706217021816341
 20
12.391337519025882
 10
12.706217021816341
 20
12.149613774733641
 10
12.552392820903098
 20
11.97381468797565
 10
12.13486998985287
 20
11.863940258751908
 10
12.112895104008121
 20
11.22666856925419
 10
11.849196473871135
 20
11.116794140030446
 10
11.76129693049214
 20
11.116794140030446
  0
LWPOLYLINE
  5
3B
330
17
100
AcDbEntity
  8
0
100
AcDbPolyline
 90
27
 70
0
 10
13.332132068844402
 20
11.64091719353706
 10
13.244232525465407
 20
11.750791622760804
 10
13.178307867931156
 20
13.882355549701444
 10
13.288182297154904
 20
14.168029065683179
 10
13.288182297154904
 20
17.464261942395506
 10
13.398056726378648
 20
17.596111257464
 10
13.639780470670885
 20
17.464261942395506
 10
13.617805584826137
 20
14.168029065683179
 10
13.815579557428876
 20
14.058154636459435
 10
14.12322795925536
 20
14.299878380751672
 10
14.408901475237094
 20
14.365803038285918
 10
14.650625219529331
 20
14.277903494906923
 10
14.87037407797682
 20
13.926305321390942
 10
14.804449420442573
 20
13.59668203371971
 10
14.47482613277134
 20
13.20113408851423
 10
14.738524762908327
 20
12.607812170706008
 10
14.606675447839834
 20
12.410038198103269
 10
14.255077274323853
 20
12.38806331225852
 10
14.013353530031615
 20
12.475962855637516
 10
13.991378644186867
 20
12.607812170706008
 10
14.189152616789606
 20
12.981385230066742
 10
14.211127502634355
 20
13.22310897435898
 10
13.815579557428876
 20
13.57470714787496
 10
13.661755356515634
 20
13.486807604495965
 10
13.617805584826137
 20
11.772766508605553
 10
13.529906041447141
 20
11.64091719353706
 10
13.332132068844402
 20
11.64091719353706
  0
LWPOLYLINE
  5
3C
330
17
100
AcDbEntity
  8
0
100
AcDbPolyline
 90
30
 70
0
 10
15.773575421193506
 20
11.621174618170366
 10
15.663700991969762
 20
11.709074161549362
 10
15.70765076365926
 20
13.445090143284522
 10
15.619751220280264
 20
13.928537631868997
 10
15.729625649504008
 20
14.148286490316485
 10
15.729625649504008
 20
17.378594709494564
 10
15.839500078727752
 20
17.598343567942052
 10
16.037274051330495
 20
17.576368682097304
 10
16.12517359470949
 20
17.400569595339313
 10
16.059248937175244
 20
14.170261376161234
 10
16.278997795622733
 20
14.06038694693749
 10
16.67454574082821
 20
14.324085577074475
 10
16.91626948512045
 20
14.346060462919224
 10
17.114043457723188
 20
14.258160919540229
 10
17.311817430325927
 20
13.950512517713745
 10
17.201943001102183
 20
13.511014800818769
 10
16.91626948512045
 20
13.225341284837034
 10
16.91626948512045
 20
13.027567312234295
 10
17.157993229412686
 20
12.588069595339315
 10
17.07009368603369
 20
12.412270508581326
 10
16.564671311604467
 20
12.390295622736577
 10
16.432821996535974
 20
12.47819516611557
 10
16.410847110691225
 20
12.610044481184064
 10
16.630595969138714
 20
13.159416627302788
 10
16.30097268146748
 20
13.48903991497402
 10
16.103198708864742
 20
13.467065029129271
 10
16.037274051330495
 20
11.840923476617855
 10
16.015299165485747
 20
11.709074161549362
 10
15.88344985041725
 20
11.621174618170366
 10
15.773575421193506
 20
11.621174618170366
  0
LWPOLYLINE
  5
3D
330
17
100
AcDbEntity
  8
0
100
AcDbPolyline
 90
24
 70
0
 10
15.077168949771687
 20
7.860072463768117
 10
14.989269406392692
 20
7.969946892991861
 10
14.967294520547943
 20
8.343519952352592
 10
14.747545662100455
 20
8.651168354179076
 10
14.725570776255706
 20
9.332389815366291
 10
14.549771689497716
 20
9.486214016279533
 10
8.242979452054794
 20
9.508188902124282
 10
8.067180365296803
 20
9.55213867381378
 10
7.979280821917806
 20
9.683987988882272
 10
8.001255707762557
 20
9.925711733174511
 10
8.089155251141552
 20
9.991636390708758
 10
14.48384703196347
 20
9.969661504864009
 10
14.703595890410957
 20
10.101510819932502
 10
14.725570776255706
 20
10.760757395274966
 10
14.879394977168948
 20
10.89260671034346
 10
16.988984018264837
 20
10.89260671034346
 10
17.076883561643832
 20
10.782732281119715
 10
17.054908675799084
 20
8.629193468334327
 10
16.703310502283102
 20
8.431419495731587
 10
16.285787671232875
 20
8.36549483819734
 10
16.131963470319633
 20
7.969946892991861
 10
16.02208904109589
 20
7.904022235457615
 10
15.494691780821915
 20
7.860072463768117
 10
15.077168949771687
 20
7.860072463768117
  0
LWPOLYLINE
  5
3E
330
17
100
AcDbEntity
  8
0
100
AcDbPolyline
 90
24
 70
0
 10
8.737826086956522
 20
5.175167262259285
 10
8.034629739924558
 20
5.285041691483029
 10
7.814880881477069
 20
5.702564522533256
 10
7.4632827079610875
 20
5.768489180067503
 10
7.155634306134602
 20
5.9442882668254935
 10
7.133659420289853
 20
7.987952650387138
 10
7.243533849513599
 20
8.251651280524124
 10
9.177323803851499
 20
8.251651280524124
 10
9.287198233075243
 20
8.053877307921384
 10
9.287198233075243
 20
7.5264800476474125
 10
9.506947091522731
 20
7.240806531665676
 10
15.110542981933689
 20
7.328706075044673
 10
16.03348818741314
 20
7.284756303355175
 10
16.143362616636885
 20
7.196856759976178
 10
16.143362616636885
 20
6.97710790152869
 10
16.011513301568392
 20
6.867233472304946
 10
9.484972205677982
 20
6.8013088147706995
 10
9.309173118919992
 20
6.647484613857458
 10
9.287198233075243
 20
5.9442882668254935
 10
9.243248461385745
 20
5.8124389517570005
 10
9.023499602938257
 20
5.680589636688508
 10
9.045474488783006
 20
5.241091919793531
 10
8.97954983124876
 20
5.175167262259285
 10
8.737826086956522
 20
5.175167262259285
  0
LWPOLYLINE
  5
3F
330
17
100
AcDbEntity
  8
0
100
AcDbPolyline
 90
14
 70
0
 10
5.591361959957849
 20
0.5356541974007722
 10
5.4375377590446075
 20
0.689478398314014
 10
5.547412188268352
 20
2.1178459782226895
 10
5.39358798735511
 20
5.150380224798032
 10
5.481487530734105
 20
5.699752370916754
 10
5.459512644889356
 20
8.182914471373376
 10
5.635311731647347
 20
8.380688443976116
 10
5.8111108184053375
 20
8.336738672286618
 10
5.920985247629082
 20
8.138964699683878
 10
5.833085704250086
 20
1.3926747453459773
 10
5.920985247629082
 20
1.2388505444327356
 10
5.9429601334738305
 20
0.7554030558482605
 10
5.76716104671584
 20
0.5356541974007722
 10
5.591361959957849
 20
0.5356541974007722
  0
LWPOLYLINE
  5
40
330
17
100
AcDbEntity
  8
0
100
AcDbPolyline
 90
14
 70
0
 10
7.851598173515985
 20
0.8819880576044969
 10
7.478025114155253
 20
0.9479127151387434
 10
7.390125570776258
 20
1.211611345275731
 10
7.368150684931509
 20
4.178220934316826
 10
7.543949771689499
 20
4.397969792764314
 10
16.070205479452056
 20
4.463894450298561
 10
16.861301369863014
 20
4.441919564453812
 10
17.037100456621005
 20
4.222170706006324
 10
17.059075342465754
 20
1.1896364594309823
 10
16.94920091324201
 20
0.9918624868282411
 10
16.57562785388128
 20
0.9259378292939946
 10
13.565068493150688
 20
0.9698876009834922
 10
8.31307077625571
 20
0.8819880576044969
 10
7.851598173515985
 20
0.8819880576044969
  0
ENDSEC
  0
SECTION
  2
OBJECTS
  0
DICTIONARY
  5
A
330
0
100
AcDbDictionary
281
1
  3
ACAD_COLOR
350
B
  3
ACAD_GROUP
350
C
  3
ACAD_LAYOUT
350
D
  3
ACAD_MATERIAL
350
E
  3
ACAD_MLEADERSTYLE
350
F
  3
ACAD_MLINESTYLE
350
10
  3
ACAD_PLOTSETTINGS
350
11
  3
ACAD_PLOTSTYLENAME
350
12
  3
ACAD_SCALELIST
350
14
  3
ACAD_TABLESTYLE
350
15
  3
ACAD_VISUALSTYLE
350
16
  3
EZDXF_META
350
2D
  0
DICTIONARY
  5
B
330
A
100
AcDbDictionary
281
1
  0
DICTIONARY
  5
C
330
A
100
AcDbDictionary
281
1
  0
DICTIONARY
  5
D
330
A
100
AcDbDictionary
281
1
  3
Model
350
1A
  3
Layout1
350
1E
  0
DICTIONARY
  5
E
330
A
100
AcDbDictionary
281
1
  3
ByBlock
350
1F
  3
ByLayer
350
20
  3
Global
350
21
  0
DICTIONARY
  5
F
330
A
100
AcDbDictionary
281
1
  3
Standard
350
2C
  0
DICTIONARY
  5
10
330
A
100
AcDbDictionary
281
1
  3
Standard
350
22
  0
DICTIONARY
  5
11
330
A
100
AcDbDictionary
281
1
  0
ACDBDICTIONARYWDFLT
  5
12
330
A
100
AcDbDictionary
281
1
  3
Normal
350
13
100
AcDbDictionaryWithDefault
340
13
  0
ACDBPLACEHOLDER
  5
13
330
12
  0
DICTIONARY
  5
14
330
A
100
AcDbDictionary
281
1
  0
DICTIONARY
  5
15
330
A
100
AcDbDictionary
281
1
  0
DICTIONARY
  5
16
330
A
100
AcDbDictionary
281
1
  0
LAYOUT
  5
1A
330
D
100
AcDbPlotSettings
  1

  4
A3
  6

 40
7.5
 41
20.0
 42
7.5
 43
20.0
 44
420.0
 45
297.0
 46
0.0
 47
0.0
 48
0.0
 49
0.0
140
0.0
141
0.0
142
1.0
143
1.0
 70
1024
 72
1
 73
0
 74
5
  7

 75
16
 76
0
 77
2
 78
300
147
1.0
148
0.0
149
0.0
100
AcDbLayout
  1
Model
 70
1
 71
0
 10
0.0
 20
0.0
 11
420.0
 21
297.0
 12
0.0
 22
0.0
 32
0.0
 14
1e+20
 24
1e+20
 34
1e+20
 15
-1e+20
 25
-1e+20
 35
-1e+20
146
0.0
 13
0.0
 23
0.0
 33
0.0
 16
1.0
 26
0.0
 36
0.0
 17
0.0
 27
1.0
 37
0.0
 76
1
330
17
  0
LAYOUT
  5
1E
330
D
100
AcDbPlotSettings
  1

  4
A3
  6

 40
7.5
 41
20.0
 42
7.5
 43
20.0
 44
420.0
 45
297.0
 46
0.0
 47
0.0
 48
0.0
 49
0.0
140
0.0
141
0.0
142
1.0
143
1.0
 70
0
 72
1
 73
0
 74
5
  7

 75
16
 76
0
 77
2
 78
300
147
1.0
148
0.0
149
0.0
100
AcDbLayout
  1
Layout1
 70
1
 71
1
 10
0.0
 20
0.0
 11
420.0
 21
297.0
 12
0.0
 22
0.0
 32
0.0
 14
1e+20
 24
1e+20
 34
1e+20
 15
-1e+20
 25
-1e+20
 35
-1e+20
146
0.0
 13
0.0
 23
0.0
 33
0.0
 16
1.0
 26
0.0
 36
0.0
 17
0.0
 27
1.0
 37
0.0
 76
1
330
1B
  0
MATERIAL
  5
1F
102
{ACAD_REACTORS
330
E
102
}
330
E
100
AcDbMaterial
  1
ByBlock
  2

 70
0
 40
1.0
 71
1
 41
1.0
 91
-1023410177
 42
1.0
 72
1
  3

 73
1
 74
1
 75
1
 44
0.5
 73
0
 45
1.0
 46
1.0
 77
1
  4

 78
1
 79
1
170
1
 48
1.0
171
1
  6

172
1
173
1
174
1
140
1.0
141
1.0
175
1
  7

176
1
177
1
178
1
143
1.0
179
1
  8

270
1
271
1
272
1
145
1.0
146
1.0
273
1
  9

274
1
275
1
276
1
 42
1.0
 72
1
  3

 73
1
 74
1
 75
1
 94
63
  0
MATERIAL
  5
20
102
{ACAD_REACTORS
330
E
102
}
330
E
100
AcDbMaterial
  1
ByLayer
  2

 70
0
 40
1.0
 71
1
 41
1.0
 91
-1023410177
 42
1.0
 72
1
  3

 73
1
 74
1
 75
1
 44
0.5
 73
0
 45
1.0
 46
1.0
 77
1
  4

 78
1
 79
1
170
1
 48
1.0
171
1
  6

172
1
173
1
174
1
140
1.0
141
1.0
175
1
  7

176
1
177
1
178
1
143
1.0
179
1
  8

270
1
271
1
272
1
145
1.0
146
1.0
273
1
  9

274
1
275
1
276
1
 42
1.0
 72
1
  3

 73
1
 74
1
 75
1
 94
63
  0
MATERIAL
  5
21
102
{ACAD_REACTORS
330
E
102
}
330
E
100
AcDbMaterial
  1
Global
  2

 70
0
 40
1.0
 71
1
 41
1.0
 91
-1023410177
 42
1.0
 72
1
  3

 73
1
 74
1
 75
1
 44
0.5
 73
0
 45
1.0
 46
1.0
 77
1
  4

 78
1
 79
1
170
1
 48
1.0
171
1
  6

172
1
173
1
174
1
140
1.0
141
1.0
175
1
  7

176
1
177
1
178
1
143
1.0
179
1
  8

270
1
271
1
272
1
145
1.0
146
1.0
273
1
  9

274
1
275
1
276
1
 42
1.0
 72
1
  3

 73
1
 74
1
 75
1
 94
63
  0
MLINESTYLE
  5
22
102
{ACAD_REACTORS
330
10
102
}
330
10
100
AcDbMlineStyle
  2
Standard
 70
0
  3

 62
256
 51
90.0
 52
90.0
 71
2
 49
0.5
 62
256
  6
BYLAYER
 49
-0.5
 62
256
  6
BYLAYER
  0
MLEADERSTYLE
  5
2C
102
{ACAD_REACTORS
330
F
102
}
330
F
100
AcDbMLeaderStyle
179
2
170
2
171
1
172
0
 90
2
 40
0.0
 41
0.0
173
1
 91
-1056964608
 92
-2
290
1
 42
2.0
291
1
 43
8.0
  3
Standard
 44
4.0
300

342
29
174
1
175
1
176
0
178
1
 93
-1056964608
 45
4.0
292
0
297
0
 46
4.0
 94
-1056964608
 47
1.0
 49
1.0
140
1.0
294
1
141
0.0
177
0
142
1.0
295
0
296
0
143
3.75
271
0
272
9
273
9
  0
DICTIONARY
  5
2D
330
A
100
AcDbDictionary
280
1
281
1
  3
CREATED_BY_EZDXF
350
2E
  3
WRITTEN_BY_EZDXF
350
43
  0
DICTIONARYVAR
  5
2E
330
2D
100
DictionaryVariables
280
0
  1
1.4.2 @ 2025-08-19T01:22:05.951872+00:00
  0
DICTIONARYVAR
  5
43
330
2D
100
DictionaryVariables
280
0
  1
1.4.2 @ 2025-08-19T01:22:05.962362+00:00
  0
ENDSEC
  0
EOF
